<?xml version="1.0" standalone="no"?>
<!DOCTYPE svg PUBLIC "-//W3C//DTD SVG 1.1//EN" "http://www.w3.org/Graphics/SVG/1.1/DTD/svg11.dtd" >
<svg xmlns="http://www.w3.org/2000/svg" xmlns:xlink="http://www.w3.org/1999/xlink" version="1.1">
<metadata>
Created by FontForge 20201107 at Wed Jul 17 03:03:09 2024
 By 
Copyright (c) 2021 by Connary Fagen. All rights reserved.
</metadata>
<defs>
<font id="GreycliffCF-Thin" horiz-adv-x="1136" >
  <font-face 
    font-family="Greycliff CF Thin"
    font-weight="100"
    font-stretch="normal"
    units-per-em="2048"
    panose-1="0 0 0 0 0 0 0 0 0 0"
    ascent="1638"
    descent="-410"
    x-height="1004"
    cap-height="1434"
    bbox="-287 -461 2267 2243"
    underline-thickness="102"
    underline-position="-255"
    unicode-range="U+0020-FEFF"
  />
<missing-glyph horiz-adv-x="1013" 
d="M831 1638v-2027h-643v2027h643zM338 -250h338v68h-207l141 96h66v66h-338v-66h143l-143 -96v-68zM338 27h338v229h-338v-229zM338 377h338v229h-203v-112h68v45h67v-95h-202v162h-68v-229zM338 651h338v203h-68v-133h-270v-70zM338 766h203v143h135v66h-338v-66h135v-75
h-135v-68zM338 1030h338v70h-135v141h-203v-211zM338 1294h338v66h-135v76h135v67h-336v-67h133v-76h-135v-66zM406 94v94h202v-94h-202zM406 1100v71h67v-71h-67z" />
    <glyph glyph-name=".notdef" horiz-adv-x="1013" 
d="M831 1638v-2027h-643v2027h643zM338 -250h338v68h-207l141 96h66v66h-338v-66h143l-143 -96v-68zM338 27h338v229h-338v-229zM338 377h338v229h-203v-112h68v45h67v-95h-202v162h-68v-229zM338 651h338v203h-68v-133h-270v-70zM338 766h203v143h135v66h-338v-66h135v-75
h-135v-68zM338 1030h338v70h-135v141h-203v-211zM338 1294h338v66h-135v76h135v67h-336v-67h133v-76h-135v-66zM406 94v94h202v-94h-202zM406 1100v71h67v-71h-67z" />
    <glyph glyph-name=".null" horiz-adv-x="0" 
 />
    <glyph glyph-name="nonmarkingreturn" horiz-adv-x="682" 
 />
    <glyph glyph-name="space" unicode=" " horiz-adv-x="415" 
 />
    <glyph glyph-name="exclam" unicode="!" horiz-adv-x="399" 
d="M195 352q-23 0 -23 27l-10 1028q0 27 22 27h33q25 0 25 -27l-11 -1028q0 -27 -24 -27h-12zM129 43q0 28 21 49t49 21q29 0 50 -21t21 -49q0 -30 -20.5 -50t-50.5 -20q-28 0 -49 20t-21 50z" />
    <glyph glyph-name="quotedbl" unicode="&#x22;" horiz-adv-x="430" 
d="M287 989q-28 0 -25 25l-6 393q3 27 29 27h18q26 0 29 -27l-6 -393q3 -25 -25 -25h-14zM98 1407q3 27 29 27h18q26 0 29 -27l-6 -393q3 -25 -25 -25h-14q-28 0 -25 25z" />
    <glyph glyph-name="numbersign" unicode="#" horiz-adv-x="1386" 
d="M244 0q-16 0 -19.5 9t2.5 26l107 401h-180q-27 0 -21 25l4 18q5 23 31 23h182l115 430h-180q-27 0 -21 22l4 19q5 24 31 24h182l109 412q6 25 28 25h21q16 0 19.5 -9t-1.5 -26l-106 -402h434l109 412q6 25 28 25h21q16 0 19.5 -9t-1.5 -26l-106 -402h178q14 0 18.5 -5.5
t1.5 -18.5l-4 -19q-5 -22 -30 -22h-181l-114 -430h178q14 0 18.5 -5t1.5 -18l-4 -18q-6 -25 -31 -25h-180l-108 -411q-6 -25 -31 -25h-20q-16 0 -19.5 9t2.5 26l107 401h-435l-108 -411q-6 -25 -31 -25h-20zM420 502h434l115 430h-434z" />
    <glyph glyph-name="dollar" unicode="$" horiz-adv-x="884" 
d="M410 1409q0 25 24 25h21q13 0 17.5 -5.5t4.5 -19.5v-160q146 -13 234 -127q19 -23 -2 -47q-15 -15 -25.5 -14t-24.5 16q-89 105 -217 105q-87 0 -150 -44t-63 -130q0 -45 13.5 -77.5t46 -58t64 -41.5t89.5 -40l74 -31q116 -47 179.5 -111.5t64.5 -173.5
q0 -118 -80.5 -190.5t-202.5 -83.5v-176q0 -14 -4.5 -19.5t-17.5 -5.5h-21q-24 0 -24 25v174q-94 7 -162 48.5t-109 92.5q-22 25 -6 47l8 10q5 8 18.5 7.5t24.5 -13.5q92 -123 256 -123q113 0 181.5 52t68.5 149q0 83 -48 132t-140 87l-113 47q-50 22 -87 43.5t-71.5 53.5
t-52.5 74.5t-18 94.5q0 105 70.5 172t179.5 76v160zM709 1075l2 2z" />
    <glyph glyph-name="percent" unicode="%" horiz-adv-x="1490" 
d="M383 891q-115 0 -198 79.5t-83 194.5q0 117 83 198t198 81t198 -81t83 -198q0 -115 -83 -194.5t-198 -79.5zM168 1165q0 -93 61.5 -153t153.5 -60t153.5 60t61.5 153q0 96 -61.5 156.5t-153.5 60.5t-153.5 -60.5t-61.5 -156.5zM256 49l926 1370q17 27 35 13l14 -13
q17 -14 4 -35l-926 -1370q-16 -26 -35 -12l-14 12q-17 14 -4 35zM827 264q0 117 83 198t198 81t198 -81t83 -198q0 -115 -83 -194.5t-198 -79.5t-198 79.5t-83 194.5zM893 264q0 -93 61.5 -153t153.5 -60t153.5 60t61.5 153q0 97 -61.5 157t-153.5 60t-153.5 -60t-61.5 -157
z" />
    <glyph glyph-name="ampersand" unicode="&#x26;" horiz-adv-x="1382" 
d="M528 -27q-177 0 -291 103t-114 284q0 78 22 143t71 123.5t109 107.5t152 110q-92 101 -137 178t-45 164q0 108 73.5 182t198.5 74q123 0 198 -74.5t75 -181.5q0 -102 -65.5 -186t-196.5 -175l411 -467l160 265q7 10 20 10h45q6 0 9.5 -5.5t-2.5 -17.5l-185 -311l228 -256
q16 -23 -4 -43l-7 -4q-23 -23 -41 2l-211 242q-196 -267 -473 -267zM199 371q0 -82 27.5 -146t74.5 -102.5t105.5 -58t125.5 -19.5q234 0 422 252l-432 491q-74 -50 -113.5 -78.5t-86.5 -71t-69.5 -78t-38 -84t-15.5 -105.5zM367 1184q0 -44 14.5 -87.5t44 -86t49.5 -67
t55 -62.5q126 84 182 147.5t56 149.5q0 89 -56.5 142.5t-144.5 53.5t-144 -52t-56 -138z" />
    <glyph glyph-name="quotesingle" unicode="'" horiz-adv-x="272" 
d="M129 989q-28 0 -25 25l-6 393q3 27 29 27h18q26 0 29 -27l-6 -393q3 -25 -25 -25h-14z" />
    <glyph glyph-name="parenleft" unicode="(" horiz-adv-x="520" 
d="M360 -266q-25 0 -36 20q-99 173 -147 416t-48 485q0 217 50.5 448.5t144.5 401.5q12 21 36 21h2q17 0 24 -10t1 -27q-91 -174 -140.5 -390.5t-49.5 -443.5q0 -240 49 -469t139 -415q7 -17 0.5 -27t-23.5 -10h-2z" />
    <glyph glyph-name="parenright" unicode=")" horiz-adv-x="520" 
d="M158 -266q-17 0 -23.5 10t0.5 27q90 186 139.5 415.5t49.5 468.5q0 226 -50 443t-141 391q-6 17 1 27t24 10h2q25 0 37 -21q94 -169 144 -400.5t50 -449.5q0 -242 -47.5 -485t-146.5 -416q-11 -20 -37 -20h-2z" />
    <glyph glyph-name="asterisk" unicode="*" horiz-adv-x="858" 
d="M395 1206l-10 228h86l-8 -228h-68zM143 1188l21 84l223 -72l-22 -72zM225 932l142 188l57 -47l-127 -188zM434 1073l58 47l141 -188l-72 -47zM471 1200l223 72l21 -84l-221 -60z" />
    <glyph glyph-name="plus" unicode="+" horiz-adv-x="819" 
d="M397 303q-26 0 -26 27v209h-211q-27 0 -27 28v27q0 27 27 27h211v206q0 27 26 27h27q29 0 29 -27v-206h206q27 0 27 -27v-27q0 -28 -27 -28h-206v-209q0 -27 -29 -27h-27z" />
    <glyph glyph-name="comma" unicode="," horiz-adv-x="389" 
d="M96 -203q73 3 107 68q24 48 10 82q-9 19 -27 18q-40 -3 -62 16.5t-22 53.5t24.5 56t57.5 22q45 0 75 -42.5t30 -101.5q0 -27 -5 -54.5t-18.5 -57.5t-34.5 -53t-56 -38t-79 -16v47z" />
    <glyph glyph-name="hyphen" unicode="-" horiz-adv-x="897" 
d="M143 551q-13 0 -18.5 5.5t-5.5 18.5v23q0 25 24 25h611q24 0 24 -25v-23q0 -13 -5 -18.5t-19 -5.5h-611z" />
    <glyph glyph-name="period" unicode="." horiz-adv-x="337" 
d="M168 -27q-28 0 -49 20t-21 50q0 28 21 49t49 21q29 0 50.5 -21t21.5 -49q0 -30 -21 -50t-51 -20z" />
    <glyph glyph-name="slash" unicode="/" horiz-adv-x="815" 
d="M66 -266q-33 0 -21 35l655 1732q9 25 33 25h17q32 0 20 -35l-655 -1733q-9 -24 -33 -24h-16z" />
    <glyph glyph-name="zero" unicode="0" horiz-adv-x="1228" 
d="M614 -27q-164 0 -279 93.5t-170.5 257.5t-55.5 387q0 225 55.5 389t170 257t279.5 93q164 0 278.5 -93t170 -257.5t55.5 -388.5q0 -223 -55.5 -387t-170 -257.5t-278.5 -93.5zM182 711q0 -322 116.5 -494t315.5 -172q198 0 315.5 172.5t117.5 493.5q0 324 -117 495.5
t-316 171.5q-200 0 -316 -171.5t-116 -495.5z" />
    <glyph glyph-name="one" unicode="1" horiz-adv-x="532" 
d="M344 0q-22 0 -22 27v1339h-213q-13 0 -17 6t-4 21v14q0 15 4 21t17 6h258q24 0 24 -27v-1380q0 -27 -24 -27h-23z" />
    <glyph glyph-name="two" unicode="2" horiz-adv-x="985" 
d="M115 0q-29 0 -29 27v22q0 25 14 39l455 578q41 51 61 77t53 75.5t49 85.5t29 84t13 95q0 131 -83 214t-222 83q-51 0 -95 -12t-73 -28.5t-56 -42.5t-41 -45.5t-30 -45.5q-6 -11 -17.5 -13t-17.5 5l-16 12q-11 11 -11.5 19.5t8.5 25.5q120 195 349 195q173 0 274.5 -106
t101.5 -261q0 -112 -53 -211.5t-151 -220.5l-457 -583h631q28 0 28 -27v-14q0 -27 -28 -27h-686z" />
    <glyph glyph-name="three" unicode="3" horiz-adv-x="1015" 
d="M463 -27q-235 0 -369 187q-14 17 6 37l17 14q16 16 30 -4q44 -65 124 -114.5t196 -49.5q155 0 254.5 95.5t99.5 250.5q0 87 -33 156t-88 111.5t-121 64.5t-137 22h-24q-16 0 -21.5 4t-5.5 17v24q0 23 27 23h26q136 0 225 85t89 216q0 116 -76 192t-203 76
q-176 0 -280 -159q-17 -20 -35 -4l-19 14q-10 12 2 33q50 81 136 133.5t196 52.5q156 0 251 -97.5t95 -236.5q0 -107 -57 -195t-166 -143q133 -40 212 -144.5t79 -248.5q0 -174 -119.5 -293t-310.5 -119z" />
    <glyph glyph-name="four" unicode="4" horiz-adv-x="1067" 
d="M735 0q-22 0 -22 27v352h-584q-13 0 -22 8.5t-9 22.5v26q0 15 8 25l594 952q15 21 33 21h23q26 0 26 -31v-957h166q13 0 17 -6t4 -20v-14q0 -15 -4 -21t-17 -6h-166v-352q0 -27 -22 -27h-25zM178 446h535v857z" />
    <glyph glyph-name="five" unicode="5" horiz-adv-x="1095" 
d="M512 -27q-122 0 -221.5 50t-155.5 120q-17 26 0 37l19 19q18 12 36 -13q50 -58 133 -100.5t189 -42.5q162 0 278.5 112.5t116.5 297.5q0 179 -109 287t-270 108q-85 0 -172 -35t-149 -121q-10 -18 -51 0h2q-27 9 -21 37l139 678q7 27 33 27h549q13 0 17 -6t4 -21v-14
q0 -15 -4 -21t-17 -6h-520l-119 -555q54 50 136.5 78.5t172.5 28.5q120 0 220 -54t162.5 -161t62.5 -248q0 -109 -36.5 -200.5t-99.5 -152.5t-147 -95t-178 -34z" />
    <glyph glyph-name="six" unicode="6" horiz-adv-x="1128" 
d="M561 -27q-193 0 -315.5 131.5t-122.5 325.5q0 173 117 330l512 696q16 25 34 10l25 -18q9 -10 8.5 -15t-8.5 -18l-440 -579q76 49 196 49q186 0 311.5 -124.5t125.5 -322.5t-124 -331.5t-319 -133.5zM193 432q0 -172 105.5 -280.5t264.5 -108.5t266 108.5t107 280.5
t-106.5 279.5t-266.5 107.5q-159 0 -264.5 -107.5t-105.5 -279.5z" />
    <glyph glyph-name="seven" unicode="7" horiz-adv-x="995" 
d="M299 0q-14 0 -18.5 10.5t0.5 22.5l567 1333h-739q-13 0 -17 6t-4 21v14q0 15 4 21t17 6h804q12 0 18.5 -11t0.5 -24l-580 -1368q-9 -17 -15.5 -24t-17.5 -7h-20z" />
    <glyph glyph-name="eight" unicode="8" horiz-adv-x="1069" 
d="M535 -27q-187 0 -306.5 118t-119.5 294q0 152 87 258t212 141q-105 38 -163.5 127.5t-58.5 196.5q0 142 97.5 242t251.5 100t251 -100t97 -242q0 -107 -58 -196.5t-163 -127.5q125 -35 212 -141t87 -258q0 -177 -119 -294.5t-307 -117.5zM174 389q0 -152 100.5 -252
t260.5 -100q161 0 261.5 99t100.5 253t-104 253t-258 99q-153 0 -257 -99.5t-104 -252.5zM252 1108q0 -124 79 -206.5t204 -82.5t204.5 82.5t79.5 206.5t-78 200t-206 76q-127 0 -205 -76.5t-78 -199.5z" />
    <glyph glyph-name="nine" unicode="9" horiz-adv-x="1128" 
d="M315 -25q-8 11 -7.5 15t9.5 18l441 580q-73 -47 -199 -47q-186 0 -311 123t-125 321t124 331.5t320 133.5q193 0 315 -131.5t122 -325.5q0 -175 -115 -329l-512 -697q-16 -25 -37 -10zM193 991q0 -172 105.5 -279.5t264.5 -107.5q160 0 266.5 107.5t106.5 279.5
t-107 280.5t-266 108.5q-158 0 -264 -108.5t-106 -280.5z" />
    <glyph glyph-name="colon" unicode=":" horiz-adv-x="337" 
d="M168 -27q-28 0 -49 20t-21 50q0 28 21 49t49 21q29 0 50.5 -21t21.5 -49q0 -30 -21 -50t-51 -20zM98 958q0 28 21 49t49 21q29 0 50.5 -21t21.5 -49q0 -30 -21 -49.5t-51 -19.5q-29 0 -49.5 19.5t-20.5 49.5z" />
    <glyph glyph-name="semicolon" unicode=";" horiz-adv-x="389" 
d="M170 889q-29 0 -49.5 19.5t-20.5 49.5q0 28 21 49t49 21q29 0 50.5 -21t21.5 -49q0 -30 -21 -49.5t-51 -19.5zM96 -250v47q73 3 107 68q24 48 10 82q-9 19 -27 18q-40 -3 -62 16.5t-22 53.5t24.5 56t57.5 22q45 0 75 -42.5t30 -101.5q0 -27 -5 -54.5t-18.5 -57.5
t-34.5 -53t-56 -38t-79 -16z" />
    <glyph glyph-name="less" unicode="&#x3c;" horiz-adv-x="1058" 
d="M145 461q-22 9 -22 39v24q0 24 22 37l754 424q15 10 26 4.5t11 -22.5v-19q0 -25 -23 -35l-731 -399l731 -401q23 -13 23 -33v-21q0 -17 -11 -22t-26 4z" />
    <glyph glyph-name="equal" unicode="=" horiz-adv-x="860" 
d="M160 651q-27 0 -27 29v27q0 26 27 26h540q27 0 27 -26v-27q0 -29 -27 -29h-540zM133 459v26q0 27 27 27h540q27 0 27 -27v-26q0 -29 -27 -29h-540q-27 0 -27 29z" />
    <glyph glyph-name="greater" unicode="&#x3e;" horiz-adv-x="1058" 
d="M160 41q-15 -9 -26 -4t-11 22v21q0 20 22 33l732 401l-732 399q-22 9 -22 35v19q0 17 11 22.5t26 -4.5l753 -424q23 -13 23 -37v-24q0 -29 -23 -39z" />
    <glyph glyph-name="question" unicode="?" horiz-adv-x="911" 
d="M406 332q-25 0 -25 30l2 74q1 73 20 136t48.5 108.5t65.5 86.5t71.5 80t64.5 78.5t47.5 91t18.5 109.5q0 125 -75 189.5t-195 64.5q-52 0 -96.5 -13t-75.5 -33.5t-57 -48.5t-41 -53.5t-27 -53.5q-9 -20 -46 2q-23 13 -12 34q15 39 41 76.5t68 75.5t106 61t140 23
q153 0 245 -87.5t92 -234.5q0 -63 -18.5 -118.5t-47.5 -98t-64.5 -83t-71 -82t-64.5 -86t-48 -103.5t-19 -127v-68q3 -30 -23 -30h-24zM346 43q0 28 21 49t49 21q29 0 50 -21t21 -49q0 -30 -20.5 -50t-50.5 -20q-28 0 -49 20t-21 50z" />
    <glyph glyph-name="at" unicode="@" horiz-adv-x="1777" 
d="M889 -27q-144 0 -277 53.5t-235 148t-162.5 235.5t-60.5 305q0 168 62.5 309t167 233t237.5 142.5t276 50.5q117 0 225 -32.5t198.5 -97.5t158 -154.5t105.5 -210.5t38 -259q0 -95 -18.5 -167t-46 -112t-65.5 -64.5t-70 -32t-66 -7.5q-73 0 -124 38t-69 114
q-53 -71 -135.5 -111.5t-177.5 -40.5q-164 0 -269.5 110t-105.5 275q0 166 109 279t276 113q106 0 189 -47t133 -132l35 144h69l-51 -498q-15 -176 129 -176q188 0 188 309q0 140 -37.5 256t-100.5 194.5t-147.5 132.5t-176.5 78.5t-189 24.5q-99 0 -194 -24.5t-183 -77.5
t-154 -129t-105.5 -187t-39.5 -243q0 -130 40.5 -241.5t108.5 -188.5t156 -131.5t182 -80.5t189 -26q203 0 352 117l50 -53q-171 -138 -414 -138zM551 702q0 -141 82.5 -230t224.5 -89q143 0 228 89.5t85 229.5q0 139 -85.5 228.5t-227.5 89.5t-224.5 -89t-82.5 -229z" />
    <glyph glyph-name="A" unicode="A" horiz-adv-x="1378" 
d="M150 0q-17 0 -22.5 10t1.5 25l506 1374q9 25 37 25h35q25 0 34 -25l508 -1374q6 -15 0.5 -25t-22.5 -10h-23q-22 0 -30 25l-127 346h-717l-125 -346q-8 -25 -35 -25h-20zM354 438h668l-334 916z" />
    <glyph glyph-name="B" unicode="B" horiz-adv-x="1187" 
d="M221 0q-26 0 -26 27v1380q0 27 26 27h377q88 0 157 -20.5t111 -53t69 -78t37.5 -90.5t10.5 -94q0 -107 -52.5 -193.5t-166.5 -122.5q149 -32 225 -138.5t76 -248.5q0 -178 -119.5 -286.5t-345.5 -108.5h-379zM268 70h326q198 0 297.5 85t99.5 246q0 158 -100.5 249
t-296.5 91h-326v-671zM268 811h340q137 0 219 77.5t82 211.5t-79.5 199t-221.5 65h-340v-553z" />
    <glyph glyph-name="C" unicode="C" horiz-adv-x="1513" 
d="M874 -27q-158 0 -293.5 58t-228.5 157t-145.5 234.5t-52.5 288.5t52.5 288.5t145.5 235t228.5 157.5t293.5 58q268 0 474 -172q10 -10 14 -15t4.5 -15t-8.5 -21l-8 -13q-12 -10 -21 -9.5t-26 12.5q-188 161 -424 161q-184 0 -333 -86t-233 -238.5t-84 -342.5
q0 -142 49.5 -266t135.5 -211.5t206.5 -138t258.5 -50.5q234 0 424 162q16 13 25.5 13.5t17.5 -9.5l12 -14q11 -11 10 -21.5t-4.5 -14.5t-15.5 -16q-206 -172 -474 -172z" />
    <glyph glyph-name="D" unicode="D" horiz-adv-x="1345" 
d="M221 0q-26 0 -26 27v1380q0 27 26 27h252q186 0 327 -53.5t227.5 -150.5t129.5 -226t43 -287t-43 -287t-129.5 -226t-227.5 -150.5t-327 -53.5h-252zM268 70h205q333 0 493 169.5t160 477.5t-160 477.5t-493 169.5h-205v-1294z" />
    <glyph glyph-name="E" unicode="E" horiz-adv-x="1089" 
d="M221 0q-26 0 -26 27v1380q0 27 26 27h664q26 0 26 -27v-14q0 -29 -26 -29h-617v-582h586q27 0 27 -26v-15q0 -28 -27 -28h-586v-643h619q28 0 28 -29v-14q0 -27 -28 -27h-666z" />
    <glyph glyph-name="F" unicode="F" horiz-adv-x="1050" 
d="M221 0q-26 0 -26 27v1380q0 27 26 27h639q27 0 27 -27v-14q0 -29 -27 -29h-592v-567h566q26 0 26 -29v-14q0 -27 -26 -27h-566v-700q0 -27 -26 -27h-21z" />
    <glyph glyph-name="G" unicode="G" horiz-adv-x="1679" 
d="M883 -27q-211 0 -379 99t-259 267t-91 372q0 152 53.5 288t148.5 235.5t232.5 157.5t296.5 58q276 0 477 -186q15 -15 6 -27l-22 -31q-13 -13 -29 0q-197 172 -434 172q-138 0 -259.5 -51t-208 -139.5t-136.5 -212t-50 -264.5q0 -188 85 -340.5t234.5 -239t332.5 -86.5
q171 0 307 74t211 209t71 305h-559q-28 0 -28 26v19q0 27 28 27h605q13 0 21.5 -8.5t8.5 -22.5v-27q0 -193 -79.5 -345t-231.5 -240.5t-352 -88.5z" />
    <glyph glyph-name="H" unicode="H" horiz-adv-x="1300" 
d="M221 0q-26 0 -26 27v1380q0 27 26 27h21q26 0 26 -27v-657h764v657q0 27 27 27h18q29 0 29 -27v-1380q0 -27 -29 -27h-18q-27 0 -27 27v653h-764v-653q0 -27 -26 -27h-21z" />
    <glyph glyph-name="I" unicode="I" horiz-adv-x="462" 
d="M221 0q-26 0 -26 27v1380q0 27 26 27h21q26 0 26 -27v-1380q0 -27 -26 -27h-21z" />
    <glyph glyph-name="J" unicode="J" horiz-adv-x="974" 
d="M420 -27q-97 0 -164.5 34.5t-122.5 94.5q-16 21 2 39l12 15q16 19 33 2q62 -58 114 -85.5t130 -27.5q137 0 210 96t73 285v981q0 27 26 27h21q26 0 26 -27v-993q0 -215 -95.5 -328t-264.5 -113z" />
    <glyph glyph-name="K" unicode="K" horiz-adv-x="1189" 
d="M221 0q-26 0 -26 27v1380q0 27 26 27h21q26 0 26 -27v-866l666 876q14 17 37 17h26q21 0 25.5 -10t-8.5 -27l-502 -645l559 -715q11 -15 6 -26t-24 -11h-23q-24 0 -37 18l-524 678l-201 -258v-411q0 -27 -26 -27h-21z" />
    <glyph glyph-name="L" unicode="L" horiz-adv-x="999" 
d="M221 0q-26 0 -26 27v1380q0 27 26 27h21q26 0 26 -27v-1337h568q13 0 21.5 -8.5t8.5 -22.5v-8q0 -14 -8.5 -22.5t-21.5 -8.5h-615z" />
    <glyph glyph-name="M" unicode="M" horiz-adv-x="1779" 
d="M221 0q-26 0 -26 27v1380q0 27 26 27h58q21 0 30 -21l580 -1341l579 1341q9 21 33 21h55q27 0 27 -27v-1380q0 -27 -27 -27h-18q-29 0 -29 27v1310l-565 -1317q-8 -20 -33 -20h-43q-25 0 -32 20l-568 1317v-1310q0 -27 -26 -27h-21z" />
    <glyph glyph-name="N" unicode="N" horiz-adv-x="1335" 
d="M1065 0q-26 0 -37 20l-760 1328v-1321q0 -27 -26 -27h-21q-26 0 -26 27v1380q0 27 24 27h53q25 0 37 -21l758 -1327v1321q0 27 27 27h20q27 0 27 -27v-1380q0 -27 -25 -27h-51z" />
    <glyph glyph-name="O" unicode="O" horiz-adv-x="1769" 
d="M885 -27q-153 0 -289 57.5t-233 156t-153 235t-56 289.5q0 205 95.5 374.5t263 267t372.5 97.5q153 0 288.5 -57.5t232 -155.5t152.5 -235t56 -291q0 -153 -56 -289.5t-152.5 -235t-232 -156t-288.5 -57.5zM229 711q0 -141 50 -264.5t137 -211.5t208.5 -139t260.5 -51
q184 0 334 86.5t235.5 239t85.5 340.5q0 141 -50 265t-137 212.5t-208.5 139t-259.5 50.5q-185 0 -335 -86.5t-235.5 -239t-85.5 -341.5z" />
    <glyph glyph-name="P" unicode="P" horiz-adv-x="1177" 
d="M221 0q-26 0 -26 27v1380q0 27 26 27h369q215 0 334.5 -120.5t119.5 -314.5q0 -193 -119.5 -313.5t-334.5 -120.5h-322v-538q0 -27 -26 -27h-21zM268 635h310q86 0 155.5 20.5t123 63t83 113.5t29.5 167q0 187 -106.5 276t-284.5 89h-310v-729z" />
    <glyph glyph-name="Q" unicode="Q" horiz-adv-x="1769" 
d="M1597 -20q-22 -19 -43 4l-176 176q-206 -187 -493 -187q-153 0 -289 57.5t-233 156t-153 235t-56 289.5q0 205 95.5 374.5t263 267t372.5 97.5q153 0 288.5 -57.5t232 -155.5t152.5 -235t56 -291q0 -144 -49.5 -273t-139.5 -229l179 -178q22 -21 4 -39zM229 711
q0 -141 50 -264.5t137 -211.5t208.5 -139t260.5 -51q258 0 442 166l-205 205q-22 22 -2 39l10 10q12 12 21 11t23 -13l202 -203q164 188 164 451q0 141 -50 265t-137 212.5t-208.5 139t-259.5 50.5q-185 0 -335 -86.5t-235.5 -239t-85.5 -341.5z" />
    <glyph glyph-name="R" unicode="R" horiz-adv-x="1161" 
d="M981 0q-26 0 -37 20l-375 545h-301v-538q0 -27 -26 -27h-21q-26 0 -26 27v1380q0 27 26 27h369q215 0 334.5 -120.5t119.5 -314.5q0 -178 -102.5 -296t-290.5 -136l369 -530q10 -17 4 -27t-25 -10h-18zM268 635h310q86 0 155.5 20.5t123 63t83 113.5t29.5 167
q0 187 -106.5 276t-284.5 89h-310v-729z" />
    <glyph glyph-name="S" unicode="S" horiz-adv-x="1087" 
d="M539 -25q-272 0 -404 207q-15 24 4 45l6 6q14 12 27.5 9t20.5 -15q118 -182 350 -182q162 0 253 83t91 220q0 55 -17 101.5t-42 80.5t-68.5 67.5t-83 56t-98.5 51.5l-175 86q-233 110 -233 327q0 147 106.5 239.5t266.5 92.5q227 0 358 -178q14 -20 12.5 -29t-14.5 -22
q-26 -24 -53 6q-118 153 -303 153q-129 0 -214 -66.5t-85 -191.5q0 -89 48 -155t150 -117l181 -90q61 -31 103.5 -55.5t90.5 -62.5t77 -77.5t48 -95t19 -119.5q0 -166 -113.5 -270.5t-308.5 -104.5z" />
    <glyph glyph-name="T" unicode="T" horiz-adv-x="1079" 
d="M530 0q-26 0 -26 27v1337h-324q-26 0 -26 29v14q0 27 26 27h719q27 0 27 -27v-14q0 -29 -27 -29h-321v-1337q0 -27 -29 -27h-19z" />
    <glyph glyph-name="U" unicode="U" horiz-adv-x="1253" 
d="M627 -27q-201 0 -322 121.5t-121 335.5v977q0 27 27 27h20q27 0 27 -27v-954q0 -204 101.5 -306t267.5 -102t267 102t101 306v954q0 27 29 27h18q27 0 27 -27v-977q0 -215 -119.5 -336t-322.5 -121z" />
    <glyph glyph-name="V" unicode="V" horiz-adv-x="1378" 
d="M672 0q-28 0 -37 25l-506 1374q-7 15 -1.5 25t22.5 10h20q27 0 35 -25l483 -1333l486 1333q8 25 30 25h23q17 0 22.5 -10t-0.5 -25l-508 -1374q-9 -25 -34 -25h-35z" />
    <glyph glyph-name="W" unicode="W" horiz-adv-x="2213" 
d="M592 0q-23 0 -33 25l-434 1374q-10 35 25 35h14q24 0 35 -25l411 -1315l445 1315q8 25 32 25h39q25 0 33 -25l445 -1315l411 1315q11 25 35 25h14q17 0 23.5 -10t1.5 -25l-434 -1374q-10 -25 -33 -25h-37q-23 0 -33 25l-444 1318l-446 -1318q-10 -25 -33 -25h-37z" />
    <glyph glyph-name="X" unicode="X" horiz-adv-x="1263" 
d="M164 0q-18 0 -21 12t7 25l440 700l-420 660q-10 13 -7 25t21 12h29q12 0 19 -4t14 -17l385 -616l385 616q14 21 35 21h28q18 0 20.5 -12t-7.5 -25l-418 -660l438 -700q10 -13 8 -25t-20 -12h-25q-22 0 -33 20l-411 654l-410 -654q-9 -13 -15 -16.5t-18 -3.5h-24z" />
    <glyph glyph-name="Y" unicode="Y" horiz-adv-x="1185" 
d="M584 0q-29 0 -29 27v673l-426 697q-10 13 -6 25t22 12h31q21 0 33 -21l385 -637l383 637q12 21 33 21h30q18 0 22.5 -12t-5.5 -25l-426 -697v-673q0 -27 -29 -27h-18z" />
    <glyph glyph-name="Z" unicode="Z" horiz-adv-x="1171" 
d="M170 0q-27 0 -27 27v24q0 17 13 37l759 1276h-725q-26 0 -26 29v14q0 27 26 27h779q28 0 28 -27v-25q0 -18 -12 -36l-760 -1276h764q29 0 29 -29v-14q0 -27 -29 -27h-819z" />
    <glyph glyph-name="bracketleft" unicode="[" horiz-adv-x="532" 
d="M154 -266q-25 0 -25 24v1743q0 25 25 25h225q13 0 17.5 -5.5t4.5 -19.5v-18q0 -14 -4.5 -19.5t-17.5 -5.5h-174v-1657h174q13 0 17.5 -5t4.5 -19v-19q0 -14 -4.5 -19t-17.5 -5h-225z" />
    <glyph glyph-name="backslash" unicode="\" horiz-adv-x="815" 
d="M733 -266q-24 0 -33 24l-655 1733q-12 35 21 35h16q24 0 33 -25l655 -1732q12 -35 -20 -35h-17z" />
    <glyph glyph-name="bracketright" unicode="]" horiz-adv-x="532" 
d="M154 -266q-13 0 -18 5t-5 19v19q0 14 5 19t18 5h174v1657h-174q-13 0 -18 5.5t-5 19.5v18q0 14 5 19.5t18 5.5h225q24 0 24 -25v-1743q0 -14 -5.5 -19t-18.5 -5h-225z" />
    <glyph glyph-name="asciicircum" unicode="^" horiz-adv-x="1204" 
d="M549 1411q10 23 39 23h24q24 0 37 -23l424 -754q10 -15 4.5 -25.5t-22.5 -10.5h-19q-26 0 -35 22l-399 731l-401 -731q-13 -22 -33 -22h-21q-17 0 -22 10.5t4 25.5z" />
    <glyph glyph-name="underscore" unicode="_" horiz-adv-x="1269" 
d="M147 -72q-24 0 -24 25v22q0 25 24 25h975q25 0 25 -25v-22q0 -25 -25 -25h-975z" />
    <glyph glyph-name="grave" unicode="`" horiz-adv-x="249" 
d="M176 1141q-20 0 -33 24l-110 238q-14 31 18 31h25q22 0 33 -25l108 -238q13 -30 -18 -30h-23z" />
    <glyph glyph-name="a" unicode="a" horiz-adv-x="1294" 
d="M629 -25q-224 0 -365 149t-141 378q0 228 141 377t365 149q143 0 250.5 -67.5t167.5 -186.5l4 203q0 27 24 27h21q24 0 24 -27v-950q0 -27 -22 -27h-23q-24 0 -24 27l-4 196q-58 -117 -166 -182.5t-252 -65.5zM190 502q0 -203 122.5 -330t314.5 -127q188 0 306 124.5
t118 326.5q0 204 -118.5 333t-305.5 129q-191 0 -314 -127t-123 -329z" />
    <glyph glyph-name="b" unicode="b" horiz-adv-x="1294" 
d="M668 -25q-146 0 -254 65.5t-166 182.5l-4 -196q0 -27 -25 -27h-22q-23 0 -23 27v1411q0 26 25 26h20q25 0 25 -26v-666q60 120 169.5 188t254.5 68q222 0 362.5 -149t140.5 -377q0 -229 -140 -378t-363 -149zM244 496q0 -202 118 -326.5t306 -124.5q191 0 313.5 127
t122.5 330q0 202 -122.5 329t-313.5 127q-187 0 -305.5 -129t-118.5 -333z" />
    <glyph glyph-name="c" unicode="c" horiz-adv-x="1150" 
d="M639 -25q-219 0 -367.5 150t-148.5 375q0 226 149.5 377t370.5 151q233 0 371 -160q10 -15 11 -22t-7 -17l-10 -10q-20 -21 -43 2q-60 65 -134.5 101t-185.5 36q-192 0 -321 -128t-129 -330q0 -203 129 -329t323 -126q111 0 185 35.5t131 97.5q9 9 14.5 13t14.5 3t18 -10
l10 -10q8 -10 7 -17t-11 -22q-138 -160 -377 -160z" />
    <glyph glyph-name="d" unicode="d" horiz-adv-x="1294" 
d="M629 -25q-224 0 -365 149t-141 378q0 228 141 377t365 149q143 0 252.5 -68t169.5 -188v666q0 26 24 26h21q24 0 24 -26v-1411q0 -27 -22 -27h-23q-24 0 -24 27l-4 196q-58 -117 -166 -182.5t-252 -65.5zM190 502q0 -203 122.5 -330t314.5 -127q188 0 306 124.5
t118 326.5q0 204 -118.5 333t-305.5 129q-191 0 -314 -127t-123 -329z" />
    <glyph glyph-name="e" unicode="e" horiz-adv-x="1208" 
d="M645 -25q-159 0 -279.5 73.5t-181.5 193t-61 264.5q0 147 62.5 265.5t176.5 187.5t259 69q107 0 196 -39.5t146 -106t88.5 -151t31.5 -176.5q0 -47 -10 -61.5t-43 -14.5h-840q11 -191 131 -313.5t328 -122.5q182 0 322 115q6 6 14.5 7t13.5 -5l13 -13q7 -9 6.5 -17.5
t-3 -11.5t-11.5 -12q-68 -64 -161.5 -97.5t-197.5 -33.5zM195 547h825q-2 179 -111 294t-291 115t-296.5 -112.5t-126.5 -296.5z" />
    <glyph glyph-name="f" unicode="f" horiz-adv-x="675" 
d="M287 0q-25 0 -25 27v909h-123q-26 0 -26 27v14q0 27 26 27h123v266q0 108 53 167.5t164 59.5q30 0 66 -6q12 -4 15 -8.5t3 -16.5v-28q0 -19 -22 -15q-23 2 -62 2q-86 0 -116.5 -47.5t-30.5 -136.5v-237h205q26 0 26 -27v-14q0 -27 -26 -27h-205v-909q0 -27 -25 -27h-20z
" />
    <glyph glyph-name="g" unicode="g" horiz-adv-x="1284" 
d="M608 -420q-98 0 -184.5 24t-142.5 60q-24 17 -17 33l17 24q11 18 26 7q125 -80 303 -80q70 0 131 12.5t116.5 42t95 74t62.5 112t23 152.5v203q-62 -113 -167.5 -175.5t-249.5 -62.5q-217 0 -357.5 143.5t-140.5 368.5q0 222 139.5 366t353.5 144q147 0 255 -64t169 -182
v195q0 27 25 27h22q23 0 23 -27v-948q0 -110 -40.5 -197.5t-110.5 -141.5t-159.5 -82t-191.5 -28zM190 518q0 -200 123 -321t310 -121q186 0 302.5 118t116.5 316q0 202 -116.5 325t-302.5 123q-187 0 -310 -121t-123 -319z" />
    <glyph glyph-name="h" unicode="h" 
d="M199 0q-25 0 -25 27v1411q0 26 25 26h22q25 0 25 -26v-600q47 83 136.5 136.5t213.5 53.5q170 0 268.5 -104.5t98.5 -302.5v-594q0 -27 -25 -27h-23q-24 0 -24 27v608q0 150 -79.5 236.5t-221.5 86.5q-148 0 -246 -88.5t-98 -234.5v-608q0 -27 -25 -27h-22z" />
    <glyph glyph-name="i" unicode="i" horiz-adv-x="415" 
d="M209 1309q-22 0 -39.5 17t-17.5 40q0 24 17.5 41.5t39.5 17.5q23 0 39 -17t16 -42q0 -23 -16 -40t-39 -17zM172 27v950q0 27 25 27h22q23 0 23 -27v-950q0 -27 -23 -27h-22q-25 0 -25 27z" />
    <glyph glyph-name="j" unicode="j" horiz-adv-x="438" 
d="M233 1309q-23 0 -41 17t-18 40q0 24 17.5 41.5t41.5 17.5q22 0 38 -17t16 -42q0 -23 -16 -40t-38 -17zM-35 -379v29q0 19 23 14q23 -2 61 -2q45 0 75.5 13.5t45.5 40t21 57t6 73.5v1131q0 27 22 27h23q24 0 24 -27v-1159q0 -108 -53.5 -168t-163.5 -60q-23 0 -65 7
q-12 5 -15.5 8.5t-3.5 15.5z" />
    <glyph glyph-name="k" unicode="k" horiz-adv-x="1044" 
d="M199 0q-25 0 -25 27v1411q0 26 25 26h20q25 0 25 -26v-1039l551 588q14 17 34 17h43q14 0 15.5 -10t-8.5 -17l-387 -404l444 -542q9 -11 4.5 -21t-22.5 -10h-23q-24 0 -37 18l-412 508l-202 -211v-288q0 -27 -25 -27h-20z" />
    <glyph glyph-name="l" unicode="l" horiz-adv-x="417" 
d="M199 0q-25 0 -25 27v1411q0 26 25 26h20q25 0 25 -26v-1411q0 -27 -25 -27h-20z" />
    <glyph glyph-name="m" unicode="m" horiz-adv-x="1646" 
d="M199 0q-25 0 -25 27v950q0 27 25 27h14q16 0 21.5 -6.5t5.5 -22.5l4 -121q83 174 284 174q230 0 303 -209q87 209 320 209q154 0 238 -98.5t84 -294.5v-608q0 -27 -25 -27h-23q-24 0 -24 27v618q0 150 -63 231.5t-187 81.5q-130 0 -211.5 -84.5t-81.5 -228.5v-618
q0 -27 -22 -27h-25q-23 0 -23 27v618q0 148 -69.5 230.5t-194.5 82.5q-130 0 -204 -83.5t-74 -229.5v-618q0 -27 -25 -27h-22z" />
    <glyph glyph-name="n" unicode="n" 
d="M199 0q-25 0 -25 27v950q0 27 25 27h14q16 0 21.5 -6.5t5.5 -22.5l6 -137q47 83 136.5 136.5t213.5 53.5q170 0 268.5 -104.5t98.5 -302.5v-594q0 -27 -25 -27h-23q-24 0 -24 27v608q0 150 -79.5 236.5t-221.5 86.5q-148 0 -246 -88.5t-98 -234.5v-608q0 -27 -25 -27h-22
z" />
    <glyph glyph-name="o" unicode="o" horiz-adv-x="1261" 
d="M631 -25q-143 0 -259 68.5t-182.5 189.5t-66.5 269q0 225 145.5 375.5t362.5 150.5q216 0 361 -150.5t145 -375.5t-145 -376t-361 -151zM195 502q0 -199 123.5 -328t312.5 -129t312.5 129t123.5 328t-123.5 327.5t-312.5 128.5t-312.5 -128.5t-123.5 -327.5z" />
    <glyph glyph-name="p" unicode="p" horiz-adv-x="1294" 
d="M199 -389q-25 0 -25 27v1339q0 27 25 27h20q25 0 25 -27l4 -203q60 119 168 186.5t252 67.5q222 0 362.5 -149t140.5 -377q0 -229 -140 -378t-363 -149q-147 0 -256.5 66t-167.5 182v-585q0 -27 -25 -27h-20zM244 496q0 -202 118 -326.5t306 -124.5q191 0 313.5 127
t122.5 330q0 202 -122.5 329t-313.5 127q-187 0 -305.5 -129t-118.5 -333z" />
    <glyph glyph-name="q" unicode="q" horiz-adv-x="1294" 
d="M1075 -389q-24 0 -24 27v585q-58 -116 -167.5 -182t-254.5 -66q-224 0 -365 149t-141 378q0 228 141 377t365 149q143 0 250.5 -67.5t167.5 -186.5l4 203q0 27 24 27h21q24 0 24 -27v-1339q0 -27 -24 -27h-21zM190 502q0 -203 122.5 -330t314.5 -127q188 0 306 124.5
t118 326.5q0 204 -118.5 333t-305.5 129q-191 0 -314 -127t-123 -329z" />
    <glyph glyph-name="r" unicode="r" horiz-adv-x="686" 
d="M199 0q-25 0 -25 27v950q0 27 25 27h14q17 0 23 -7t4 -22l2 -107q76 160 241 160q62 0 92 -18q15 -9 15 -31v-12q0 -29 -35 -19q-29 10 -70 10q-58 0 -102.5 -21.5t-69.5 -52.5t-41 -72.5t-21 -76t-5 -67.5v-641q0 -27 -25 -27h-22z" />
    <glyph glyph-name="s" unicode="s" horiz-adv-x="899" 
d="M442 -25q-105 0 -179.5 43t-117.5 99q-22 25 -6 47l8 10q5 8 18.5 7.5t24.5 -13.5q92 -123 256 -123q113 0 181.5 52t68.5 149q0 83 -48 132t-140 87l-113 47q-50 22 -87 43.5t-71.5 53.5t-52.5 74.5t-18 94.5q0 113 81.5 181.5t201.5 68.5q79 0 150 -34t118 -95
q19 -23 -2 -47q-15 -15 -25 -14t-24 16q-88 104 -217 104q-87 0 -150 -44t-63 -130q0 -45 13.5 -77.5t46 -58t64 -41.5t89.5 -40l73 -30q116 -47 179.5 -111.5t64.5 -173.5q0 -128 -94 -202.5t-230 -74.5zM715 852l2 2z" />
    <glyph glyph-name="t" unicode="t" horiz-adv-x="661" 
d="M436 -12q-89 0 -125.5 44.5t-36.5 131.5v772h-135q-26 0 -26 27v14q0 27 26 27h135v239q0 27 23 27h22q25 0 25 -27v-239h178q27 0 27 -27v-14q0 -27 -27 -27h-178v-760q0 -67 21 -93t73 -26q22 0 64 6q26 4 33.5 -1.5t7.5 -22.5v-16q0 -18 -33 -26.5t-74 -8.5z" />
    <glyph glyph-name="u" unicode="u" 
d="M541 -25q-170 0 -268.5 105t-98.5 303v594q0 27 25 27h22q25 0 25 -27v-608q0 -151 79 -237.5t222 -86.5q148 0 246 89t98 235v608q0 27 24 27h23q25 0 25 -27v-950q0 -27 -25 -27h-14q-16 0 -20.5 6t-6.5 23l-6 137q-47 -84 -136.5 -137.5t-213.5 -53.5z" />
    <glyph glyph-name="v" unicode="v" horiz-adv-x="1085" 
d="M530 0q-27 0 -36 25l-375 944q-12 35 20 35h21q21 0 30 -25l353 -905l352 905q9 25 31 25h20q33 0 21 -35l-375 -944q-9 -25 -37 -25h-25z" />
    <glyph glyph-name="w" unicode="w" horiz-adv-x="1767" 
d="M492 0q-28 0 -37 25l-336 944q-12 35 20 35h25q20 0 29 -25l315 -909l321 909q9 25 37 25h37q28 0 37 -25l320 -909l315 909q9 25 31 25h22q33 0 21 -35l-336 -944q-9 -25 -37 -25h-35q-28 0 -37 25l-319 909l-322 -909q-9 -25 -37 -25h-34z" />
    <glyph glyph-name="x" unicode="x" horiz-adv-x="962" 
d="M133 0q-18 0 -22 9t8 24l321 477l-305 461q-20 33 12 33h27q23 0 35 -21l272 -424l275 424q12 21 32 21h27q31 0 14 -33l-305 -461l320 -477q10 -15 6 -24t-19 -9h-26q-24 0 -35 20l-289 445l-288 -445q-11 -20 -33 -20h-27z" />
    <glyph glyph-name="y" unicode="y" horiz-adv-x="1081" 
d="M381 -389q-13 0 -18.5 8.5t-0.5 20.5l140 354l-383 975q-12 35 20 35h21q21 0 30 -25l351 -907l352 907q9 25 29 25h20q35 0 23 -35l-529 -1334q-9 -24 -33 -24h-22z" />
    <glyph glyph-name="z" unicode="z" horiz-adv-x="997" 
d="M160 0q-27 0 -27 27v22q0 12 14 35l633 852h-614q-27 0 -27 27v14q0 27 27 27h665q31 0 31 -27v-23q0 -11 -14 -34l-633 -852h621q28 0 28 -27v-14q0 -27 -28 -27h-676z" />
    <glyph glyph-name="braceleft" unicode="{" horiz-adv-x="559" 
d="M332 -266q-60 0 -88.5 38t-28.5 83v606q0 24 -10 39l-68 106q-13 22 -2 41l70 111q10 18 10 39v608q0 46 28 83.5t89 37.5h74q24 0 24 -25v-18q0 -25 -24 -25h-48q-35 0 -53 -20t-18 -56v-596q0 -29 -8 -41l-58 -100q-10 -16 0 -39l58 -94q8 -16 8 -41v-594q0 -36 18 -56
t53 -20h48q14 0 19 -5.5t5 -18.5v-19q0 -14 -5 -19t-19 -5h-74z" />
    <glyph glyph-name="bar" unicode="|" horiz-adv-x="462" 
d="M221 -389q-26 0 -26 27v1974q0 26 26 26h21q26 0 26 -26v-1974q0 -27 -26 -27h-21z" />
    <glyph glyph-name="braceright" unicode="}" horiz-adv-x="559" 
d="M154 -266q-25 0 -25 24v19q0 24 25 24h47q35 0 53 20t18 56v594q0 23 9 41l57 94q10 23 0 39l-57 100q-9 13 -9 41v596q0 36 -18 56t-53 20h-47q-25 0 -25 25v18q0 25 25 25h73q61 0 89 -37.5t28 -83.5v-608q0 -21 10 -39l70 -111q11 -19 -2 -41l-68 -106
q-10 -15 -10 -39v-606q0 -45 -28.5 -83t-88.5 -38h-73z" />
    <glyph glyph-name="asciitilde" unicode="~" horiz-adv-x="772" 
d="M510 479q-35 0 -64.5 12.5t-49.5 30.5t-39 36.5t-42.5 31t-50.5 12.5t-47 -17t-22 -40q-3 -21 -23 -21h-35q-18 0 -18 23q3 57 44 90t99 33q35 0 64.5 -12.5t49.5 -31t39 -36.5t42.5 -30.5t50.5 -12.5q29 0 48.5 17.5t21.5 41.5q3 19 22 19h33q20 0 20 -21
q-3 -58 -43.5 -91.5t-99.5 -33.5z" />
    <glyph glyph-name="uni00A0" unicode="&#xa0;" horiz-adv-x="415" 
 />
    <glyph glyph-name="exclamdown" unicode="&#xa1;" horiz-adv-x="399" 
d="M207 713q24 0 24 -27l11 -1028q0 -27 -25 -27h-33q-22 0 -22 27l10 1028q0 27 23 27h12zM129 1022q0 30 21 50t49 20q30 0 50.5 -20t20.5 -50q0 -28 -21 -49t-50 -21q-28 0 -49 21t-21 49z" />
    <glyph glyph-name="cent" unicode="&#xa2;" horiz-adv-x="1071" 
d="M569 0q-24 0 -24 25v225q-182 17 -301 147.5t-119 317.5t119 318.5t301 150.5v225q0 25 24 25h17q13 0 17.5 -5.5t4.5 -19.5v-223q203 -3 326 -142q10 -13 11 -19t-7 -15l-8 -11q-18 -19 -39 2q-111 121 -283 123v-813q177 3 281 119q11 11 18.5 13t24.5 -9l8 -8
q8 -10 7 -16t-11 -19q-118 -137 -328 -143v-223q0 -14 -4.5 -19.5t-17.5 -5.5h-17zM190 715q0 -165 99.5 -273.5t255.5 -126.5v805q-155 -18 -255 -128.5t-100 -276.5z" />
    <glyph glyph-name="sterling" unicode="&#xa3;" horiz-adv-x="1030" 
d="M154 0q-27 0 -27 27v41q3 2 21.5 15t28.5 21t31 25.5t34.5 34.5t32 41.5t30 52t23 60.5t17 73.5t5.5 85.5q0 59 -14 127h-180q-25 0 -25 25v20q0 13 5.5 18t19.5 5h170q-13 27 -41.5 84t-43 88.5t-33 78.5t-26.5 89.5t-8 85.5q0 147 102 249.5t273 102.5q229 0 346 -195
q11 -17 11 -26t-11 -19l-16 -12q-6 -7 -17.5 -5t-17.5 13q-20 33 -40.5 57.5t-55.5 54.5t-86 46t-113 16q-139 0 -221 -81t-82 -209q0 -67 22.5 -132t67 -152t63.5 -134h267q15 0 19.5 -4.5t4.5 -18.5v-20q0 -14 -5 -19.5t-19 -5.5h-256q12 -66 12 -117q0 -152 -56.5 -263
t-132.5 -156h637q29 0 29 -27v-14q0 -27 -29 -27h-716z" />
    <glyph glyph-name="currency" unicode="&#xa4;" horiz-adv-x="1165" 
d="M176 520l-37 33l105 104q-117 140 -117 318q0 181 117 317l-105 105l37 33l109 -109q129 113 301 113q166 0 297 -111l106 107l37 -33l-102 -103q120 -139 120 -319q0 -181 -120 -320l102 -102l-37 -33l-106 107q-131 -111 -297 -111q-172 0 -301 113zM176 975
q0 -123 60.5 -219t153.5 -144.5t196 -48.5t195 48.5t153 144.5t61 219q0 122 -61 218t-153.5 144.5t-194.5 48.5q-77 0 -150 -29t-131 -80.5t-93.5 -130.5t-35.5 -171z" />
    <glyph glyph-name="yen" unicode="&#xa5;" horiz-adv-x="1185" 
d="M367 631q-29 0 -29 26v13q0 28 29 28h188v2l-426 697q-10 13 -6 25t22 12h31q21 0 33 -21l385 -637l383 637q12 21 33 21h30q18 0 22.5 -12t-5.5 -25l-426 -697v-2h192q27 0 27 -28v-13q0 -26 -27 -26h-192v-99h192q27 0 27 -26v-14q0 -27 -27 -27h-192v-438
q0 -27 -29 -27h-18q-29 0 -29 27v438h-188q-29 0 -29 27v14q0 26 29 26h188v99h-188z" />
    <glyph glyph-name="brokenbar" unicode="&#xa6;" horiz-adv-x="462" 
d="M221 1004q-26 0 -26 26v582q0 26 26 26h21q26 0 26 -26v-582q0 -26 -26 -26h-21zM195 -362v581q0 27 26 27h21q26 0 26 -27v-581q0 -27 -26 -27h-21q-26 0 -26 27z" />
    <glyph glyph-name="section" unicode="&#xa7;" horiz-adv-x="899" 
d="M451 -100q-184 0 -310 135q-14 16 -15.5 26.5t11.5 30.5l-4 -8q25 37 57 0q101 -117 267 -117q113 0 179 53t66 144q0 144 -190 217l-131 53q-49 20 -84.5 40.5t-71 52t-54.5 75.5t-19 98q0 92 53 154.5t145 93.5q-93 42 -146.5 103.5t-53.5 156.5q0 113 85 179.5
t209 66.5q167 0 281 -127q18 -21 -2 -47v2q-16 -17 -25.5 -16.5t-23.5 16.5q-91 104 -232 104q-89 0 -153 -42.5t-64 -131.5q0 -37 10.5 -67t25.5 -49.5t43 -38.5t50 -29.5t60 -26.5l108 -45q58 -24 98 -47t77.5 -55.5t56 -76t18.5 -97.5q0 -92 -47.5 -158t-128.5 -96
q86 -44 132 -103t46 -151q0 -125 -91 -198.5t-232 -73.5zM227 705q0 -47 14 -80.5t50 -61t69.5 -44t100.5 -44.5q110 3 174.5 55.5t64.5 141.5t-73.5 148t-182.5 59q-89 0 -153 -42.5t-64 -131.5z" />
    <glyph glyph-name="dieresis" unicode="&#xa8;" horiz-adv-x="501" 
d="M414 1335q-23 0 -40.5 17t-17.5 39q0 20 17.5 36.5t40.5 16.5t40 -16t17 -37q0 -22 -17 -39t-40 -17zM31 1391q0 21 17 37t40 16t40 -16t17 -37q0 -22 -17 -39t-40 -17t-40 17t-17 39z" />
    <glyph glyph-name="copyright" unicode="&#xa9;" horiz-adv-x="1468" 
d="M733 279q-121 0 -228.5 46.5t-184.5 125t-121.5 186.5t-44.5 227q0 159 75.5 293.5t209 213.5t294.5 79q162 0 296 -79t210 -213.5t76 -293.5t-76 -293.5t-210 -213t-296 -78.5zM227 864q0 -139 66 -257t182.5 -187.5t257.5 -69.5q142 0 259 69.5t183 187.5t66 257
t-66 257t-183 187.5t-259 69.5q-141 0 -257.5 -69.5t-182.5 -187.5t-66 -257zM397 864q0 152 98 253.5t246 101.5q152 0 254 -109q15 -16 0 -31l-16 -14q-18 -18 -37 4q-88 80 -197 80q-122 0 -199 -78.5t-77 -206.5q0 -126 77 -204t199 -78q111 0 197 82q17 21 37 4l16 -15
q16 -16 0 -30q-102 -109 -254 -109q-148 0 -246 99.5t-98 250.5z" />
    <glyph glyph-name="ordfeminine" unicode="&#xaa;" horiz-adv-x="993" 
d="M492 698q-161 0 -265 105.5t-104 267.5t104 267.5t265 105.5q97 0 178.5 -42t132.5 -118l10 150h57v-736h-57l-10 160q-51 -76 -132.5 -118t-178.5 -42zM186 1071q0 -135 86.5 -223t219.5 -88q136 0 226.5 88.5t90.5 222.5t-90.5 222.5t-226.5 88.5q-133 0 -219.5 -88
t-86.5 -223z" />
    <glyph glyph-name="guillemotleft" unicode="&#xab;" horiz-adv-x="727" 
d="M125 520q-16 13 -16 31v57q0 20 16 33l201 170q6 6 14 1t8 -15v-43q0 -15 -16 -31l-168 -143l168 -144q16 -16 16 -30v-41q0 -11 -8 -16.5t-14 1.5zM377 551v57q0 20 16 33l201 170q6 6 14 1t8 -15v-43q0 -15 -16 -31l-168 -143l168 -144q16 -16 16 -30v-41
q0 -11 -8 -16.5t-14 1.5l-201 170q-16 13 -16 31z" />
    <glyph glyph-name="logicalnot" unicode="&#xac;" horiz-adv-x="978" 
d="M809 332q-27 0 -27 26v179h-632q-27 0 -27 28v13q0 26 27 26h679q27 0 27 -26v-220q0 -26 -27 -26h-20z" />
    <glyph glyph-name="uni00AD" unicode="&#xad;" horiz-adv-x="897" 
d="M143 551q-13 0 -18.5 5.5t-5.5 18.5v23q0 25 24 25h611q24 0 24 -25v-23q0 -13 -5 -18.5t-19 -5.5h-611z" />
    <glyph glyph-name="registered" unicode="&#xae;" horiz-adv-x="1468" 
d="M733 279q-121 0 -228.5 46.5t-184.5 125t-121.5 186.5t-44.5 227q0 159 75.5 293.5t209 213.5t294.5 79q162 0 296 -79t210 -213.5t76 -293.5t-76 -293.5t-210 -213t-296 -78.5zM227 864q0 -139 65 -257t182 -187.5t259 -69.5q108 0 203 41t161.5 110.5t105 164
t38.5 198.5t-38.5 198.5t-105 164t-161.5 110.5t-203 41q-142 0 -259 -69.5t-182 -187.5t-65 -257zM494 563v598q0 8 6.5 14.5t13.5 6.5h277q109 0 169 -57t60 -148q0 -79 -52.5 -133t-144.5 -66l203 -207q8 -11 4 -18.5t-20 -7.5h-45q-15 0 -23 14l-211 219h-164v-215
q0 -7 -6 -12.5t-14 -5.5h-33q-8 0 -14 5.5t-6 12.5zM567 852h234q74 0 108.5 36t34.5 89q0 133 -143 133h-234v-258z" />
    <glyph glyph-name="macron" unicode="&#xaf;" horiz-adv-x="638" 
d="M57 1366q-26 0 -26 27v14q0 27 26 27h523q28 0 28 -27v-14q0 -27 -28 -27h-523z" />
    <glyph glyph-name="degree" unicode="&#xb0;" horiz-adv-x="837" 
d="M420 879q-123 0 -210 83.5t-87 208.5t87 210t210 85q121 0 208 -85t87 -210q0 -124 -86.5 -208t-208.5 -84zM195 1171q0 -104 66.5 -164.5t158.5 -60.5q90 0 156.5 60.5t66.5 164.5q0 105 -66.5 166.5t-156.5 61.5q-92 0 -158.5 -61.5t-66.5 -166.5z" />
    <glyph glyph-name="plusminus" unicode="&#xb1;" horiz-adv-x="819" 
d="M158 0q-25 0 -25 25v10q0 24 25 24h504q14 0 19 -5.5t5 -18.5v-10q0 -25 -24 -25h-504zM133 494v26q0 27 27 27h211v207q0 26 26 26h27q29 0 29 -26v-207h206q27 0 27 -27v-26q0 -29 -27 -29h-206v-209q0 -27 -29 -27h-27q-26 0 -26 27v209h-211q-27 0 -27 29z" />
    <glyph glyph-name="uni00B2" unicode="&#xb2;" horiz-adv-x="643" 
d="M88 674v71l201 211q18 19 50 52t43.5 45t32.5 35.5t28 33.5t18.5 27.5t14.5 30.5t6 29t3 34q0 73 -46 107t-120 34q-72 0 -117.5 -38t-45.5 -129v-41h-74v41q0 107 64 172t173 65q116 0 177 -62.5t61 -156.5q0 -18 -2.5 -35t-10.5 -36t-14 -32.5t-21.5 -34.5t-24.5 -33
t-31.5 -37t-33.5 -36.5t-39.5 -41.5t-41.5 -44l-158 -160h387v-71h-479z" />
    <glyph glyph-name="uni00B3" unicode="&#xb3;" horiz-adv-x="665" 
d="M334 666q-126 0 -189 68.5t-63 162.5h72q0 -70 44.5 -119t133.5 -49q78 0 127 40.5t49 113.5q0 95 -62.5 130.5t-175.5 35.5v63q97 0 153 43.5t56 110.5q0 64 -42.5 92t-110.5 28q-74 0 -115 -38.5t-41 -118.5h-64q-2 101 50 163t166 62q118 0 171.5 -55.5t53.5 -143.5
q0 -56 -26.5 -94.5t-90.5 -70.5q71 -21 112.5 -72t41.5 -131q0 -96 -67 -158.5t-183 -62.5z" />
    <glyph glyph-name="acute" unicode="&#xb4;" horiz-adv-x="249" 
d="M51 1141q-31 0 -18 30l102 238q8 25 33 25h33q30 0 16 -31l-104 -238q-11 -24 -31 -24h-31z" />
    <glyph glyph-name="uni00B5" unicode="&#xb5;" 
d="M201 -389q-27 0 -27 27v1339q0 27 25 27h22q25 0 25 -27v-608q0 -151 79 -237.5t222 -86.5q148 0 246 89t98 235v608q0 27 24 27h23q25 0 25 -27v-950q0 -27 -25 -27h-14q-16 0 -20.5 6t-6.5 23l-6 137q-60 -91 -137.5 -141t-200.5 -50q-209 0 -307 150v-487
q0 -27 -29 -27h-16z" />
    <glyph glyph-name="paragraph" unicode="&#xb6;" horiz-adv-x="1466" 
d="M956 0q-26 0 -26 27v538h-322q-215 0 -334.5 120.5t-119.5 313.5q0 194 119.5 314.5t334.5 120.5h369q27 0 27 -27v-1380q0 -27 -27 -27h-21zM229 999q0 -96 29.5 -167t83.5 -113.5t123.5 -63t155.5 -20.5h309v729h-309q-116 0 -201.5 -35.5t-138 -119t-52.5 -210.5z
M1198 27v1380q0 27 27 27h20q27 0 27 -27v-1380q0 -27 -27 -27h-20q-27 0 -27 27z" />
    <glyph glyph-name="periodcentered" unicode="&#xb7;" horiz-adv-x="344" 
d="M172 524q-28 0 -49 20t-21 50q0 28 21 49t49 21q29 0 50.5 -21t21.5 -49q0 -30 -21 -50t-51 -20z" />
    <glyph glyph-name="cedilla" unicode="&#xb8;" horiz-adv-x="354" 
d="M49 -424q-18 3 -18 23v24q0 21 22 21q197 -10 197 100q0 66 -59 90.5t-136 -2.5q-24 -3 -24 14v19q0 11 10 24l96 111h94l-84 -92q76 0 126.5 -41t50.5 -111q0 -55 -24.5 -94t-65 -58t-87.5 -26t-98 -2z" />
    <glyph glyph-name="uni00B9" unicode="&#xb9;" horiz-adv-x="389" 
d="M176 662v704h-88v68h160v-772h-72z" />
    <glyph glyph-name="ordmasculine" unicode="&#xba;" horiz-adv-x="995" 
d="M498 698q-157 0 -266 108t-109 265t109 265t266 108t265.5 -108t108.5 -265t-108.5 -265t-265.5 -108zM186 1071q0 -130 90.5 -220.5t221.5 -90.5q130 0 220.5 90t90.5 221t-90.5 221t-220.5 90q-131 0 -221.5 -90.5t-90.5 -220.5z" />
    <glyph glyph-name="guillemotright" unicode="&#xbb;" horiz-adv-x="727" 
d="M401 350q-6 -7 -14 -1.5t-8 16.5v41q0 14 16 30l168 144l-168 143q-16 16 -16 31v43q0 10 8 15t14 -1l201 -170q16 -13 16 -33v-57q0 -18 -16 -31zM109 365v41q0 14 16 30l168 144l-168 143q-16 16 -16 31v43q0 10 8 15t14 -1l201 -170q16 -13 16 -33v-57q0 -18 -16 -31
l-201 -170q-6 -7 -14 -1.5t-8 16.5z" />
    <glyph glyph-name="onequarter" unicode="&#xbc;" horiz-adv-x="1488" 
d="M150 662v704h-89v68h160v-772h-71zM180 0l869 1434h77l-868 -1434h-78zM860 190l397 582h72v-516h78v-66h-78v-190h-72v190h-397zM991 256h266v401z" />
    <glyph glyph-name="onehalf" unicode="&#xbd;" horiz-adv-x="1480" 
d="M150 662v704h-89v68h160v-772h-71zM180 0l869 1434h77l-868 -1434h-78zM922 502v41q0 107 64 172t173 65q116 0 177 -62.5t61 -156.5q0 -18 -2.5 -35t-10.5 -36t-14 -32.5t-21.5 -34.5t-24.5 -33t-31.5 -37t-33.5 -36.5t-39.5 -41.5t-41.5 -44l-158 -159h387v-72h-479v72
l200 211q20 21 56 58t48 50t34 38t28.5 36.5t16 31t12 35.5t2.5 37q0 73 -46 107.5t-120 34.5q-72 0 -118 -38.5t-46 -129.5v-41h-73z" />
    <glyph glyph-name="threequarters" unicode="&#xbe;" horiz-adv-x="1646" 
d="M334 666q-126 0 -189 68.5t-63 162.5h72q0 -70 44.5 -119t133.5 -49q78 0 127 40.5t49 113.5q0 95 -62.5 130.5t-175.5 35.5v63q97 0 153 43.5t56 110.5q0 64 -42.5 92t-110.5 28q-74 0 -115 -38.5t-41 -118.5h-64q-2 101 50 163t166 62q118 0 171.5 -55.5t53.5 -143.5
q0 -56 -26.5 -94.5t-90.5 -70.5q71 -21 112.5 -72t41.5 -131q0 -96 -67 -158.5t-183 -62.5zM338 0l868 1434h78l-868 -1434h-78zM1018 190l397 582h72v-516h78v-66h-78v-190h-72v190h-397zM1149 256h266v401z" />
    <glyph glyph-name="questiondown" unicode="&#xbf;" horiz-adv-x="911" 
d="M475 733q25 0 25 -31l-2 -73q-1 -73 -20 -136t-48.5 -108.5t-65.5 -86.5t-71.5 -80t-64.5 -78.5t-47.5 -91t-18.5 -109.5q0 -125 75 -189.5t195 -64.5q52 0 96.5 13t75.5 33.5t57 48.5t41 53.5t27 53.5q9 20 45 -2q23 -13 12 -35q-15 -39 -41 -76.5t-67.5 -75
t-105.5 -60.5t-140 -23q-153 0 -245.5 87.5t-92.5 234.5q0 63 18.5 118.5t47.5 98t64.5 83t71 82t65 86t48.5 103.5t19 127v67q-3 31 23 31h24zM391 1022q0 30 21 50t51 20q28 0 48.5 -20t20.5 -50q0 -28 -20.5 -49t-48.5 -21q-29 0 -50.5 21t-21.5 49z" />
    <glyph glyph-name="Agrave" unicode="&#xc0;" horiz-adv-x="1378" 
d="M150 0q-17 0 -22.5 10t1.5 25l506 1374q9 25 37 25h35q25 0 34 -25l508 -1374q6 -15 0.5 -25t-22.5 -10h-23q-22 0 -30 25l-127 346h-717l-125 -346q-8 -25 -35 -25h-20zM354 438h668l-334 916zM528 1833q-14 31 19 31h24q22 0 33 -25l109 -237q14 -31 -19 -31h-22
q-20 0 -33 24z" />
    <glyph glyph-name="Aacute" unicode="&#xc1;" horiz-adv-x="1378" 
d="M150 0q-17 0 -22.5 10t1.5 25l506 1374q9 25 37 25h35q25 0 34 -25l508 -1374q6 -15 0.5 -25t-22.5 -10h-23q-22 0 -30 25l-127 346h-717l-125 -346q-8 -25 -35 -25h-20zM354 438h668l-334 916zM668 1602l102 237q8 25 33 25h33q30 0 16 -31l-104 -238q-11 -24 -31 -24
h-31q-32 0 -18 31z" />
    <glyph glyph-name="Acircumflex" unicode="&#xc2;" horiz-adv-x="1378" 
d="M150 0q-17 0 -22.5 10t1.5 25l506 1374q9 25 37 25h35q25 0 34 -25l508 -1374q6 -15 0.5 -25t-22.5 -10h-23q-22 0 -30 25l-127 346h-717l-125 -346q-8 -25 -35 -25h-20zM354 438h668l-334 916zM459 1640l168 207q14 17 32 17h60q17 0 31 -17l170 -207q5 -6 0 -14t-15 -8
h-43q-18 0 -31 16l-143 178l-143 -178q-13 -16 -31 -16h-41q-10 0 -15 8t1 14z" />
    <glyph glyph-name="Atilde" unicode="&#xc3;" horiz-adv-x="1378" 
d="M150 0q-17 0 -22.5 10t1.5 25l506 1374q9 25 37 25h35q25 0 34 -25l508 -1374q6 -15 0.5 -25t-22.5 -10h-23q-22 0 -30 25l-127 346h-717l-125 -346q-8 -25 -35 -25h-20zM354 438h668l-334 916zM428 1778q3 57 43.5 90t99.5 33q35 0 64 -13t49 -31.5t39.5 -36.5t43 -31
t50.5 -13t47.5 17.5t22.5 41.5q3 20 22 20h33q21 0 21 -20q-3 -58 -44.5 -91.5t-99.5 -33.5q-43 0 -78.5 19t-56.5 42.5t-51 42.5t-62 19q-27 0 -46.5 -17.5t-22.5 -41.5q-3 -19 -23 -19h-35q-16 0 -16 23z" />
    <glyph glyph-name="Adieresis" unicode="&#xc4;" horiz-adv-x="1378" 
d="M150 0q-17 0 -22.5 10t1.5 25l506 1374q9 25 37 25h35q25 0 34 -25l508 -1374q6 -15 0.5 -25t-22.5 -10h-23q-22 0 -30 25l-127 346h-717l-125 -346q-8 -25 -35 -25h-20zM354 438h668l-334 916zM471 1821q0 21 17 37t40 16t40.5 -16.5t17.5 -36.5q0 -22 -17.5 -39
t-40.5 -17t-40 17t-17 39zM797 1821q0 21 17 37t40 16t40 -16t17 -37q0 -22 -17 -39t-40 -17t-40 17t-17 39z" />
    <glyph glyph-name="Aring" unicode="&#xc5;" horiz-adv-x="1378" 
d="M150 0q-17 0 -22.5 10t1.5 25l506 1374q9 25 37 25h35q25 0 34 -25l508 -1374q6 -15 0.5 -25t-22.5 -10h-23q-22 0 -30 25l-127 346h-717l-125 -346q-8 -25 -35 -25h-20zM354 438h668l-334 916zM551 1743q0 57 40 94t97 37t97 -37t40 -94q0 -59 -40 -97t-97 -38t-97 38
t-40 97zM625 1741q0 -28 17.5 -46t45.5 -18q27 0 45.5 18.5t18.5 45.5t-18.5 45t-45.5 18q-28 0 -45.5 -17.5t-17.5 -45.5z" />
    <glyph glyph-name="AE" unicode="&#xc6;" horiz-adv-x="1812" 
d="M150 0q-17 0 -23.5 10t2.5 25l737 1374q12 25 37 25h705q26 0 26 -27v-14q0 -29 -26 -29h-617v-582h586q27 0 27 -26v-15q0 -28 -27 -28h-586v-643h619q28 0 28 -29v-14q0 -27 -28 -27h-666q-26 0 -26 27v366h-519l-192 -368q-11 -25 -35 -25h-22zM449 465h469v881z" />
    <glyph glyph-name="Ccedilla" unicode="&#xc7;" horiz-adv-x="1513" 
d="M739 -424q-18 3 -18 23v24q0 21 22 21q197 -10 197 100q0 66 -59 90.5t-136 -2.5q-24 -3 -24 14v19q0 11 10 24l76 86q-193 16 -342.5 118t-230 263.5t-80.5 354.5q0 153 52.5 288.5t145.5 235t228.5 157.5t293.5 58q268 0 474 -172q10 -10 14 -15t4.5 -15t-8.5 -21
l-8 -13q-12 -10 -21 -9.5t-26 12.5q-188 161 -424 161q-184 0 -333 -86t-233 -238.5t-84 -342.5q0 -142 49.5 -266t135.5 -211.5t206.5 -138t258.5 -50.5q234 0 424 162q16 13 25.5 13.5t17.5 -9.5l12 -14q11 -11 10 -21.5t-4.5 -14.5t-15.5 -16q-198 -164 -451 -172
l-59 -65q76 0 126 -41t50 -111q0 -55 -24.5 -94t-65 -58t-87.5 -26t-98 -2z" />
    <glyph glyph-name="Egrave" unicode="&#xc8;" horiz-adv-x="1089" 
d="M221 0q-26 0 -26 27v1380q0 27 26 27h664q26 0 26 -27v-14q0 -29 -26 -29h-617v-582h586q27 0 27 -26v-15q0 -28 -27 -28h-586v-643h619q28 0 28 -29v-14q0 -27 -28 -27h-666zM399 1833q-14 31 19 31h24q22 0 33 -25l109 -237q14 -31 -19 -31h-22q-20 0 -33 24z" />
    <glyph glyph-name="Eacute" unicode="&#xc9;" horiz-adv-x="1089" 
d="M221 0q-26 0 -26 27v1380q0 27 26 27h664q26 0 26 -27v-14q0 -29 -26 -29h-617v-582h586q27 0 27 -26v-15q0 -28 -27 -28h-586v-643h619q28 0 28 -29v-14q0 -27 -28 -27h-666zM537 1602l102 237q8 25 33 25h33q30 0 16 -31l-105 -238q-11 -24 -30 -24h-31q-32 0 -18 31z
" />
    <glyph glyph-name="Ecircumflex" unicode="&#xca;" horiz-adv-x="1089" 
d="M221 0q-26 0 -26 27v1380q0 27 26 27h664q26 0 26 -27v-14q0 -29 -26 -29h-617v-582h586q27 0 27 -26v-15q0 -28 -27 -28h-586v-643h619q28 0 28 -29v-14q0 -27 -28 -27h-666zM330 1640l168 207q14 17 32 17h60q17 0 31 -17l170 -207q5 -6 0 -14t-15 -8h-43q-18 0 -31 16
l-143 178l-143 -178q-13 -16 -31 -16h-41q-10 0 -15 8t1 14z" />
    <glyph glyph-name="Edieresis" unicode="&#xcb;" horiz-adv-x="1089" 
d="M221 0q-26 0 -26 27v1380q0 27 26 27h664q26 0 26 -27v-14q0 -29 -26 -29h-617v-582h586q27 0 27 -26v-15q0 -28 -27 -28h-586v-643h619q28 0 28 -29v-14q0 -27 -28 -27h-666zM340 1821q0 21 17 37t40 16t40.5 -16.5t17.5 -36.5q0 -22 -17.5 -39t-40.5 -17t-40 17t-17 39
zM666 1821q0 21 17 37t40 16t40 -16t17 -37q0 -22 -17 -39t-40 -17t-40 17t-17 39z" />
    <glyph glyph-name="Igrave" unicode="&#xcc;" horiz-adv-x="462" 
d="M221 0q-26 0 -26 27v1380q0 27 26 27h21q26 0 26 -27v-1380q0 -27 -26 -27h-21zM72 1833q-14 31 18 31h25q21 0 32 -25l109 -237q14 -31 -18 -31h-23q-20 0 -33 24z" />
    <glyph glyph-name="Iacute" unicode="&#xcd;" horiz-adv-x="462" 
d="M221 0q-26 0 -26 27v1380q0 27 26 27h21q26 0 26 -27v-1380q0 -27 -26 -27h-21zM209 1602l102 237q8 25 33 25h33q30 0 16 -31l-104 -238q-11 -24 -31 -24h-31q-32 0 -18 31z" />
    <glyph glyph-name="Icircumflex" unicode="&#xce;" horiz-adv-x="462" 
d="M221 0q-26 0 -26 27v1380q0 27 26 27h21q26 0 26 -27v-1380q0 -27 -26 -27h-21zM2 1640l168 207q14 17 33 17h59q17 0 31 -17l170 -207q5 -6 0.5 -14t-14.5 -8h-43q-18 0 -31 16l-144 178l-143 -178q-13 -16 -31 -16h-41q-10 0 -15 8t1 14z" />
    <glyph glyph-name="Idieresis" unicode="&#xcf;" horiz-adv-x="462" 
d="M221 0q-26 0 -26 27v1380q0 27 26 27h21q26 0 26 -27v-1380q0 -27 -26 -27h-21zM14 1821q0 20 17.5 36.5t40.5 16.5t40 -16t17 -37q0 -22 -17 -39t-40 -17t-40.5 17t-17.5 39zM340 1821q0 21 17 37t40 16t40.5 -16.5t17.5 -36.5q0 -22 -17.5 -39t-40.5 -17t-40 17t-17 39
z" />
    <glyph glyph-name="Eth" unicode="&#xd0;" horiz-adv-x="1361" 
d="M238 0q-27 0 -27 27v663h-133q-27 0 -27 27v14q0 27 27 27h133v649q0 27 27 27h251q186 0 327.5 -53.5t228 -150.5t129.5 -226t43 -287t-43 -287t-129.5 -226t-228 -150.5t-327.5 -53.5h-251zM285 70h204q333 0 493.5 169.5t160.5 477.5t-160.5 477.5t-493.5 169.5h-204
v-606h315q29 0 29 -27v-14q0 -27 -29 -27h-315v-620z" />
    <glyph glyph-name="Ntilde" unicode="&#xd1;" horiz-adv-x="1335" 
d="M1065 0q-26 0 -37 20l-760 1328v-1321q0 -27 -26 -27h-21q-26 0 -26 27v1380q0 27 24 27h53q25 0 37 -21l758 -1327v1321q0 27 27 27h20q27 0 27 -27v-1380q0 -27 -25 -27h-51zM406 1778q3 57 43.5 90t99.5 33q35 0 64 -13t49 -31.5t39.5 -36.5t43 -31t50.5 -13t47 17.5
t22 41.5q3 20 23 20h33q20 0 20 -20q-3 -58 -44 -91.5t-99 -33.5q-43 0 -78.5 19t-56.5 42.5t-51 42.5t-62 19q-27 0 -47 -17.5t-23 -41.5q-3 -19 -22 -19h-35q-16 0 -16 23z" />
    <glyph glyph-name="Ograve" unicode="&#xd2;" horiz-adv-x="1769" 
d="M885 -27q-153 0 -289 57.5t-233 156t-153 235t-56 289.5q0 205 95.5 374.5t263 267t372.5 97.5q153 0 288.5 -57.5t232 -155.5t152.5 -235t56 -291q0 -153 -56 -289.5t-152.5 -235t-232 -156t-288.5 -57.5zM229 711q0 -141 50 -264.5t137 -211.5t208.5 -139t260.5 -51
q184 0 334 86.5t235.5 239t85.5 340.5q0 141 -50 265t-137 212.5t-208.5 139t-259.5 50.5q-185 0 -335 -86.5t-235.5 -239t-85.5 -341.5zM723 1833q-14 31 18 31h25q22 0 33 -25l108 -237q14 -31 -18 -31h-23q-19 0 -32 24z" />
    <glyph glyph-name="Oacute" unicode="&#xd3;" horiz-adv-x="1769" 
d="M885 -27q-153 0 -289 57.5t-233 156t-153 235t-56 289.5q0 205 95.5 374.5t263 267t372.5 97.5q153 0 288.5 -57.5t232 -155.5t152.5 -235t56 -291q0 -153 -56 -289.5t-152.5 -235t-232 -156t-288.5 -57.5zM229 711q0 -141 50 -264.5t137 -211.5t208.5 -139t260.5 -51
q184 0 334 86.5t235.5 239t85.5 340.5q0 141 -50 265t-137 212.5t-208.5 139t-259.5 50.5q-185 0 -335 -86.5t-235.5 -239t-85.5 -341.5zM862 1602l103 237q8 25 32 25h33q31 0 17 -31l-105 -238q-11 -24 -31 -24h-30q-33 0 -19 31z" />
    <glyph glyph-name="Ocircumflex" unicode="&#xd4;" horiz-adv-x="1769" 
d="M885 -27q-153 0 -289 57.5t-233 156t-153 235t-56 289.5q0 205 95.5 374.5t263 267t372.5 97.5q153 0 288.5 -57.5t232 -155.5t152.5 -235t56 -291q0 -153 -56 -289.5t-152.5 -235t-232 -156t-288.5 -57.5zM229 711q0 -141 50 -264.5t137 -211.5t208.5 -139t260.5 -51
q184 0 334 86.5t235.5 239t85.5 340.5q0 141 -50 265t-137 212.5t-208.5 139t-259.5 50.5q-185 0 -335 -86.5t-235.5 -239t-85.5 -341.5zM655 1640l168 207q14 17 33 17h59q17 0 31 -17l170 -207q5 -6 0.5 -14t-14.5 -8h-43q-18 0 -31 16l-143 178l-144 -178
q-13 -16 -30 -16h-41q-10 0 -15.5 8t0.5 14z" />
    <glyph glyph-name="Otilde" unicode="&#xd5;" horiz-adv-x="1769" 
d="M885 -27q-153 0 -289 57.5t-233 156t-153 235t-56 289.5q0 205 95.5 374.5t263 267t372.5 97.5q153 0 288.5 -57.5t232 -155.5t152.5 -235t56 -291q0 -153 -56 -289.5t-152.5 -235t-232 -156t-288.5 -57.5zM229 711q0 -141 50 -264.5t137 -211.5t208.5 -139t260.5 -51
q184 0 334 86.5t235.5 239t85.5 340.5q0 141 -50 265t-137 212.5t-208.5 139t-259.5 50.5q-185 0 -335 -86.5t-235.5 -239t-85.5 -341.5zM623 1778q3 57 43.5 90t99.5 33q35 0 64 -13t49 -31.5t39.5 -36.5t43 -31t50.5 -13t47 17.5t22 41.5q3 20 23 20h33q20 0 20 -20
q-3 -58 -44 -91.5t-99 -33.5q-43 0 -78.5 19t-56.5 42.5t-51 42.5t-62 19q-27 0 -47 -17.5t-23 -41.5q-3 -19 -22 -19h-35q-16 0 -16 23z" />
    <glyph glyph-name="Odieresis" unicode="&#xd6;" horiz-adv-x="1769" 
d="M885 -27q-153 0 -289 57.5t-233 156t-153 235t-56 289.5q0 205 95.5 374.5t263 267t372.5 97.5q153 0 288.5 -57.5t232 -155.5t152.5 -235t56 -291q0 -153 -56 -289.5t-152.5 -235t-232 -156t-288.5 -57.5zM229 711q0 -141 50 -264.5t137 -211.5t208.5 -139t260.5 -51
q184 0 334 86.5t235.5 239t85.5 340.5q0 141 -50 265t-137 212.5t-208.5 139t-259.5 50.5q-185 0 -335 -86.5t-235.5 -239t-85.5 -341.5zM666 1821q0 21 17 37t40 16t40 -16t17 -37q0 -22 -17 -39t-40 -17t-40 17t-17 39zM991 1821q0 20 17.5 36.5t40.5 16.5t40 -16t17 -37
q0 -22 -17 -39t-40 -17t-40.5 17t-17.5 39z" />
    <glyph glyph-name="multiply" unicode="&#xd7;" horiz-adv-x="694" 
d="M143 391q-17 19 0 39l150 148l-150 149q-19 17 0 39l21 18q18 18 37 0l149 -149l146 147q20 17 39 0l18 -20q19 -19 2 -39l-147 -145l147 -148q19 -18 0 -37l-20 -18q-18 -20 -39 -2l-146 147l-147 -149q-20 -17 -39 2z" />
    <glyph glyph-name="Oslash" unicode="&#xd8;" horiz-adv-x="1769" 
d="M522 -102q-14 0 -18.5 9.5t2.5 26.5l49 115q-184 90 -292.5 266.5t-108.5 395.5q0 205 95.5 374.5t263 267t372.5 97.5q143 0 264 -47l45 100q8 15 13 19t16 4h26q15 0 19.5 -10t-2.5 -27l-52 -115q183 -92 291.5 -268.5t108.5 -394.5q0 -153 -56 -289.5t-152.5 -235
t-232 -156t-288.5 -57.5q-140 0 -264 47l-43 -100q-8 -14 -12.5 -18t-16.5 -4h-27zM229 711q0 -199 96.5 -358t258.5 -240l536 1224q-109 41 -235 41q-185 0 -335 -86.5t-235.5 -239t-85.5 -341.5zM649 86q112 -41 236 -41q184 0 334 86.5t235.5 239t85.5 340.5
q0 200 -95.5 359t-258.5 239z" />
    <glyph glyph-name="Ugrave" unicode="&#xd9;" horiz-adv-x="1253" 
d="M627 -27q-201 0 -322 121.5t-121 335.5v977q0 27 27 27h20q27 0 27 -27v-954q0 -204 101.5 -306t267.5 -102t267 102t101 306v954q0 27 29 27h18q27 0 27 -27v-977q0 -215 -119.5 -336t-322.5 -121zM467 1833q-14 31 18 31h25q22 0 33 -25l108 -237q14 -31 -18 -31h-23
q-19 0 -32 24z" />
    <glyph glyph-name="Uacute" unicode="&#xda;" horiz-adv-x="1253" 
d="M627 -27q-201 0 -322 121.5t-121 335.5v977q0 27 27 27h20q27 0 27 -27v-954q0 -204 101.5 -306t267.5 -102t267 102t101 306v954q0 27 29 27h18q27 0 27 -27v-977q0 -215 -119.5 -336t-322.5 -121zM604 1602l103 237q8 25 32 25h33q30 0 16 -31l-104 -238
q-11 -24 -31 -24h-30q-33 0 -19 31z" />
    <glyph glyph-name="Ucircumflex" unicode="&#xdb;" horiz-adv-x="1253" 
d="M627 -27q-201 0 -322 121.5t-121 335.5v977q0 27 27 27h20q27 0 27 -27v-954q0 -204 101.5 -306t267.5 -102t267 102t101 306v954q0 27 29 27h18q27 0 27 -27v-977q0 -215 -119.5 -336t-322.5 -121zM397 1640l168 207q14 17 33 17h59q17 0 31 -17l170 -207q5 -6 0.5 -14
t-14.5 -8h-43q-18 0 -31 16l-143 178l-144 -178q-13 -16 -30 -16h-41q-10 0 -15.5 8t0.5 14z" />
    <glyph glyph-name="Udieresis" unicode="&#xdc;" horiz-adv-x="1253" 
d="M627 -27q-201 0 -322 121.5t-121 335.5v977q0 27 27 27h20q27 0 27 -27v-954q0 -204 101.5 -306t267.5 -102t267 102t101 306v954q0 27 29 27h18q27 0 27 -27v-977q0 -215 -119.5 -336t-322.5 -121zM410 1821q0 21 17 37t40 16t40 -16t17 -37q0 -22 -17 -39t-40 -17
t-40 17t-17 39zM735 1821q0 20 17.5 36.5t40.5 16.5t40 -16t17 -37q0 -22 -17 -39t-40 -17t-40.5 17t-17.5 39z" />
    <glyph glyph-name="Yacute" unicode="&#xdd;" horiz-adv-x="1185" 
d="M584 0q-29 0 -29 27v673l-426 697q-10 13 -6 25t22 12h31q21 0 33 -21l385 -637l383 637q12 21 33 21h30q18 0 22.5 -12t-5.5 -25l-426 -697v-673q0 -27 -29 -27h-18zM571 1602l103 237q8 25 33 25h32q31 0 17 -31l-105 -238q-11 -24 -30 -24h-31q-33 0 -19 31z" />
    <glyph glyph-name="Thorn" unicode="&#xde;" horiz-adv-x="1140" 
d="M221 0q-26 0 -26 27v1380q0 27 26 27h21q26 0 26 -27v-262h299q107 0 192.5 -34.5t138.5 -94t80.5 -136t27.5 -163.5t-27.5 -163.5t-80.5 -136t-138.5 -94t-192.5 -34.5h-299v-262q0 -27 -26 -27h-21zM268 365h289q169 0 272 87t103 265t-103 265t-272 87h-289v-704z" />
    <glyph glyph-name="germandbls" unicode="&#xdf;" horiz-adv-x="1138" 
d="M219 0q-24 0 -24 27v1085q0 56 7.5 101t31.5 91t63 76.5t106 50t158 19.5q195 0 283 -90.5t88 -243.5q0 -50 -9 -91t-31.5 -84t-68 -77t-112.5 -55q305 -59 305 -412q0 -212 -109.5 -304.5t-353.5 -92.5h-139q-23 0 -23 27v12q0 27 23 27h145q204 0 296.5 77t92.5 256
q0 184 -93 275.5t-300 91.5h-141q-23 0 -23 27v12q0 26 23 26h129q151 0 235 76t84 215q0 127 -75.5 193.5t-223.5 66.5q-74 0 -129 -15t-87 -39t-51 -61t-25.5 -74t-6.5 -85v-1081q0 -27 -24 -27h-21z" />
    <glyph glyph-name="agrave" unicode="&#xe0;" horiz-adv-x="1294" 
d="M629 -25q-224 0 -365 149t-141 378q0 228 141 377t365 149q143 0 250.5 -67.5t167.5 -186.5l4 203q0 27 24 27h21q24 0 24 -27v-950q0 -27 -22 -27h-23q-24 0 -24 27l-4 196q-58 -117 -166 -182.5t-252 -65.5zM190 502q0 -203 122.5 -330t314.5 -127q188 0 306 124.5
t118 326.5q0 204 -118.5 333t-305.5 129q-191 0 -314 -127t-123 -329zM481 1403q-14 31 19 31h24q22 0 33 -25l109 -238q13 -30 -19 -30h-22q-20 0 -33 24z" />
    <glyph glyph-name="aacute" unicode="&#xe1;" horiz-adv-x="1294" 
d="M629 -25q-224 0 -365 149t-141 378q0 228 141 377t365 149q143 0 250.5 -67.5t167.5 -186.5l4 203q0 27 24 27h21q24 0 24 -27v-950q0 -27 -22 -27h-23q-24 0 -24 27l-4 196q-58 -117 -166 -182.5t-252 -65.5zM190 502q0 -203 122.5 -330t314.5 -127q188 0 306 124.5
t118 326.5q0 204 -118.5 333t-305.5 129q-191 0 -314 -127t-123 -329zM621 1171l102 238q8 25 33 25h32q31 0 17 -31l-105 -238q-11 -24 -30 -24h-31q-31 0 -18 30z" />
    <glyph glyph-name="acircumflex" unicode="&#xe2;" horiz-adv-x="1294" 
d="M629 -25q-224 0 -365 149t-141 378q0 228 141 377t365 149q143 0 250.5 -67.5t167.5 -186.5l4 203q0 27 24 27h21q24 0 24 -27v-950q0 -27 -22 -27h-23q-24 0 -24 27l-4 196q-58 -117 -166 -182.5t-252 -65.5zM190 502q0 -203 122.5 -330t314.5 -127q188 0 306 124.5
t118 326.5q0 204 -118.5 333t-305.5 129q-191 0 -314 -127t-123 -329zM412 1210l168 207q14 17 32 17h60q16 0 30 -17l170 -207q5 -6 0.5 -14t-14.5 -8h-43q-18 0 -31 16l-143 178l-143 -178q-13 -16 -31 -16h-41q-10 0 -15 8t1 14z" />
    <glyph glyph-name="atilde" unicode="&#xe3;" horiz-adv-x="1294" 
d="M629 -25q-224 0 -365 149t-141 378q0 228 141 377t365 149q143 0 250.5 -67.5t167.5 -186.5l4 203q0 27 24 27h21q24 0 24 -27v-950q0 -27 -22 -27h-23q-24 0 -24 27l-4 196q-58 -117 -166 -182.5t-252 -65.5zM190 502q0 -203 122.5 -330t314.5 -127q188 0 306 124.5
t118 326.5q0 204 -118.5 333t-305.5 129q-191 0 -314 -127t-123 -329zM381 1348q3 57 43.5 89.5t99.5 32.5q35 0 64 -13t49 -31t39.5 -36t43 -31t50.5 -13t47.5 17.5t22.5 41.5q3 20 22 20h33q20 0 20 -20q-3 -58 -44 -91.5t-99 -33.5q-43 0 -78.5 19t-56.5 42.5t-51 42.5
t-62 19q-27 0 -46.5 -18t-22.5 -42q-3 -18 -23 -18h-35q-16 0 -16 23z" />
    <glyph glyph-name="adieresis" unicode="&#xe4;" horiz-adv-x="1294" 
d="M629 -25q-224 0 -365 149t-141 378q0 228 141 377t365 149q143 0 250.5 -67.5t167.5 -186.5l4 203q0 27 24 27h21q24 0 24 -27v-950q0 -27 -22 -27h-23q-24 0 -24 27l-4 196q-58 -117 -166 -182.5t-252 -65.5zM190 502q0 -203 122.5 -330t314.5 -127q188 0 306 124.5
t118 326.5q0 204 -118.5 333t-305.5 129q-191 0 -314 -127t-123 -329zM424 1391q0 21 17 37t40 16t40.5 -16.5t17.5 -36.5q0 -22 -17.5 -39t-40.5 -17t-40 17t-17 39zM750 1391q0 21 17 37t40 16t40 -16t17 -37q0 -22 -17 -39t-40 -17t-40 17t-17 39z" />
    <glyph glyph-name="aring" unicode="&#xe5;" horiz-adv-x="1294" 
d="M629 -25q-224 0 -365 149t-141 378q0 228 141 377t365 149q143 0 250.5 -67.5t167.5 -186.5l4 203q0 27 24 27h21q24 0 24 -27v-950q0 -27 -22 -27h-23q-24 0 -24 27l-4 196q-58 -117 -166 -182.5t-252 -65.5zM190 502q0 -203 122.5 -330t314.5 -127q188 0 306 124.5
t118 326.5q0 204 -118.5 333t-305.5 129q-191 0 -314 -127t-123 -329zM506 1313q0 57 40 94t97 37t97 -37t40 -94q0 -59 -40 -97t-97 -38t-97 38t-40 97zM580 1311q0 -28 17.5 -46t45.5 -18q27 0 45.5 18.5t18.5 45.5t-18.5 45t-45.5 18q-28 0 -45.5 -17.5t-17.5 -45.5z" />
    <glyph glyph-name="ae" unicode="&#xe6;" horiz-adv-x="2140" 
d="M623 -25q-223 0 -361.5 148.5t-138.5 378.5q0 228 141 377t365 149q146 0 255.5 -62t172.5 -173l2 184q0 27 24 27h23q24 0 24 -27v-182q64 108 174.5 170.5t247.5 62.5q107 0 196 -39.5t146.5 -106t89 -151t31.5 -176.5q0 -47 -10 -61.5t-43 -14.5h-840
q11 -191 131 -313.5t328 -122.5q182 0 322 115q6 6 14.5 7t13.5 -5l13 -13q7 -9 6 -17.5t-3 -11t-12 -12.5q-140 -131 -358 -131q-181 0 -310 93t-182 245q-47 -155 -168 -246.5t-294 -91.5zM190 502q0 -203 122.5 -330t314.5 -127q189 0 306.5 124.5t117.5 326.5
q0 204 -118.5 333t-305.5 129q-191 0 -314 -127t-123 -329zM1130 547h822q-2 179 -111 294t-291 115q-170 0 -283.5 -100.5t-136.5 -267.5v-41z" />
    <glyph glyph-name="ccedilla" unicode="&#xe7;" horiz-adv-x="1150" 
d="M498 -424q-19 3 -19 23v24q0 21 23 21q196 -10 196 100q0 66 -59 90.5t-135 -2.5q-25 -4 -25 14v19q0 11 10 24l78 91q-192 25 -318 170t-126 350q0 226 149.5 377t370.5 151q233 0 371 -160q10 -15 11 -22t-7 -17l-10 -10q-20 -21 -43 2q-60 65 -134.5 101t-185.5 36
q-192 0 -321 -128t-129 -330q0 -203 129 -329t323 -126q111 0 185 35.5t131 97.5q9 9 14.5 13t14.5 3t18 -10l10 -10q8 -10 7 -17t-11 -22q-132 -154 -359 -160l-61 -67q76 0 126 -41t50 -111q0 -55 -24 -94t-65 -58t-87.5 -26t-97.5 -2z" />
    <glyph glyph-name="egrave" unicode="&#xe8;" horiz-adv-x="1208" 
d="M645 -25q-159 0 -279.5 73.5t-181.5 193t-61 264.5q0 147 62.5 265.5t176.5 187.5t259 69q107 0 196 -39.5t146 -106t88.5 -151t31.5 -176.5q0 -47 -10 -61.5t-43 -14.5h-840q11 -191 131 -313.5t328 -122.5q182 0 322 115q6 6 14.5 7t13.5 -5l13 -13q7 -9 6.5 -17.5
t-3 -11.5t-11.5 -12q-68 -64 -161.5 -97.5t-197.5 -33.5zM195 547h825q-2 179 -111 294t-291 115t-296.5 -112.5t-126.5 -296.5zM436 1403q-14 31 19 31h24q22 0 33 -25l109 -238q13 -30 -19 -30h-22q-20 0 -33 24z" />
    <glyph glyph-name="eacute" unicode="&#xe9;" horiz-adv-x="1208" 
d="M645 -25q-159 0 -279.5 73.5t-181.5 193t-61 264.5q0 147 62.5 265.5t176.5 187.5t259 69q107 0 196 -39.5t146 -106t88.5 -151t31.5 -176.5q0 -47 -10 -61.5t-43 -14.5h-840q11 -191 131 -313.5t328 -122.5q182 0 322 115q6 6 14.5 7t13.5 -5l13 -13q7 -9 6.5 -17.5
t-3 -11.5t-11.5 -12q-68 -64 -161.5 -97.5t-197.5 -33.5zM195 547h825q-2 179 -111 294t-291 115t-296.5 -112.5t-126.5 -296.5zM575 1171l103 238q8 25 33 25h32q31 0 17 -31l-105 -238q-11 -24 -30 -24h-31q-32 0 -19 30z" />
    <glyph glyph-name="ecircumflex" unicode="&#xea;" horiz-adv-x="1208" 
d="M645 -25q-159 0 -279.5 73.5t-181.5 193t-61 264.5q0 147 62.5 265.5t176.5 187.5t259 69q107 0 196 -39.5t146 -106t88.5 -151t31.5 -176.5q0 -47 -10 -61.5t-43 -14.5h-840q11 -191 131 -313.5t328 -122.5q182 0 322 115q6 6 14.5 7t13.5 -5l13 -13q7 -9 6.5 -17.5
t-3 -11.5t-11.5 -12q-68 -64 -161.5 -97.5t-197.5 -33.5zM195 547h825q-2 179 -111 294t-291 115t-296.5 -112.5t-126.5 -296.5zM367 1210l168 207q14 17 32 17h60q16 0 30 -17l170 -207q5 -6 0.5 -14t-14.5 -8h-43q-18 0 -31 16l-143 178l-143 -178q-13 -16 -31 -16h-41
q-10 0 -15 8t1 14z" />
    <glyph glyph-name="edieresis" unicode="&#xeb;" horiz-adv-x="1208" 
d="M645 -25q-159 0 -279.5 73.5t-181.5 193t-61 264.5q0 147 62.5 265.5t176.5 187.5t259 69q107 0 196 -39.5t146 -106t88.5 -151t31.5 -176.5q0 -47 -10 -61.5t-43 -14.5h-840q11 -191 131 -313.5t328 -122.5q182 0 322 115q6 6 14.5 7t13.5 -5l13 -13q7 -9 6.5 -17.5
t-3 -11.5t-11.5 -12q-68 -64 -161.5 -97.5t-197.5 -33.5zM195 547h825q-2 179 -111 294t-291 115t-296.5 -112.5t-126.5 -296.5zM379 1391q0 21 17 37t40 16t40.5 -16.5t17.5 -36.5q0 -22 -17.5 -39t-40.5 -17t-40 17t-17 39zM705 1391q0 21 17 37t40 16t40 -16t17 -37
q0 -22 -17 -39t-40 -17t-40 17t-17 39z" />
    <glyph glyph-name="igrave" unicode="&#xec;" horiz-adv-x="329" 
d="M154 0q-25 0 -25 27v950q0 27 25 27h22q23 0 23 -27v-950q0 -27 -23 -27h-22zM4 1403q-14 31 19 31h24q22 0 33 -25l108 -238q13 -30 -18 -30h-23q-19 0 -32 24z" />
    <glyph glyph-name="iacute" unicode="&#xed;" horiz-adv-x="329" 
d="M154 0q-25 0 -25 27v950q0 27 25 27h22q23 0 23 -27v-950q0 -27 -23 -27h-22zM143 1171l103 238q8 25 33 25h32q31 0 17 -31l-105 -238q-11 -24 -30 -24h-31q-32 0 -19 30z" />
    <glyph glyph-name="icircumflex" unicode="&#xee;" horiz-adv-x="329" 
d="M154 0q-25 0 -25 27v950q0 27 25 27h22q23 0 23 -27v-950q0 -27 -23 -27h-22zM-66 1210l168 207q14 17 33 17h60q16 0 30 -17l170 -207q5 -6 0.5 -14t-14.5 -8h-43q-18 0 -31 16l-143 178l-144 -178q-13 -16 -30 -16h-41q-10 0 -15.5 8t0.5 14z" />
    <glyph glyph-name="idieresis" unicode="&#xef;" horiz-adv-x="329" 
d="M154 0q-25 0 -25 27v950q0 27 25 27h22q23 0 23 -27v-950q0 -27 -23 -27h-22zM-53 1391q0 21 17 37t40 16t40 -16t17 -37q0 -22 -17 -39t-40 -17t-40 17t-17 39zM272 1391q0 20 17.5 36.5t40.5 16.5t40 -16t17 -37q0 -22 -17 -39t-40 -17t-40.5 17t-17.5 39z" />
    <glyph glyph-name="eth" unicode="&#xf0;" horiz-adv-x="1206" 
d="M827 1133q-32 -3 -32 28v8q0 30 28 33l228 37v199q0 26 24 26h21q24 0 24 -26v-189l54 8q32 3 32 -28v-8q0 -30 -28 -33l-58 -8v-1153q0 -27 -22 -27h-23q-24 0 -24 27l-4 196q-58 -117 -166 -182.5t-252 -65.5q-224 0 -365 149t-141 378q0 228 141 377t365 149
q143 0 252.5 -68t169.5 -188v395zM190 502q0 -203 122.5 -330t314.5 -127q188 0 306 124.5t118 326.5q0 204 -118.5 333t-305.5 129q-191 0 -314 -127t-123 -329z" />
    <glyph glyph-name="ntilde" unicode="&#xf1;" 
d="M199 0q-25 0 -25 27v950q0 27 25 27h14q16 0 21.5 -6.5t5.5 -22.5l6 -137q47 83 136.5 136.5t213.5 53.5q170 0 268.5 -104.5t98.5 -302.5v-594q0 -27 -25 -27h-23q-24 0 -24 27v608q0 150 -79.5 236.5t-221.5 86.5q-148 0 -246 -88.5t-98 -234.5v-608q0 -27 -25 -27h-22
zM328 1348q3 57 43.5 89.5t99.5 32.5q35 0 64 -13t49 -31t39.5 -36t43 -31t50.5 -13t47 17.5t22 41.5q3 20 23 20h33q20 0 20 -20q-3 -58 -44 -91.5t-99 -33.5q-43 0 -78.5 19t-56.5 42.5t-51 42.5t-62 19q-27 0 -47 -18t-23 -42q-3 -18 -22 -18h-35q-16 0 -16 23z" />
    <glyph glyph-name="ograve" unicode="&#xf2;" horiz-adv-x="1261" 
d="M631 -25q-143 0 -259 68.5t-182.5 189.5t-66.5 269q0 225 145.5 375.5t362.5 150.5q216 0 361 -150.5t145 -375.5t-145 -376t-361 -151zM195 502q0 -199 123.5 -328t312.5 -129t312.5 129t123.5 328t-123.5 327.5t-312.5 128.5t-312.5 -128.5t-123.5 -327.5zM469 1403
q-14 31 18 31h25q22 0 33 -25l108 -238q13 -30 -18 -30h-23q-19 0 -32 24z" />
    <glyph glyph-name="oacute" unicode="&#xf3;" horiz-adv-x="1261" 
d="M631 -25q-143 0 -259 68.5t-182.5 189.5t-66.5 269q0 225 145.5 375.5t362.5 150.5q216 0 361 -150.5t145 -375.5t-145 -376t-361 -151zM195 502q0 -199 123.5 -328t312.5 -129t312.5 129t123.5 328t-123.5 327.5t-312.5 128.5t-312.5 -128.5t-123.5 -327.5zM608 1171
l103 238q8 25 32 25h33q31 0 17 -31l-105 -238q-11 -24 -31 -24h-30q-32 0 -19 30z" />
    <glyph glyph-name="ocircumflex" unicode="&#xf4;" horiz-adv-x="1261" 
d="M631 -25q-143 0 -259 68.5t-182.5 189.5t-66.5 269q0 225 145.5 375.5t362.5 150.5q216 0 361 -150.5t145 -375.5t-145 -376t-361 -151zM195 502q0 -199 123.5 -328t312.5 -129t312.5 129t123.5 328t-123.5 327.5t-312.5 128.5t-312.5 -128.5t-123.5 -327.5zM401 1210
l168 207q14 17 33 17h60q16 0 30 -17l170 -207q5 -6 0.5 -14t-14.5 -8h-43q-18 0 -31 16l-143 178l-144 -178q-13 -16 -30 -16h-41q-10 0 -15.5 8t0.5 14z" />
    <glyph glyph-name="otilde" unicode="&#xf5;" horiz-adv-x="1261" 
d="M631 -25q-143 0 -259 68.5t-182.5 189.5t-66.5 269q0 225 145.5 375.5t362.5 150.5q216 0 361 -150.5t145 -375.5t-145 -376t-361 -151zM195 502q0 -199 123.5 -328t312.5 -129t312.5 129t123.5 328t-123.5 327.5t-312.5 128.5t-312.5 -128.5t-123.5 -327.5zM369 1348
q3 57 43.5 89.5t99.5 32.5q35 0 64 -13t49 -31t39.5 -36t43 -31t50.5 -13t47 17.5t22 41.5q3 20 23 20h33q20 0 20 -20q-3 -58 -44 -91.5t-99 -33.5q-43 0 -78.5 19t-56.5 42.5t-51 42.5t-62 19q-27 0 -47 -18t-23 -42q-3 -18 -22 -18h-35q-16 0 -16 23z" />
    <glyph glyph-name="odieresis" unicode="&#xf6;" horiz-adv-x="1261" 
d="M631 -25q-143 0 -259 68.5t-182.5 189.5t-66.5 269q0 225 145.5 375.5t362.5 150.5q216 0 361 -150.5t145 -375.5t-145 -376t-361 -151zM195 502q0 -199 123.5 -328t312.5 -129t312.5 129t123.5 328t-123.5 327.5t-312.5 128.5t-312.5 -128.5t-123.5 -327.5zM412 1391
q0 21 17 37t40 16t40 -16t17 -37q0 -22 -17 -39t-40 -17t-40 17t-17 39zM737 1391q0 20 17.5 36.5t40.5 16.5t40 -16t17 -37q0 -22 -17 -39t-40 -17t-40.5 17t-17.5 39z" />
    <glyph glyph-name="divide" unicode="&#xf7;" horiz-adv-x="860" 
d="M164 539q-14 0 -22.5 8.5t-8.5 21.5v21q0 14 8.5 22.5t22.5 8.5h532q14 0 22.5 -8.5t8.5 -22.5v-21q0 -13 -8.5 -21.5t-22.5 -8.5h-532zM350 319q0 29 22.5 51.5t51.5 22.5q31 0 53.5 -22.5t22.5 -51.5q0 -32 -22.5 -52.5t-53.5 -20.5q-30 0 -52 21t-22 52zM350 827
q0 29 22.5 51.5t51.5 22.5q31 0 53.5 -22.5t22.5 -51.5q0 -31 -22 -51t-54 -20q-30 0 -52 20t-22 51z" />
    <glyph glyph-name="oslash" unicode="&#xf8;" horiz-adv-x="1261" 
d="M330 -143q-15 0 -19.5 10t2.5 27l68 145q-119 67 -188.5 189.5t-69.5 273.5q0 225 145.5 375.5t362.5 150.5q98 0 188 -35l58 127q13 23 30 23h21q15 0 20 -10t-2 -27l-65 -141q119 -67 187.5 -189t68.5 -274q0 -225 -145 -376t-361 -151q-104 0 -191 35l-61 -131
q-13 -22 -31 -22h-18zM195 502q0 -132 57.5 -237t157.5 -163l381 828q-76 28 -160 28q-189 0 -312.5 -128.5t-123.5 -327.5zM469 74q79 -29 162 -29q189 0 312.5 129t123.5 328q0 133 -57.5 237t-157.5 162z" />
    <glyph glyph-name="ugrave" unicode="&#xf9;" 
d="M541 -25q-170 0 -268.5 105t-98.5 303v594q0 27 25 27h22q25 0 25 -27v-608q0 -151 79 -237.5t222 -86.5q148 0 246 89t98 235v608q0 27 24 27h23q25 0 25 -27v-950q0 -27 -25 -27h-14q-16 0 -20.5 6t-6.5 23l-6 137q-47 -84 -136.5 -137.5t-213.5 -53.5zM410 1403
q-14 31 18 31h25q21 0 32 -25l109 -238q13 -30 -19 -30h-22q-20 0 -33 24z" />
    <glyph glyph-name="uacute" unicode="&#xfa;" 
d="M541 -25q-170 0 -268.5 105t-98.5 303v594q0 27 25 27h22q25 0 25 -27v-608q0 -151 79 -237.5t222 -86.5q148 0 246 89t98 235v608q0 27 24 27h23q25 0 25 -27v-950q0 -27 -25 -27h-14q-16 0 -20.5 6t-6.5 23l-6 137q-47 -84 -136.5 -137.5t-213.5 -53.5zM549 1171
l102 238q8 25 33 25h33q30 0 16 -31l-104 -238q-11 -24 -31 -24h-31q-31 0 -18 30z" />
    <glyph glyph-name="ucircumflex" unicode="&#xfb;" 
d="M541 -25q-170 0 -268.5 105t-98.5 303v594q0 27 25 27h22q25 0 25 -27v-608q0 -151 79 -237.5t222 -86.5q148 0 246 89t98 235v608q0 27 24 27h23q25 0 25 -27v-950q0 -27 -25 -27h-14q-16 0 -20.5 6t-6.5 23l-6 137q-47 -84 -136.5 -137.5t-213.5 -53.5zM340 1210
l168 207q14 17 33 17h59q17 0 31 -17l170 -207q5 -6 0 -14t-15 -8h-43q-17 0 -30 16l-144 178l-143 -178q-13 -16 -31 -16h-41q-10 0 -15 8t1 14z" />
    <glyph glyph-name="udieresis" unicode="&#xfc;" 
d="M541 -25q-170 0 -268.5 105t-98.5 303v594q0 27 25 27h22q25 0 25 -27v-608q0 -151 79 -237.5t222 -86.5q148 0 246 89t98 235v608q0 27 24 27h23q25 0 25 -27v-950q0 -27 -25 -27h-14q-16 0 -20.5 6t-6.5 23l-6 137q-47 -84 -136.5 -137.5t-213.5 -53.5zM352 1391
q0 20 17.5 36.5t40.5 16.5t40 -16t17 -37q0 -22 -17 -39t-40 -17t-40.5 17t-17.5 39zM678 1391q0 21 17 37t40 16t40.5 -16.5t17.5 -36.5q0 -22 -17.5 -39t-40.5 -17t-40 17t-17 39z" />
    <glyph glyph-name="yacute" unicode="&#xfd;" horiz-adv-x="1081" 
d="M381 -389q-13 0 -18.5 8.5t-0.5 20.5l140 354l-383 975q-12 35 20 35h21q21 0 30 -25l351 -907l352 907q9 25 29 25h20q35 0 23 -35l-529 -1334q-9 -24 -33 -24h-22zM520 1171l103 238q8 25 32 25h33q31 0 17 -31l-105 -238q-11 -24 -31 -24h-30q-32 0 -19 30z" />
    <glyph glyph-name="thorn" unicode="&#xfe;" horiz-adv-x="1294" 
d="M199 -389q-25 0 -25 27v1800q0 26 25 26h20q25 0 25 -26v-666q57 116 165 184t259 72q222 0 362.5 -149t140.5 -377q0 -229 -140 -378t-363 -149q-138 0 -248 62.5t-176 185.5v-585q0 -27 -25 -27h-20zM244 496q0 -202 118 -326.5t306 -124.5q191 0 313.5 127t122.5 330
q0 202 -122.5 329t-313.5 127q-187 0 -305.5 -129t-118.5 -333z" />
    <glyph glyph-name="ydieresis" unicode="&#xff;" horiz-adv-x="1081" 
d="M381 -389q-13 0 -18.5 8.5t-0.5 20.5l140 354l-383 975q-12 35 20 35h21q21 0 30 -25l351 -907l352 907q9 25 29 25h20q35 0 23 -35l-529 -1334q-9 -24 -33 -24h-22zM324 1391q0 21 17 37t40 16t40 -16t17 -37q0 -22 -17 -39t-40 -17t-40 17t-17 39zM649 1391
q0 20 17.5 36.5t40.5 16.5t40 -16t17 -37q0 -22 -17 -39t-40 -17t-40.5 17t-17.5 39z" />
    <glyph glyph-name="Amacron" unicode="&#x100;" horiz-adv-x="1378" 
d="M150 0q-17 0 -22.5 10t1.5 25l506 1374q9 25 37 25h35q25 0 34 -25l508 -1374q6 -15 0.5 -25t-22.5 -10h-23q-22 0 -30 25l-127 346h-717l-125 -346q-8 -25 -35 -25h-20zM354 438h668l-334 916zM399 1823v14q0 27 27 27h522q29 0 29 -27v-14q0 -27 -29 -27h-522
q-27 0 -27 27z" />
    <glyph glyph-name="amacron" unicode="&#x101;" horiz-adv-x="1294" 
d="M629 -25q-224 0 -365 149t-141 378q0 228 141 377t365 149q143 0 250.5 -67.5t167.5 -186.5l4 203q0 27 24 27h21q24 0 24 -27v-950q0 -27 -22 -27h-23q-24 0 -24 27l-4 196q-58 -117 -166 -182.5t-252 -65.5zM190 502q0 -203 122.5 -330t314.5 -127q188 0 306 124.5
t118 326.5q0 204 -118.5 333t-305.5 129q-191 0 -314 -127t-123 -329zM354 1393v14q0 27 27 27h522q29 0 29 -27v-14q0 -27 -29 -27h-522q-27 0 -27 27z" />
    <glyph glyph-name="Abreve" unicode="&#x102;" horiz-adv-x="1378" 
d="M150 0q-17 0 -22.5 10t1.5 25l506 1374q9 25 37 25h35q25 0 34 -25l508 -1374q6 -15 0.5 -25t-22.5 -10h-23q-22 0 -30 25l-127 346h-717l-125 -346q-8 -25 -35 -25h-20zM354 438h668l-334 916zM434 1833q-3 31 29 31h14q30 0 33 -29q9 -73 57 -114.5t121 -41.5t122 41.5
t56 114.5q3 29 33 29h14q32 0 29 -31q-6 -98 -75 -161.5t-179 -63.5t-179 63.5t-75 161.5z" />
    <glyph glyph-name="abreve" unicode="&#x103;" horiz-adv-x="1294" 
d="M629 -25q-224 0 -365 149t-141 378q0 228 141 377t365 149q143 0 250.5 -67.5t167.5 -186.5l4 203q0 27 24 27h21q24 0 24 -27v-950q0 -27 -22 -27h-23q-24 0 -24 27l-4 196q-58 -117 -166 -182.5t-252 -65.5zM190 502q0 -203 122.5 -330t314.5 -127q188 0 306 124.5
t118 326.5q0 204 -118.5 333t-305.5 129q-191 0 -314 -127t-123 -329zM387 1403q-3 31 29 31h14q30 0 33 -29q9 -73 57 -114.5t121 -41.5t122 41.5t56 114.5q3 29 33 29h14q32 0 29 -31q-6 -98 -75 -161.5t-179 -63.5t-179 63.5t-75 161.5z" />
    <glyph glyph-name="Aogonek" unicode="&#x104;" horiz-adv-x="1378" 
d="M150 0q-17 0 -22.5 10t1.5 25l506 1374q9 25 37 25h35q25 0 34 -25l508 -1374q6 -14 1 -23.5t-19 -11.5q-95 0 -167.5 -61.5t-72.5 -157.5q0 -85 59.5 -118.5t153.5 -12.5v-56q-28 -13 -64.5 -15.5t-74 8t-69.5 32t-52 61.5t-20 93q0 109 73 178.5t170 91.5l-120 328
h-717l-125 -346q-8 -25 -35 -25h-20zM354 438h668l-334 916z" />
    <glyph glyph-name="aogonek" unicode="&#x105;" horiz-adv-x="1294" 
d="M1067 -406q-29 -13 -65.5 -15.5t-74.5 8t-70 32t-52.5 61.5t-20.5 93q0 59 24.5 109.5t64.5 83.5t85.5 53.5t92.5 27.5l-4 176q-58 -117 -166 -182.5t-252 -65.5q-224 0 -365 149t-141 378q0 228 141 377t365 149q143 0 250.5 -67.5t167.5 -186.5l4 203q0 27 24 27h21
q24 0 24 -27v-950q0 -27 -22 -27q-101 -5 -173.5 -64.5t-72.5 -154.5q0 -85 59.5 -118.5t155.5 -12.5v-56zM190 502q0 -203 122.5 -330t314.5 -127q188 0 306 124.5t118 326.5q0 204 -118.5 333t-305.5 129q-191 0 -314 -127t-123 -329z" />
    <glyph glyph-name="Cacute" unicode="&#x106;" horiz-adv-x="1513" 
d="M874 -27q-158 0 -293.5 58t-228.5 157t-145.5 234.5t-52.5 288.5t52.5 288.5t145.5 235t228.5 157.5t293.5 58q268 0 474 -172q10 -10 14 -15t4.5 -15t-8.5 -21l-8 -13q-12 -10 -21 -9.5t-26 12.5q-188 161 -424 161q-184 0 -333 -86t-233 -238.5t-84 -342.5
q0 -142 49.5 -266t135.5 -211.5t206.5 -138t258.5 -50.5q234 0 424 162q16 13 25.5 13.5t17.5 -9.5l12 -14q11 -11 10 -21.5t-4.5 -14.5t-15.5 -16q-206 -172 -474 -172zM848 1602l102 237q8 25 33 25h33q30 0 16 -31l-104 -238q-11 -24 -31 -24h-31q-32 0 -18 31z" />
    <glyph glyph-name="cacute" unicode="&#x107;" horiz-adv-x="1150" 
d="M639 -25q-219 0 -367.5 150t-148.5 375q0 226 149.5 377t370.5 151q233 0 371 -160q10 -15 11 -22t-7 -17l-10 -10q-20 -21 -43 2q-60 65 -134.5 101t-185.5 36q-192 0 -321 -128t-129 -330q0 -203 129 -329t323 -126q111 0 185 35.5t131 97.5q9 9 14.5 13t14.5 3t18 -10
l10 -10q8 -10 7 -17t-11 -22q-138 -160 -377 -160zM606 1171l103 238q8 25 32 25h33q31 0 17 -31l-105 -238q-11 -24 -31 -24h-30q-32 0 -19 30z" />
    <glyph glyph-name="Ccircumflex" unicode="&#x108;" horiz-adv-x="1513" 
d="M874 -27q-158 0 -293.5 58t-228.5 157t-145.5 234.5t-52.5 288.5t52.5 288.5t145.5 235t228.5 157.5t293.5 58q268 0 474 -172q10 -10 14 -15t4.5 -15t-8.5 -21l-8 -13q-12 -10 -21 -9.5t-26 12.5q-188 161 -424 161q-184 0 -333 -86t-233 -238.5t-84 -342.5
q0 -142 49.5 -266t135.5 -211.5t206.5 -138t258.5 -50.5q234 0 424 162q16 13 25.5 13.5t17.5 -9.5l12 -14q11 -11 10 -21.5t-4.5 -14.5t-15.5 -16q-206 -172 -474 -172zM641 1640l168 207q14 17 33 17h59q17 0 31 -17l170 -207q5 -6 0 -14t-15 -8h-43q-17 0 -30 16
l-144 178l-143 -178q-13 -16 -31 -16h-41q-10 0 -15 8t1 14z" />
    <glyph glyph-name="ccircumflex" unicode="&#x109;" horiz-adv-x="1150" 
d="M639 -25q-219 0 -367.5 150t-148.5 375q0 226 149.5 377t370.5 151q233 0 371 -160q10 -15 11 -22t-7 -17l-10 -10q-20 -21 -43 2q-60 65 -134.5 101t-185.5 36q-192 0 -321 -128t-129 -330q0 -203 129 -329t323 -126q111 0 185 35.5t131 97.5q9 9 14.5 13t14.5 3t18 -10
l10 -10q8 -10 7 -17t-11 -22q-138 -160 -377 -160zM399 1210l168 207q14 17 33 17h59q17 0 31 -17l170 -207q5 -6 0.5 -14t-14.5 -8h-43q-18 0 -31 16l-143 178l-144 -178q-13 -16 -30 -16h-41q-10 0 -15.5 8t0.5 14z" />
    <glyph glyph-name="Cdotaccent" unicode="&#x10a;" horiz-adv-x="1513" 
d="M874 -27q-158 0 -293.5 58t-228.5 157t-145.5 234.5t-52.5 288.5t52.5 288.5t145.5 235t228.5 157.5t293.5 58q268 0 474 -172q10 -10 14 -15t4.5 -15t-8.5 -21l-8 -13q-12 -10 -21 -9.5t-26 12.5q-188 161 -424 161q-184 0 -333 -86t-233 -238.5t-84 -342.5
q0 -142 49.5 -266t135.5 -211.5t206.5 -138t258.5 -50.5q234 0 424 162q16 13 25.5 13.5t17.5 -9.5l12 -14q11 -11 10 -21.5t-4.5 -14.5t-15.5 -16q-206 -172 -474 -172zM813 1815q0 23 17.5 40t39.5 17q23 0 39.5 -17t16.5 -40t-16.5 -40.5t-39.5 -17.5q-22 0 -39.5 17.5
t-17.5 40.5z" />
    <glyph glyph-name="cdotaccent" unicode="&#x10b;" horiz-adv-x="1150" 
d="M639 -25q-219 0 -367.5 150t-148.5 375q0 226 149.5 377t370.5 151q233 0 371 -160q10 -15 11 -22t-7 -17l-10 -10q-20 -21 -43 2q-60 65 -134.5 101t-185.5 36q-192 0 -321 -128t-129 -330q0 -203 129 -329t323 -126q111 0 185 35.5t131 97.5q9 9 14.5 13t14.5 3t18 -10
l10 -10q8 -10 7 -17t-11 -22q-138 -160 -377 -160zM571 1384q0 23 18 40.5t40 17.5q23 0 39 -17t16 -41q0 -23 -16 -40t-39 -17q-22 0 -40 17t-18 40z" />
    <glyph glyph-name="Ccaron" unicode="&#x10c;" horiz-adv-x="1513" 
d="M874 -27q-158 0 -293.5 58t-228.5 157t-145.5 234.5t-52.5 288.5t52.5 288.5t145.5 235t228.5 157.5t293.5 58q268 0 474 -172q10 -10 14 -15t4.5 -15t-8.5 -21l-8 -13q-12 -10 -21 -9.5t-26 12.5q-188 161 -424 161q-184 0 -333 -86t-233 -238.5t-84 -342.5
q0 -142 49.5 -266t135.5 -211.5t206.5 -138t258.5 -50.5q234 0 424 162q16 13 25.5 13.5t17.5 -9.5l12 -14q11 -11 10 -21.5t-4.5 -14.5t-15.5 -16q-206 -172 -474 -172zM641 1839q-6 7 -1.5 15t15.5 8h41q17 0 31 -17l143 -178l144 178q14 17 30 17h43q10 0 15 -7.5
t0 -15.5l-170 -207q-13 -16 -31 -16h-59q-20 0 -33 16z" />
    <glyph glyph-name="ccaron" unicode="&#x10d;" horiz-adv-x="1150" 
d="M639 -25q-219 0 -367.5 150t-148.5 375q0 226 149.5 377t370.5 151q233 0 371 -160q10 -15 11 -22t-7 -17l-10 -10q-20 -21 -43 2q-60 65 -134.5 101t-185.5 36q-192 0 -321 -128t-129 -330q0 -203 129 -329t323 -126q111 0 185 35.5t131 97.5q9 9 14.5 13t14.5 3t18 -10
l10 -10q8 -10 7 -17t-11 -22q-138 -160 -377 -160zM399 1409q-6 7 -1 15t16 8h41q16 0 30 -17l144 -178l143 178q14 17 31 17h43q10 0 14.5 -8t-0.5 -15l-170 -207q-13 -16 -31 -16h-59q-20 0 -33 16z" />
    <glyph glyph-name="Dcaron" unicode="&#x10e;" horiz-adv-x="1345" 
d="M221 0q-26 0 -26 27v1380q0 27 26 27h252q186 0 327 -53.5t227.5 -150.5t129.5 -226t43 -287t-43 -287t-129.5 -226t-227.5 -150.5t-327 -53.5h-252zM268 70h205q333 0 493 169.5t160 477.5t-160 477.5t-493 169.5h-205v-1294zM442 1839q-6 7 -1 15t16 8h41q16 0 30 -17
l144 -178l143 178q14 17 31 17h43q10 0 14.5 -8t-0.5 -15l-170 -207q-13 -16 -31 -16h-59q-20 0 -33 16z" />
    <glyph glyph-name="dcaron" unicode="&#x10f;" horiz-adv-x="1341" 
d="M629 -25q-224 0 -365 149t-141 378q0 228 141 377t365 149q143 0 252.5 -68t169.5 -188v666q0 26 24 26h21q24 0 24 -26v-1411q0 -27 -22 -27h-23q-24 0 -24 27l-4 196q-58 -117 -166 -182.5t-252 -65.5zM190 502q0 -203 122.5 -330t314.5 -127q188 0 306 124.5
t118 326.5q0 204 -118.5 333t-305.5 129q-191 0 -314 -127t-123 -329zM1223 1145l102 237q8 25 33 25h33q30 0 16 -31l-104 -237q-11 -25 -31 -25h-31q-32 0 -18 31z" />
    <glyph glyph-name="Dcroat" unicode="&#x110;" horiz-adv-x="1361" 
d="M238 0q-27 0 -27 27v663h-133q-27 0 -27 27v14q0 27 27 27h133v649q0 27 27 27h251q186 0 327.5 -53.5t228 -150.5t129.5 -226t43 -287t-43 -287t-129.5 -226t-228 -150.5t-327.5 -53.5h-251zM285 70h204q333 0 493.5 169.5t160.5 477.5t-160.5 477.5t-493.5 169.5h-204
v-606h315q29 0 29 -27v-14q0 -27 -29 -27h-315v-620z" />
    <glyph glyph-name="dcroat" unicode="&#x111;" horiz-adv-x="1267" 
d="M629 -25q-224 0 -365 149t-141 378q0 228 141 377t365 149q143 0 252.5 -68t169.5 -188v449h-365q-27 0 -27 26v15q0 26 27 26h365v150q0 26 24 26h21q24 0 24 -26v-150h88q29 0 29 -26v-15q0 -26 -29 -26h-88v-1194q0 -27 -22 -27h-23q-24 0 -24 27l-4 196
q-58 -117 -166 -182.5t-252 -65.5zM190 502q0 -203 122.5 -330t314.5 -127q188 0 306 124.5t118 326.5q0 204 -118.5 333t-305.5 129q-191 0 -314 -127t-123 -329z" />
    <glyph glyph-name="Emacron" unicode="&#x112;" horiz-adv-x="1089" 
d="M221 0q-26 0 -26 27v1380q0 27 26 27h664q26 0 26 -27v-14q0 -29 -26 -29h-617v-582h586q27 0 27 -26v-15q0 -28 -27 -28h-586v-643h619q28 0 28 -29v-14q0 -27 -28 -27h-666zM270 1823v14q0 27 27 27h522q29 0 29 -27v-14q0 -27 -29 -27h-522q-27 0 -27 27z" />
    <glyph glyph-name="emacron" unicode="&#x113;" horiz-adv-x="1208" 
d="M645 -25q-159 0 -279.5 73.5t-181.5 193t-61 264.5q0 147 62.5 265.5t176.5 187.5t259 69q107 0 196 -39.5t146 -106t88.5 -151t31.5 -176.5q0 -47 -10 -61.5t-43 -14.5h-840q11 -191 131 -313.5t328 -122.5q182 0 322 115q6 6 14.5 7t13.5 -5l13 -13q7 -9 6.5 -17.5
t-3 -11.5t-11.5 -12q-68 -64 -161.5 -97.5t-197.5 -33.5zM195 547h825q-2 179 -111 294t-291 115t-296.5 -112.5t-126.5 -296.5zM309 1393v14q0 27 27 27h522q29 0 29 -27v-14q0 -27 -29 -27h-522q-27 0 -27 27z" />
    <glyph glyph-name="Edotaccent" unicode="&#x116;" horiz-adv-x="1089" 
d="M221 0q-26 0 -26 27v1380q0 27 26 27h664q26 0 26 -27v-14q0 -29 -26 -29h-617v-582h586q27 0 27 -26v-15q0 -28 -27 -28h-586v-643h619q28 0 28 -29v-14q0 -27 -28 -27h-666zM502 1815q0 23 17.5 40t39.5 17q23 0 39 -17t16 -40q0 -24 -16 -41t-39 -17q-22 0 -39.5 17.5
t-17.5 40.5z" />
    <glyph glyph-name="edotaccent" unicode="&#x117;" horiz-adv-x="1208" 
d="M645 -25q-159 0 -279.5 73.5t-181.5 193t-61 264.5q0 147 62.5 265.5t176.5 187.5t259 69q107 0 196 -39.5t146 -106t88.5 -151t31.5 -176.5q0 -47 -10 -61.5t-43 -14.5h-840q11 -191 131 -313.5t328 -122.5q182 0 322 115q6 6 14.5 7t13.5 -5l13 -13q7 -9 6.5 -17.5
t-3 -11.5t-11.5 -12q-68 -64 -161.5 -97.5t-197.5 -33.5zM195 547h825q-2 179 -111 294t-291 115t-296.5 -112.5t-126.5 -296.5zM539 1384q0 23 17.5 40.5t39.5 17.5q23 0 39 -17t16 -41q0 -23 -16 -40t-39 -17q-22 0 -39.5 17t-17.5 40z" />
    <glyph glyph-name="Eogonek" unicode="&#x118;" horiz-adv-x="1089" 
d="M221 0q-26 0 -26 27v1380q0 27 26 27h664q26 0 26 -27v-14q0 -29 -26 -29h-617v-582h586q27 0 27 -26v-15q0 -28 -27 -28h-586v-643h619q28 0 28 -29v-14q0 -27 -26 -27q-95 0 -167.5 -61.5t-72.5 -157.5q0 -85 59.5 -118.5t153.5 -12.5v-56q-28 -13 -64.5 -15.5t-74 8
t-69.5 32t-52 61.5t-20 93q0 75 37.5 132.5t97.5 94.5h-496z" />
    <glyph glyph-name="eogonek" unicode="&#x119;" horiz-adv-x="1208" 
d="M784 -406q-29 -13 -65.5 -15.5t-74.5 8t-70 31.5t-52 61t-20 92q0 117 116 204q-151 6 -265 80.5t-172 192t-58 258.5q0 147 62.5 265.5t176.5 187.5t259 69q107 0 196 -39.5t146 -106t88.5 -151t31.5 -176.5q0 -47 -10 -61.5t-43 -14.5h-840q11 -191 131 -313.5
t328 -122.5q182 0 322 115q6 6 14.5 7t13.5 -5l13 -13q7 -9 6.5 -17.5t-3 -11.5t-11.5 -12q-90 -84 -228 -116q-207 -64 -207 -215q0 -89 58 -118t157 -7v-56zM195 547h825q-2 179 -111 294t-291 115t-296.5 -112.5t-126.5 -296.5z" />
    <glyph glyph-name="Ecaron" unicode="&#x11a;" horiz-adv-x="1089" 
d="M221 0q-26 0 -26 27v1380q0 27 26 27h664q26 0 26 -27v-14q0 -29 -26 -29h-617v-582h586q27 0 27 -26v-15q0 -28 -27 -28h-586v-643h619q28 0 28 -29v-14q0 -27 -28 -27h-666zM330 1839q-6 7 -1.5 15t15.5 8h41q17 0 31 -17l143 -178l143 178q14 17 31 17h43
q10 0 15 -7.5t0 -15.5l-170 -207q-13 -16 -31 -16h-60q-19 0 -32 16z" />
    <glyph glyph-name="ecaron" unicode="&#x11b;" horiz-adv-x="1208" 
d="M645 -25q-159 0 -279.5 73.5t-181.5 193t-61 264.5q0 147 62.5 265.5t176.5 187.5t259 69q107 0 196 -39.5t146 -106t88.5 -151t31.5 -176.5q0 -47 -10 -61.5t-43 -14.5h-840q11 -191 131 -313.5t328 -122.5q182 0 322 115q6 6 14.5 7t13.5 -5l13 -13q7 -9 6.5 -17.5
t-3 -11.5t-11.5 -12q-68 -64 -161.5 -97.5t-197.5 -33.5zM195 547h825q-2 179 -111 294t-291 115t-296.5 -112.5t-126.5 -296.5zM367 1409q-6 7 -1.5 15t15.5 8h41q17 0 31 -17l143 -178l143 178q14 17 31 17h43q10 0 14.5 -8t-0.5 -15l-170 -207q-13 -16 -30 -16h-60
q-19 0 -32 16z" />
    <glyph glyph-name="Gcircumflex" unicode="&#x11c;" horiz-adv-x="1679" 
d="M883 -27q-211 0 -379 99t-259 267t-91 372q0 152 53.5 288t148.5 235.5t232.5 157.5t296.5 58q276 0 477 -186q15 -15 6 -27l-22 -31q-13 -13 -29 0q-197 172 -434 172q-138 0 -259.5 -51t-208 -139.5t-136.5 -212t-50 -264.5q0 -188 85 -340.5t234.5 -239t332.5 -86.5
q171 0 307 74t211 209t71 305h-559q-28 0 -28 26v19q0 27 28 27h605q13 0 21.5 -8.5t8.5 -22.5v-27q0 -193 -79.5 -345t-231.5 -240.5t-352 -88.5zM647 1640l168 207q14 17 33 17h59q17 0 31 -17l170 -207q5 -6 0.5 -14t-14.5 -8h-43q-18 0 -31 16l-143 178l-144 -178
q-13 -16 -31 -16h-40q-10 0 -15.5 8t0.5 14z" />
    <glyph glyph-name="gcircumflex" unicode="&#x11d;" horiz-adv-x="1284" 
d="M608 -420q-98 0 -184.5 24t-142.5 60q-24 17 -17 33l17 24q11 18 26 7q125 -80 303 -80q70 0 131 12.5t116.5 42t95 74t62.5 112t23 152.5v203q-62 -113 -167.5 -175.5t-249.5 -62.5q-217 0 -357.5 143.5t-140.5 368.5q0 222 139.5 366t353.5 144q147 0 255 -64t169 -182
v195q0 27 25 27h22q23 0 23 -27v-948q0 -110 -40.5 -197.5t-110.5 -141.5t-159.5 -82t-191.5 -28zM190 518q0 -200 123 -321t310 -121q186 0 302.5 118t116.5 316q0 202 -116.5 325t-302.5 123q-187 0 -310 -121t-123 -319zM412 1210l168 207q14 17 32 17h60q16 0 30 -17
l170 -207q5 -6 0.5 -14t-14.5 -8h-43q-18 0 -31 16l-143 178l-143 -178q-13 -16 -31 -16h-41q-10 0 -15 8t1 14z" />
    <glyph glyph-name="Gbreve" unicode="&#x11e;" horiz-adv-x="1679" 
d="M883 -27q-211 0 -379 99t-259 267t-91 372q0 152 53.5 288t148.5 235.5t232.5 157.5t296.5 58q276 0 477 -186q15 -15 6 -27l-22 -31q-13 -13 -29 0q-197 172 -434 172q-138 0 -259.5 -51t-208 -139.5t-136.5 -212t-50 -264.5q0 -188 85 -340.5t234.5 -239t332.5 -86.5
q171 0 307 74t211 209t71 305h-559q-28 0 -28 26v19q0 27 28 27h605q13 0 21.5 -8.5t8.5 -22.5v-27q0 -193 -79.5 -345t-231.5 -240.5t-352 -88.5zM623 1833q-3 31 28 31h15q29 0 32 -29q9 -73 57.5 -114.5t121.5 -41.5t122 41.5t56 114.5q3 29 32 29h15q31 0 28 -31
q-6 -98 -74.5 -161.5t-178.5 -63.5t-179 63.5t-75 161.5z" />
    <glyph glyph-name="gbreve" unicode="&#x11f;" horiz-adv-x="1284" 
d="M608 -420q-98 0 -184.5 24t-142.5 60q-24 17 -17 33l17 24q11 18 26 7q125 -80 303 -80q70 0 131 12.5t116.5 42t95 74t62.5 112t23 152.5v203q-62 -113 -167.5 -175.5t-249.5 -62.5q-217 0 -357.5 143.5t-140.5 368.5q0 222 139.5 366t353.5 144q147 0 255 -64t169 -182
v195q0 27 25 27h22q23 0 23 -27v-948q0 -110 -40.5 -197.5t-110.5 -141.5t-159.5 -82t-191.5 -28zM190 518q0 -200 123 -321t310 -121q186 0 302.5 118t116.5 316q0 202 -116.5 325t-302.5 123q-187 0 -310 -121t-123 -319zM387 1403q-3 31 29 31h14q30 0 33 -29
q9 -73 57 -114.5t121 -41.5t122 41.5t56 114.5q3 29 33 29h14q32 0 29 -31q-6 -98 -75 -161.5t-179 -63.5t-179 63.5t-75 161.5z" />
    <glyph glyph-name="Gdotaccent" unicode="&#x120;" horiz-adv-x="1679" 
d="M883 -27q-211 0 -379 99t-259 267t-91 372q0 152 53.5 288t148.5 235.5t232.5 157.5t296.5 58q276 0 477 -186q15 -15 6 -27l-22 -31q-13 -13 -29 0q-197 172 -434 172q-138 0 -259.5 -51t-208 -139.5t-136.5 -212t-50 -264.5q0 -188 85 -340.5t234.5 -239t332.5 -86.5
q171 0 307 74t211 209t71 305h-559q-28 0 -28 26v19q0 27 28 27h605q13 0 21.5 -8.5t8.5 -22.5v-27q0 -193 -79.5 -345t-231.5 -240.5t-352 -88.5zM819 1815q0 23 18 40t40 17q23 0 39 -17t16 -40q0 -24 -16 -41t-39 -17q-22 0 -40 17.5t-18 40.5z" />
    <glyph glyph-name="gdotaccent" unicode="&#x121;" horiz-adv-x="1284" 
d="M608 -420q-98 0 -184.5 24t-142.5 60q-24 17 -17 33l17 24q11 18 26 7q125 -80 303 -80q70 0 131 12.5t116.5 42t95 74t62.5 112t23 152.5v203q-62 -113 -167.5 -175.5t-249.5 -62.5q-217 0 -357.5 143.5t-140.5 368.5q0 222 139.5 366t353.5 144q147 0 255 -64t169 -182
v195q0 27 25 27h22q23 0 23 -27v-948q0 -110 -40.5 -197.5t-110.5 -141.5t-159.5 -82t-191.5 -28zM190 518q0 -200 123 -321t310 -121q186 0 302.5 118t116.5 316q0 202 -116.5 325t-302.5 123q-187 0 -310 -121t-123 -319zM584 1384q0 23 17.5 40.5t39.5 17.5q23 0 39 -17
t16 -41q0 -23 -16 -40t-39 -17q-22 0 -39.5 17t-17.5 40z" />
    <glyph glyph-name="uni0122" unicode="&#x122;" horiz-adv-x="1679" 
d="M883 -27q-211 0 -379 99t-259 267t-91 372q0 152 53.5 288t148.5 235.5t232.5 157.5t296.5 58q276 0 477 -186q15 -15 6 -27l-22 -31q-13 -13 -29 0q-197 172 -434 172q-138 0 -259.5 -51t-208 -139.5t-136.5 -212t-50 -264.5q0 -188 85 -340.5t234.5 -239t332.5 -86.5
q171 0 307 74t211 209t71 305h-559q-28 0 -28 26v19q0 27 28 27h605q13 0 21.5 -8.5t8.5 -22.5v-27q0 -193 -79.5 -345t-231.5 -240.5t-352 -88.5zM786 -436v47q74 3 108 70q24 48 9 81q-8 18 -26 17q-40 -3 -62 16.5t-22 52.5q0 34 24 56t57 22q45 0 75 -42t30 -101
q0 -27 -5 -54.5t-18.5 -57.5t-34.5 -53t-56 -38t-79 -16z" />
    <glyph glyph-name="uni0123" unicode="&#x123;" horiz-adv-x="1284" 
d="M608 -420q-98 0 -184.5 24t-142.5 60q-24 17 -17 33l17 24q11 18 26 7q125 -80 303 -80q70 0 131 12.5t116.5 42t95 74t62.5 112t23 152.5v203q-62 -113 -167.5 -175.5t-249.5 -62.5q-217 0 -357.5 143.5t-140.5 368.5q0 222 139.5 366t353.5 144q147 0 255 -64t169 -182
v195q0 27 25 27h22q23 0 23 -27v-948q0 -110 -40.5 -197.5t-110.5 -141.5t-159.5 -82t-191.5 -28zM190 518q0 -200 123 -321t310 -121q186 0 302.5 118t116.5 316q0 202 -116.5 325t-302.5 123q-187 0 -310 -121t-123 -319zM516 1284q0 27 5 54.5t18.5 57.5t34.5 53t56 38
t79 16v-47q-74 -3 -108 -70q-24 -48 -9 -81q8 -18 26 -17q40 3 62 -16.5t22 -52.5q0 -34 -24 -56t-57 -22q-45 0 -75 42t-30 101z" />
    <glyph glyph-name="Hcircumflex" unicode="&#x124;" horiz-adv-x="1300" 
d="M221 0q-26 0 -26 27v1380q0 27 26 27h21q26 0 26 -27v-657h764v657q0 27 27 27h18q29 0 29 -27v-1380q0 -27 -29 -27h-18q-27 0 -27 27v653h-764v-653q0 -27 -26 -27h-21zM422 1640l168 207q14 17 33 17h59q17 0 31 -17l170 -207q5 -6 0 -14t-15 -8h-43q-17 0 -30 16
l-144 178l-143 -178q-13 -16 -31 -16h-41q-10 0 -15 8t1 14z" />
    <glyph glyph-name="hcircumflex" unicode="&#x125;" 
d="M199 0q-25 0 -25 27v1411q0 26 25 26h22q25 0 25 -26v-600q47 83 136.5 136.5t213.5 53.5q170 0 268.5 -104.5t98.5 -302.5v-594q0 -27 -25 -27h-23q-24 0 -24 27v608q0 150 -79.5 236.5t-221.5 86.5q-148 0 -246 -88.5t-98 -234.5v-608q0 -27 -25 -27h-22zM-14 1671
l168 207q13 16 32 16h60q17 0 30 -16l170 -207q5 -6 0.5 -14t-14.5 -8h-43q-18 0 -31 16l-143 178l-143 -178q-13 -16 -31 -16h-41q-10 0 -15 8t1 14z" />
    <glyph glyph-name="Hbar" unicode="&#x126;" horiz-adv-x="1300" 
d="M221 0q-26 0 -26 27v1380q0 27 26 27h21q26 0 26 -27v-334h764v334q0 27 27 27h18q29 0 29 -27v-1380q0 -27 -29 -27h-18q-27 0 -27 27v653h-764v-653q0 -27 -26 -27h-21zM268 750h764v247h-764v-247z" />
    <glyph glyph-name="hbar" unicode="&#x127;" horiz-adv-x="1140" 
d="M203 0q-25 0 -25 27v1206h-121q-26 0 -26 27v14q0 26 26 26h121v138q0 26 25 26h22q25 0 25 -26v-138h330q28 0 28 -26v-14q0 -27 -28 -27h-330v-395q47 83 136.5 136.5t213.5 53.5q170 0 268.5 -104.5t98.5 -302.5v-594q0 -27 -25 -27h-22q-25 0 -25 27v608
q0 150 -79.5 236.5t-221.5 86.5q-148 0 -246 -88.5t-98 -234.5v-608q0 -27 -25 -27h-22z" />
    <glyph glyph-name="Itilde" unicode="&#x128;" horiz-adv-x="462" 
d="M221 0q-26 0 -26 27v1380q0 27 26 27h21q26 0 26 -27v-1380q0 -27 -26 -27h-21zM-37 1778q3 57 43.5 90t99.5 33q35 0 64 -13t49 -31.5t39.5 -36.5t43 -31t50.5 -13t47.5 17.5t22.5 41.5q3 20 22 20h33q21 0 21 -20q-3 -58 -44.5 -91.5t-99.5 -33.5q-43 0 -78.5 19
t-56.5 42.5t-51 42.5t-62 19q-27 0 -46.5 -17.5t-22.5 -41.5q-3 -19 -23 -19h-34q-17 0 -17 23z" />
    <glyph glyph-name="itilde" unicode="&#x129;" horiz-adv-x="329" 
d="M154 0q-25 0 -25 27v950q0 27 25 27h22q23 0 23 -27v-950q0 -27 -23 -27h-22zM-104 1348q3 57 43.5 89.5t99.5 32.5q35 0 64 -13t49 -31t39.5 -36t43 -31t50.5 -13t47 17.5t22 41.5q3 20 23 20h33q20 0 20 -20q-3 -58 -44 -91.5t-99 -33.5q-43 0 -78.5 19t-56.5 42.5
t-51 42.5t-62 19q-27 0 -47 -18t-23 -42q-3 -18 -22 -18h-35q-16 0 -16 23z" />
    <glyph glyph-name="Imacron" unicode="&#x12a;" horiz-adv-x="462" 
d="M221 0q-26 0 -26 27v1380q0 27 26 27h21q26 0 26 -27v-1380q0 -27 -26 -27h-21zM-57 1823v14q0 27 26 27h523q28 0 28 -27v-14q0 -27 -28 -27h-523q-26 0 -26 27z" />
    <glyph glyph-name="imacron" unicode="&#x12b;" horiz-adv-x="329" 
d="M154 0q-25 0 -25 27v950q0 27 25 27h22q23 0 23 -27v-950q0 -27 -23 -27h-22zM-123 1393v14q0 27 27 27h522q29 0 29 -27v-14q0 -27 -29 -27h-522q-27 0 -27 27z" />
    <glyph glyph-name="Iogonek" unicode="&#x12e;" horiz-adv-x="462" 
d="M215 -406q-28 -13 -64.5 -15.5t-74.5 8t-69.5 32t-52 61.5t-20.5 93q0 59 24 109.5t63.5 83t83.5 53t90 28.5v1360q0 27 26 27h21q26 0 26 -27v-1380q0 -27 -26 -27q-95 0 -167.5 -61.5t-72.5 -157.5q0 -85 59.5 -118.5t153.5 -12.5v-56z" />
    <glyph glyph-name="iogonek" unicode="&#x12f;" horiz-adv-x="329" 
d="M164 1327q-22 0 -40 17t-18 40t18 40.5t40 17.5q23 0 39 -17t16 -41q0 -23 -16 -40t-39 -17zM-131 -227q0 59 24 109.5t63 83t83 53t90 28.5v930q0 27 25 27h22q23 0 23 -27v-950q0 -27 -23 -27q-95 0 -167 -61.5t-72 -157.5q0 -85 59.5 -118.5t153.5 -12.5v-56
q-28 -13 -64.5 -15.5t-74.5 8t-69.5 32t-52 61.5t-20.5 93z" />
    <glyph glyph-name="Idotaccent" unicode="&#x130;" horiz-adv-x="462" 
d="M221 0q-26 0 -26 27v1380q0 27 26 27h21q26 0 26 -27v-1380q0 -27 -26 -27h-21zM174 1815q0 23 17.5 40t39.5 17q23 0 39.5 -17t16.5 -40t-16.5 -40.5t-39.5 -17.5q-22 0 -39.5 17.5t-17.5 40.5z" />
    <glyph glyph-name="dotlessi" unicode="&#x131;" horiz-adv-x="329" 
d="M154 0q-25 0 -25 27v950q0 27 25 27h22q23 0 23 -27v-950q0 -27 -23 -27h-22z" />
    <glyph glyph-name="IJ" unicode="&#x132;" horiz-adv-x="1439" 
d="M221 0q-26 0 -26 27v1380q0 27 26 27h21q26 0 26 -27v-1380q0 -27 -26 -27h-21zM596 102q-16 21 2 39l12 15q16 19 33 2q62 -58 114 -85.5t130 -27.5q137 0 209.5 95.5t72.5 285.5v981q0 27 27 27h21q26 0 26 -27v-993q0 -215 -95.5 -328t-264.5 -113q-97 0 -164.5 34.5
t-122.5 94.5z" />
    <glyph glyph-name="ij" unicode="&#x133;" horiz-adv-x="854" 
d="M209 1309q-22 0 -39.5 17t-17.5 40q0 24 17.5 41.5t39.5 17.5q23 0 39 -17t16 -42q0 -23 -16 -40t-39 -17zM172 27v950q0 27 25 27h22q23 0 23 -27v-950q0 -27 -23 -27h-22q-25 0 -25 27zM381 -379v29q0 18 22 14q23 -2 62 -2q86 0 116.5 47.5t30.5 136.5v1131
q0 27 23 27h22q25 0 25 -27v-1159q0 -108 -53.5 -168t-163.5 -60q-24 0 -66 7q-12 5 -15 8.5t-3 15.5zM590 1366q0 24 17.5 41.5t41.5 17.5q22 0 37.5 -17t15.5 -42q0 -23 -15.5 -40t-37.5 -17q-23 0 -41 17t-18 40z" />
    <glyph glyph-name="Jcircumflex" unicode="&#x134;" horiz-adv-x="974" 
d="M420 -27q-97 0 -164.5 34.5t-122.5 94.5q-16 21 2 39l12 15q16 19 33 2q62 -58 114 -85.5t130 -27.5q137 0 210 96t73 285v981q0 27 26 27h21q26 0 26 -27v-993q0 -215 -95.5 -328t-264.5 -113zM514 1640l168 207q14 17 33 17h59q17 0 31 -17l170 -207q5 -6 0.5 -14
t-14.5 -8h-43q-18 0 -31 16l-144 178l-143 -178q-13 -16 -31 -16h-41q-10 0 -15 8t1 14z" />
    <glyph glyph-name="jcircumflex" unicode="&#x135;" horiz-adv-x="417" 
d="M49 -410q-23 0 -65 7q-12 5 -15.5 8.5t-3.5 15.5v29q0 19 23 14q23 -2 61 -2q45 0 75.5 13.5t45.5 40t21 57t6 73.5v1131q0 27 22 27h23q24 0 24 -27v-1159q0 -108 -53.5 -168t-163.5 -60zM-2 1210l168 207q14 17 33 17h59q17 0 31 -17l170 -207q5 -6 0 -14t-15 -8h-43
q-17 0 -30 16l-144 178l-143 -178q-13 -16 -31 -16h-41q-10 0 -15 8t1 14z" />
    <glyph glyph-name="uni0136" unicode="&#x136;" horiz-adv-x="1189" 
d="M221 0q-26 0 -26 27v1380q0 27 26 27h21q26 0 26 -27v-866l666 876q14 17 37 17h26q21 0 25.5 -10t-8.5 -27l-502 -645l559 -715q11 -15 6 -26t-24 -11h-23q-24 0 -37 18l-524 678l-201 -258v-411q0 -27 -26 -27h-21zM506 -436v47q73 3 107 68q24 48 10 82q-9 19 -27 18
q-40 -3 -62 16.5t-22 52.5q0 34 24.5 56t57.5 22q45 0 74.5 -41.5t29.5 -101.5q0 -35 -9 -69.5t-29 -69.5t-60 -57t-94 -23z" />
    <glyph glyph-name="uni0137" unicode="&#x137;" horiz-adv-x="1044" 
d="M199 0q-25 0 -25 27v1411q0 26 25 26h20q25 0 25 -26v-1039l551 588q14 17 34 17h43q14 0 15.5 -10t-8.5 -17l-387 -404l444 -542q9 -11 4.5 -21t-22.5 -10h-23q-24 0 -37 18l-412 508l-202 -211v-288q0 -27 -25 -27h-20zM432 -436v47q73 3 107 68q24 48 10 82
q-9 19 -27 18q-40 -3 -62 16.5t-22 52.5q0 34 24.5 56t57.5 22q45 0 75 -42t30 -101q0 -27 -5 -54.5t-18.5 -57.5t-34.5 -53t-56 -38t-79 -16z" />
    <glyph glyph-name="Lacute" unicode="&#x139;" horiz-adv-x="999" 
d="M221 0q-26 0 -26 27v1380q0 27 26 27h21q26 0 26 -27v-1337h568q13 0 21.5 -8.5t8.5 -22.5v-8q0 -14 -8.5 -22.5t-21.5 -8.5h-615zM215 1602l102 237q8 25 33 25h33q30 0 16 -31l-104 -238q-11 -24 -31 -24h-31q-32 0 -18 31z" />
    <glyph glyph-name="lacute" unicode="&#x13a;" horiz-adv-x="417" 
d="M199 0q-25 0 -25 27v1411q0 26 25 26h20q25 0 25 -26v-1411q0 -27 -25 -27h-20zM188 1634l103 238q8 24 33 24h32q30 0 17 -30l-105 -238q-11 -24 -30 -24h-31q-32 0 -19 30z" />
    <glyph glyph-name="uni013B" unicode="&#x13b;" horiz-adv-x="999" 
d="M221 0q-26 0 -26 27v1380q0 27 26 27h21q26 0 26 -27v-1337h568q13 0 21.5 -8.5t8.5 -22.5v-8q0 -14 -8.5 -22.5t-21.5 -8.5h-615zM426 -436v47q73 3 107 68q24 48 10 82q-9 19 -27 18q-40 -3 -62 16.5t-22 52.5q0 34 24.5 56t57.5 22q45 0 74.5 -41.5t29.5 -101.5
q0 -35 -9 -69.5t-29 -69.5t-60 -57t-94 -23z" />
    <glyph glyph-name="uni013C" unicode="&#x13c;" horiz-adv-x="417" 
d="M199 0q-25 0 -25 27v1411q0 26 25 26h20q25 0 25 -26v-1411q0 -27 -25 -27h-20zM121 -436v47q73 3 107 68q24 48 10 82q-9 19 -27 18q-40 -3 -62 16.5t-22 52.5q0 34 24.5 56t57.5 22q45 0 74.5 -41.5t29.5 -101.5q0 -35 -9 -69.5t-29 -69.5t-60 -57t-94 -23z" />
    <glyph glyph-name="Lcaron" unicode="&#x13d;" horiz-adv-x="980" 
d="M221 0q-26 0 -26 27v1380q0 27 26 27h21q26 0 26 -27v-1337h568q13 0 21.5 -8.5t8.5 -22.5v-8q0 -14 -8.5 -22.5t-21.5 -8.5h-615zM453 1092v47q73 3 107 68q24 48 10 82q-9 19 -27 18q-40 -3 -62 16.5t-22 52.5q0 34 24.5 56t57.5 22q45 0 74.5 -41.5t29.5 -101.5
q0 -35 -9 -69.5t-29 -69.5t-60 -57t-94 -23z" />
    <glyph glyph-name="lcaron" unicode="&#x13e;" horiz-adv-x="493" 
d="M199 0q-25 0 -25 27v1411q0 26 25 26h20q25 0 25 -26v-1411q0 -27 -25 -27h-20zM309 1174v47q73 3 107 68q24 48 10 82q-9 19 -27 18q-40 -3 -62 16.5t-22 52.5q0 34 24.5 56t57.5 22q45 0 75 -42t30 -101q0 -27 -5 -54.5t-18.5 -57.5t-34.5 -53t-56 -38t-79 -16z" />
    <glyph glyph-name="Ldot" unicode="&#x13f;" horiz-adv-x="940" 
d="M221 0q-26 0 -26 27v1380q0 27 26 27h21q26 0 26 -27v-1337h568q13 0 21.5 -8.5t8.5 -22.5v-8q0 -14 -8.5 -22.5t-21.5 -8.5h-615zM502 772q0 28 20.5 49t48.5 21q29 0 50.5 -21t21.5 -49q0 -30 -21 -50t-51 -20q-28 0 -48.5 20t-20.5 50z" />
    <glyph glyph-name="ldot" unicode="&#x140;" horiz-adv-x="356" 
d="M199 0q-25 0 -25 27v1411q0 26 25 26h20q25 0 25 -26v-1411q0 -27 -25 -27h-20zM311 768q0 28 21 49t49 21q29 0 50.5 -21t21.5 -49q0 -30 -21 -50t-51 -20q-28 0 -49 20t-21 50z" />
    <glyph glyph-name="Lslash" unicode="&#x141;" horiz-adv-x="1026" 
d="M98 446q-15 -15 -26 -9.5t-11 26.5v45q0 22 17 39l143 139v721q0 27 27 27h20q27 0 27 -27v-651l197 190q15 15 25.5 10t10.5 -26v-43q0 -26 -16 -39l-217 -211v-567h567q14 0 22.5 -9t8.5 -22v-8q0 -13 -8.5 -22t-22.5 -9h-614q-27 0 -27 27v538z" />
    <glyph glyph-name="lslash" unicode="&#x142;" horiz-adv-x="499" 
d="M-10 397v72l225 242v727q0 26 25 26h20q25 0 25 -26v-654l223 240l2 -72l-225 -239v-686q0 -27 -25 -27h-20q-25 0 -25 27v610z" />
    <glyph glyph-name="Nacute" unicode="&#x143;" horiz-adv-x="1335" 
d="M1065 0q-26 0 -37 20l-760 1328v-1321q0 -27 -26 -27h-21q-26 0 -26 27v1380q0 27 24 27h53q25 0 37 -21l758 -1327v1321q0 27 27 27h20q27 0 27 -27v-1380q0 -27 -25 -27h-51zM645 1602l103 237q8 25 32 25h33q30 0 16 -31l-104 -238q-11 -24 -31 -24h-30q-33 0 -19 31z
" />
    <glyph glyph-name="nacute" unicode="&#x144;" 
d="M199 0q-25 0 -25 27v950q0 27 25 27h14q16 0 21.5 -6.5t5.5 -22.5l6 -137q47 83 136.5 136.5t213.5 53.5q170 0 268.5 -104.5t98.5 -302.5v-594q0 -27 -25 -27h-23q-24 0 -24 27v608q0 150 -79.5 236.5t-221.5 86.5q-148 0 -246 -88.5t-98 -234.5v-608q0 -27 -25 -27h-22
zM567 1171l103 238q8 25 32 25h33q31 0 17 -31l-105 -238q-11 -24 -31 -24h-30q-32 0 -19 30z" />
    <glyph glyph-name="uni0145" unicode="&#x145;" horiz-adv-x="1335" 
d="M1065 0q-26 0 -37 20l-760 1328v-1321q0 -27 -26 -27h-21q-26 0 -26 27v1380q0 27 24 27h53q25 0 37 -21l758 -1327v1321q0 27 27 27h20q27 0 27 -27v-1380q0 -27 -25 -27h-51zM578 -436v47q73 3 107 68q24 48 10 82q-9 19 -27 18q-40 -3 -62 16.5t-22 52.5q0 34 24.5 56
t57.5 22q45 0 74.5 -41.5t29.5 -101.5q0 -35 -9 -69.5t-29 -69.5t-60 -57t-94 -23z" />
    <glyph glyph-name="uni0146" unicode="&#x146;" 
d="M199 0q-25 0 -25 27v950q0 27 25 27h14q16 0 21.5 -6.5t5.5 -22.5l6 -137q47 83 136.5 136.5t213.5 53.5q170 0 268.5 -104.5t98.5 -302.5v-594q0 -27 -25 -27h-23q-24 0 -24 27v608q0 150 -79.5 236.5t-221.5 86.5q-148 0 -246 -88.5t-98 -234.5v-608q0 -27 -25 -27h-22
zM500 -436v47q73 3 107 68q24 48 10 82q-9 19 -27 18q-40 -3 -62 16.5t-22 52.5q0 34 24.5 56t57.5 22q45 0 74.5 -41.5t29.5 -101.5q0 -35 -9 -69.5t-29 -69.5t-60 -57t-94 -23z" />
    <glyph glyph-name="Ncaron" unicode="&#x147;" horiz-adv-x="1335" 
d="M1065 0q-26 0 -37 20l-760 1328v-1321q0 -27 -26 -27h-21q-26 0 -26 27v1380q0 27 24 27h53q25 0 37 -21l758 -1327v1321q0 27 27 27h20q27 0 27 -27v-1380q0 -27 -25 -27h-51zM438 1839q-6 7 -1 15t16 8h41q16 0 30 -17l144 -178l143 178q14 17 31 17h43q10 0 14.5 -8
t-0.5 -15l-170 -207q-13 -16 -31 -16h-59q-20 0 -33 16z" />
    <glyph glyph-name="ncaron" unicode="&#x148;" 
d="M199 0q-25 0 -25 27v950q0 27 25 27h14q16 0 21.5 -6.5t5.5 -22.5l6 -137q47 83 136.5 136.5t213.5 53.5q170 0 268.5 -104.5t98.5 -302.5v-594q0 -27 -25 -27h-23q-24 0 -24 27v608q0 150 -79.5 236.5t-221.5 86.5q-148 0 -246 -88.5t-98 -234.5v-608q0 -27 -25 -27h-22
zM360 1409q-6 7 -1 15t16 8h41q16 0 30 -17l144 -178l143 178q14 17 31 17h43q10 0 14.5 -8t-0.5 -15l-170 -207q-13 -16 -30 -16h-60q-20 0 -33 16z" />
    <glyph glyph-name="Eng" unicode="&#x14a;" horiz-adv-x="1335" 
d="M780 -461q-96 0 -160.5 34t-125.5 95q-9 13 -8.5 21t10.5 18l12 14q18 21 33 3q62 -58 113.5 -85.5t129.5 -27.5q135 0 209 90.5t74 253.5v45h-2q-26 0 -37 20l-760 1328v-1321q0 -27 -26 -27h-21q-26 0 -26 27v1380q0 27 24 27h53q25 0 37 -21l758 -1327v1321
q0 27 27 27h20q27 0 27 -27v-1454q0 -195 -97 -304.5t-264 -109.5z" />
    <glyph glyph-name="eng" unicode="&#x14b;" 
d="M684 -406q-9 0 -14.5 6.5t-5.5 14.5v23q-3 9 1.5 15.5t14.5 6.5q119 0 165 85.5t46 274.5v615q0 150 -79.5 236.5t-221.5 86.5q-148 0 -246 -88.5t-98 -234.5v-608q0 -27 -25 -27h-22q-25 0 -25 27v950q0 27 25 27h14q16 0 21.5 -6.5t5.5 -22.5l6 -137q47 83 136.5 136.5
t213.5 53.5q170 0 268.5 -104.5t98.5 -302.5v-621q0 -406 -279 -406z" />
    <glyph glyph-name="Omacron" unicode="&#x14c;" horiz-adv-x="1769" 
d="M885 -27q-153 0 -289 57.5t-233 156t-153 235t-56 289.5q0 205 95.5 374.5t263 267t372.5 97.5q153 0 288.5 -57.5t232 -155.5t152.5 -235t56 -291q0 -153 -56 -289.5t-152.5 -235t-232 -156t-288.5 -57.5zM229 711q0 -141 50 -264.5t137 -211.5t208.5 -139t260.5 -51
q184 0 334 86.5t235.5 239t85.5 340.5q0 141 -50 265t-137 212.5t-208.5 139t-259.5 50.5q-185 0 -335 -86.5t-235.5 -239t-85.5 -341.5zM596 1823v14q0 27 27 27h522q29 0 29 -27v-14q0 -27 -29 -27h-522q-27 0 -27 27z" />
    <glyph glyph-name="omacron" unicode="&#x14d;" horiz-adv-x="1261" 
d="M631 -25q-143 0 -259 68.5t-182.5 189.5t-66.5 269q0 225 145.5 375.5t362.5 150.5q216 0 361 -150.5t145 -375.5t-145 -376t-361 -151zM195 502q0 -199 123.5 -328t312.5 -129t312.5 129t123.5 328t-123.5 327.5t-312.5 128.5t-312.5 -128.5t-123.5 -327.5zM342 1393v14
q0 27 27 27h522q29 0 29 -27v-14q0 -27 -29 -27h-522q-27 0 -27 27z" />
    <glyph glyph-name="Ohungarumlaut" unicode="&#x150;" horiz-adv-x="1769" 
d="M885 -27q-153 0 -289 57.5t-233 156t-153 235t-56 289.5q0 205 95.5 374.5t263 267t372.5 97.5q153 0 288.5 -57.5t232 -155.5t152.5 -235t56 -291q0 -153 -56 -289.5t-152.5 -235t-232 -156t-288.5 -57.5zM229 711q0 -141 50 -264.5t137 -211.5t208.5 -139t260.5 -51
q184 0 334 86.5t235.5 239t85.5 340.5q0 141 -50 265t-137 212.5t-208.5 139t-259.5 50.5q-185 0 -335 -86.5t-235.5 -239t-85.5 -341.5zM729 1602l102 237q8 25 33 25h33q30 0 16 -31l-104 -238q-11 -24 -31 -24h-30q-33 0 -19 31zM936 1602l102 237q8 25 33 25h33
q30 0 16 -31l-104 -238q-11 -24 -31 -24h-31q-32 0 -18 31z" />
    <glyph glyph-name="ohungarumlaut" unicode="&#x151;" horiz-adv-x="1261" 
d="M631 -25q-143 0 -259 68.5t-182.5 189.5t-66.5 269q0 225 145.5 375.5t362.5 150.5q216 0 361 -150.5t145 -375.5t-145 -376t-361 -151zM195 502q0 -199 123.5 -328t312.5 -129t312.5 129t123.5 328t-123.5 327.5t-312.5 128.5t-312.5 -128.5t-123.5 -327.5zM475 1171
l103 238q8 25 32 25h33q30 0 16 -31l-104 -238q-11 -24 -31 -24h-30q-32 0 -19 30zM682 1171l102 238q8 25 33 25h33q30 0 16 -31l-104 -238q-11 -24 -31 -24h-31q-31 0 -18 30z" />
    <glyph glyph-name="OE" unicode="&#x152;" horiz-adv-x="2441" 
d="M885 -27q-153 0 -289 57.5t-233 156t-153 235t-56 289.5q0 205 95.5 374.5t263 267t372.5 97.5q221 0 397 -114.5t264 -305.5v377q0 27 27 27h663q27 0 27 -27v-14q0 -29 -27 -29h-616v-582h586q26 0 26 -26v-15q0 -28 -26 -28h-586v-643h618q29 0 29 -29v-14
q0 -27 -29 -27h-665q-27 0 -27 27v366q-88 -191 -264 -305.5t-397 -114.5zM229 711q0 -141 50 -264.5t137 -211.5t208.5 -139t260.5 -51q184 0 334 86.5t235.5 239t85.5 340.5q0 141 -50 265t-137 212.5t-208.5 139t-259.5 50.5q-185 0 -335 -86.5t-235.5 -239t-85.5 -341.5
z" />
    <glyph glyph-name="oe" unicode="&#x153;" horiz-adv-x="2154" 
d="M631 -25q-143 0 -259 68.5t-182.5 189.5t-66.5 269q0 225 145.5 375.5t362.5 150.5q162 0 289 -90.5t182 -239.5q52 151 176 240.5t291 89.5q107 0 196 -39.5t146.5 -106t89 -151t31.5 -176.5q0 -46 -10.5 -61t-43.5 -15h-839q11 -191 130.5 -313.5t327.5 -122.5
q182 0 322 115q6 6 15 7t14 -5l12 -13q7 -9 6.5 -17.5t-3 -11.5t-11.5 -12q-68 -64 -161.5 -97.5t-197.5 -33.5q-180 0 -307 91.5t-182 242.5q-55 -152 -182 -243t-291 -91zM195 502q0 -199 123.5 -328t312.5 -129t312.5 129t123.5 328t-123.5 327.5t-312.5 128.5
t-312.5 -128.5t-123.5 -327.5zM1143 547h825q-2 179 -110.5 294t-290.5 115t-297 -112.5t-127 -296.5z" />
    <glyph glyph-name="Racute" unicode="&#x154;" horiz-adv-x="1161" 
d="M981 0q-26 0 -37 20l-375 545h-301v-538q0 -27 -26 -27h-21q-26 0 -26 27v1380q0 27 26 27h369q215 0 334.5 -120.5t119.5 -314.5q0 -178 -102.5 -296t-290.5 -136l369 -530q10 -17 4 -27t-25 -10h-18zM268 635h310q86 0 155.5 20.5t123 63t83 113.5t29.5 167
q0 187 -106.5 276t-284.5 89h-310v-729zM553 1602l102 237q8 25 33 25h33q30 0 16 -31l-104 -238q-11 -24 -31 -24h-31q-32 0 -18 31z" />
    <glyph glyph-name="racute" unicode="&#x155;" horiz-adv-x="686" 
d="M199 0q-25 0 -25 27v950q0 27 25 27h14q17 0 23 -7t4 -22l2 -107q76 160 241 160q62 0 92 -18q15 -9 15 -31v-12q0 -29 -35 -19q-29 10 -70 10q-58 0 -102.5 -21.5t-69.5 -52.5t-41 -72.5t-21 -76t-5 -67.5v-641q0 -27 -25 -27h-22zM334 1171l102 238q8 25 33 25h33
q30 0 16 -31l-104 -238q-11 -24 -31 -24h-31q-31 0 -18 30z" />
    <glyph glyph-name="uni0156" unicode="&#x156;" horiz-adv-x="1161" 
d="M981 0q-26 0 -37 20l-375 545h-301v-538q0 -27 -26 -27h-21q-26 0 -26 27v1380q0 27 26 27h369q215 0 334.5 -120.5t119.5 -314.5q0 -178 -102.5 -296t-290.5 -136l369 -530q10 -17 4 -27t-25 -10h-18zM268 635h310q86 0 155.5 20.5t123 63t83 113.5t29.5 167
q0 187 -106.5 276t-284.5 89h-310v-729zM485 -436v47q73 3 107 68q24 48 10 82q-9 19 -27 18q-40 -3 -61.5 16t-21.5 53t24 56t57 22q45 0 75 -42t30 -101q0 -27 -5 -54.5t-18.5 -57.5t-34.5 -53t-56 -38t-79 -16z" />
    <glyph glyph-name="uni0157" unicode="&#x157;" horiz-adv-x="686" 
d="M199 0q-25 0 -25 27v950q0 27 25 27h14q17 0 23 -7t4 -22l2 -107q76 160 241 160q62 0 92 -18q15 -9 15 -31v-12q0 -29 -35 -19q-29 10 -70 10q-58 0 -102.5 -21.5t-69.5 -52.5t-41 -72.5t-21 -76t-5 -67.5v-641q0 -27 -25 -27h-22zM123 -436v47q73 3 107 68q24 48 10 82
q-9 19 -27 18q-40 -3 -62 16.5t-22 52.5q0 34 24.5 56t57.5 22q45 0 74.5 -41.5t29.5 -101.5q0 -35 -9 -69.5t-29 -69.5t-60 -57t-94 -23z" />
    <glyph glyph-name="Rcaron" unicode="&#x158;" horiz-adv-x="1161" 
d="M981 0q-26 0 -37 20l-375 545h-301v-538q0 -27 -26 -27h-21q-26 0 -26 27v1380q0 27 26 27h369q215 0 334.5 -120.5t119.5 -314.5q0 -178 -102.5 -296t-290.5 -136l369 -530q10 -17 4 -27t-25 -10h-18zM268 635h310q86 0 155.5 20.5t123 63t83 113.5t29.5 167
q0 187 -106.5 276t-284.5 89h-310v-729zM346 1839q-6 7 -1.5 15t15.5 8h41q17 0 31 -17l143 -178l144 178q14 17 31 17h43q10 0 14.5 -8t-0.5 -15l-170 -207q-13 -16 -31 -16h-59q-20 0 -33 16z" />
    <glyph glyph-name="rcaron" unicode="&#x159;" horiz-adv-x="686" 
d="M199 0q-25 0 -25 27v950q0 27 25 27h14q17 0 23 -7t4 -22l2 -107q76 160 241 160q62 0 92 -18q15 -9 15 -31v-12q0 -29 -35 -19q-29 10 -70 10q-58 0 -102.5 -21.5t-69.5 -52.5t-41 -72.5t-21 -76t-5 -67.5v-641q0 -27 -25 -27h-22zM127 1409q-6 7 -1.5 15t15.5 8h41
q17 0 31 -17l143 -178l144 178q14 17 30 17h43q10 0 15 -7.5t0 -15.5l-170 -207q-13 -16 -31 -16h-59q-20 0 -33 16z" />
    <glyph glyph-name="Sacute" unicode="&#x15a;" horiz-adv-x="1087" 
d="M539 -25q-272 0 -404 207q-15 24 4 45l6 6q14 12 27.5 9t20.5 -15q118 -182 350 -182q162 0 253 83t91 220q0 55 -17 101.5t-42 80.5t-68.5 67.5t-83 56t-98.5 51.5l-175 86q-233 110 -233 327q0 147 106.5 239.5t266.5 92.5q227 0 358 -178q14 -20 12.5 -29t-14.5 -22
q-26 -24 -53 6q-118 153 -303 153q-129 0 -214 -66.5t-85 -191.5q0 -89 48 -155t150 -117l181 -90q61 -31 103.5 -55.5t90.5 -62.5t77 -77.5t48 -95t19 -119.5q0 -166 -113.5 -270.5t-308.5 -104.5zM494 1602l102 237q8 25 33 25h33q30 0 16 -31l-105 -238q-11 -24 -30 -24
h-31q-32 0 -18 31z" />
    <glyph glyph-name="sacute" unicode="&#x15b;" horiz-adv-x="899" 
d="M442 -25q-105 0 -179.5 43t-117.5 99q-22 25 -6 47l8 10q5 8 18.5 7.5t24.5 -13.5q92 -123 256 -123q113 0 181.5 52t68.5 149q0 83 -48 132t-140 87l-113 47q-50 22 -87 43.5t-71.5 53.5t-52.5 74.5t-18 94.5q0 113 81.5 181.5t201.5 68.5q79 0 150 -34t118 -95
q19 -23 -2 -47q-15 -15 -25 -14t-24 16q-88 104 -217 104q-87 0 -150 -44t-63 -130q0 -45 13.5 -77.5t46 -58t64 -41.5t89.5 -40l73 -30q116 -47 179.5 -111.5t64.5 -173.5q0 -128 -94 -202.5t-230 -74.5zM408 1171l102 238q8 25 33 25h32q31 0 17 -31l-105 -238
q-11 -24 -30 -24h-31q-31 0 -18 30zM715 852l2 2z" />
    <glyph glyph-name="Scircumflex" unicode="&#x15c;" horiz-adv-x="1087" 
d="M539 -25q-272 0 -404 207q-15 24 4 45l6 6q14 12 27.5 9t20.5 -15q118 -182 350 -182q162 0 253 83t91 220q0 55 -17 101.5t-42 80.5t-68.5 67.5t-83 56t-98.5 51.5l-175 86q-233 110 -233 327q0 147 106.5 239.5t266.5 92.5q227 0 358 -178q14 -20 12.5 -29t-14.5 -22
q-26 -24 -53 6q-118 153 -303 153q-129 0 -214 -66.5t-85 -191.5q0 -89 48 -155t150 -117l181 -90q61 -31 103.5 -55.5t90.5 -62.5t77 -77.5t48 -95t19 -119.5q0 -166 -113.5 -270.5t-308.5 -104.5zM287 1640l168 207q14 17 32 17h60q17 0 31 -17l170 -207q5 -6 0 -14
t-15 -8h-43q-18 0 -31 16l-143 178l-143 -178q-13 -16 -31 -16h-41q-10 0 -15 8t1 14z" />
    <glyph glyph-name="scircumflex" unicode="&#x15d;" horiz-adv-x="899" 
d="M442 -25q-105 0 -179.5 43t-117.5 99q-22 25 -6 47l8 10q5 8 18.5 7.5t24.5 -13.5q92 -123 256 -123q113 0 181.5 52t68.5 149q0 83 -48 132t-140 87l-113 47q-50 22 -87 43.5t-71.5 53.5t-52.5 74.5t-18 94.5q0 113 81.5 181.5t201.5 68.5q79 0 150 -34t118 -95
q19 -23 -2 -47q-15 -15 -25 -14t-24 16q-88 104 -217 104q-87 0 -150 -44t-63 -130q0 -45 13.5 -77.5t46 -58t64 -41.5t89.5 -40l73 -30q116 -47 179.5 -111.5t64.5 -173.5q0 -128 -94 -202.5t-230 -74.5zM201 1210l168 207q14 17 32 17h60q17 0 31 -17l170 -207q5 -6 0 -14
t-15 -8h-43q-18 0 -31 16l-143 178l-143 -178q-13 -16 -31 -16h-41q-10 0 -15 8t1 14zM715 852l2 2z" />
    <glyph glyph-name="Scedilla" unicode="&#x15e;" horiz-adv-x="1087" 
d="M408 -424q-19 3 -19 23v24q0 21 23 21q196 -10 196 100q0 66 -59 90.5t-135 -2.5q-25 -4 -25 14v19q0 11 10 24l78 88q-224 22 -342 205q-15 24 4 45l6 6q14 12 27.5 9t20.5 -15q118 -182 350 -182q162 0 253 83t91 220q0 55 -17 101.5t-42 80.5t-68.5 67.5t-83 56
t-98.5 51.5l-175 86q-233 110 -233 327q0 147 106.5 239.5t266.5 92.5q227 0 358 -178q14 -20 12.5 -29t-14.5 -22q-26 -24 -53 6q-118 153 -303 153q-129 0 -214 -66.5t-85 -191.5q0 -89 48 -155t150 -117l181 -90q61 -31 103.5 -55.5t90.5 -62.5t77 -77.5t48 -95
t19 -119.5q0 -159 -105.5 -262.5t-288.5 -112.5l-61 -67q76 0 126 -41t50 -111q0 -55 -24 -94t-65 -58t-87.5 -26t-97.5 -2z" />
    <glyph glyph-name="scedilla" unicode="&#x15f;" horiz-adv-x="899" 
d="M299 -424q-18 3 -18 23v24q0 21 22 21q197 -10 197 100q0 66 -59 90.5t-136 -2.5q-24 -3 -24 14v19q0 11 10 24l80 93q-139 24 -226 135q-22 25 -6 47l8 10q5 8 18.5 7.5t24.5 -13.5q92 -123 256 -123q113 0 181.5 52t68.5 149q0 83 -48 132t-140 87l-113 47
q-50 22 -87 43.5t-71.5 53.5t-52.5 74.5t-18 94.5q0 113 81.5 181.5t201.5 68.5q79 0 150 -34t118 -95q19 -23 -2 -47q-15 -15 -25 -14t-24 16q-88 104 -217 104q-87 0 -150 -44t-63 -130q0 -45 13.5 -77.5t46 -58t64 -41.5t89.5 -40l73 -30q116 -47 179.5 -111.5
t64.5 -173.5q0 -124 -88 -198t-219 -79l-62 -67q76 0 126 -41t50 -111q0 -55 -24 -94t-65 -58t-87.5 -26t-97.5 -2zM715 852l2 2z" />
    <glyph glyph-name="Scaron" unicode="&#x160;" horiz-adv-x="1087" 
d="M539 -25q-272 0 -404 207q-15 24 4 45l6 6q14 12 27.5 9t20.5 -15q118 -182 350 -182q162 0 253 83t91 220q0 55 -17 101.5t-42 80.5t-68.5 67.5t-83 56t-98.5 51.5l-175 86q-233 110 -233 327q0 147 106.5 239.5t266.5 92.5q227 0 358 -178q14 -20 12.5 -29t-14.5 -22
q-26 -24 -53 6q-118 153 -303 153q-129 0 -214 -66.5t-85 -191.5q0 -89 48 -155t150 -117l181 -90q61 -31 103.5 -55.5t90.5 -62.5t77 -77.5t48 -95t19 -119.5q0 -166 -113.5 -270.5t-308.5 -104.5zM287 1839q-6 7 -1.5 15t15.5 8h41q17 0 31 -17l143 -178l143 178
q14 17 31 17h43q10 0 15 -7.5t0 -15.5l-170 -207q-13 -16 -31 -16h-60q-19 0 -32 16z" />
    <glyph glyph-name="scaron" unicode="&#x161;" horiz-adv-x="899" 
d="M442 -25q-105 0 -179.5 43t-117.5 99q-22 25 -6 47l8 10q5 8 18.5 7.5t24.5 -13.5q92 -123 256 -123q113 0 181.5 52t68.5 149q0 83 -48 132t-140 87l-113 47q-50 22 -87 43.5t-71.5 53.5t-52.5 74.5t-18 94.5q0 113 81.5 181.5t201.5 68.5q79 0 150 -34t118 -95
q19 -23 -2 -47q-15 -15 -25 -14t-24 16q-88 104 -217 104q-87 0 -150 -44t-63 -130q0 -45 13.5 -77.5t46 -58t64 -41.5t89.5 -40l73 -30q116 -47 179.5 -111.5t64.5 -173.5q0 -128 -94 -202.5t-230 -74.5zM201 1409q-6 7 -1.5 15t15.5 8h41q17 0 31 -17l143 -178l143 178
q14 17 31 17h43q10 0 15 -7.5t0 -15.5l-170 -207q-13 -16 -31 -16h-60q-19 0 -32 16zM715 852l2 2z" />
    <glyph glyph-name="uni0162" unicode="&#x162;" horiz-adv-x="1079" 
d="M403 -414q-18 3 -18 23v24q0 21 23 21q196 -10 196 100q0 66 -59 90.5t-135 -2.5q-25 -4 -25 15v18q0 12 10 25l97 110h16q-4 8 -4 17v1337h-324q-26 0 -26 29v14q0 27 26 27h719q27 0 27 -27v-14q0 -29 -27 -29h-321v-1337q0 -7 -5 -17h13l-84 -92q76 0 126 -40.5
t50 -110.5q0 -72 -43 -116.5t-102.5 -57.5t-129.5 -7z" />
    <glyph glyph-name="uni0163" unicode="&#x163;" horiz-adv-x="661" 
d="M291 -428q-19 3 -19 22v25q0 21 23 21q197 -10 197 100q0 66 -59 90.5t-136 -2.5q-25 -4 -25 14v19q0 9 11 24l94 109q-56 13 -79.5 55.5t-23.5 114.5v772h-135q-26 0 -26 27v14q0 27 26 27h135v239q0 27 23 27h22q25 0 25 -27v-239h178q27 0 27 -27v-14q0 -27 -27 -27
h-178v-760q0 -67 21 -93t73 -26q22 0 64 6q26 4 33.5 -1.5t7.5 -22.5v-16q0 -29 -76 -33l-78 -86q76 0 126 -41t50 -111q0 -55 -24 -94t-65 -58t-87.5 -26t-97.5 -2z" />
    <glyph glyph-name="Tcaron" unicode="&#x164;" horiz-adv-x="1079" 
d="M530 0q-26 0 -26 27v1337h-324q-26 0 -26 29v14q0 27 26 27h719q27 0 27 -27v-14q0 -29 -27 -29h-321v-1337q0 -27 -29 -27h-19zM311 1839q-6 7 -1 15t16 8h41q16 0 30 -17l144 -178l143 178q14 17 31 17h43q10 0 14.5 -8t-0.5 -15l-170 -207q-13 -16 -31 -16h-59
q-20 0 -33 16z" />
    <glyph glyph-name="tcaron" unicode="&#x165;" horiz-adv-x="604" 
d="M436 -12q-89 0 -125.5 44.5t-36.5 131.5v772h-135q-26 0 -26 27v14q0 27 26 27h135v239q0 27 23 27h22q25 0 25 -27v-239h178q27 0 27 -27v-14q0 -27 -27 -27h-178v-760q0 -67 21 -93t73 -26q22 0 64 6q26 4 33.5 -1.5t7.5 -22.5v-16q0 -18 -33 -26.5t-74 -8.5zM438 1118
l103 238q8 24 32 24h33q30 0 17 -30l-105 -238q-11 -25 -31 -25h-30q-33 0 -19 31z" />
    <glyph glyph-name="Tbar" unicode="&#x166;" horiz-adv-x="1079" 
d="M530 0q-26 0 -26 27v909h-225q-27 0 -27 27v14q0 27 27 27h225v360h-324q-26 0 -26 29v14q0 27 26 27h719q27 0 27 -27v-14q0 -29 -27 -29h-321v-360h223q28 0 28 -27v-14q0 -27 -28 -27h-223v-909q0 -27 -29 -27h-19z" />
    <glyph glyph-name="tbar" unicode="&#x167;" horiz-adv-x="661" 
d="M143 690q-13 0 -21.5 8.5t-8.5 22.5v6q0 14 8.5 22.5t21.5 8.5h131v178h-135q-26 0 -26 27v14q0 27 26 27h135v239q0 27 23 27h22q25 0 25 -27v-239h178q27 0 27 -27v-14q0 -27 -27 -27h-178v-178h174q14 0 22.5 -9t8.5 -22v-6q0 -13 -8.5 -22t-22.5 -9h-174v-514
q0 -67 21 -93t73 -26q22 0 64 6q26 4 33.5 -1.5t7.5 -22.5v-16q0 -18 -33 -26.5t-74 -8.5q-89 0 -125.5 44.5t-36.5 131.5v526h-131z" />
    <glyph glyph-name="Utilde" unicode="&#x168;" horiz-adv-x="1253" 
d="M627 -27q-201 0 -322 121.5t-121 335.5v977q0 27 27 27h20q27 0 27 -27v-954q0 -204 101.5 -306t267.5 -102t267 102t101 306v954q0 27 29 27h18q27 0 27 -27v-977q0 -215 -119.5 -336t-322.5 -121zM365 1778q3 57 43.5 90t99.5 33q35 0 64 -13t49 -31.5t39.5 -36.5
t43 -31t50.5 -13t47 17.5t22 41.5q3 20 23 20h33q20 0 20 -20q-3 -58 -44 -91.5t-99 -33.5q-43 0 -78.5 19t-56.5 42.5t-51 42.5t-62 19q-27 0 -47 -17.5t-23 -41.5q-3 -19 -22 -19h-35q-16 0 -16 23z" />
    <glyph glyph-name="utilde" unicode="&#x169;" 
d="M541 -25q-170 0 -268.5 105t-98.5 303v594q0 27 25 27h22q25 0 25 -27v-608q0 -151 79 -237.5t222 -86.5q148 0 246 89t98 235v608q0 27 24 27h23q25 0 25 -27v-950q0 -27 -25 -27h-14q-16 0 -20.5 6t-6.5 23l-6 137q-47 -84 -136.5 -137.5t-213.5 -53.5zM309 1348
q3 57 44 89.5t100 32.5q42 0 77 -19.5t55.5 -42.5t50.5 -42.5t62 -19.5q27 0 47.5 17.5t22.5 41.5q3 20 23 20h32q21 0 21 -20q-3 -58 -44.5 -91.5t-99.5 -33.5q-35 0 -64.5 12.5t-50 31t-39.5 36.5t-42.5 30.5t-50.5 12.5t-47 -18t-23 -42q-3 -18 -23 -18h-34q-17 0 -17 23
z" />
    <glyph glyph-name="Umacron" unicode="&#x16a;" horiz-adv-x="1253" 
d="M627 -27q-201 0 -322 121.5t-121 335.5v977q0 27 27 27h20q27 0 27 -27v-954q0 -204 101.5 -306t267.5 -102t267 102t101 306v954q0 27 29 27h18q27 0 27 -27v-977q0 -215 -119.5 -336t-322.5 -121zM338 1823v14q0 27 27 27h522q28 0 28 -27v-14q0 -27 -28 -27h-522
q-27 0 -27 27z" />
    <glyph glyph-name="umacron" unicode="&#x16b;" 
d="M541 -25q-170 0 -268.5 105t-98.5 303v594q0 27 25 27h22q25 0 25 -27v-608q0 -151 79 -237.5t222 -86.5q148 0 246 89t98 235v608q0 27 24 27h23q25 0 25 -27v-950q0 -27 -25 -27h-14q-16 0 -20.5 6t-6.5 23l-6 137q-47 -84 -136.5 -137.5t-213.5 -53.5zM283 1393v14
q0 27 26 27h522q29 0 29 -27v-14q0 -27 -29 -27h-522q-26 0 -26 27z" />
    <glyph glyph-name="Ubreve" unicode="&#x16c;" horiz-adv-x="1253" 
d="M627 -27q-201 0 -322 121.5t-121 335.5v977q0 27 27 27h20q27 0 27 -27v-954q0 -204 101.5 -306t267.5 -102t267 102t101 306v954q0 27 29 27h18q27 0 27 -27v-977q0 -215 -119.5 -336t-322.5 -121zM373 1833q-3 31 28 31h15q30 0 33 -29q9 -73 57 -114.5t121 -41.5
t122 41.5t56 114.5q3 29 33 29h14q32 0 29 -31q-6 -98 -75 -161.5t-179 -63.5t-179 63.5t-75 161.5z" />
    <glyph glyph-name="ubreve" unicode="&#x16d;" 
d="M541 -25q-170 0 -268.5 105t-98.5 303v594q0 27 25 27h22q25 0 25 -27v-608q0 -151 79 -237.5t222 -86.5q148 0 246 89t98 235v608q0 27 24 27h23q25 0 25 -27v-950q0 -27 -25 -27h-14q-16 0 -20.5 6t-6.5 23l-6 137q-47 -84 -136.5 -137.5t-213.5 -53.5zM315 1403
q-3 31 29 31h14q30 0 33 -29q9 -73 57 -114.5t121 -41.5t122.5 42t56.5 114q3 29 32 29h15q31 0 28 -31q-6 -98 -75 -161.5t-179 -63.5t-179 63.5t-75 161.5z" />
    <glyph glyph-name="Uring" unicode="&#x16e;" horiz-adv-x="1253" 
d="M627 -27q-201 0 -322 121.5t-121 335.5v977q0 27 27 27h20q27 0 27 -27v-954q0 -204 101.5 -306t267.5 -102t267 102t101 306v954q0 27 29 27h18q27 0 27 -27v-977q0 -215 -119.5 -336t-322.5 -121zM489 1743q0 57 40.5 94t97.5 37t97 -37t40 -94q0 -59 -40 -97t-97 -38
t-97.5 38t-40.5 97zM563 1741q0 -28 18 -46t46 -18q27 0 45 18.5t18 45.5t-18 45t-45 18q-28 0 -46 -17.5t-18 -45.5z" />
    <glyph glyph-name="uring" unicode="&#x16f;" 
d="M541 -25q-170 0 -268.5 105t-98.5 303v594q0 27 25 27h22q25 0 25 -27v-608q0 -151 79 -237.5t222 -86.5q148 0 246 89t98 235v608q0 27 24 27h23q25 0 25 -27v-950q0 -27 -25 -27h-14q-16 0 -20.5 6t-6.5 23l-6 137q-47 -84 -136.5 -137.5t-213.5 -53.5zM434 1313
q0 57 40 94t97 37t97.5 -37t40.5 -94q0 -59 -40.5 -97t-97.5 -38t-97 38t-40 97zM508 1311q0 -28 17.5 -46t45.5 -18q27 0 45.5 18.5t18.5 45.5t-18.5 45t-45.5 18q-28 0 -45.5 -17.5t-17.5 -45.5z" />
    <glyph glyph-name="Uhungarumlaut" unicode="&#x170;" horiz-adv-x="1253" 
d="M627 -27q-201 0 -322 121.5t-121 335.5v977q0 27 27 27h20q27 0 27 -27v-954q0 -204 101.5 -306t267.5 -102t267 102t101 306v954q0 27 29 27h18q27 0 27 -27v-977q0 -215 -119.5 -336t-322.5 -121zM473 1602l102 237q8 25 33 25h33q30 0 16 -31l-104 -238
q-11 -24 -31 -24h-30q-33 0 -19 31zM680 1602l102 237q8 25 33 25h33q30 0 16 -31l-104 -238q-11 -24 -31 -24h-31q-32 0 -18 31z" />
    <glyph glyph-name="uhungarumlaut" unicode="&#x171;" 
d="M541 -25q-170 0 -268.5 105t-98.5 303v594q0 27 25 27h22q25 0 25 -27v-608q0 -151 79 -237.5t222 -86.5q148 0 246 89t98 235v608q0 27 24 27h23q25 0 25 -27v-950q0 -27 -25 -27h-14q-16 0 -20.5 6t-6.5 23l-6 137q-47 -84 -136.5 -137.5t-213.5 -53.5zM416 1171
l102 238q8 25 33 25h33q30 0 16 -31l-104 -238q-11 -24 -31 -24h-31q-31 0 -18 30zM623 1171l102 238q8 25 33 25h33q30 0 16 -31l-105 -238q-11 -24 -30 -24h-31q-31 0 -18 30z" />
    <glyph glyph-name="Uogonek" unicode="&#x172;" horiz-adv-x="1253" 
d="M815 -406q-29 -13 -65.5 -15.5t-74.5 8t-70 31.5t-52.5 61t-20.5 92q0 115 101 202h-6q-201 0 -322 121.5t-121 335.5v977q0 27 27 27h20q27 0 27 -27v-954q0 -204 101.5 -306t267.5 -102t267 102t101 306v954q0 27 29 27h18q27 0 27 -27v-977q0 -165 -72.5 -277
t-203.5 -155q-193 -69 -193 -223q0 -89 58 -118t157 -7v-56z" />
    <glyph glyph-name="uogonek" unicode="&#x173;" 
d="M541 -25q-170 0 -268.5 105t-98.5 303v594q0 27 25 27h22q25 0 25 -27v-608q0 -151 79 -237.5t222 -86.5q148 0 246 89t98 235v608q0 27 24 27h23q25 0 25 -27v-950q0 -27 -25 -27q-95 0 -167.5 -61.5t-72.5 -157.5q0 -85 59.5 -118.5t153.5 -12.5v-56
q-28 -13 -64.5 -15.5t-74 8t-69.5 32t-52 61.5t-20 93q0 60 24.5 111t64.5 83.5t85.5 53t91.5 26.5l-6 119q-47 -84 -136.5 -137.5t-213.5 -53.5z" />
    <glyph glyph-name="Wcircumflex" unicode="&#x174;" horiz-adv-x="2213" 
d="M592 0q-23 0 -33 25l-434 1374q-10 35 25 35h14q24 0 35 -25l411 -1315l445 1315q8 25 32 25h39q25 0 33 -25l445 -1315l411 1315q11 25 35 25h14q17 0 23.5 -10t1.5 -25l-434 -1374q-10 -25 -33 -25h-37q-23 0 -33 25l-444 1318l-446 -1318q-10 -25 -33 -25h-37z
M881 1640l168 207q14 17 32 17h60q16 0 30 -17l170 -207q5 -6 0.5 -14t-14.5 -8h-43q-18 0 -31 16l-143 178l-143 -178q-13 -16 -31 -16h-41q-10 0 -15 8t1 14z" />
    <glyph glyph-name="wcircumflex" unicode="&#x175;" horiz-adv-x="1767" 
d="M492 0q-28 0 -37 25l-336 944q-12 35 20 35h25q20 0 29 -25l315 -909l321 909q9 25 37 25h37q28 0 37 -25l320 -909l315 909q9 25 31 25h22q33 0 21 -35l-336 -944q-9 -25 -37 -25h-35q-28 0 -37 25l-319 909l-322 -909q-9 -25 -37 -25h-34zM655 1210l168 207
q14 17 33 17h59q17 0 31 -17l170 -207q5 -6 0.5 -14t-14.5 -8h-43q-18 0 -31 16l-143 178l-144 -178q-13 -16 -30 -16h-41q-10 0 -15.5 8t0.5 14z" />
    <glyph glyph-name="Ycircumflex" unicode="&#x176;" horiz-adv-x="1185" 
d="M584 0q-29 0 -29 27v673l-426 697q-10 13 -6 25t22 12h31q21 0 33 -21l385 -637l383 637q12 21 33 21h30q18 0 22.5 -12t-5.5 -25l-426 -697v-673q0 -27 -29 -27h-18zM362 1640l168 207q14 17 33 17h60q16 0 30 -17l170 -207q5 -6 0.5 -14t-14.5 -8h-43q-18 0 -31 16
l-143 178l-143 -178q-13 -16 -31 -16h-41q-10 0 -15.5 8t0.5 14z" />
    <glyph glyph-name="ycircumflex" unicode="&#x177;" horiz-adv-x="1081" 
d="M381 -389q-13 0 -18.5 8.5t-0.5 20.5l140 354l-383 975q-12 35 20 35h21q21 0 30 -25l351 -907l352 907q9 25 29 25h20q35 0 23 -35l-529 -1334q-9 -24 -33 -24h-22zM313 1210l168 207q14 17 33 17h59q17 0 31 -17l170 -207q5 -6 0.5 -14t-14.5 -8h-43q-18 0 -31 16
l-143 178l-144 -178q-13 -16 -30 -16h-41q-10 0 -15.5 8t0.5 14z" />
    <glyph glyph-name="Ydieresis" unicode="&#x178;" horiz-adv-x="1185" 
d="M584 0q-29 0 -29 27v673l-426 697q-10 13 -6 25t22 12h31q21 0 33 -21l385 -637l383 637q12 21 33 21h30q18 0 22.5 -12t-5.5 -25l-426 -697v-673q0 -27 -29 -27h-18zM375 1821q0 21 17 37t40 16t40 -16t17 -37q0 -22 -17 -39t-40 -17t-40 17t-17 39zM700 1821
q0 20 17.5 36.5t40.5 16.5t40 -16t17 -37q0 -22 -17 -39t-40 -17t-40.5 17t-17.5 39z" />
    <glyph glyph-name="Zacute" unicode="&#x179;" horiz-adv-x="1171" 
d="M170 0q-27 0 -27 27v24q0 17 13 37l759 1276h-725q-26 0 -26 29v14q0 27 26 27h779q28 0 28 -27v-25q0 -18 -12 -36l-760 -1276h764q29 0 29 -29v-14q0 -27 -29 -27h-819zM559 1602l103 237q8 25 32 25h33q30 0 16 -31l-104 -238q-11 -24 -31 -24h-30q-33 0 -19 31z" />
    <glyph glyph-name="zacute" unicode="&#x17a;" horiz-adv-x="997" 
d="M160 0q-27 0 -27 27v22q0 12 14 35l633 852h-614q-27 0 -27 27v14q0 27 27 27h665q31 0 31 -27v-23q0 -11 -14 -34l-633 -852h621q28 0 28 -27v-14q0 -27 -28 -27h-676zM477 1171l103 238q8 25 32 25h33q31 0 17 -31l-105 -238q-11 -24 -31 -24h-30q-32 0 -19 30z" />
    <glyph glyph-name="Zdotaccent" unicode="&#x17b;" horiz-adv-x="1171" 
d="M170 0q-27 0 -27 27v24q0 17 13 37l759 1276h-725q-26 0 -26 29v14q0 27 26 27h779q28 0 28 -27v-25q0 -18 -12 -36l-760 -1276h764q29 0 29 -29v-14q0 -27 -29 -27h-819zM522 1815q0 23 18 40t40 17q23 0 39 -17t16 -40q0 -24 -16 -41t-39 -17q-22 0 -40 17.5t-18 40.5z
" />
    <glyph glyph-name="zdotaccent" unicode="&#x17c;" horiz-adv-x="997" 
d="M160 0q-27 0 -27 27v22q0 12 14 35l633 852h-614q-27 0 -27 27v14q0 27 27 27h665q31 0 31 -27v-23q0 -11 -14 -34l-633 -852h621q28 0 28 -27v-14q0 -27 -28 -27h-676zM440 1384q0 23 18 40.5t40 17.5q23 0 39 -17t16 -41q0 -23 -16 -40t-39 -17q-22 0 -40 17t-18 40z
" />
    <glyph glyph-name="Zcaron" unicode="&#x17d;" horiz-adv-x="1171" 
d="M170 0q-27 0 -27 27v24q0 17 13 37l759 1276h-725q-26 0 -26 29v14q0 27 26 27h779q28 0 28 -27v-25q0 -18 -12 -36l-760 -1276h764q29 0 29 -29v-14q0 -27 -29 -27h-819zM350 1839q-6 7 -1 15t16 8h41q16 0 30 -17l144 -178l143 178q14 17 31 17h43q10 0 14.5 -8
t-0.5 -15l-170 -207q-13 -16 -31 -16h-59q-20 0 -33 16z" />
    <glyph glyph-name="zcaron" unicode="&#x17e;" horiz-adv-x="997" 
d="M160 0q-27 0 -27 27v22q0 12 14 35l633 852h-614q-27 0 -27 27v14q0 27 27 27h665q31 0 31 -27v-23q0 -11 -14 -34l-633 -852h621q28 0 28 -27v-14q0 -27 -28 -27h-676zM268 1409q-6 7 -1 15t16 8h41q16 0 30 -17l144 -178l143 178q14 17 31 17h43q10 0 14.5 -8t-0.5 -15
l-170 -207q-13 -16 -31 -16h-59q-20 0 -33 16z" />
    <glyph glyph-name="uni018F" unicode="&#x18f;" horiz-adv-x="1699" 
d="M817 -27q-198 0 -349.5 88t-232.5 241t-81 345v27q0 14 8.5 22.5t21.5 8.5h1289v8q0 140 -50.5 263.5t-137.5 211.5t-208.5 139t-259.5 51q-237 0 -434 -172q-17 -14 -27 0l-24 31q-9 12 8 27q201 186 475 186q159 0 296.5 -58t232.5 -157.5t148.5 -235.5t53.5 -288
q0 -204 -91 -372t-259 -267t-379 -99zM229 633q0 -259 165 -423.5t425 -164.5q257 0 439 165.5t210 422.5h-1239z" />
    <glyph glyph-name="florin" unicode="&#x192;" horiz-adv-x="651" 
d="M92 -389q-31 0 -67 6q-11 5 -15 9.5t-4 15.5v28q0 19 25 15q23 -2 61 -2q85 0 115.5 47.5t30.5 136.5v1069h-125q-25 0 -25 25v18q0 25 25 25h125v266q0 108 53 167.5t164 59.5q29 0 65 -6q12 -5 15.5 -9t3.5 -16v-28q0 -10 -7 -13.5t-16 -1.5q-23 2 -61 2
q-45 0 -75.5 -13.5t-45.5 -40t-21 -57t-6 -73.5v-237h209q13 0 18 -5.5t5 -19.5v-18q0 -14 -5 -19.5t-18 -5.5h-209v-1098q0 -108 -53 -167.5t-162 -59.5z" />
    <glyph glyph-name="Ohorn" unicode="&#x1a0;" horiz-adv-x="1769" 
d="M885 -27q-153 0 -289 57.5t-233 156t-153 235t-56 289.5q0 205 95.5 374.5t263 267t372.5 97.5h268q143 0 143 135v88q0 27 23 27h24q23 0 23 -27v-96q0 -173 -174 -193q192 -88 307 -267.5t115 -405.5q0 -153 -56 -289.5t-152.5 -235t-232 -156t-288.5 -57.5zM229 711
q0 -141 50 -264.5t137 -211.5t208.5 -139t260.5 -51q184 0 334 86.5t235.5 239t85.5 340.5q0 141 -50 265t-137 212.5t-208.5 139t-259.5 50.5q-185 0 -335 -86.5t-235.5 -239t-85.5 -341.5z" />
    <glyph glyph-name="ohorn" unicode="&#x1a1;" horiz-adv-x="1261" 
d="M631 -25q-143 0 -259 68.5t-182.5 189.5t-66.5 269q0 225 145.5 375.5t362.5 150.5h266q145 0 145 135v80q0 27 25 27h18q25 0 25 -27v-88q0 -96 -53 -145t-146 -52q106 -75 166 -193.5t60 -262.5q0 -225 -145 -376t-361 -151zM195 502q0 -199 123.5 -328t312.5 -129
t312.5 129t123.5 328t-123.5 327.5t-312.5 128.5t-312.5 -128.5t-123.5 -327.5z" />
    <glyph glyph-name="Uhorn" unicode="&#x1af;" horiz-adv-x="1253" 
d="M627 -27q-201 0 -322 121.5t-121 335.5v977q0 27 27 27h20q27 0 27 -27v-954q0 -204 101.5 -306t267.5 -102t267 102t101 306v954q0 27 29 27h137q142 0 142 135v104q0 27 24 27h23q24 0 24 -27v-112q0 -195 -221 -195h-84v-936q0 -215 -119.5 -336t-322.5 -121z" />
    <glyph glyph-name="uhorn" unicode="&#x1b0;" 
d="M541 -25q-170 0 -268.5 105t-98.5 303v594q0 27 25 27h22q25 0 25 -27v-608q0 -151 79 -237.5t222 -86.5q148 0 246 89t98 235v608q0 27 24 27h52q159 0 159 135v104q0 27 25 27h18q25 0 25 -27v-110q0 -98 -62 -145.5t-169 -49.5v-911q0 -27 -25 -27h-14q-16 0 -20.5 6
t-6.5 23l-6 137q-47 -84 -136.5 -137.5t-213.5 -53.5z" />
    <glyph glyph-name="uni01CD" unicode="&#x1cd;" horiz-adv-x="1378" 
d="M150 0q-17 0 -22.5 10t1.5 25l506 1374q9 25 37 25h35q25 0 34 -25l508 -1374q6 -15 0.5 -25t-22.5 -10h-23q-22 0 -30 25l-127 346h-717l-125 -346q-8 -25 -35 -25h-20zM354 438h668l-334 916zM459 1839q-6 7 -1.5 15t15.5 8h41q17 0 31 -17l143 -178l143 178
q14 17 31 17h43q10 0 15 -7.5t0 -15.5l-170 -207q-13 -16 -31 -16h-60q-19 0 -32 16z" />
    <glyph glyph-name="uni01CE" unicode="&#x1ce;" horiz-adv-x="1294" 
d="M629 -25q-224 0 -365 149t-141 378q0 228 141 377t365 149q143 0 250.5 -67.5t167.5 -186.5l4 203q0 27 24 27h21q24 0 24 -27v-950q0 -27 -22 -27h-23q-24 0 -24 27l-4 196q-58 -117 -166 -182.5t-252 -65.5zM190 502q0 -203 122.5 -330t314.5 -127q188 0 306 124.5
t118 326.5q0 204 -118.5 333t-305.5 129q-191 0 -314 -127t-123 -329zM412 1409q-6 7 -1.5 15t15.5 8h41q17 0 31 -17l143 -178l143 178q14 17 31 17h43q10 0 14.5 -8t-0.5 -15l-170 -207q-13 -16 -30 -16h-60q-19 0 -32 16z" />
    <glyph glyph-name="uni01CF" unicode="&#x1cf;" horiz-adv-x="462" 
d="M221 0q-26 0 -26 27v1380q0 27 26 27h21q26 0 26 -27v-1380q0 -27 -26 -27h-21zM2 1839q-6 7 -1.5 15t15.5 8h41q17 0 31 -17l143 -178l144 178q14 17 31 17h43q10 0 14.5 -8t-0.5 -15l-170 -207q-13 -16 -31 -16h-59q-20 0 -33 16z" />
    <glyph glyph-name="uni01D0" unicode="&#x1d0;" horiz-adv-x="329" 
d="M154 0q-25 0 -25 27v950q0 27 25 27h22q23 0 23 -27v-950q0 -27 -23 -27h-22zM-66 1409q-6 7 -1 15t16 8h41q16 0 30 -17l144 -178l143 178q14 17 31 17h43q10 0 14.5 -8t-0.5 -15l-170 -207q-13 -16 -30 -16h-60q-20 0 -33 16z" />
    <glyph glyph-name="uni01D1" unicode="&#x1d1;" horiz-adv-x="1769" 
d="M885 -27q-153 0 -289 57.5t-233 156t-153 235t-56 289.5q0 205 95.5 374.5t263 267t372.5 97.5q153 0 288.5 -57.5t232 -155.5t152.5 -235t56 -291q0 -153 -56 -289.5t-152.5 -235t-232 -156t-288.5 -57.5zM229 711q0 -141 50 -264.5t137 -211.5t208.5 -139t260.5 -51
q184 0 334 86.5t235.5 239t85.5 340.5q0 141 -50 265t-137 212.5t-208.5 139t-259.5 50.5q-185 0 -335 -86.5t-235.5 -239t-85.5 -341.5zM655 1839q-6 7 -1 15t16 8h41q16 0 30 -17l144 -178l143 178q14 17 31 17h43q10 0 14.5 -8t-0.5 -15l-170 -207q-13 -16 -31 -16h-59
q-20 0 -33 16z" />
    <glyph glyph-name="uni01D2" unicode="&#x1d2;" horiz-adv-x="1261" 
d="M631 -25q-143 0 -259 68.5t-182.5 189.5t-66.5 269q0 225 145.5 375.5t362.5 150.5q216 0 361 -150.5t145 -375.5t-145 -376t-361 -151zM195 502q0 -199 123.5 -328t312.5 -129t312.5 129t123.5 328t-123.5 327.5t-312.5 128.5t-312.5 -128.5t-123.5 -327.5zM401 1409
q-6 7 -1 15t16 8h41q16 0 30 -17l144 -178l143 178q14 17 31 17h43q10 0 14.5 -8t-0.5 -15l-170 -207q-13 -16 -30 -16h-60q-20 0 -33 16z" />
    <glyph glyph-name="uni01D3" unicode="&#x1d3;" horiz-adv-x="1253" 
d="M627 -27q-201 0 -322 121.5t-121 335.5v977q0 27 27 27h20q27 0 27 -27v-954q0 -204 101.5 -306t267.5 -102t267 102t101 306v954q0 27 29 27h18q27 0 27 -27v-977q0 -215 -119.5 -336t-322.5 -121zM397 1839q-6 7 -1 15t16 8h41q16 0 30 -17l144 -178l143 178
q14 17 31 17h43q10 0 14.5 -8t-0.5 -15l-170 -207q-13 -16 -31 -16h-59q-20 0 -33 16z" />
    <glyph glyph-name="uni01D4" unicode="&#x1d4;" 
d="M541 -25q-170 0 -268.5 105t-98.5 303v594q0 27 25 27h22q25 0 25 -27v-608q0 -151 79 -237.5t222 -86.5q148 0 246 89t98 235v608q0 27 24 27h23q25 0 25 -27v-950q0 -27 -25 -27h-14q-16 0 -20.5 6t-6.5 23l-6 137q-47 -84 -136.5 -137.5t-213.5 -53.5zM340 1409
q-6 7 -1.5 15t15.5 8h41q17 0 31 -17l143 -178l144 178q14 17 30 17h43q10 0 15 -7.5t0 -15.5l-170 -207q-13 -16 -31 -16h-59q-20 0 -33 16z" />
    <glyph glyph-name="uni01D5" unicode="&#x1d5;" horiz-adv-x="1253" 
d="M627 -27q-201 0 -322 121.5t-121 335.5v977q0 27 27 27h20q27 0 27 -27v-954q0 -204 101.5 -306t267.5 -102t267 102t101 306v954q0 27 29 27h18q27 0 27 -27v-977q0 -215 -119.5 -336t-322.5 -121zM338 2202v14q0 27 27 27h522q28 0 28 -27v-14q0 -27 -28 -27h-522
q-27 0 -27 27zM406 1821q0 21 17 37t40 16t40 -16t17 -37q0 -22 -17 -39t-40 -17t-40 17t-17 39zM731 1821q0 21 17 37t40 16t40.5 -16.5t17.5 -36.5q0 -22 -17.5 -39t-40.5 -17t-40 17t-17 39z" />
    <glyph glyph-name="uni01D6" unicode="&#x1d6;" 
d="M541 -25q-170 0 -268.5 105t-98.5 303v594q0 27 25 27h22q25 0 25 -27v-608q0 -151 79 -237.5t222 -86.5q148 0 246 89t98 235v608q0 27 24 27h23q25 0 25 -27v-950q0 -27 -25 -27h-14q-16 0 -20.5 6t-6.5 23l-6 137q-47 -84 -136.5 -137.5t-213.5 -53.5zM283 1772v14
q0 26 26 26h522q29 0 29 -26v-14q0 -27 -29 -27h-522q-26 0 -26 27zM348 1391q0 20 17.5 36.5t40.5 16.5t40 -16t17 -37q0 -22 -17 -39t-40 -17t-40.5 17t-17.5 39zM674 1391q0 21 17 37t40 16t40 -16t17 -37q0 -22 -17 -39t-40 -17t-40 17t-17 39z" />
    <glyph glyph-name="uni01D7" unicode="&#x1d7;" horiz-adv-x="1253" 
d="M627 -27q-201 0 -322 121.5t-121 335.5v977q0 27 27 27h20q27 0 27 -27v-954q0 -204 101.5 -306t267.5 -102t267 102t101 306v954q0 27 29 27h18q27 0 27 -27v-977q0 -215 -119.5 -336t-322.5 -121zM406 1821q0 21 17 37t40 16t40 -16t17 -37q0 -22 -17 -39t-40 -17
t-40 17t-17 39zM596 1980l102 238q8 25 33 25h33q30 0 16 -31l-104 -238q-11 -24 -31 -24h-31q-31 0 -18 30zM731 1821q0 21 17 37t40 16t40.5 -16.5t17.5 -36.5q0 -22 -17.5 -39t-40.5 -17t-40 17t-17 39z" />
    <glyph glyph-name="uni01D8" unicode="&#x1d8;" 
d="M541 -25q-170 0 -268.5 105t-98.5 303v594q0 27 25 27h22q25 0 25 -27v-608q0 -151 79 -237.5t222 -86.5q148 0 246 89t98 235v608q0 27 24 27h23q25 0 25 -27v-950q0 -27 -25 -27h-14q-16 0 -20.5 6t-6.5 23l-6 137q-47 -84 -136.5 -137.5t-213.5 -53.5zM348 1391
q0 20 17.5 36.5t40.5 16.5t40 -16t17 -37q0 -22 -17 -39t-40 -17t-40.5 17t-17.5 39zM541 1550l102 238q8 24 33 24h33q29 0 16 -30l-104 -238q-11 -24 -31 -24h-31q-31 0 -18 30zM674 1391q0 21 17 37t40 16t40 -16t17 -37q0 -22 -17 -39t-40 -17t-40 17t-17 39z" />
    <glyph glyph-name="uni01D9" unicode="&#x1d9;" horiz-adv-x="1253" 
d="M627 -27q-201 0 -322 121.5t-121 335.5v977q0 27 27 27h20q27 0 27 -27v-954q0 -204 101.5 -306t267.5 -102t267 102t101 306v954q0 27 29 27h18q27 0 27 -27v-977q0 -215 -119.5 -336t-322.5 -121zM397 2218q-6 8 -1 15.5t16 7.5h41q16 0 30 -17l144 -178l143 178
q14 17 31 17h43q10 0 14.5 -7.5t-0.5 -15.5l-170 -207q-13 -16 -31 -16h-59q-20 0 -33 16zM406 1821q0 21 17 37t40 16t40 -16t17 -37q0 -22 -17 -39t-40 -17t-40 17t-17 39zM731 1821q0 21 17 37t40 16t40.5 -16.5t17.5 -36.5q0 -22 -17.5 -39t-40.5 -17t-40 17t-17 39z
" />
    <glyph glyph-name="uni01DA" unicode="&#x1da;" 
d="M541 -25q-170 0 -268.5 105t-98.5 303v594q0 27 25 27h22q25 0 25 -27v-608q0 -151 79 -237.5t222 -86.5q148 0 246 89t98 235v608q0 27 24 27h23q25 0 25 -27v-950q0 -27 -25 -27h-14q-16 0 -20.5 6t-6.5 23l-6 137q-47 -84 -136.5 -137.5t-213.5 -53.5zM340 1788
q-6 8 -1.5 15t15.5 7h41q18 0 31 -16l143 -178l144 178q13 16 30 16h43q10 0 15 -7t0 -15l-170 -207q-13 -16 -31 -16h-59q-20 0 -33 16zM348 1391q0 20 17.5 36.5t40.5 16.5t40 -16t17 -37q0 -22 -17 -39t-40 -17t-40.5 17t-17.5 39zM674 1391q0 21 17 37t40 16t40 -16
t17 -37q0 -22 -17 -39t-40 -17t-40 17t-17 39z" />
    <glyph glyph-name="uni01DB" unicode="&#x1db;" horiz-adv-x="1253" 
d="M627 -27q-201 0 -322 121.5t-121 335.5v977q0 27 27 27h20q27 0 27 -27v-954q0 -204 101.5 -306t267.5 -102t267 102t101 306v954q0 27 29 27h18q27 0 27 -27v-977q0 -215 -119.5 -336t-322.5 -121zM406 1821q0 21 17 37t40 16t40 -16t17 -37q0 -22 -17 -39t-40 -17
t-40 17t-17 39zM467 2212q-14 31 18 31h25q22 0 33 -25l108 -238q13 -30 -18 -30h-23q-19 0 -32 24zM731 1821q0 21 17 37t40 16t40.5 -16.5t17.5 -36.5q0 -22 -17.5 -39t-40.5 -17t-40 17t-17 39z" />
    <glyph glyph-name="uni01DC" unicode="&#x1dc;" 
d="M541 -25q-170 0 -268.5 105t-98.5 303v594q0 27 25 27h22q25 0 25 -27v-608q0 -151 79 -237.5t222 -86.5q148 0 246 89t98 235v608q0 27 24 27h23q25 0 25 -27v-950q0 -27 -25 -27h-14q-16 0 -20.5 6t-6.5 23l-6 137q-47 -84 -136.5 -137.5t-213.5 -53.5zM348 1391
q0 20 17.5 36.5t40.5 16.5t40 -16t17 -37q0 -22 -17 -39t-40 -17t-40.5 17t-17.5 39zM410 1782q-13 30 18 30h25q21 0 32 -24l109 -238q13 -30 -19 -30h-22q-20 0 -33 24zM674 1391q0 21 17 37t40 16t40 -16t17 -37q0 -22 -17 -39t-40 -17t-40 17t-17 39z" />
    <glyph glyph-name="Gcaron" unicode="&#x1e6;" horiz-adv-x="1679" 
d="M883 -27q-211 0 -379 99t-259 267t-91 372q0 152 53.5 288t148.5 235.5t232.5 157.5t296.5 58q276 0 477 -186q15 -15 6 -27l-22 -31q-13 -13 -29 0q-197 172 -434 172q-138 0 -259.5 -51t-208 -139.5t-136.5 -212t-50 -264.5q0 -188 85 -340.5t234.5 -239t332.5 -86.5
q171 0 307 74t211 209t71 305h-559q-28 0 -28 26v19q0 27 28 27h605q13 0 21.5 -8.5t8.5 -22.5v-27q0 -193 -79.5 -345t-231.5 -240.5t-352 -88.5zM647 1839q-6 7 -1 15t16 8h40q17 0 31 -17l144 -178l143 178q14 17 31 17h43q10 0 14.5 -8t-0.5 -15l-170 -207
q-13 -16 -31 -16h-59q-20 0 -33 16z" />
    <glyph glyph-name="gcaron" unicode="&#x1e7;" horiz-adv-x="1284" 
d="M608 -420q-98 0 -184.5 24t-142.5 60q-24 17 -17 33l17 24q11 18 26 7q125 -80 303 -80q70 0 131 12.5t116.5 42t95 74t62.5 112t23 152.5v203q-62 -113 -167.5 -175.5t-249.5 -62.5q-217 0 -357.5 143.5t-140.5 368.5q0 222 139.5 366t353.5 144q147 0 255 -64t169 -182
v195q0 27 25 27h22q23 0 23 -27v-948q0 -110 -40.5 -197.5t-110.5 -141.5t-159.5 -82t-191.5 -28zM190 518q0 -200 123 -321t310 -121q186 0 302.5 118t116.5 316q0 202 -116.5 325t-302.5 123q-187 0 -310 -121t-123 -319zM412 1409q-6 7 -1.5 15t15.5 8h41q17 0 31 -17
l143 -178l143 178q14 17 31 17h43q10 0 14.5 -8t-0.5 -15l-170 -207q-13 -16 -30 -16h-60q-19 0 -32 16z" />
    <glyph glyph-name="uni01E8" unicode="&#x1e8;" horiz-adv-x="1189" 
d="M221 0q-26 0 -26 27v1380q0 27 26 27h21q26 0 26 -27v-866l666 876q14 17 37 17h26q21 0 25.5 -10t-8.5 -27l-502 -645l559 -715q11 -15 6 -26t-24 -11h-23q-24 0 -37 18l-524 678l-201 -258v-411q0 -27 -26 -27h-21zM367 1839q-6 7 -1.5 15t15.5 8h41q17 0 31 -17
l143 -178l143 178q14 17 31 17h43q10 0 14.5 -8t-0.5 -15l-170 -207q-13 -16 -30 -16h-60q-19 0 -32 16z" />
    <glyph glyph-name="uni01E9" unicode="&#x1e9;" horiz-adv-x="1044" 
d="M199 0q-25 0 -25 27v1411q0 26 25 26h20q25 0 25 -26v-1039l551 588q14 17 34 17h43q14 0 15.5 -10t-8.5 -17l-387 -404l444 -542q9 -11 4.5 -21t-22.5 -10h-23q-24 0 -37 18l-412 508l-202 -211v-288q0 -27 -25 -27h-20zM-14 1870q-6 8 -1.5 15t15.5 7h41q18 0 31 -16
l143 -178l143 178q13 16 31 16h43q10 0 14.5 -7t-0.5 -15l-170 -207q-13 -16 -30 -16h-60q-19 0 -32 16z" />
    <glyph glyph-name="uni01EA" unicode="&#x1ea;" horiz-adv-x="1769" 
d="M1057 -406q-28 -13 -64.5 -15.5t-74.5 8t-69.5 31.5t-52 61t-20.5 92q0 118 113 202h-4q-153 0 -289 57.5t-233 156t-153 235t-56 289.5q0 205 95.5 374.5t263 267t372.5 97.5q153 0 288.5 -57.5t232 -155.5t152.5 -235t56 -291q0 -176 -71.5 -327.5t-199.5 -253.5
t-292 -138q-97 -32 -152 -82t-55 -135q0 -89 58 -118t155 -7v-56zM229 711q0 -141 50 -264.5t137 -211.5t208.5 -139t260.5 -51q184 0 334 86.5t235.5 239t85.5 340.5q0 141 -50 265t-137 212.5t-208.5 139t-259.5 50.5q-185 0 -335 -86.5t-235.5 -239t-85.5 -341.5z" />
    <glyph glyph-name="uni01EB" unicode="&#x1eb;" horiz-adv-x="1261" 
d="M764 -406q-28 -13 -64.5 -15.5t-74.5 8t-69.5 31.5t-52 61t-20.5 92q0 119 123 204q-208 11 -345.5 159.5t-137.5 367.5q0 225 145.5 375.5t362.5 150.5q216 0 361 -150.5t145 -375.5q0 -192 -108.5 -333.5t-280.5 -180.5q-197 -65 -197 -213q0 -89 58 -118t155 -7v-56z
M195 502q0 -199 123.5 -328t312.5 -129t312.5 129t123.5 328t-123.5 327.5t-312.5 128.5t-312.5 -128.5t-123.5 -327.5z" />
    <glyph glyph-name="uni0218" unicode="&#x218;" horiz-adv-x="1087" 
d="M539 -25q-272 0 -404 207q-15 24 4 45l6 6q14 12 27.5 9t20.5 -15q118 -182 350 -182q162 0 253 83t91 220q0 55 -17 101.5t-42 80.5t-68.5 67.5t-83 56t-98.5 51.5l-175 86q-233 110 -233 327q0 147 106.5 239.5t266.5 92.5q227 0 358 -178q14 -20 12.5 -29t-14.5 -22
q-26 -24 -53 6q-118 153 -303 153q-129 0 -214 -66.5t-85 -191.5q0 -89 48 -155t150 -117l181 -90q61 -31 103.5 -55.5t90.5 -62.5t77 -77.5t48 -95t19 -119.5q0 -166 -113.5 -270.5t-308.5 -104.5zM449 -436v47q73 3 107 68q24 48 10 82q-9 19 -27 18q-40 -3 -62 16.5
t-22 52.5q0 34 24.5 56t57.5 22q45 0 74.5 -41.5t29.5 -101.5q0 -35 -9 -69.5t-29 -69.5t-60 -57t-94 -23z" />
    <glyph glyph-name="uni0219" unicode="&#x219;" horiz-adv-x="899" 
d="M442 -25q-105 0 -179.5 43t-117.5 99q-22 25 -6 47l8 10q5 8 18.5 7.5t24.5 -13.5q92 -123 256 -123q113 0 181.5 52t68.5 149q0 83 -48 132t-140 87l-113 47q-50 22 -87 43.5t-71.5 53.5t-52.5 74.5t-18 94.5q0 113 81.5 181.5t201.5 68.5q79 0 150 -34t118 -95
q19 -23 -2 -47q-15 -15 -25 -14t-24 16q-88 104 -217 104q-87 0 -150 -44t-63 -130q0 -45 13.5 -77.5t46 -58t64 -41.5t89.5 -40l73 -30q116 -47 179.5 -111.5t64.5 -173.5q0 -128 -94 -202.5t-230 -74.5zM340 -436v47q73 3 107 68q24 48 10 82q-9 19 -27 18
q-40 -3 -62 16.5t-22 52.5q0 34 24.5 56t57.5 22q45 0 74.5 -41.5t29.5 -101.5q0 -35 -9 -69.5t-29 -69.5t-60 -57t-94 -23zM715 852l2 2z" />
    <glyph glyph-name="uni021A" unicode="&#x21a;" horiz-adv-x="1079" 
d="M530 0q-26 0 -26 27v1337h-324q-26 0 -26 29v14q0 27 26 27h719q27 0 27 -27v-14q0 -29 -27 -29h-321v-1337q0 -27 -29 -27h-19zM444 -426v47q74 3 108 70q24 48 9 81q-8 18 -26 17q-40 -3 -62 16.5t-22 53.5t24 56t57 22q45 0 75 -42.5t30 -101.5q0 -27 -5 -54.5
t-18.5 -57.5t-34.5 -53t-56 -38t-79 -16z" />
    <glyph glyph-name="uni021B" unicode="&#x21b;" horiz-adv-x="661" 
d="M436 -12q-89 0 -125.5 44.5t-36.5 131.5v772h-135q-26 0 -26 27v14q0 27 26 27h135v239q0 27 23 27h22q25 0 25 -27v-239h178q27 0 27 -27v-14q0 -27 -27 -27h-178v-760q0 -67 21 -93t73 -26q22 0 64 6q26 4 33.5 -1.5t7.5 -22.5v-16q0 -18 -33 -26.5t-74 -8.5zM332 -440
v47q73 3 107 68q24 48 10 82q-9 19 -27 18q-40 -3 -62 16.5t-22 52.5q0 34 24.5 56t57.5 22q45 0 74.5 -41.5t29.5 -101.5q0 -35 -9 -69.5t-29 -69.5t-60 -57t-94 -23z" />
    <glyph glyph-name="uni0237" unicode="&#x237;" horiz-adv-x="417" 
d="M49 -410q-23 0 -65 7q-12 5 -15.5 8.5t-3.5 15.5v29q0 19 23 14q23 -2 61 -2q45 0 75.5 13.5t45.5 40t21 57t6 73.5v1131q0 27 22 27h23q24 0 24 -27v-1159q0 -108 -53.5 -168t-163.5 -60z" />
    <glyph glyph-name="uni0259" unicode="&#x259;" horiz-adv-x="1208" 
d="M588 -25q-107 0 -196.5 40t-147 106.5t-89.5 151t-32 176.5q0 46 10 60.5t43 14.5h840q-6 123 -59 220.5t-156.5 157t-243.5 59.5q-178 0 -321 -115q-5 -6 -13.5 -7t-13.5 5l-12 12q-8 9 -8 17.5t2.5 11.5t11.5 12q140 131 360 131q158 0 278 -73t181 -192.5t61 -264.5
q0 -224 -139 -373.5t-356 -149.5zM186 457q3 -179 111.5 -294.5t290.5 -115.5q181 0 296.5 112.5t129.5 297.5h-828z" />
    <glyph glyph-name="uni02BC" unicode="&#x2bc;" horiz-adv-x="348" 
d="M184 1075q-46 0 -76 41t-30 101q0 42 9 82t29.5 79t60.5 62.5t95 23.5v-49q-71 -1 -105 -73q-26 -55 -12 -97q8 -25 27 -24q40 3 62 -16t22 -54q0 -34 -24 -55t-58 -21z" />
    <glyph glyph-name="uni02BD" unicode="&#x2bd;" horiz-adv-x="348" 
d="M272 1081q-44 0 -79 16t-56 41.5t-35 59.5t-19 66t-5 65q0 58 30 99.5t76 41.5q34 0 58 -20.5t24 -54.5q0 -35 -22 -54t-62 -18q-27 2 -31 -40q-5 -56 31 -105q34 -48 90 -50v-47z" />
    <glyph glyph-name="circumflex" unicode="&#x2c6;" horiz-adv-x="524" 
d="M47 1188q-10 0 -15 8t1 14l168 207q14 17 32 17h60q17 0 31 -17l170 -207q5 -6 0 -14t-15 -8h-43q-17 0 -30 16l-144 178l-143 -178q-13 -16 -31 -16h-41z" />
    <glyph glyph-name="caron" unicode="&#x2c7;" horiz-adv-x="524" 
d="M233 1186q-19 0 -32 16l-168 207q-6 7 -1.5 15t15.5 8h41q17 0 31 -17l143 -178l144 178q14 17 30 17h43q10 0 15 -7.5t0 -15.5l-170 -207q-13 -16 -31 -16h-60z" />
    <glyph glyph-name="breve" unicode="&#x2d8;" horiz-adv-x="569" 
d="M285 1178q-110 0 -179 63.5t-75 161.5q-3 31 28 31h15q29 0 32 -29q9 -73 57.5 -114.5t121.5 -41.5t122 41.5t56 114.5q3 29 33 29h14q32 0 29 -31q-6 -98 -75 -161.5t-179 -63.5z" />
    <glyph glyph-name="dotaccent" unicode="&#x2d9;" horiz-adv-x="174" 
d="M88 1327q-22 0 -39.5 17t-17.5 40t17.5 40.5t39.5 17.5q23 0 39 -17t16 -41q0 -23 -16 -40t-39 -17z" />
    <glyph glyph-name="ring" unicode="&#x2da;" horiz-adv-x="335" 
d="M168 1178q-57 0 -97 38t-40 97q0 57 40 94t97 37t97 -37t40 -94q0 -59 -40 -97t-97 -38zM104 1311q0 -28 18 -46t46 -18q26 0 44.5 18.5t18.5 45.5t-18 45t-45 18q-28 0 -46 -17.5t-18 -45.5z" />
    <glyph glyph-name="ogonek" unicode="&#x2db;" horiz-adv-x="348" 
d="M301 -406q-28 -13 -64.5 -15.5t-74.5 8t-69.5 32t-52 61.5t-20.5 93q0 67 31 122t78.5 88t99.5 50.5t99 17.5v-51q-95 0 -167.5 -61.5t-72.5 -157.5q0 -85 59.5 -118.5t153.5 -12.5v-56z" />
    <glyph glyph-name="tilde" unicode="&#x2dc;" horiz-adv-x="595" 
d="M422 1280q-43 0 -78.5 19t-56.5 42.5t-51 42.5t-62 19q-27 0 -47 -18t-23 -42q-3 -18 -22 -18h-35q-16 0 -16 23q3 57 43.5 89.5t99.5 32.5q35 0 64 -13t49 -31t39.5 -36t43 -31t50.5 -13t47 17.5t22 41.5q3 20 23 20h33q20 0 20 -20q-3 -58 -44 -91.5t-99 -33.5z" />
    <glyph glyph-name="hungarumlaut" unicode="&#x2dd;" horiz-adv-x="456" 
d="M258 1141q-31 0 -18 30l102 238q8 25 33 25h33q30 0 16 -31l-105 -238q-11 -24 -30 -24h-31zM33 1171l102 238q8 25 33 25h33q30 0 16 -31l-104 -238q-11 -24 -31 -24h-31q-31 0 -18 30z" />
    <glyph glyph-name="gravecomb" unicode="&#x300;" horiz-adv-x="0" 
d="M176 1141q-20 0 -33 24l-110 238q-14 31 18 31h25q22 0 33 -25l108 -238q13 -30 -18 -30h-23z" />
    <glyph glyph-name="acutecomb" unicode="&#x301;" horiz-adv-x="0" 
d="M51 1141q-31 0 -18 30l102 238q8 25 33 25h33q30 0 16 -31l-104 -238q-11 -24 -31 -24h-31z" />
    <glyph glyph-name="uni0302" unicode="&#x302;" horiz-adv-x="0" 
d="M47 1188q-10 0 -15 8t1 14l168 207q14 17 32 17h60q17 0 31 -17l170 -207q5 -6 0 -14t-15 -8h-43q-17 0 -30 16l-144 178l-143 -178q-13 -16 -31 -16h-41z" />
    <glyph glyph-name="tildecomb" unicode="&#x303;" horiz-adv-x="0" 
d="M422 1280q-43 0 -78.5 19t-56.5 42.5t-51 42.5t-62 19q-27 0 -47 -18t-23 -42q-3 -18 -22 -18h-35q-16 0 -16 23q3 57 43.5 89.5t99.5 32.5q35 0 64 -13t49 -31t39.5 -36t43 -31t50.5 -13t47 17.5t22 41.5q3 20 23 20h33q20 0 20 -20q-3 -58 -44 -91.5t-99 -33.5z" />
    <glyph glyph-name="uni0304" unicode="&#x304;" horiz-adv-x="0" 
d="M57 1366q-26 0 -26 27v14q0 27 26 27h523q28 0 28 -27v-14q0 -27 -28 -27h-523z" />
    <glyph glyph-name="uni0306" unicode="&#x306;" horiz-adv-x="0" 
d="M285 1178q-110 0 -179 63.5t-75 161.5q-3 31 28 31h15q29 0 32 -29q9 -73 57.5 -114.5t121.5 -41.5t122 41.5t56 114.5q3 29 33 29h14q32 0 29 -31q-6 -98 -75 -161.5t-179 -63.5z" />
    <glyph glyph-name="uni0307" unicode="&#x307;" horiz-adv-x="0" 
d="M88 1327q-22 0 -39.5 17t-17.5 40t17.5 40.5t39.5 17.5q23 0 39 -17t16 -41q0 -23 -16 -40t-39 -17z" />
    <glyph glyph-name="uni0308" unicode="&#x308;" horiz-adv-x="0" 
d="M414 1335q-23 0 -40.5 17t-17.5 39q0 20 17.5 36.5t40.5 16.5t40 -16t17 -37q0 -22 -17 -39t-40 -17zM31 1391q0 21 17 37t40 16t40 -16t17 -37q0 -22 -17 -39t-40 -17t-40 17t-17 39z" />
    <glyph glyph-name="hookabovecomb" unicode="&#x309;" horiz-adv-x="0" 
d="M256 1204q-27 0 -27 29v8q0 14 8 22.5t21 8.5q53 6 88 40.5t35 90.5t-35 88.5t-90 32.5q-51 0 -88 -33q-24 -21 -45 -8l-6 2q-24 21 -8 43q59 65 145 65t143.5 -54.5t57.5 -137.5q0 -63 -35.5 -110t-79.5 -67t-84 -20z" />
    <glyph glyph-name="uni030A" unicode="&#x30a;" horiz-adv-x="0" 
d="M168 1178q-57 0 -97 38t-40 97q0 57 40 94t97 37t97 -37t40 -94q0 -59 -40 -97t-97 -38zM104 1311q0 -28 18 -46t46 -18q26 0 44.5 18.5t18.5 45.5t-18 45t-45 18q-28 0 -46 -17.5t-18 -45.5z" />
    <glyph glyph-name="uni030B" unicode="&#x30b;" horiz-adv-x="0" 
d="M258 1141q-31 0 -18 30l102 238q8 25 33 25h33q30 0 16 -31l-105 -238q-11 -24 -30 -24h-31zM33 1171l102 238q8 25 33 25h33q30 0 16 -31l-104 -238q-11 -24 -31 -24h-31q-31 0 -18 30z" />
    <glyph glyph-name="uni030C" unicode="&#x30c;" horiz-adv-x="0" 
d="M233 1186q-19 0 -32 16l-168 207q-6 7 -1.5 15t15.5 8h41q17 0 31 -17l143 -178l144 178q14 17 30 17h43q10 0 15 -7.5t0 -15.5l-170 -207q-13 -16 -31 -16h-60z" />
    <glyph glyph-name="uni0312" unicode="&#x312;" horiz-adv-x="0" 
d="M184 1184q-46 0 -76 40.5t-30 100.5q0 33 5 65t19 66t35 59.5t56 41.5t79 16v-49q-71 -1 -105 -73q-26 -54 -12 -97q7 -26 27 -25q40 3 62 -15.5t22 -53.5q0 -34 -24 -55t-58 -21z" />
    <glyph glyph-name="uni031B" unicode="&#x31b;" horiz-adv-x="0" 
d="M0 936v68h131q141 0 141 135v104q0 27 25 27h22q25 0 25 -27v-113q0 -194 -221 -194h-123z" />
    <glyph glyph-name="dotbelowcomb" unicode="&#x323;" horiz-adv-x="0" 
d="M168 -406q-28 0 -47 18t-19 48q0 26 19 45t47 19q26 0 45.5 -19t19.5 -45q0 -30 -19 -48t-46 -18z" />
    <glyph glyph-name="uni0326" unicode="&#x326;" horiz-adv-x="0" 
d="M-8 -389q73 3 107 68q24 48 10 82q-9 19 -27 18q-40 -3 -62 16.5t-22 52.5q0 34 24.5 56t57.5 22q45 0 74.5 -41.5t29.5 -101.5q0 -35 -9 -69.5t-29 -69.5t-60 -57t-94 -23v47z" />
    <glyph glyph-name="uni0327" unicode="&#x327;" horiz-adv-x="0" 
d="M49 -424q-18 3 -18 23v24q0 21 22 21q197 -10 197 100q0 66 -59 90.5t-136 -2.5q-24 -3 -24 14v19q0 11 10 24l96 111h94l-84 -92q76 0 126.5 -41t50.5 -111q0 -55 -24.5 -94t-65 -58t-87.5 -26t-98 -2z" />
    <glyph glyph-name="uni0328" unicode="&#x328;" horiz-adv-x="0" 
d="M301 -406q-28 -13 -64.5 -15.5t-74.5 8t-69.5 32t-52 61.5t-20.5 93q0 67 31 122t78.5 88t99.5 50.5t99 17.5v-51q-95 0 -167.5 -61.5t-72.5 -157.5q0 -85 59.5 -118.5t153.5 -12.5v-56z" />
    <glyph glyph-name="uni0372" unicode="&#x372;" horiz-adv-x="1079" 
d="M530 0q-26 0 -26 27v1337h-324q-26 0 -26 29v14q0 27 26 27h719q27 0 27 -27v-14q0 -29 -27 -29h-321v-1337q0 -27 -29 -27h-19z" />
    <glyph glyph-name="uni0374" unicode="&#x374;" horiz-adv-x="313" 
d="M0 786l236 648h77l-235 -648h-78z" />
    <glyph glyph-name="uni0375" unicode="&#x375;" horiz-adv-x="313" 
d="M0 -389l236 647h77l-235 -647h-78z" />
    <glyph glyph-name="uni037E" unicode="&#x37e;" horiz-adv-x="389" 
d="M170 889q-29 0 -49.5 19.5t-20.5 49.5q0 28 21 49t49 21q29 0 50.5 -21t21.5 -49q0 -30 -21 -49.5t-51 -19.5zM96 -250v47q73 3 107 68q24 48 10 82q-9 19 -27 18q-40 -3 -62 16.5t-22 53.5t24.5 56t57.5 22q45 0 75 -42.5t30 -101.5q0 -27 -5 -54.5t-18.5 -57.5
t-34.5 -53t-56 -38t-79 -16z" />
    <glyph glyph-name="tonos" unicode="&#x384;" horiz-adv-x="303" 
d="M84 1141q-31 0 -18 30l96 238q11 25 33 25h26q31 0 17 -31l-99 -238q-11 -24 -33 -24h-22z" />
    <glyph glyph-name="dieresistonos" unicode="&#x385;" horiz-adv-x="557" 
d="M182 1141q-31 0 -18 30l90 238q11 25 33 25h28q33 0 19 -31l-92 -238q-11 -24 -33 -24h-27zM61 1382q0 24 20 43t46 19t46 -19t20 -43q0 -26 -20 -45.5t-46 -19.5t-46 19.5t-20 45.5zM367 1382q0 24 19 43t46 19q26 0 45 -19t19 -43q0 -26 -19 -45.5t-45 -19.5
q-27 0 -46 19t-19 46z" />
    <glyph glyph-name="Alphatonos" unicode="&#x386;" horiz-adv-x="1378" 
d="M150 0q-17 0 -22.5 10t1.5 25l506 1374q9 25 37 25h35q25 0 34 -25l508 -1374q6 -15 0.5 -25t-22.5 -10h-23q-22 0 -30 25l-127 346h-717l-125 -346q-8 -25 -35 -25h-20zM287 1171l96 238q11 25 33 25h26q31 0 17 -31l-99 -238q-11 -24 -32 -24h-23q-31 0 -18 30z
M354 438h668l-334 916z" />
    <glyph glyph-name="anoteleia" unicode="&#x387;" horiz-adv-x="405" 
d="M203 889q-29 0 -49.5 19.5t-20.5 49.5q0 28 21 49t49 21q29 0 50 -21t21 -49q0 -30 -20.5 -49.5t-50.5 -19.5z" />
    <glyph glyph-name="Epsilontonos" unicode="&#x388;" horiz-adv-x="1089" 
d="M221 0q-26 0 -26 27v1380q0 27 26 27h664q26 0 26 -27v-14q0 -29 -26 -29h-617v-582h586q27 0 27 -26v-15q0 -28 -27 -28h-586v-643h619q28 0 28 -29v-14q0 -27 -28 -27h-666zM-61 1171l96 238q11 25 33 25h26q31 0 17 -31l-99 -238q-11 -24 -32 -24h-23q-31 0 -18 30z
" />
    <glyph glyph-name="Etatonos" unicode="&#x389;" horiz-adv-x="1300" 
d="M221 0q-26 0 -26 27v1380q0 27 26 27h21q26 0 26 -27v-657h764v657q0 27 27 27h18q29 0 29 -27v-1380q0 -27 -29 -27h-18q-27 0 -27 27v653h-764v-653q0 -27 -26 -27h-21zM-96 1171l96 238q11 25 33 25h26q31 0 17 -31l-99 -238q-11 -24 -32 -24h-23q-31 0 -18 30z" />
    <glyph glyph-name="Iotatonos" unicode="&#x38a;" horiz-adv-x="462" 
d="M221 0q-26 0 -26 27v1380q0 27 26 27h21q26 0 26 -27v-1380q0 -27 -26 -27h-21zM-96 1171l96 238q11 25 33 25h26q31 0 17 -31l-99 -238q-11 -24 -32 -24h-23q-31 0 -18 30z" />
    <glyph glyph-name="Omicrontonos" unicode="&#x38c;" horiz-adv-x="1769" 
d="M885 -27q-153 0 -289 57.5t-233 156t-153 235t-56 289.5q0 205 95.5 374.5t263 267t372.5 97.5q153 0 288.5 -57.5t232 -155.5t152.5 -235t56 -291q0 -153 -56 -289.5t-152.5 -235t-232 -156t-288.5 -57.5zM20 1171l97 238q11 25 33 25h26q31 0 17 -31l-99 -238
q-11 -24 -33 -24h-22q-32 0 -19 30zM229 711q0 -141 50 -264.5t137 -211.5t208.5 -139t260.5 -51q184 0 334 86.5t235.5 239t85.5 340.5q0 141 -50 265t-137 212.5t-208.5 139t-259.5 50.5q-185 0 -335 -86.5t-235.5 -239t-85.5 -341.5z" />
    <glyph glyph-name="Upsilontonos" unicode="&#x38e;" horiz-adv-x="1185" 
d="M584 0q-29 0 -29 27v673l-426 697q-10 13 -6 25t22 12h31q21 0 33 -21l385 -637l383 637q12 21 33 21h30q18 0 22.5 -12t-5.5 -25l-426 -697v-673q0 -27 -29 -27h-18zM-68 1171l97 238q11 25 32 25h27q30 0 16 -31l-98 -238q-11 -24 -33 -24h-22q-32 0 -19 30z" />
    <glyph glyph-name="Omegatonos" unicode="&#x38f;" horiz-adv-x="1728" 
d="M236 0q-14 0 -22.5 9t-8.5 22v8q0 13 8.5 22t22.5 9h260v30q-162 112 -252 272.5t-90 358.5q0 204 92.5 369t255 257.5t362.5 92.5q149 0 280.5 -54.5t225.5 -149.5t148.5 -228.5t54.5 -286.5q0 -199 -89.5 -359t-252.5 -272v-30h262q13 0 22 -9t9 -22v-8q0 -13 -9 -22
t-22 -9h-293q-14 0 -22.5 9t-8.5 22v114q160 98 249 248t89 342q0 144 -50 266t-137 204.5t-204.5 128.5t-251.5 46q-180 0 -325.5 -78t-231.5 -226.5t-86 -340.5t89 -342t249 -248v-114q0 -13 -8.5 -22t-22.5 -9h-292zM27 1171l96 238q11 25 33 25h26q31 0 17 -31l-99 -238
q-11 -24 -32 -24h-23q-31 0 -18 30z" />
    <glyph glyph-name="iotadieresistonos" unicode="&#x390;" horiz-adv-x="524" 
d="M336 -25q-89 0 -125.5 45t-36.5 132v825q0 27 25 27h20q25 0 25 -27v-815q0 -66 21.5 -92.5t72.5 -26.5q35 0 63 4q26 4 33.5 -1.5t7.5 -22.5v-13q0 -18 -32.5 -26.5t-73.5 -8.5zM70 1382q0 24 19.5 43t45.5 19t46 -19t20 -43q0 -26 -20 -45.5t-46 -19.5t-45.5 19.5
t-19.5 45.5zM172 1171l90 238q11 25 33 25h29q32 0 18 -31l-92 -238q-11 -24 -33 -24h-27q-31 0 -18 30zM375 1382q0 24 19 43t46 19q26 0 45 -19t19 -43q0 -26 -19 -45.5t-45 -19.5q-27 0 -46 19t-19 46z" />
    <glyph glyph-name="Alpha" unicode="&#x391;" horiz-adv-x="1378" 
d="M150 0q-17 0 -22.5 10t1.5 25l506 1374q9 25 37 25h35q25 0 34 -25l508 -1374q6 -15 0.5 -25t-22.5 -10h-23q-22 0 -30 25l-127 346h-717l-125 -346q-8 -25 -35 -25h-20zM354 438h668l-334 916z" />
    <glyph glyph-name="Beta" unicode="&#x392;" horiz-adv-x="1187" 
d="M221 0q-26 0 -26 27v1380q0 27 26 27h377q88 0 157 -20.5t111 -53t69 -78t37.5 -90.5t10.5 -94q0 -107 -52.5 -193.5t-166.5 -122.5q149 -32 225 -138.5t76 -248.5q0 -178 -119.5 -286.5t-345.5 -108.5h-379zM268 70h326q198 0 297.5 85t99.5 246q0 158 -100.5 249
t-296.5 91h-326v-671zM268 811h340q137 0 219 77.5t82 211.5t-79.5 199t-221.5 65h-340v-553z" />
    <glyph glyph-name="Gamma" unicode="&#x393;" horiz-adv-x="1007" 
d="M221 0q-26 0 -26 27v1380q0 27 26 27h633q14 0 22.5 -9t8.5 -22v-14q0 -13 -8.5 -22t-22.5 -9h-586v-1331q0 -27 -26 -27h-21z" />
    <glyph glyph-name="uni0394" unicode="&#x394;" horiz-adv-x="1372" 
d="M139 0q-8 0 -13.5 9t-2.5 20l510 1380q9 25 35 25h37q25 0 34 -25l508 -1380q4 -11 -1 -20t-13 -9h-1094zM219 76h932l-465 1280z" />
    <glyph glyph-name="Epsilon" unicode="&#x395;" horiz-adv-x="1089" 
d="M221 0q-26 0 -26 27v1380q0 27 26 27h664q26 0 26 -27v-14q0 -29 -26 -29h-617v-582h586q27 0 27 -26v-15q0 -28 -27 -28h-586v-643h619q28 0 28 -29v-14q0 -27 -28 -27h-666z" />
    <glyph glyph-name="Zeta" unicode="&#x396;" horiz-adv-x="1171" 
d="M170 0q-27 0 -27 27v24q0 17 13 37l759 1276h-725q-26 0 -26 29v14q0 27 26 27h779q28 0 28 -27v-25q0 -18 -12 -36l-760 -1276h764q29 0 29 -29v-14q0 -27 -29 -27h-819z" />
    <glyph glyph-name="Eta" unicode="&#x397;" horiz-adv-x="1300" 
d="M221 0q-26 0 -26 27v1380q0 27 26 27h21q26 0 26 -27v-657h764v657q0 27 27 27h18q29 0 29 -27v-1380q0 -27 -29 -27h-18q-27 0 -27 27v653h-764v-653q0 -27 -26 -27h-21z" />
    <glyph glyph-name="Theta" unicode="&#x398;" horiz-adv-x="1769" 
d="M582 676q-27 0 -27 29v12q0 26 27 26h606q26 0 26 -26v-12q0 -29 -26 -29h-606zM154 711q0 205 95.5 374.5t263 267t372.5 97.5q153 0 288.5 -57.5t232 -155.5t152.5 -235t56 -291q0 -153 -56 -289.5t-152.5 -235t-232 -156t-288.5 -57.5t-289 57.5t-233 156t-153 235
t-56 289.5zM229 711q0 -141 50 -264.5t137 -211.5t208.5 -139t260.5 -51q184 0 334 86.5t235.5 239t85.5 340.5q0 141 -50 265t-137 212.5t-208.5 139t-259.5 50.5q-185 0 -335 -86.5t-235.5 -239t-85.5 -341.5z" />
    <glyph glyph-name="Iota" unicode="&#x399;" horiz-adv-x="462" 
d="M221 0q-26 0 -26 27v1380q0 27 26 27h21q26 0 26 -27v-1380q0 -27 -26 -27h-21z" />
    <glyph glyph-name="Kappa" unicode="&#x39a;" horiz-adv-x="1189" 
d="M221 0q-26 0 -26 27v1380q0 27 26 27h21q26 0 26 -27v-866l666 876q14 17 37 17h26q21 0 25.5 -10t-8.5 -27l-502 -645l559 -715q11 -15 6 -26t-24 -11h-23q-24 0 -37 18l-524 678l-201 -258v-411q0 -27 -26 -27h-21z" />
    <glyph glyph-name="Lambda" unicode="&#x39b;" horiz-adv-x="1378" 
d="M150 0q-17 0 -22.5 10t1.5 25l506 1374q9 25 37 25h35q25 0 34 -25l508 -1374q6 -15 0.5 -25t-22.5 -10h-23q-22 0 -30 25l-486 1333l-483 -1333q-8 -25 -35 -25h-20z" />
    <glyph glyph-name="Mu" unicode="&#x39c;" horiz-adv-x="1779" 
d="M221 0q-26 0 -26 27v1380q0 27 26 27h58q21 0 30 -21l580 -1341l579 1341q9 21 33 21h55q27 0 27 -27v-1380q0 -27 -27 -27h-18q-29 0 -29 27v1310l-565 -1317q-8 -20 -33 -20h-43q-25 0 -32 20l-568 1317v-1310q0 -27 -26 -27h-21z" />
    <glyph glyph-name="Nu" unicode="&#x39d;" horiz-adv-x="1335" 
d="M1065 0q-26 0 -37 20l-760 1328v-1321q0 -27 -26 -27h-21q-26 0 -26 27v1380q0 27 24 27h53q25 0 37 -21l758 -1327v1321q0 27 27 27h20q27 0 27 -27v-1380q0 -27 -25 -27h-51z" />
    <glyph glyph-name="Xi" unicode="&#x39e;" horiz-adv-x="1140" 
d="M205 1364q-27 0 -27 29v14q0 27 27 27h731q27 0 27 -27v-14q0 -29 -27 -29h-731zM174 27v14q0 29 27 29h737q29 0 29 -29v-14q0 -27 -29 -27h-737q-27 0 -27 27zM207 741v15q0 26 29 26h669q27 0 27 -26v-15q0 -28 -27 -28h-669q-29 0 -29 28z" />
    <glyph glyph-name="Omicron" unicode="&#x39f;" horiz-adv-x="1769" 
d="M885 -27q-153 0 -289 57.5t-233 156t-153 235t-56 289.5q0 205 95.5 374.5t263 267t372.5 97.5q153 0 288.5 -57.5t232 -155.5t152.5 -235t56 -291q0 -153 -56 -289.5t-152.5 -235t-232 -156t-288.5 -57.5zM229 711q0 -141 50 -264.5t137 -211.5t208.5 -139t260.5 -51
q184 0 334 86.5t235.5 239t85.5 340.5q0 141 -50 265t-137 212.5t-208.5 139t-259.5 50.5q-185 0 -335 -86.5t-235.5 -239t-85.5 -341.5z" />
    <glyph glyph-name="Pi" unicode="&#x3a0;" horiz-adv-x="1304" 
d="M221 0q-26 0 -26 27v1380q0 27 26 27h860q27 0 27 -27v-1380q0 -27 -27 -27h-18q-29 0 -29 27v1331h-766v-1331q0 -27 -26 -27h-21z" />
    <glyph glyph-name="Rho" unicode="&#x3a1;" horiz-adv-x="1177" 
d="M221 0q-26 0 -26 27v1380q0 27 26 27h369q215 0 334.5 -120.5t119.5 -314.5q0 -193 -119.5 -313.5t-334.5 -120.5h-322v-538q0 -27 -26 -27h-21zM268 635h310q86 0 155.5 20.5t123 63t83 113.5t29.5 167q0 187 -106.5 276t-284.5 89h-310v-729z" />
    <glyph glyph-name="Sigma" unicode="&#x3a3;" horiz-adv-x="1085" 
d="M221 0q-26 0 -26 27v22q0 9 10 39l330 629l-330 629q-10 30 -10 38v23q0 27 26 27h660q26 0 26 -27v-14q0 -29 -26 -29h-609l334 -627q6 -13 6 -20t-6 -21l-332 -626h611q26 0 26 -29v-14q0 -27 -26 -27h-664z" />
    <glyph glyph-name="Tau" unicode="&#x3a4;" horiz-adv-x="1079" 
d="M530 0q-26 0 -26 27v1337h-324q-26 0 -26 29v14q0 27 26 27h719q27 0 27 -27v-14q0 -29 -27 -29h-321v-1337q0 -27 -29 -27h-19z" />
    <glyph glyph-name="Upsilon" unicode="&#x3a5;" horiz-adv-x="1185" 
d="M584 0q-29 0 -29 27v673l-426 697q-10 13 -6 25t22 12h31q21 0 33 -21l385 -637l383 637q12 21 33 21h30q18 0 22.5 -12t-5.5 -25l-426 -697v-673q0 -27 -29 -27h-18z" />
    <glyph glyph-name="Phi" unicode="&#x3a6;" horiz-adv-x="1591" 
d="M745 123q-159 0 -281.5 48.5t-195.5 132.5t-109 188.5t-36 224.5t36 224.5t109 188.5t195.5 132.5t281.5 48.5h5v96q0 27 26 27h21q26 0 26 -27v-96h2q128 0 233 -32t176.5 -87.5t120.5 -131.5t71 -162t22 -181t-22 -181t-71 -162t-120.5 -131.5t-176.5 -87.5t-233 -32
h-2v-96q0 -27 -26 -27h-21q-26 0 -26 27v96h-5zM199 717q0 -111 32 -202.5t96.5 -163.5t172.5 -112t250 -40v1036q-142 0 -250 -40t-172.5 -112t-96.5 -163.5t-32 -202.5zM823 199q142 0 249.5 40t171.5 112t96 163.5t32 202.5t-32 202.5t-96 163.5t-171.5 112t-249.5 40
v-1036z" />
    <glyph glyph-name="Chi" unicode="&#x3a7;" horiz-adv-x="1263" 
d="M164 0q-18 0 -21 12t7 25l440 700l-420 660q-10 13 -7 25t21 12h29q12 0 19 -4t14 -17l385 -616l385 616q14 21 35 21h28q18 0 20.5 -12t-7.5 -25l-418 -660l438 -700q10 -13 8 -25t-20 -12h-25q-22 0 -33 20l-411 654l-410 -654q-9 -13 -15 -16.5t-18 -3.5h-24z" />
    <glyph glyph-name="Psi" unicode="&#x3a8;" horiz-adv-x="1564" 
d="M737 289q-274 0 -413.5 134.5t-139.5 373.5v610q0 27 27 27h20q27 0 27 -27v-602q0 -218 122.5 -333.5t360.5 -115.5h4v1051q0 27 27 27h21q26 0 26 -27v-1051h4q235 0 358.5 115.5t123.5 333.5v602q0 27 28 27h19q28 0 28 -27v-610q0 -239 -140 -373.5t-415 -134.5h-6
v-262q0 -27 -26 -27h-21q-27 0 -27 27v262h-8z" />
    <glyph glyph-name="uni03A9" unicode="&#x3a9;" horiz-adv-x="1728" 
d="M236 0q-14 0 -22.5 9t-8.5 22v8q0 13 8.5 22t22.5 9h260v30q-162 112 -252 272.5t-90 358.5q0 204 92.5 369t255 257.5t362.5 92.5q149 0 280.5 -54.5t225.5 -149.5t148.5 -228.5t54.5 -286.5q0 -199 -89.5 -359t-252.5 -272v-30h262q13 0 22 -9t9 -22v-8q0 -13 -9 -22
t-22 -9h-293q-14 0 -22.5 9t-8.5 22v114q160 98 249 248t89 342q0 144 -50 266t-137 204.5t-204.5 128.5t-251.5 46q-180 0 -325.5 -78t-231.5 -226.5t-86 -340.5t89 -342t249 -248v-114q0 -13 -8.5 -22t-22.5 -9h-292z" />
    <glyph glyph-name="Iotadieresis" unicode="&#x3aa;" horiz-adv-x="462" 
d="M221 0q-26 0 -26 27v1380q0 27 26 27h21q26 0 26 -27v-1380q0 -27 -26 -27h-21zM10 1821q0 20 17.5 36.5t40.5 16.5t40 -16t17 -37q0 -22 -17 -39t-40 -17t-40.5 17t-17.5 39zM336 1821q0 21 17 37t40 16t40.5 -16.5t17.5 -36.5q0 -22 -17.5 -39t-40.5 -17t-40 17t-17 39
z" />
    <glyph glyph-name="Upsilondieresis" unicode="&#x3ab;" horiz-adv-x="1185" 
d="M584 0q-29 0 -29 27v673l-426 697q-10 13 -6 25t22 12h31q21 0 33 -21l385 -637l383 637q12 21 33 21h30q18 0 22.5 -12t-5.5 -25l-426 -697v-673q0 -27 -29 -27h-18zM371 1821q0 21 17 37t40 16t40 -16t17 -37q0 -22 -17 -39t-40 -17t-40 17t-17 39zM696 1821
q0 20 17.5 36.5t40.5 16.5t40 -16t17 -37q0 -22 -17 -39t-40 -17t-40.5 17t-17.5 39z" />
    <glyph glyph-name="alphatonos" unicode="&#x3ac;" horiz-adv-x="1347" 
d="M629 -25q-224 0 -365 149t-141 378q0 228 141 377t365 149q143 0 250.5 -67.5t167.5 -186.5l4 203q0 27 24 27h21q24 0 24 -27v-811q0 -123 70 -123q31 0 45 4q19 4 25 -1.5t6 -22.5v-13q0 -35 -78 -35q-46 0 -75.5 15.5t-43.5 48.5t-17.5 72.5t-0.5 97.5h-13
q-59 -110 -162 -172t-247 -62zM190 502q0 -203 122.5 -330t314.5 -127q188 0 306 124.5t118 326.5q0 204 -118.5 333t-305.5 129q-191 0 -314 -127t-123 -329zM590 1171l96 238q11 25 33 25h26q31 0 17 -31l-98 -238q-11 -24 -33 -24h-23q-31 0 -18 30z" />
    <glyph glyph-name="epsilontonos" unicode="&#x3ad;" horiz-adv-x="946" 
d="M514 -25q-158 0 -259 80t-101 205q0 88 54.5 157.5t149.5 98.5q-80 30 -125 91.5t-45 146.5q0 121 96 197.5t255 76.5q109 0 200 -41q41 -20 41 -47v-14q0 -14 -11.5 -21.5t-20.5 -1.5q-1 1 -23 12t-33.5 15.5t-36 12.5t-53.5 11.5t-63 3.5q-144 0 -212.5 -54t-68.5 -146
q0 -93 66.5 -150t191.5 -57h160q14 0 22.5 -8.5t8.5 -22.5v-12q0 -14 -8.5 -22.5t-22.5 -8.5h-162q-144 0 -215.5 -58t-71.5 -153q0 -108 81 -164.5t218 -56.5q43 0 78.5 5t66.5 17t47 19.5t44 24.5t33 20q28 14 28 -14v-17q0 -17 -6.5 -27t-25.5 -22q-113 -76 -277 -76z
M449 1171l96 238q11 25 33 25h26q31 0 17 -31l-99 -238q-11 -24 -33 -24h-22q-31 0 -18 30z" />
    <glyph glyph-name="etatonos" unicode="&#x3ae;" horiz-adv-x="1224" 
d="M1004 -389q-25 0 -25 27v997q0 150 -79.5 236.5t-221.5 86.5q-148 0 -246 -88.5t-98 -234.5v-608q0 -27 -25 -27h-22q-25 0 -25 27v819q0 64 -17.5 89.5t-54.5 25.5q-30 0 -47 -5q-18 -1 -24 4t-6 21v12q0 35 84 35q81 0 110.5 -43.5t24.5 -136.5q50 78 138.5 129
t211.5 51q170 0 269.5 -104.5t99.5 -302.5v-983q0 -27 -25 -27h-22zM637 1171l96 238q11 25 33 25h27q30 0 16 -31l-98 -238q-11 -24 -33 -24h-23q-31 0 -18 30z" />
    <glyph glyph-name="iotatonos" unicode="&#x3af;" horiz-adv-x="524" 
d="M336 -25q-89 0 -125.5 45t-36.5 132v825q0 27 25 27h20q25 0 25 -27v-815q0 -66 21.5 -92.5t72.5 -26.5q35 0 63 4q26 4 33.5 -1.5t7.5 -22.5v-13q0 -18 -32.5 -26.5t-73.5 -8.5zM170 1171l96 238q11 25 33 25h27q30 0 16 -31l-98 -238q-11 -24 -33 -24h-23q-31 0 -18 30
z" />
    <glyph glyph-name="upsilondieresistonos" unicode="&#x3b0;" horiz-adv-x="1140" 
d="M569 -25q-183 0 -289 107t-106 317v578q0 27 25 27h22q25 0 25 -27v-574q0 -177 86.5 -267.5t242.5 -90.5q166 0 254.5 113.5t88.5 371.5q0 230 -72 447q-9 27 16 27h25q13 0 18.5 -6t12.5 -21q69 -201 69 -438q0 -156 -30.5 -268t-88 -175.5t-131 -92t-168.5 -28.5z
M338 1382q0 24 19.5 43t45.5 19t46 -19t20 -43q0 -26 -20 -45.5t-46 -19.5t-45.5 19.5t-19.5 45.5zM440 1171l90 238q11 25 33 25h29q32 0 18 -31l-92 -238q-11 -24 -33 -24h-26q-32 0 -19 30zM643 1382q0 24 19.5 43t46.5 19q26 0 44.5 -19t18.5 -43q0 -26 -18.5 -45.5
t-44.5 -19.5q-27 0 -46.5 19.5t-19.5 45.5z" />
    <glyph glyph-name="alpha" unicode="&#x3b1;" horiz-adv-x="1347" 
d="M629 -25q-224 0 -365 149t-141 378q0 228 141 377t365 149q143 0 250.5 -67.5t167.5 -186.5l4 203q0 27 24 27h21q24 0 24 -27v-811q0 -123 70 -123q31 0 45 4q19 4 25 -1.5t6 -22.5v-13q0 -35 -78 -35q-46 0 -75.5 15.5t-43.5 48.5t-17.5 72.5t-0.5 97.5h-13
q-59 -110 -162 -172t-247 -62zM190 502q0 -203 122.5 -330t314.5 -127q188 0 306 124.5t118 326.5q0 204 -118.5 333t-305.5 129q-191 0 -314 -127t-123 -329z" />
    <glyph glyph-name="beta" unicode="&#x3b2;" horiz-adv-x="1153" 
d="M219 -389q-24 0 -24 27v1474q0 68 22.5 127.5t67 107t118.5 75.5t168 28q95 0 169 -28t119 -76.5t68 -108.5t23 -129q0 -36 -5 -69.5t-20 -72.5t-38.5 -71.5t-64 -62.5t-93.5 -50q159 -28 235 -132.5t76 -248.5q0 -128 -60 -221t-155.5 -136.5t-212.5 -43.5
q-40 0 -80.5 6t-93 22t-98.5 53t-76 91v-534q0 -27 -24 -27h-21zM264 381q0 -79 29 -141t78.5 -99t110.5 -56t130 -19q72 0 135.5 20.5t114.5 60t81 106t30 150.5q0 155 -104 245.5t-314 90.5h-143q-25 0 -25 27v12q0 27 25 27h139q153 0 241.5 81.5t88.5 221.5
q0 133 -82.5 203.5t-227.5 70.5t-226 -70.5t-81 -203.5v-727z" />
    <glyph glyph-name="gamma" unicode="&#x3b3;" horiz-adv-x="1081" 
d="M119 969q-12 35 20 35h21q21 0 30 -25l349 -899q156 140 256 395t100 496q0 33 31 33h12q31 0 31 -33q0 -148 -35.5 -297t-95 -272t-130.5 -224t-149 -174v-358q0 -27 -24 -27h-23q-23 0 -23 27v364z" />
    <glyph glyph-name="delta" unicode="&#x3b4;" horiz-adv-x="1261" 
d="M631 -25q-143 0 -259 68.5t-182.5 189.5t-66.5 269q0 187 104 326t271 182q-174 70 -174 215q0 101 85.5 163t237.5 62q206 0 379 -121q23 -16 10 -39l-6 -16q-17 -28 -41 -10q-155 114 -344 114q-113 0 -179.5 -37t-66.5 -116q0 -85 77.5 -128.5t238.5 -74.5
q183 -33 302.5 -174.5t119.5 -345.5q0 -225 -145 -376t-361 -151zM195 502q0 -199 123.5 -328t312.5 -129t312.5 129t123.5 328t-123.5 327.5t-312.5 128.5t-312.5 -128.5t-123.5 -327.5z" />
    <glyph glyph-name="epsilon" unicode="&#x3b5;" horiz-adv-x="946" 
d="M514 -25q-158 0 -259 80t-101 205q0 88 54.5 157.5t149.5 98.5q-80 30 -125 91.5t-45 146.5q0 121 96 197.5t255 76.5q109 0 200 -41q41 -20 41 -47v-14q0 -14 -11.5 -21.5t-20.5 -1.5q-1 1 -23 12t-33.5 15.5t-36 12.5t-53.5 11.5t-63 3.5q-144 0 -212.5 -54t-68.5 -146
q0 -93 66.5 -150t191.5 -57h160q14 0 22.5 -8.5t8.5 -22.5v-12q0 -14 -8.5 -22.5t-22.5 -8.5h-162q-144 0 -215.5 -58t-71.5 -153q0 -108 81 -164.5t218 -56.5q43 0 78.5 5t66.5 17t47 19.5t44 24.5t33 20q28 14 28 -14v-17q0 -17 -6.5 -27t-25.5 -22q-113 -76 -277 -76z
" />
    <glyph glyph-name="zeta" unicode="&#x3b6;" horiz-adv-x="1019" 
d="M829 -190q-11 0 -19.5 7t-8.5 19q0 5 13 35t13 57q0 38 -20.5 55t-67.5 17h-180q-189 0 -312.5 115.5t-123.5 310.5q0 127 47.5 223.5t130.5 190.5l477 524h-551q-28 0 -28 29v12q0 29 28 29h613q28 0 28 -29v-19q0 -24 -14 -38l-469 -523q-6 -7 -18 -20
q-34 -37 -51.5 -57.5t-45 -60.5t-41.5 -73.5t-25 -82t-11 -101.5q0 -93 30.5 -164.5t84 -113.5t120 -63t143.5 -21h187q69 0 104 -33.5t35 -108.5q0 -29 -5.5 -51t-12.5 -34t-16 -19.5t-14 -9.5t-7 -2h-13z" />
    <glyph glyph-name="eta" unicode="&#x3b7;" horiz-adv-x="1224" 
d="M1004 -389q-25 0 -25 27v997q0 150 -79.5 236.5t-221.5 86.5q-148 0 -246 -88.5t-98 -234.5v-608q0 -27 -25 -27h-22q-25 0 -25 27v819q0 64 -17.5 89.5t-54.5 25.5q-30 0 -47 -5q-18 -1 -24 4t-6 21v12q0 35 84 35q81 0 110.5 -43.5t24.5 -136.5q50 78 138.5 129
t211.5 51q170 0 269.5 -104.5t99.5 -302.5v-983q0 -27 -25 -27h-22z" />
    <glyph glyph-name="theta" unicode="&#x3b8;" horiz-adv-x="1255" 
d="M629 -27q-120 0 -211.5 53t-148.5 151.5t-86 232.5t-29 301q0 169 28.5 303.5t86 232.5t149 150.5t211.5 52.5q119 0 210 -52.5t148.5 -150.5t86 -232.5t28.5 -303.5q0 -167 -28.5 -301t-86 -232.5t-148.5 -151.5t-210 -53zM225 676q7 -314 111.5 -473.5t292.5 -159.5
q187 0 290.5 159.5t110.5 473.5h-805zM225 743h805q-7 317 -110.5 477t-290.5 160q-189 0 -293 -160t-111 -477z" />
    <glyph glyph-name="iota" unicode="&#x3b9;" horiz-adv-x="524" 
d="M336 -25q-89 0 -125.5 45t-36.5 132v825q0 27 25 27h20q25 0 25 -27v-815q0 -66 21.5 -92.5t72.5 -26.5q35 0 63 4q26 4 33.5 -1.5t7.5 -22.5v-13q0 -18 -32.5 -26.5t-73.5 -8.5z" />
    <glyph glyph-name="kappa" unicode="&#x3ba;" horiz-adv-x="1036" 
d="M887 0q-24 0 -37 16l-442 482l-164 -162v-309q0 -27 -25 -27h-20q-25 0 -25 27v950q0 27 25 27h20q25 0 25 -27v-555l551 565q20 17 39 17h22q21 0 25 -11t-13 -26l-413 -420l471 -510q13 -12 9 -24.5t-24 -12.5h-24z" />
    <glyph glyph-name="lambda" unicode="&#x3bb;" horiz-adv-x="1208" 
d="M1012 -25q-27 0 -48.5 8t-34.5 17.5t-25.5 30.5t-18 33.5t-16 41t-15.5 39.5l-303 787l-346 -907q-9 -25 -29 -25h-26q-33 0 -21 35l383 975l-156 395q-5 12 0.5 20.5t18.5 8.5h22q24 0 33 -25l502 -1278q23 -49 39.5 -68.5t38.5 -19.5q27 0 47 4q12 2 18 -3.5t6 -20.5
v-13q0 -35 -69 -35z" />
    <glyph glyph-name="uni03BC" unicode="&#x3bc;" 
d="M201 -389q-27 0 -27 27v1339q0 27 25 27h22q25 0 25 -27v-608q0 -151 79 -237.5t222 -86.5q148 0 246 89t98 235v608q0 27 24 27h23q25 0 25 -27v-950q0 -27 -25 -27h-14q-16 0 -20.5 6t-6.5 23l-6 137q-60 -91 -137.5 -141t-200.5 -50q-209 0 -307 150v-487
q0 -27 -29 -27h-16z" />
    <glyph glyph-name="nu" unicode="&#x3bd;" horiz-adv-x="1091" 
d="M520 0q-28 0 -37 25l-364 944q-12 35 20 35h21q21 0 30 -25l349 -899q156 140 256 395t100 496q0 33 31 33h12q31 0 31 -33q0 -148 -35.5 -297.5t-93 -271t-125 -218t-137.5 -161.5q-26 -23 -48 -23h-10z" />
    <glyph glyph-name="xi" unicode="&#x3be;" horiz-adv-x="1050" 
d="M860 -190q-11 0 -20 7.5t-9 18.5q0 5 13.5 35t13.5 57q0 38 -20.5 55t-67.5 17h-190q-189 0 -307.5 105t-118.5 294q0 148 76.5 244t207.5 121q-95 15 -157 98.5t-62 202.5q0 93 40.5 172t119.5 127h-217q-29 0 -29 29v12q0 29 29 29h735q29 0 29 -29v-12q0 -29 -29 -29
h-287q-149 0 -235 -77.5t-86 -215.5q0 -133 84.5 -208t240.5 -75h220q26 0 26 -28v-10q0 -29 -26 -29h-254q-178 0 -268.5 -82t-90.5 -233q0 -89 29.5 -155.5t82 -105.5t118 -58t143.5 -19h194q69 0 104.5 -33.5t35.5 -108.5q0 -29 -5.5 -51t-13 -34t-16 -19.5t-14 -9.5
t-7.5 -2h-12z" />
    <glyph glyph-name="omicron" unicode="&#x3bf;" horiz-adv-x="1261" 
d="M631 -25q-143 0 -259 68.5t-182.5 189.5t-66.5 269q0 225 145.5 375.5t362.5 150.5q216 0 361 -150.5t145 -375.5t-145 -376t-361 -151zM195 502q0 -199 123.5 -328t312.5 -129t312.5 129t123.5 328t-123.5 327.5t-312.5 128.5t-312.5 -128.5t-123.5 -327.5z" />
    <glyph glyph-name="pi" unicode="&#x3c0;" horiz-adv-x="1275" 
d="M1044 -25q-90 0 -126.5 44.5t-36.5 132.5v784h-467v-909q0 -27 -27 -27h-16q-27 0 -27 27v909h-205q-26 0 -26 29v12q0 27 26 27h1016q27 0 27 -27v-12q0 -29 -27 -29h-205v-774q0 -66 22.5 -92.5t74.5 -26.5q35 0 63 4q24 4 31.5 -1.5t7.5 -22.5v-13q0 -18 -32 -26.5
t-73 -8.5z" />
    <glyph glyph-name="rho" unicode="&#x3c1;" horiz-adv-x="1253" 
d="M158 -389q-25 0 -25 27v862q0 126 41.5 228t112 166.5t160 99t188.5 34.5q217 0 356 -149.5t139 -376.5q0 -229 -140 -378t-361 -149q-146 0 -256.5 66t-169.5 176v-579q0 -27 -25 -27h-20zM203 496q0 -202 117 -326.5t305 -124.5q193 0 315.5 127t122.5 330
q0 200 -122 328t-312 128t-308 -128.5t-118 -333.5z" />
    <glyph glyph-name="uni03C2" unicode="&#x3c2;" horiz-adv-x="1155" 
d="M963 -190q-11 0 -20 7.5t-9 18.5q0 5 13.5 35t13.5 57q0 38 -21 55t-68 17h-221q-229 0 -378.5 141.5t-149.5 362.5q0 224 148.5 374t371.5 150q233 0 371 -160q10 -15 11 -22t-7 -17l-10 -10q-20 -21 -43 2q-126 137 -320 137q-195 0 -322.5 -126.5t-127.5 -325.5
q0 -200 132 -319t341 -119h223q69 0 104 -33.5t35 -108.5q0 -29 -5.5 -51t-12.5 -34t-15.5 -19.5t-13 -9.5t-6.5 -2h-14z" />
    <glyph glyph-name="sigma" unicode="&#x3c3;" horiz-adv-x="1228" 
d="M621 -25q-140 0 -254.5 68.5t-179 186t-64.5 259.5q0 217 143 366t355 149h536q13 0 22 -9t9 -22v-6q0 -13 -9 -22t-22 -9h-280q112 -67 177.5 -185t65.5 -262q0 -142 -64.5 -259.5t-179 -186t-255.5 -68.5zM195 489q0 -191 120 -317.5t306 -126.5t307 127t121 317
t-121 317.5t-307 127.5t-306 -127t-120 -318z" />
    <glyph glyph-name="tau" unicode="&#x3c4;" horiz-adv-x="1038" 
d="M637 -25q-89 0 -125.5 45t-36.5 132v784h-336q-26 0 -26 29v12q0 27 26 27h758q29 0 29 -27v-12q0 -29 -29 -29h-352v-774q0 -66 21.5 -92.5t72.5 -26.5q35 0 63 4q26 4 33.5 -1.5t7.5 -22.5v-13q0 -18 -32.5 -26.5t-73.5 -8.5z" />
    <glyph glyph-name="upsilon" unicode="&#x3c5;" horiz-adv-x="1140" 
d="M569 -25q-183 0 -289 107t-106 317v578q0 27 25 27h22q25 0 25 -27v-574q0 -177 86.5 -267.5t242.5 -90.5q166 0 254.5 113.5t88.5 371.5q0 230 -72 447q-9 27 16 27h25q13 0 18.5 -6t12.5 -21q69 -201 69 -438q0 -156 -30.5 -268t-88 -175.5t-131 -92t-168.5 -28.5z" />
    <glyph glyph-name="phi" unicode="&#x3c6;" horiz-adv-x="1372" 
d="M680 -389q-29 0 -29 27v337q-162 7 -282.5 77.5t-183 187t-62.5 262.5t62.5 262t183 186.5t282.5 77.5v330q0 28 29 28h14q29 0 29 -28v-330q242 -12 384 -158t142 -368t-142 -368.5t-384 -158.5v-337q0 -27 -29 -27h-14zM197 502q0 -196 120 -321.5t334 -135.5v913
q-214 -10 -334 -135t-120 -321zM723 45q214 10 333.5 135.5t119.5 321.5t-119.5 321t-333.5 135v-913z" />
    <glyph glyph-name="chi" unicode="&#x3c7;" horiz-adv-x="1118" 
d="M133 -389q-31 0 -14 35l403 682l-383 641q-17 35 13 35h26q17 0 31 -21l350 -600l348 600q14 21 35 21h23q29 0 12 -35l-379 -641l401 -682q9 -12 7 -23.5t-19 -11.5h-20q-22 0 -35 20l-373 641l-373 -641q-7 -13 -13 -16.5t-19 -3.5h-21z" />
    <glyph glyph-name="psi" unicode="&#x3c8;" horiz-adv-x="1347" 
d="M657 -389q-26 0 -26 27v337q-208 8 -332.5 120t-124.5 327v555q0 27 25 27h24q25 0 25 -27v-551q0 -183 102 -277.5t281 -103.5v1313q0 28 26 28h17q28 0 28 -28v-1313q402 20 402 494q0 222 -74 438q-9 27 19 27h24q22 0 31 -27q70 -204 70 -426q0 -123 -23.5 -219.5
t-64 -161t-101 -107.5t-129.5 -63.5t-154 -24.5v-337q0 -27 -28 -27h-17z" />
    <glyph glyph-name="omega" unicode="&#x3c9;" horiz-adv-x="1552" 
d="M502 -25q-53 0 -99 16.5t-89 56.5t-73.5 101.5t-48.5 158.5t-18 220q0 245 70 449q9 27 30 27h23q27 0 18 -27q-73 -213 -73 -447q0 -133 20.5 -230t57.5 -151t82.5 -79t101.5 -25q108 0 172.5 87.5t64.5 248.5v575q0 27 25 27h20q25 0 25 -27v-575q0 -161 65 -248.5
t173 -87.5q56 0 101.5 25t82.5 79t57.5 151t20.5 230q0 231 -74 447q-9 27 18 27h23q22 0 31 -27q69 -201 69 -449q0 -123 -18 -220t-48.5 -158.5t-73 -101.5t-88.5 -56.5t-99 -16.5q-183 0 -275 195q-92 -195 -274 -195z" />
    <glyph glyph-name="iotadieresis" unicode="&#x3ca;" horiz-adv-x="524" 
d="M336 -25q-89 0 -125.5 45t-36.5 132v825q0 27 25 27h20q25 0 25 -27v-815q0 -66 21.5 -92.5t72.5 -26.5q35 0 63 4q26 4 33.5 -1.5t7.5 -22.5v-13q0 -18 -32.5 -26.5t-73.5 -8.5zM-10 1391q0 21 17 37t40 16t40 -16t17 -37q0 -22 -17 -39t-40 -17t-40 17t-17 39z
M315 1391q0 20 17.5 36.5t40.5 16.5t40 -16t17 -37q0 -22 -17 -39t-40 -17t-40.5 17t-17.5 39z" />
    <glyph glyph-name="upsilondieresis" unicode="&#x3cb;" horiz-adv-x="1140" 
d="M569 -25q-183 0 -289 107t-106 317v578q0 27 25 27h22q25 0 25 -27v-574q0 -177 86.5 -267.5t242.5 -90.5q166 0 254.5 113.5t88.5 371.5q0 230 -72 447q-9 27 16 27h25q13 0 18.5 -6t12.5 -21q69 -201 69 -438q0 -156 -30.5 -268t-88 -175.5t-131 -92t-168.5 -28.5z
M258 1391q0 21 17 37t40 16t40.5 -16.5t17.5 -36.5q0 -22 -17.5 -39t-40.5 -17t-40 17t-17 39zM584 1391q0 21 17 37t40 16t40 -16t17 -37q0 -22 -17 -39t-40 -17t-40 17t-17 39z" />
    <glyph glyph-name="omicrontonos" unicode="&#x3cc;" horiz-adv-x="1261" 
d="M631 -25q-143 0 -259 68.5t-182.5 189.5t-66.5 269q0 225 145.5 375.5t362.5 150.5q216 0 361 -150.5t145 -375.5t-145 -376t-361 -151zM195 502q0 -199 123.5 -328t312.5 -129t312.5 129t123.5 328t-123.5 327.5t-312.5 128.5t-312.5 -128.5t-123.5 -327.5zM590 1171
l96 238q11 25 33 25h26q31 0 17 -31l-98 -238q-11 -24 -33 -24h-23q-31 0 -18 30z" />
    <glyph glyph-name="upsilontonos" unicode="&#x3cd;" horiz-adv-x="1140" 
d="M569 -25q-183 0 -289 107t-106 317v578q0 27 25 27h22q25 0 25 -27v-574q0 -177 86.5 -267.5t242.5 -90.5q166 0 254.5 113.5t88.5 371.5q0 230 -72 447q-9 27 16 27h25q13 0 18.5 -6t12.5 -21q69 -201 69 -438q0 -156 -30.5 -268t-88 -175.5t-131 -92t-168.5 -28.5z
M440 1171l97 238q11 25 32 25h27q30 0 16 -31l-98 -238q-11 -24 -33 -24h-22q-32 0 -19 30z" />
    <glyph glyph-name="omegatonos" unicode="&#x3ce;" horiz-adv-x="1552" 
d="M502 -25q-53 0 -99 16.5t-89 56.5t-73.5 101.5t-48.5 158.5t-18 220q0 245 70 449q9 27 30 27h23q27 0 18 -27q-73 -213 -73 -447q0 -133 20.5 -230t57.5 -151t82.5 -79t101.5 -25q108 0 172.5 87.5t64.5 248.5v575q0 27 25 27h20q25 0 25 -27v-575q0 -161 65 -248.5
t173 -87.5q56 0 101.5 25t82.5 79t57.5 151t20.5 230q0 231 -74 447q-9 27 18 27h23q22 0 31 -27q69 -201 69 -449q0 -123 -18 -220t-48.5 -158.5t-73 -101.5t-88.5 -56.5t-99 -16.5q-183 0 -275 195q-92 -195 -274 -195zM737 1171l97 238q11 25 32 25h27q30 0 16 -31
l-98 -238q-11 -24 -33 -24h-22q-32 0 -19 30z" />
    <glyph glyph-name="uni03CF" unicode="&#x3cf;" horiz-adv-x="1091" 
d="M522 -410q-30 0 -30 31q0 33 30 33q44 0 93 13t100.5 44.5t92.5 76.5t67 115.5t26 155.5q0 91 -30 165.5t-79 123t-113.5 81.5t-130 47.5t-132.5 15.5l-172 -177v-288q0 -27 -25 -27h-20q-25 0 -25 27v1011q0 27 25 27h20q25 0 25 -27v-635l604 646q16 16 39 16h26
q20 0 24 -11.5t-11 -25.5l-455 -477q69 -5 136.5 -24.5t133.5 -59t116 -93.5t81 -133.5t31 -174.5q0 -110 -40.5 -202.5t-105.5 -150.5t-143.5 -90.5t-157.5 -32.5z" />
    <glyph glyph-name="uni03D7" unicode="&#x3d7;" horiz-adv-x="1054" 
d="M483 -410q-30 0 -30 31q0 33 30 33q44 0 93 13t101 44t93 75t67.5 113t26.5 152q0 90 -30.5 163.5t-79.5 120.5t-114 78.5t-130 45t-131 12.5l-135 -133v-311q0 -27 -25 -27h-20q-25 0 -25 27v950q0 27 25 27h20q25 0 25 -27v-547l544 557q20 17 39 17h29q20 0 23.5 -12
t-11.5 -25l-436 -439q69 -3 137 -21.5t134 -56.5t116.5 -90.5t81.5 -130.5t31 -170q0 -108 -41 -199t-106.5 -148.5t-144 -89.5t-157.5 -32z" />
    <glyph glyph-name="uni03D8" unicode="&#x3d8;" horiz-adv-x="1769" 
d="M874 -389q-26 0 -26 27v335q-195 9 -354.5 108.5t-249.5 265.5t-90 364q0 205 95.5 374.5t263 267t372.5 97.5q153 0 288.5 -57.5t232 -155.5t152.5 -235t56 -291q0 -198 -90 -364t-248.5 -265.5t-353.5 -108.5v-335q0 -27 -27 -27h-21zM229 711q0 -141 50 -264.5
t137 -211.5t208.5 -139t260.5 -51q184 0 334 86.5t235.5 239t85.5 340.5q0 141 -50 265t-137 212.5t-208.5 139t-259.5 50.5q-185 0 -335 -86.5t-235.5 -239t-85.5 -341.5z" />
    <glyph glyph-name="uni03DC" unicode="&#x3dc;" horiz-adv-x="1050" 
d="M221 0q-26 0 -26 27v1380q0 27 26 27h639q27 0 27 -27v-14q0 -29 -27 -29h-592v-567h566q26 0 26 -29v-14q0 -27 -26 -27h-566v-700q0 -27 -26 -27h-21z" />
    <glyph glyph-name="uni03DE" unicode="&#x3de;" horiz-adv-x="1198" 
d="M608 0q-32 0 -18 31l375 651h-795q-27 0 -27 29v22q0 17 13 37l366 645q8 19 31 19h27q32 0 18 -31l-375 -651h795q26 0 26 -29v-23q0 -18 -12 -36l-364 -646q-10 -18 -33 -18h-27z" />
    <glyph glyph-name="uni03FA" unicode="&#x3fa;" horiz-adv-x="1779" 
d="M221 0q-26 0 -26 27v1380q0 27 26 27h58q21 0 30 -21l580 -1341l579 1341q9 21 33 21h55q27 0 27 -27v-1380q0 -27 -27 -27h-18q-29 0 -29 27v1310l-565 -1317q-8 -20 -33 -20h-43q-25 0 -32 20l-568 1317v-1310q0 -27 -26 -27h-21z" />
    <glyph glyph-name="uni0400" unicode="&#x400;" horiz-adv-x="1089" 
d="M221 0q-26 0 -26 27v1380q0 27 26 27h664q26 0 26 -27v-14q0 -29 -26 -29h-617v-582h586q27 0 27 -26v-15q0 -28 -27 -28h-586v-643h619q28 0 28 -29v-14q0 -27 -28 -27h-666zM385 1833q-14 31 18 31h25q22 0 33 -25l108 -237q14 -31 -18 -31h-23q-19 0 -32 24z" />
    <glyph glyph-name="uni0401" unicode="&#x401;" horiz-adv-x="1089" 
d="M221 0q-26 0 -26 27v1380q0 27 26 27h664q26 0 26 -27v-14q0 -29 -26 -29h-617v-582h586q27 0 27 -26v-15q0 -28 -27 -28h-586v-643h619q28 0 28 -29v-14q0 -27 -28 -27h-666zM328 1821q0 21 17 37t40 16t40 -16t17 -37q0 -22 -17 -39t-40 -17t-40 17t-17 39zM653 1821
q0 20 17.5 36.5t40.5 16.5t40 -16t17 -37q0 -22 -17 -39t-40 -17t-40.5 17t-17.5 39z" />
    <glyph glyph-name="uni0402" unicode="&#x402;" horiz-adv-x="1495" 
d="M825 0q-13 0 -21.5 8.5t-8.5 22.5v8q0 14 8.5 22.5t21.5 8.5h33q190 0 316 120t126 316q0 194 -121 313t-311 119q-180 0 -290 -98v-813q0 -27 -29 -27h-19q-26 0 -26 27v1337h-324q-26 0 -26 29v14q0 27 26 27h719q27 0 27 -27v-14q0 -29 -27 -29h-321v-453
q116 97 296 97q215 0 356.5 -144.5t141.5 -363.5q0 -215 -145.5 -357.5t-362.5 -142.5h-39z" />
    <glyph glyph-name="uni0403" unicode="&#x403;" horiz-adv-x="1007" 
d="M221 0q-26 0 -26 27v1380q0 27 26 27h633q14 0 22.5 -9t8.5 -22v-14q0 -13 -8.5 -22t-22.5 -9h-586v-1331q0 -27 -26 -27h-21zM461 1602l102 237q8 25 33 25h33q30 0 16 -31l-104 -238q-11 -24 -31 -24h-31q-32 0 -18 31z" />
    <glyph glyph-name="uni0404" unicode="&#x404;" horiz-adv-x="1513" 
d="M874 -27q-158 0 -293 58t-227.5 157t-145 234.5t-52.5 288.5t52.5 288.5t145 235t227.5 157.5t293 58q270 0 476 -172q9 -9 13 -14.5t4.5 -15.5t-7.5 -21l-8 -13q-21 -18 -47 3q-188 161 -424 161q-177 0 -322.5 -80t-232 -222.5t-95.5 -321.5h568q28 0 28 -27v-20
q0 -27 -28 -27h-570q7 -182 93.5 -327.5t233 -226.5t325.5 -81q234 0 424 162q25 22 43 4l12 -14q11 -11 10 -21.5t-4.5 -14.5t-15.5 -16q-206 -172 -476 -172z" />
    <glyph glyph-name="uni0405" unicode="&#x405;" horiz-adv-x="1087" 
d="M539 -25q-272 0 -404 207q-15 24 4 45l6 6q14 12 27.5 9t20.5 -15q118 -182 350 -182q162 0 253 83t91 220q0 55 -17 101.5t-42 80.5t-68.5 67.5t-83 56t-98.5 51.5l-175 86q-233 110 -233 327q0 147 106.5 239.5t266.5 92.5q227 0 358 -178q14 -20 12.5 -29t-14.5 -22
q-26 -24 -53 6q-118 153 -303 153q-129 0 -214 -66.5t-85 -191.5q0 -89 48 -155t150 -117l181 -90q61 -31 103.5 -55.5t90.5 -62.5t77 -77.5t48 -95t19 -119.5q0 -166 -113.5 -270.5t-308.5 -104.5z" />
    <glyph glyph-name="uni0406" unicode="&#x406;" horiz-adv-x="462" 
d="M221 0q-26 0 -26 27v1380q0 27 26 27h21q26 0 26 -27v-1380q0 -27 -26 -27h-21z" />
    <glyph glyph-name="uni0407" unicode="&#x407;" horiz-adv-x="462" 
d="M221 0q-26 0 -26 27v1380q0 27 26 27h21q26 0 26 -27v-1380q0 -27 -26 -27h-21zM14 1821q0 20 17.5 36.5t40.5 16.5t40 -16t17 -37q0 -22 -17 -39t-40 -17t-40.5 17t-17.5 39zM340 1821q0 21 17 37t40 16t40.5 -16.5t17.5 -36.5q0 -22 -17.5 -39t-40.5 -17t-40 17t-17 39
z" />
    <glyph glyph-name="uni0408" unicode="&#x408;" horiz-adv-x="974" 
d="M420 -27q-97 0 -164.5 34.5t-122.5 94.5q-16 21 2 39l12 15q16 19 33 2q62 -58 114 -85.5t130 -27.5q137 0 210 96t73 285v981q0 27 26 27h21q26 0 26 -27v-993q0 -215 -95.5 -328t-264.5 -113z" />
    <glyph glyph-name="uni0409" unicode="&#x409;" horiz-adv-x="2002" 
d="M74 -10q-23 0 -23 20v31q0 9 5.5 14.5t13.5 5.5q52 0 87.5 12.5t58 35t34.5 62t16 84.5t4 112v1036q0 13 9 22t22 9h868q29 0 29 -27v-539h219q214 0 333.5 -120.5t119.5 -313.5t-119.5 -313.5t-333.5 -120.5h-266q-27 0 -27 27v1331h-780v-1047q0 -162 -64 -241.5
t-206 -79.5zM1198 70h205q86 0 155.5 20.5t123 63t83 113.5t29.5 167q0 187 -106.5 276t-284.5 89h-205v-729z" />
    <glyph glyph-name="uni040A" unicode="&#x40a;" horiz-adv-x="1900" 
d="M1042 0v4q-10 7 -10 23v653h-764v-653q0 -27 -26 -27h-21q-26 0 -26 27v1380q0 27 26 27h21q26 0 26 -27v-657h764v657q0 27 27 27h18q29 0 29 -27v-539h207q215 0 334.5 -120.5t119.5 -313.5t-119.5 -313.5t-334.5 -120.5h-271zM1106 70h194q86 0 155.5 20.5t123.5 63
t83.5 113.5t29.5 167q0 127 -52.5 210.5t-138 119t-201.5 35.5h-194v-729z" />
    <glyph glyph-name="uni040B" unicode="&#x40b;" horiz-adv-x="1464" 
d="M1243 0q-24 0 -24 27v587q0 151 -79 237.5t-222 86.5q-133 0 -227.5 -72.5t-112.5 -195.5v-643q0 -27 -29 -27h-19q-26 0 -26 27v1337h-324q-26 0 -26 29v14q0 27 26 27h719q27 0 27 -27v-14q0 -29 -27 -29h-321v-541q48 82 136.5 133.5t209.5 51.5q170 0 268 -105
t98 -303v-573q0 -27 -24 -27h-23z" />
    <glyph glyph-name="uni040C" unicode="&#x40c;" horiz-adv-x="1189" 
d="M221 0q-26 0 -26 27v1380q0 27 26 27h21q26 0 26 -27v-866l666 876q14 17 37 17h26q21 0 25.5 -10t-8.5 -27l-502 -645l559 -715q11 -15 6 -26t-24 -11h-23q-24 0 -37 18l-524 678l-201 -258v-411q0 -27 -26 -27h-21zM545 1602l102 237q8 25 33 25h33q30 0 16 -31
l-104 -238q-11 -24 -31 -24h-31q-32 0 -18 31z" />
    <glyph glyph-name="uni040D" unicode="&#x40d;" horiz-adv-x="1335" 
d="M1028 1413q12 21 37 21h51q25 0 25 -27v-1380q0 -27 -27 -27h-18q-29 0 -29 27v1321l-758 -1328q-11 -20 -37 -20h-53q-24 0 -24 27v1380q0 27 26 27h21q26 0 26 -27v-1321zM530 1833q-14 31 19 31h24q22 0 33 -25l109 -237q14 -31 -19 -31h-22q-20 0 -33 24z" />
    <glyph glyph-name="uni040E" unicode="&#x40e;" horiz-adv-x="1282" 
d="M264 0q-37 0 -18 37l354 588l-471 772q-10 15 -6 26t22 11h23q21 0 33 -21l444 -725l436 725q12 21 33 21h23q18 0 22 -11t-6 -26l-834 -1377q-11 -20 -34 -20h-21zM387 1833q-3 31 29 31h14q30 0 33 -29q9 -73 57 -114.5t121 -41.5t122 41.5t56 114.5q3 29 33 29h14
q32 0 29 -31q-6 -98 -75 -161.5t-179 -63.5t-179 63.5t-75 161.5z" />
    <glyph glyph-name="uni040F" unicode="&#x40f;" horiz-adv-x="1304" 
d="M221 0q-26 0 -26 27v1380q0 27 26 27h21q26 0 26 -27v-1331h766v1331q0 27 29 27h18q27 0 27 -27v-1380q0 -27 -27 -27h-393l2 -115q-3 -26 -28 -26h-19q-30 0 -27 26l-2 115h-393z" />
    <glyph glyph-name="uni0410" unicode="&#x410;" horiz-adv-x="1378" 
d="M150 0q-17 0 -22.5 10t1.5 25l506 1374q9 25 37 25h35q25 0 34 -25l508 -1374q6 -15 0.5 -25t-22.5 -10h-23q-22 0 -30 25l-127 346h-717l-125 -346q-8 -25 -35 -25h-20zM354 438h668l-334 916z" />
    <glyph glyph-name="uni0411" unicode="&#x411;" horiz-adv-x="1167" 
d="M221 0q-26 0 -26 27v1380q0 27 26 27h631q14 0 22.5 -9t8.5 -22v-14q0 -13 -8.5 -22t-22.5 -9h-584v-490h322q215 0 334.5 -120.5t119.5 -313.5t-119.5 -313.5t-334.5 -120.5h-369zM268 70h310q86 0 155.5 20.5t123 63t83 113.5t29.5 167q0 187 -106.5 276t-284.5 89
h-310v-729z" />
    <glyph glyph-name="uni0412" unicode="&#x412;" horiz-adv-x="1187" 
d="M221 0q-26 0 -26 27v1380q0 27 26 27h377q88 0 157 -20.5t111 -53t69 -78t37.5 -90.5t10.5 -94q0 -107 -52.5 -193.5t-166.5 -122.5q149 -32 225 -138.5t76 -248.5q0 -178 -119.5 -286.5t-345.5 -108.5h-379zM268 70h326q198 0 297.5 85t99.5 246q0 158 -100.5 249
t-296.5 91h-326v-671zM268 811h340q137 0 219 77.5t82 211.5t-79.5 199t-221.5 65h-340v-553z" />
    <glyph glyph-name="uni0413" unicode="&#x413;" horiz-adv-x="1007" 
d="M221 0q-26 0 -26 27v1380q0 27 26 27h633q14 0 22.5 -9t8.5 -22v-14q0 -13 -8.5 -22t-22.5 -9h-586v-1331q0 -27 -26 -27h-21z" />
    <glyph glyph-name="uni0414" unicode="&#x414;" horiz-adv-x="1384" 
d="M102 -141q-14 0 -22 8.5t-8 21.5v156q0 14 8.5 22.5t21.5 8.5h29q64 0 103.5 17t60.5 57.5t28 92t7 136.5v1024q0 14 8.5 22.5t21.5 8.5h801q29 0 29 -27v-1331h90q14 0 22.5 -9t8.5 -22v-156q0 -13 -8.5 -21.5t-22.5 -8.5h-14q-14 0 -22.5 8.5t-8.5 21.5v111h-1090v-111
q0 -13 -8.5 -21.5t-21.5 -8.5h-13zM326 76h788v1286h-711v-1034q0 -103 -16 -159t-61 -93z" />
    <glyph glyph-name="uni0415" unicode="&#x415;" horiz-adv-x="1089" 
d="M221 0q-26 0 -26 27v1380q0 27 26 27h664q26 0 26 -27v-14q0 -29 -26 -29h-617v-582h586q27 0 27 -26v-15q0 -28 -27 -28h-586v-643h619q28 0 28 -29v-14q0 -27 -28 -27h-666z" />
    <glyph glyph-name="uni0416" unicode="&#x416;" horiz-adv-x="1916" 
d="M137 0q-19 0 -24 11t6 26l555 719l-498 641q-13 17 -8.5 27t25.5 10h30q23 0 37 -17l662 -870v860q0 27 26 27h21q26 0 26 -27v-866l666 876q14 17 37 17h26q21 0 25.5 -10t-8.5 -27l-502 -645l559 -715q11 -15 6 -26t-24 -11h-23q-24 0 -37 18l-524 678l-201 -258v-411
q0 -27 -26 -27h-21q-26 0 -26 27v409l-197 256l-524 -674q-13 -18 -37 -18h-27z" />
    <glyph glyph-name="uni0417" unicode="&#x417;" horiz-adv-x="1161" 
d="M559 -27q-218 0 -344.5 124.5t-126.5 326.5q0 15 9 26t22 11h20q25 0 25 -37q0 -181 108.5 -281t290.5 -100q114 0 203 37t145 119t56 200q0 162 -103 242t-284 80h-101q-16 0 -23 6t-7 25v8q0 33 30 33h101q156 0 244.5 76.5t88.5 213.5q0 77 -29 135t-80.5 91.5
t-115 50t-139.5 16.5q-168 0 -266.5 -81.5t-98.5 -254.5q0 -34 -26 -34h-17q-13 0 -21.5 10t-8.5 24q0 184 115 297t333 113q203 0 313.5 -99t110.5 -272q0 -108 -50 -184t-161 -129q125 -35 195.5 -133.5t70.5 -233.5q0 -191 -133 -308.5t-346 -117.5z" />
    <glyph glyph-name="uni0418" unicode="&#x418;" horiz-adv-x="1335" 
d="M1028 1413q12 21 37 21h51q25 0 25 -27v-1380q0 -27 -27 -27h-18q-29 0 -29 27v1321l-758 -1328q-11 -20 -37 -20h-53q-24 0 -24 27v1380q0 27 26 27h21q26 0 26 -27v-1321z" />
    <glyph glyph-name="uni0419" unicode="&#x419;" horiz-adv-x="1335" 
d="M270 0h-51q-24 0 -24 27v1380q0 27 26 27h21q26 0 26 -27v-1321l758 1327q12 21 37 21h53q25 0 25 -27v-1380q0 -27 -27 -27h-20q-27 0 -27 27v1321l-760 -1328q-11 -20 -37 -20zM434 1831q-3 31 29 31h14q30 0 33 -29q9 -73 57 -114.5t121 -41.5t122 41.5t56 114.5
q3 29 33 29h14q32 0 29 -31q-6 -98 -75 -161.5t-179 -63.5t-179 63.5t-75 161.5z" />
    <glyph glyph-name="uni041A" unicode="&#x41a;" horiz-adv-x="1189" 
d="M221 0q-26 0 -26 27v1380q0 27 26 27h21q26 0 26 -27v-866l666 876q14 17 37 17h26q21 0 25.5 -10t-8.5 -27l-502 -645l559 -715q11 -15 6 -26t-24 -11h-23q-24 0 -37 18l-524 678l-201 -258v-411q0 -27 -26 -27h-21z" />
    <glyph glyph-name="uni041B" unicode="&#x41b;" horiz-adv-x="1392" 
d="M74 -10q-23 0 -23 20v31q0 9 5.5 14.5t13.5 5.5q52 0 87.5 12.5t58 35t34.5 62t16 84.5t4 112v1036q0 13 9 22t22 9h868q29 0 29 -27v-1380q0 -27 -29 -27h-18q-27 0 -27 27v1331h-780v-1047q0 -162 -64 -241.5t-206 -79.5z" />
    <glyph glyph-name="uni041C" unicode="&#x41c;" horiz-adv-x="1779" 
d="M221 0q-26 0 -26 27v1380q0 27 26 27h58q21 0 30 -21l580 -1341l579 1341q9 21 33 21h55q27 0 27 -27v-1380q0 -27 -27 -27h-18q-29 0 -29 27v1310l-565 -1317q-8 -20 -33 -20h-43q-25 0 -32 20l-568 1317v-1310q0 -27 -26 -27h-21z" />
    <glyph glyph-name="uni041D" unicode="&#x41d;" horiz-adv-x="1300" 
d="M221 0q-26 0 -26 27v1380q0 27 26 27h21q26 0 26 -27v-657h764v657q0 27 27 27h18q29 0 29 -27v-1380q0 -27 -29 -27h-18q-27 0 -27 27v653h-764v-653q0 -27 -26 -27h-21z" />
    <glyph glyph-name="uni041E" unicode="&#x41e;" horiz-adv-x="1769" 
d="M885 -27q-153 0 -289 57.5t-233 156t-153 235t-56 289.5q0 205 95.5 374.5t263 267t372.5 97.5q153 0 288.5 -57.5t232 -155.5t152.5 -235t56 -291q0 -153 -56 -289.5t-152.5 -235t-232 -156t-288.5 -57.5zM229 711q0 -141 50 -264.5t137 -211.5t208.5 -139t260.5 -51
q184 0 334 86.5t235.5 239t85.5 340.5q0 141 -50 265t-137 212.5t-208.5 139t-259.5 50.5q-185 0 -335 -86.5t-235.5 -239t-85.5 -341.5z" />
    <glyph glyph-name="uni041F" unicode="&#x41f;" horiz-adv-x="1304" 
d="M221 0q-26 0 -26 27v1380q0 27 26 27h860q27 0 27 -27v-1380q0 -27 -27 -27h-18q-29 0 -29 27v1331h-766v-1331q0 -27 -26 -27h-21z" />
    <glyph glyph-name="uni0420" unicode="&#x420;" horiz-adv-x="1177" 
d="M221 0q-26 0 -26 27v1380q0 27 26 27h369q215 0 334.5 -120.5t119.5 -314.5q0 -193 -119.5 -313.5t-334.5 -120.5h-322v-538q0 -27 -26 -27h-21zM268 635h310q86 0 155.5 20.5t123 63t83 113.5t29.5 167q0 187 -106.5 276t-284.5 89h-310v-729z" />
    <glyph glyph-name="uni0421" unicode="&#x421;" horiz-adv-x="1513" 
d="M874 -27q-158 0 -293.5 58t-228.5 157t-145.5 234.5t-52.5 288.5t52.5 288.5t145.5 235t228.5 157.5t293.5 58q268 0 474 -172q10 -10 14 -15t4.5 -15t-8.5 -21l-8 -13q-12 -10 -21 -9.5t-26 12.5q-188 161 -424 161q-184 0 -333 -86t-233 -238.5t-84 -342.5
q0 -142 49.5 -266t135.5 -211.5t206.5 -138t258.5 -50.5q234 0 424 162q16 13 25.5 13.5t17.5 -9.5l12 -14q11 -11 10 -21.5t-4.5 -14.5t-15.5 -16q-206 -172 -474 -172z" />
    <glyph glyph-name="uni0422" unicode="&#x422;" horiz-adv-x="1079" 
d="M530 0q-26 0 -26 27v1337h-324q-26 0 -26 29v14q0 27 26 27h719q27 0 27 -27v-14q0 -29 -27 -29h-321v-1337q0 -27 -29 -27h-19z" />
    <glyph glyph-name="uni0423" unicode="&#x423;" horiz-adv-x="1282" 
d="M264 0q-37 0 -18 37l354 588l-471 772q-10 15 -6 26t22 11h23q21 0 33 -21l444 -725l436 725q12 21 33 21h23q18 0 22 -11t-6 -26l-834 -1377q-11 -20 -34 -20h-21z" />
    <glyph glyph-name="uni0424" unicode="&#x424;" horiz-adv-x="1591" 
d="M745 123q-159 0 -281.5 48.5t-195.5 132.5t-109 188.5t-36 224.5t36 224.5t109 188.5t195.5 132.5t281.5 48.5h5v96q0 27 26 27h21q26 0 26 -27v-96h2q128 0 233 -32t176.5 -87.5t120.5 -131.5t71 -162t22 -181t-22 -181t-71 -162t-120.5 -131.5t-176.5 -87.5t-233 -32
h-2v-96q0 -27 -26 -27h-21q-26 0 -26 27v96h-5zM199 717q0 -111 32 -202.5t96.5 -163.5t172.5 -112t250 -40v1036q-142 0 -250 -40t-172.5 -112t-96.5 -163.5t-32 -202.5zM823 199q142 0 249.5 40t171.5 112t96 163.5t32 202.5t-32 202.5t-96 163.5t-171.5 112t-249.5 40
v-1036z" />
    <glyph glyph-name="uni0425" unicode="&#x425;" horiz-adv-x="1263" 
d="M164 0q-18 0 -21 12t7 25l440 700l-420 660q-10 13 -7 25t21 12h29q12 0 19 -4t14 -17l385 -616l385 616q14 21 35 21h28q18 0 20.5 -12t-7.5 -25l-418 -660l438 -700q10 -13 8 -25t-20 -12h-25q-22 0 -33 20l-411 654l-410 -654q-9 -13 -15 -16.5t-18 -3.5h-24z" />
    <glyph glyph-name="uni0426" unicode="&#x426;" horiz-adv-x="1255" 
d="M221 0q-26 0 -26 27v1380q0 27 26 27h21q26 0 26 -27v-1331h766v1331q0 27 29 27h18q27 0 27 -27v-1331h45q27 0 27 -27v-164q0 -26 -27 -26h-20q-27 0 -27 26v115h-885z" />
    <glyph glyph-name="uni0427" unicode="&#x427;" horiz-adv-x="1275" 
d="M1038 0q-13 0 -21.5 8.5t-8.5 22.5v637q-53 -90 -161.5 -146t-258.5 -53q-197 2 -315.5 107.5t-118.5 312.5v514q0 14 8.5 22.5t21.5 8.5h13q13 0 21.5 -8.5t8.5 -22.5v-533q0 -161 104.5 -245t270.5 -84q109 0 199 34.5t148.5 111t58.5 183.5v533q0 14 8.5 22.5
t21.5 8.5h13q13 0 21.5 -8.5t8.5 -22.5v-1372q0 -14 -8.5 -22.5t-21.5 -8.5h-13z" />
    <glyph glyph-name="uni0428" unicode="&#x428;" horiz-adv-x="2021" 
d="M207 0v2q-12 6 -12 25v1380q0 27 26 27h21q26 0 26 -27v-1331h705v1331q0 27 26 27h21q27 0 27 -27v-1331h706v1331q0 27 27 27h20q27 0 27 -27v-1380q0 -27 -27 -27h-1593z" />
    <glyph glyph-name="uni0429" unicode="&#x429;" horiz-adv-x="1974" 
d="M1853 -141q-28 0 -28 26v115h-1618v2q-12 6 -12 25v1380q0 27 26 27h21q26 0 26 -27v-1331h705v1331q0 27 26 27h21q27 0 27 -27v-1331h706v1331q0 27 27 27h20q27 0 27 -27v-1331h45q29 0 29 -27v-164q0 -26 -29 -26h-19z" />
    <glyph glyph-name="uni042A" unicode="&#x42a;" horiz-adv-x="1284" 
d="M92 1364q-26 0 -26 29v14q0 27 26 27h266q27 0 27 -27v-539h322q215 0 334.5 -120.5t119.5 -313.5t-119.5 -313.5t-334.5 -120.5h-369q-27 0 -27 27v1337h-219zM385 70h309q86 0 155.5 20.5t123 63t83 113.5t29.5 167q0 187 -106.5 276t-284.5 89h-309v-729z" />
    <glyph glyph-name="uni042B" unicode="&#x42b;" horiz-adv-x="1474" 
d="M221 0q-26 0 -26 27v1380q0 27 26 27h21q26 0 26 -27v-539h322q215 0 334.5 -120.5t119.5 -313.5t-119.5 -313.5t-334.5 -120.5h-369zM268 70h310q86 0 155.5 20.5t123 63t83 113.5t29.5 167q0 187 -106.5 276t-284.5 89h-310v-729zM1204 27v1380q0 27 27 27h20
q27 0 27 -27v-1380q0 -27 -27 -27h-20q-27 0 -27 27z" />
    <glyph glyph-name="uni042C" unicode="&#x42c;" horiz-adv-x="1177" 
d="M221 0q-26 0 -26 27v1380q0 27 26 27h21q26 0 26 -27v-539h322q215 0 334.5 -120.5t119.5 -313.5t-119.5 -313.5t-334.5 -120.5h-369zM268 70h310q86 0 155.5 20.5t123 63t83 113.5t29.5 167q0 187 -106.5 276t-284.5 89h-310v-729z" />
    <glyph glyph-name="uni042D" unicode="&#x42d;" horiz-adv-x="1513" 
d="M649 -27q-269 0 -475 172l-3 3q-9 9 -13 14.5t-4 15t10 19.5l12 14q18 18 43 -4q190 -162 424 -162q134 0 252 47.5t204 131t138 202t57 254.5h-569q-29 0 -29 27v20q0 27 29 27h567q-9 179 -95.5 321.5t-231.5 222.5t-322 80q-236 0 -424 -161q-26 -21 -47 -3l-8 13
q-8 11 -7.5 21t4.5 15.5t13 14.5q206 172 475 172q158 0 293.5 -58t228 -157.5t145 -235t52.5 -288.5q0 -204 -89 -372t-254.5 -267t-375.5 -99z" />
    <glyph glyph-name="uni042E" unicode="&#x42e;" horiz-adv-x="2107" 
d="M221 0q-26 0 -26 27v1380q0 27 26 27h21q26 0 26 -27v-653h228q7 146 66 275t155 221.5t228 146t280 53.5q153 0 288.5 -57.5t232 -155.5t152.5 -235t56 -291q0 -153 -56 -289.5t-152.5 -235t-232 -156t-288.5 -57.5q-150 0 -283 54.5t-229 149t-154.5 225t-64.5 278.5
h-226v-653q0 -27 -26 -27h-21zM569 711q0 -141 50 -264.5t137 -211.5t208.5 -139t260.5 -51q184 0 334 86.5t235.5 239t85.5 340.5q0 141 -50 265t-137 212.5t-208.5 139t-259.5 50.5q-185 0 -335 -86.5t-235.5 -239t-85.5 -341.5z" />
    <glyph glyph-name="uni042F" unicode="&#x42f;" horiz-adv-x="1181" 
d="M940 0q-29 0 -29 27v538h-299l-374 -545q-11 -20 -37 -20h-21q-19 0 -24.5 10t4.5 27l368 530q-186 18 -288.5 136t-102.5 296q0 193 119.5 314t333.5 121h368q27 0 27 -27v-1380q0 -27 -27 -27h-18zM213 999q0 -96 29.5 -167t83 -113.5t123 -63t155.5 -20.5h307v729
h-307q-178 0 -284.5 -89t-106.5 -276z" />
    <glyph glyph-name="uni0430" unicode="&#x430;" horiz-adv-x="1294" 
d="M629 -25q-224 0 -365 149t-141 378q0 228 141 377t365 149q143 0 250.5 -67.5t167.5 -186.5l4 203q0 27 24 27h21q24 0 24 -27v-950q0 -27 -22 -27h-23q-24 0 -24 27l-4 196q-58 -117 -166 -182.5t-252 -65.5zM190 502q0 -203 122.5 -330t314.5 -127q188 0 306 124.5
t118 326.5q0 204 -118.5 333t-305.5 129q-191 0 -314 -127t-123 -329z" />
    <glyph glyph-name="uni0431" unicode="&#x431;" horiz-adv-x="1294" 
d="M657 -25q-67 0 -130 13.5t-129 50t-114 93t-79 149t-31 211.5v493q0 204 112.5 326.5t331.5 122.5h277q43 0 53 20q21 21 39 21h12q12 0 19.5 -8.5t7.5 -20.5q0 -36 -31.5 -57t-70.5 -21h-326q-168 0 -262 -101.5t-94 -273.5v-231q59 126 170 196t260 70q147 0 261.5 -69
t176 -188.5t61.5 -268.5q0 -230 -143.5 -378.5t-370.5 -148.5zM244 496q0 -202 117.5 -326.5t306.5 -124.5q191 0 313.5 127t122.5 330q0 202 -120.5 329t-309.5 127q-193 0 -311.5 -128.5t-118.5 -333.5z" />
    <glyph glyph-name="uni0432" unicode="&#x432;" horiz-adv-x="1030" 
d="M197 0q-23 0 -23 27v950q0 27 23 27h366q134 0 201 -66t67 -168q0 -80 -39 -139.5t-96 -77.5q96 -20 153.5 -90t57.5 -172q0 -42 -9 -80t-34 -77.5t-63 -68.5t-102 -47t-146 -18h-356zM244 68h278q178 0 249 58t71 159q0 50 -16 89.5t-54 73.5t-110 52t-175 18h-243v-450
zM244 584h317q101 0 152 50.5t51 133.5q0 168 -203 168h-317v-352z" />
    <glyph glyph-name="uni0433" unicode="&#x433;" horiz-adv-x="833" 
d="M205 0q-13 0 -22 9t-9 22v942q0 13 9 22t22 9h508q13 0 21.5 -8.5t8.5 -22.5v-6q0 -14 -8.5 -22.5t-21.5 -8.5h-467v-905q0 -13 -9 -22t-22 -9h-10z" />
    <glyph glyph-name="uni0434" unicode="&#x434;" horiz-adv-x="1273" 
d="M98 -156q-26 0 -26 29v168q0 31 34 31q45 0 77.5 14t52 36t31 57.5t15 71t3.5 83.5v639q0 14 8.5 22.5t21.5 8.5h746q24 0 24 -27v-909h84q29 0 29 -27v-168q0 -29 -29 -29h-14q-29 0 -29 29v127h-985v-127q0 -29 -26 -29h-17zM270 68h746v868h-660v-666q0 -164 -86 -202
z" />
    <glyph glyph-name="uni0435" unicode="&#x435;" horiz-adv-x="1208" 
d="M645 -25q-159 0 -279.5 73.5t-181.5 193t-61 264.5q0 147 62.5 265.5t176.5 187.5t259 69q107 0 196 -39.5t146 -106t88.5 -151t31.5 -176.5q0 -47 -10 -61.5t-43 -14.5h-840q11 -191 131 -313.5t328 -122.5q182 0 322 115q6 6 14.5 7t13.5 -5l13 -13q7 -9 6.5 -17.5
t-3 -11.5t-11.5 -12q-68 -64 -161.5 -97.5t-197.5 -33.5zM195 547h825q-2 179 -111 294t-291 115t-296.5 -112.5t-126.5 -296.5z" />
    <glyph glyph-name="uni0436" unicode="&#x436;" horiz-adv-x="1656" 
d="M125 0q-19 0 -23 12.5t9 24.5l471 510l-414 420q-17 15 -13 26t25 11h25q19 0 39 -17l549 -563v553q0 27 24 27h21q24 0 24 -27v-555l551 565q20 17 39 17h23q21 0 25 -11t-13 -26l-414 -420l471 -510q13 -12 9 -24.5t-23 -12.5h-25q-24 0 -37 16l-442 482l-164 -162
v-309q0 -27 -24 -27h-21q-24 0 -24 27v311l-162 160l-445 -482q-13 -16 -36 -16h-25z" />
    <glyph glyph-name="uni0437" unicode="&#x437;" horiz-adv-x="968" 
d="M481 -25q-160 0 -259 86t-99 215q0 27 29 27h10q26 0 26 -27q0 -107 87 -172t214 -65q132 0 218 65t86 175q0 104 -79.5 163.5t-207.5 59.5h-82q-27 0 -27 26v17q0 24 27 24h78q116 0 183 51t67 150q0 98 -77.5 145.5t-197.5 47.5q-123 0 -193.5 -51t-70.5 -156
q0 -29 -29 -29h-12q-27 0 -27 29q0 124 86 198t246 74t250 -69.5t90 -190.5q0 -81 -40 -137t-128 -94q97 -26 152 -96t55 -162q0 -132 -104.5 -218t-270.5 -86z" />
    <glyph glyph-name="uni0438" unicode="&#x438;" horiz-adv-x="1150" 
d="M866 983q10 21 37 21h58q16 -3 16 -27v-950q0 -27 -23 -27h-22q-23 0 -23 27v901l-606 -908q-13 -20 -39 -20h-65q-25 0 -25 27v950q0 27 25 27h20q25 0 25 -27v-922z" />
    <glyph glyph-name="uni0439" unicode="&#x439;" horiz-adv-x="1150" 
d="M866 983q10 21 37 21h58q16 -3 16 -27v-950q0 -27 -23 -27h-22q-23 0 -23 27v901l-606 -908q-13 -20 -39 -20h-65q-25 0 -25 27v950q0 27 25 27h20q25 0 25 -27v-922zM315 1403q-3 31 29 31h14q30 0 33 -29q9 -73 57 -114.5t121 -41.5t122.5 42t56.5 114q3 29 32 29h15
q31 0 28 -31q-6 -98 -75 -161.5t-179 -63.5t-179 63.5t-75 161.5z" />
    <glyph glyph-name="uni043A" unicode="&#x43a;" horiz-adv-x="1036" 
d="M887 0q-24 0 -37 16l-442 482l-164 -162v-309q0 -27 -25 -27h-20q-25 0 -25 27v950q0 27 25 27h20q25 0 25 -27v-555l551 565q20 17 39 17h22q21 0 25 -11t-13 -26l-413 -420l471 -510q13 -12 9 -24.5t-24 -12.5h-24z" />
    <glyph glyph-name="uni043B" unicode="&#x43b;" horiz-adv-x="1171" 
d="M12 -10q-22 0 -22 14v39q0 16 20 16q47 0 81.5 14t55.5 38t34 59.5t17.5 73t4.5 84.5v645q0 14 8.5 22.5t21.5 8.5h740q22 0 22 -27v-950q0 -27 -22 -27h-23q-22 0 -22 27v909h-654v-604q0 -342 -262 -342z" />
    <glyph glyph-name="uni043C" unicode="&#x43c;" horiz-adv-x="1458" 
d="M715 0q-25 0 -35 23l-436 874v-870q0 -27 -23 -27h-22q-25 0 -25 27v950q0 24 16 27h56q25 0 35 -23l448 -911l451 911q16 23 34 23h56q14 -2 14 -27v-950q0 -27 -22 -27h-23q-25 0 -25 27v866l-434 -870q-10 -23 -35 -23h-30z" />
    <glyph glyph-name="uni043D" unicode="&#x43d;" horiz-adv-x="1177" 
d="M199 0q-25 0 -25 27v950q0 27 25 27h20q25 0 25 -27v-461h690v461q0 27 24 27h21q25 0 25 -27v-950q0 -27 -25 -27h-21q-24 0 -24 27v419h-690v-419q0 -27 -25 -27h-20z" />
    <glyph glyph-name="uni043E" unicode="&#x43e;" horiz-adv-x="1261" 
d="M631 -25q-143 0 -259 68.5t-182.5 189.5t-66.5 269q0 225 145.5 375.5t362.5 150.5q216 0 361 -150.5t145 -375.5t-145 -376t-361 -151zM195 502q0 -199 123.5 -328t312.5 -129t312.5 129t123.5 328t-123.5 327.5t-312.5 128.5t-312.5 -128.5t-123.5 -327.5z" />
    <glyph glyph-name="uni043F" unicode="&#x43f;" horiz-adv-x="1204" 
d="M199 0q-25 0 -25 27v950q0 27 25 27h807q24 0 24 -27v-950q0 -27 -24 -27h-21q-24 0 -24 27v911h-717v-911q0 -27 -25 -27h-20z" />
    <glyph glyph-name="uni0440" unicode="&#x440;" horiz-adv-x="1294" 
d="M199 -389q-25 0 -25 27v1339q0 27 25 27h20q25 0 25 -27l4 -203q60 119 168 186.5t252 67.5q222 0 362.5 -149t140.5 -377q0 -229 -140 -378t-363 -149q-147 0 -256.5 66t-167.5 182v-585q0 -27 -25 -27h-20zM244 496q0 -202 118 -326.5t306 -124.5q191 0 313.5 127
t122.5 330q0 202 -122.5 329t-313.5 127q-187 0 -305.5 -129t-118.5 -333z" />
    <glyph glyph-name="uni0441" unicode="&#x441;" horiz-adv-x="1150" 
d="M639 -25q-219 0 -367.5 150t-148.5 375q0 226 149.5 377t370.5 151q233 0 371 -160q10 -15 11 -22t-7 -17l-10 -10q-20 -21 -43 2q-60 65 -134.5 101t-185.5 36q-192 0 -321 -128t-129 -330q0 -203 129 -329t323 -126q111 0 185 35.5t131 97.5q9 9 14.5 13t14.5 3t18 -10
l10 -10q8 -10 7 -17t-11 -22q-138 -160 -377 -160z" />
    <glyph glyph-name="uni0442" unicode="&#x442;" horiz-adv-x="903" 
d="M446 0q-13 0 -21.5 8.5t-8.5 22.5v907h-287q-13 0 -22 9t-9 22v4q0 13 9 22t22 9h643q14 0 22.5 -9t8.5 -22v-4q0 -13 -8.5 -22t-22.5 -9h-285v-907q0 -14 -8.5 -22.5t-21.5 -8.5h-11z" />
    <glyph glyph-name="uni0443" unicode="&#x443;" horiz-adv-x="1081" 
d="M381 -389q-13 0 -18.5 8.5t-0.5 20.5l140 354l-383 975q-12 35 20 35h21q21 0 30 -25l351 -907l352 907q9 25 29 25h20q35 0 23 -35l-529 -1334q-9 -24 -33 -24h-22z" />
    </font>
</defs>
</svg>
