<?xml version="1.0" standalone="no"?>
<!DOCTYPE svg PUBLIC "-//W3C//DTD SVG 1.1//EN" "http://www.w3.org/Graphics/SVG/1.1/DTD/svg11.dtd" >
<svg xmlns="http://www.w3.org/2000/svg" xmlns:xlink="http://www.w3.org/1999/xlink" version="1.1">
<metadata>
Created by FontForge 20201107 at Wed Jul 17 03:03:06 2024
 By 
Copyright (c) 2021 by Connary Fagen. All rights reserved.
</metadata>
<defs>
<font id="GreycliffCF-ExtraBold" horiz-adv-x="1198" >
  <font-face 
    font-family="Greycliff CF Extra Bold"
    font-weight="800"
    font-stretch="normal"
    units-per-em="2048"
    panose-1="0 0 0 0 0 0 0 0 0 0"
    ascent="1638"
    descent="-410"
    x-height="1004"
    cap-height="1434"
    bbox="-340.083 -664.581 2152.27 2284"
    underline-thickness="102"
    underline-position="-255"
    unicode-range="U+0020-FEFF"
  />
<missing-glyph horiz-adv-x="1013" 
d="M831 1638v-2027h-643v2027h643zM338 -250h338v68h-207l141 96h66v66h-338v-66h143l-143 -96v-68zM338 27h338v229h-338v-229zM338 377h338v229h-203v-112h68v45h67v-95h-202v162h-68v-229zM338 651h338v203h-68v-133h-270v-70zM338 766h203v143h135v66h-338v-66h135v-75
h-135v-68zM338 1030h338v70h-135v141h-203v-211zM338 1294h338v66h-135v76h135v67h-336v-67h133v-76h-135v-66zM406 94v94h202v-94h-202zM406 1100v71h67v-71h-67z" />
    <glyph glyph-name=".notdef" horiz-adv-x="1013" 
d="M831 1638v-2027h-643v2027h643zM338 -250h338v68h-207l141 96h66v66h-338v-66h143l-143 -96v-68zM338 27h338v229h-338v-229zM338 377h338v229h-203v-112h68v45h67v-95h-202v162h-68v-229zM338 651h338v203h-68v-133h-270v-70zM338 766h203v143h135v66h-338v-66h135v-75
h-135v-68zM338 1030h338v70h-135v141h-203v-211zM338 1294h338v66h-135v76h135v67h-336v-67h133v-76h-135v-66zM406 94v94h202v-94h-202zM406 1100v71h67v-71h-67z" />
    <glyph glyph-name=".null" horiz-adv-x="0" 
 />
    <glyph glyph-name="nonmarkingreturn" horiz-adv-x="682" 
 />
    <glyph glyph-name="space" unicode=" " horiz-adv-x="397" 
 />
    <glyph glyph-name="exclam" unicode="!" horiz-adv-x="585" 
d="M199 453q-13 0 -22 9t-9 23l-35 918q0 13 9.5 22t23.5 9h254q14 0 23.5 -9t9.5 -22l-35 -918q0 -32 -33 -32h-186zM111 156q0 77 53 131.5t129 54.5t129 -54.5t53 -131.5q0 -75 -53 -129t-129 -54t-129 54t-53 129z" />
    <glyph glyph-name="quotedbl" unicode="&#x22;" horiz-adv-x="790" 
d="M494 971q-13 0 -22 8t-11 22l-25 402q-3 13 7 22t24 9h213q14 0 24 -9t9 -22l-27 -402q-2 -14 -11 -22t-22 -8h-159zM80 1403q-3 13 7 22t24 9h213q14 0 23.5 -9t8.5 -22l-26 -402q-2 -14 -11 -22t-22 -8h-160q-13 0 -22 8t-11 22z" />
    <glyph glyph-name="numbersign" unicode="#" horiz-adv-x="1331" 
d="M225 0q-35 0 -26 35l106 401h-170q-14 0 -21.5 10t-4.5 23l20 90q7 33 31 33h186l66 250h-170q-14 0 -22 9.5t-5 22.5l23 91q7 32 30 32h185l108 412q3 11 14.5 18t24.5 7h92q36 0 27 -35l-107 -402h254l109 412q3 11 14.5 18t24.5 7h92q36 0 27 -35l-107 -402h170
q14 0 22 -9.5t5 -22.5l-23 -91q-7 -32 -31 -32h-184l-65 -250h170q13 0 20 -9.5t4 -23.5l-20 -90q-7 -33 -31 -33h-184l-109 -411q-3 -11 -14.5 -18t-24.5 -7h-92q-36 0 -27 35l107 401h-254l-109 -411q-3 -11 -14.5 -18t-24.5 -7h-92zM504 592h256l67 250h-256z" />
    <glyph glyph-name="dollar" unicode="$" horiz-adv-x="950" 
d="M379 1401q0 14 9 23.5t22 9.5h141q13 0 23 -10t10 -23v-187q144 -36 237 -145q15 -17 -2 -43l-104 -123q-19 -19 -47 0q-104 80 -176 80q-42 0 -61 -19t-19 -46q0 -48 80 -80l151 -60q226 -89 221 -291q-1 -123 -78.5 -201.5t-201.5 -101.5v-151q0 -13 -10 -23t-23 -10
h-141q-13 0 -22 9.5t-9 23.5v149q-179 34 -285 162q-8 10 -6 27t12 32l82 115q18 31 51 10q131 -94 228 -94q92 0 92 66q0 29 -19.5 47t-70.5 39l-131 53q-217 84 -217 279q0 119 73 197t191 102v184z" />
    <glyph glyph-name="percent" unicode="%" horiz-adv-x="1490" 
d="M383 887q-120 0 -200.5 79.5t-80.5 198.5t80.5 199t200.5 80t200.5 -80t80.5 -199t-80.5 -198.5t-200.5 -79.5zM236 143l845 1264q16 26 41 8l121 -80q28 -19 12 -45l-843 -1263q-18 -28 -43 -9l-121 80q-28 19 -12 45zM305 1165q0 -34 23 -57t55 -23t55 23t23 57t-23 57
t-55 23t-55 -23t-23 -57zM827 268q0 119 80.5 199t200.5 80t200.5 -80t80.5 -199t-80.5 -198.5t-200.5 -79.5t-200.5 79.5t-80.5 198.5zM1030 268q0 -34 23 -57t55 -23t55 23t23 57t-23 57t-55 23t-55 -23t-23 -57z" />
    <glyph glyph-name="ampersand" unicode="&#x26;" horiz-adv-x="1357" 
d="M524 -27q-94 0 -177.5 28t-146.5 79.5t-100 131t-37 177.5q0 65 16.5 121t39.5 94t62.5 75t71.5 59t79 50q-68 75 -106 147t-38 157q0 149 111.5 249.5t280.5 100.5q172 0 282.5 -99t110.5 -251q0 -50 -14.5 -95t-35 -78t-55 -67t-62 -55.5t-67.5 -48.5l183 -187l94 139
q24 35 53 35h225q15 0 20 -11.5t-3 -23.5l-209 -323l192 -201q25 -22 2 -45l-139 -143q-23 -24 -45 -2l-170 176q-92 -93 -191.5 -141t-226.5 -48zM385 414q0 -67 53.5 -115.5t130.5 -48.5q99 0 195 96l-246 252q-133 -87 -133 -184zM475 1083q0 -35 22.5 -70.5t69.5 -82.5
q54 33 86.5 69t32.5 84q0 44 -29 74.5t-77 30.5t-76.5 -31t-28.5 -74z" />
    <glyph glyph-name="quotesingle" unicode="'" horiz-adv-x="434" 
d="M137 971q-13 0 -22 8t-11 22l-24 402q-3 13 7 22t24 9h213q14 0 23.5 -9t8.5 -22l-26 -402q-2 -14 -11 -22t-22 -8h-160z" />
    <glyph glyph-name="parenleft" unicode="(" horiz-adv-x="749" 
d="M365 -266q-26 0 -37 20q-217 391 -217 901q0 492 217 850q12 21 37 21h249q18 0 23.5 -10t-4.5 -27q-197 -366 -197 -834q0 -494 201 -884q7 -17 0.5 -27t-23.5 -10h-249z" />
    <glyph glyph-name="parenright" unicode=")" horiz-adv-x="749" 
d="M135 -266q-17 0 -23 10t1 27q200 388 200 884q0 470 -196 834q-10 17 -5 27t23 10h250q25 0 37 -21q217 -358 217 -850q0 -510 -217 -901q-11 -20 -37 -20h-250z" />
    <glyph glyph-name="asterisk" unicode="*" horiz-adv-x="995" 
d="M457 1157l-11 277h103l-8 -277h-84zM143 1128l29 103l268 -86l-26 -88zM246 813l170 225l69 -55l-157 -229zM512 983l70 55l170 -225l-84 -59zM555 1145l270 86l27 -103l-268 -71z" />
    <glyph glyph-name="plus" unicode="+" horiz-adv-x="1017" 
d="M426 209q-14 0 -22.5 8.5t-8.5 22.5v231h-231q-14 0 -22.5 8.5t-8.5 22.5v164q0 14 9 23t22 9h231v232q0 14 8.5 22.5t22.5 8.5h164q14 0 23.5 -9t9.5 -22v-232h229q14 0 23.5 -9.5t9.5 -22.5v-164q0 -13 -9.5 -22t-23.5 -9h-229v-231q0 -13 -9.5 -22t-23.5 -9h-164z" />
    <glyph glyph-name="comma" unicode="," horiz-adv-x="546" 
d="M84 -199q90 -1 157 71q44 47 42 83q-2 22 -25 22q-72 0 -126 54t-54 129t54.5 128.5t131.5 53.5q83 0 143 -61.5t60 -180.5q0 -90 -38.5 -164.5t-97 -118t-124 -65.5t-123.5 -18v67z" />
    <glyph glyph-name="hyphen" unicode="-" horiz-adv-x="878" 
d="M131 438q-13 0 -22 9t-9 22v190q0 13 9 22t22 9h614q14 0 23.5 -9t9.5 -22v-190q0 -13 -9.5 -22t-23.5 -9h-614z" />
    <glyph glyph-name="period" unicode="." horiz-adv-x="524" 
d="M262 -27q-76 0 -129 54t-53 129q0 77 53 131.5t129 54.5t129 -54.5t53 -131.5q0 -75 -53 -129t-129 -54z" />
    <glyph glyph-name="slash" unicode="/" horiz-adv-x="1089" 
d="M70 -266q-37 0 -25 35l676 1732q9 25 37 25h262q36 0 24 -35l-673 -1733q-9 -24 -37 -24h-264z" />
    <glyph glyph-name="zero" unicode="0" horiz-adv-x="1349" 
d="M676 -27q-91 0 -174.5 26t-159 83.5t-131 142t-88.5 209.5t-33 277q0 189 49.5 335t133.5 232t186 129t217 43q91 0 175 -26t159.5 -84t131 -142t88 -209.5t32.5 -277.5t-32.5 -277t-88 -209.5t-131 -142t-159.5 -83.5t-175 -26zM393 711q0 -131 27.5 -229t92.5 -159
t163 -61q97 0 161.5 61t91.5 159t27 229t-27 229t-91.5 159.5t-161.5 61.5q-74 0 -129.5 -34.5t-88.5 -96.5t-49 -142t-16 -177z" />
    <glyph glyph-name="one" unicode="1" horiz-adv-x="774" 
d="M373 0q-13 0 -22 9t-9 22v1136h-242q-13 0 -21.5 9.5t-8.5 23.5v203q0 14 8.5 22.5t21.5 8.5h523q14 0 23 -9t9 -22v-1372q0 -13 -9 -22t-23 -9h-250z" />
    <glyph glyph-name="two" unicode="2" horiz-adv-x="1103" 
d="M135 0q-14 0 -23.5 9t-9.5 22v200q0 18 15 39l426 432q76 76 106 119q56 82 56 162t-54 130t-143 50q-75 0 -127 -35.5t-100 -99.5q-21 -24 -48 0l-141 141q-10 10 -11 23t7 22q71 103 182 169.5t265 66.5q209 0 342 -124t133 -314q0 -58 -14 -113t-32.5 -93.5
t-46.5 -77.5t-46.5 -60t-42.5 -45l-9 -9l-342 -348h502q13 0 23 -10t10 -23v-202q0 -13 -9.5 -22t-23.5 -9h-844z" />
    <glyph glyph-name="three" unicode="3" horiz-adv-x="1069" 
d="M516 -27q-151 0 -264 62.5t-176 161.5q-8 12 -6 24.5t12 18.5l154 141q20 21 45 -4q98 -117 215 -117q91 0 141.5 52t50.5 126q0 69 -47 121.5t-145 52.5h-58q-15 0 -25 9t-10 24v186q0 33 35 33h56q81 0 119 43.5t38 104.5q0 67 -47 109t-117 42q-59 0 -106.5 -29
t-75.5 -79q-17 -34 -47 -4l-143 139q-11 8 -13.5 20.5t4.5 24.5q61 97 169.5 156t244.5 59q117 0 214.5 -44t159.5 -132.5t62 -206.5q0 -114 -56.5 -192.5t-139.5 -114.5q106 -43 176 -133t70 -226q0 -127 -66 -225.5t-177 -150.5t-247 -52z" />
    <glyph glyph-name="four" unicode="4" horiz-adv-x="1228" 
d="M717 0q-14 0 -23.5 9t-9.5 22v229h-573q-13 0 -22 9t-9 22v207q0 21 10 41l582 874q12 21 37 21h258q13 0 21.5 -8.5t8.5 -22.5v-885h121q14 0 23.5 -9t9.5 -22v-194q0 -13 -9.5 -23t-23.5 -10h-121v-229q0 -13 -9 -22t-23 -9h-248zM383 518h301v453z" />
    <glyph glyph-name="five" unicode="5" horiz-adv-x="1112" 
d="M524 -27q-155 0 -268 67t-164 157q-15 31 14 51l166 125q14 11 28 8t24 -16q77 -105 196 -105q103 0 164 65t61 156q0 93 -62.5 155t-158.5 62q-92 0 -164 -65q-23 -26 -51 -19l-176 70q-25 13 -20 37l155 686q7 27 33 27h625q14 0 23 -9t9 -22v-203q0 -14 -9.5 -23.5
t-22.5 -9.5h-426l-54 -231q102 22 154 22q197 0 324 -139t127 -344q0 -112 -41 -206.5t-112.5 -159t-168 -100.5t-205.5 -36z" />
    <glyph glyph-name="six" unicode="6" horiz-adv-x="1159" 
d="M582 -27q-142 0 -261 65t-188.5 179.5t-69.5 253.5q0 206 185 434l450 555q21 25 45 6l168 -149q28 -22 9 -43l-267 -305q8 -4 21 -4q76 0 152 -39t136 -104t98 -158.5t38 -194.5q0 -139 -69 -253t-187.5 -178.5t-259.5 -64.5zM367 481q0 -94 60.5 -157.5t152.5 -63.5
q94 0 154.5 63t60.5 158q0 94 -61 156.5t-154 62.5q-92 0 -152.5 -62.5t-60.5 -156.5z" />
    <glyph glyph-name="seven" unicode="7" horiz-adv-x="1079" 
d="M203 0q-15 0 -23 10t0 27l457 1130h-537q-13 0 -21.5 9.5t-8.5 23.5v203q0 14 8.5 22.5t21.5 8.5h893q15 0 22 -11t1 -28l-531 -1364q-10 -31 -41 -31h-241z" />
    <glyph glyph-name="eight" unicode="8" horiz-adv-x="1200" 
d="M600 -27q-97 0 -188 31t-163 87t-115.5 144t-43.5 193q0 131 63.5 232t170.5 155q-138 109 -138 275q0 153 114.5 256.5t299.5 103.5t299.5 -103.5t114.5 -256.5q0 -167 -137 -275q106 -54 169.5 -155t63.5 -232q0 -105 -43.5 -192.5t-115.5 -144t-163 -87.5t-188 -31z
M403 444q0 -86 57 -135t140 -49t140 49.5t57 134.5q0 90 -59.5 143.5t-137.5 53.5t-137.5 -53.5t-59.5 -143.5zM463 1065q0 -59 39 -99t98 -40q58 0 97.5 40t39.5 99q0 58 -39.5 98.5t-97.5 40.5t-97.5 -40.5t-39.5 -98.5z" />
    <glyph glyph-name="nine" unicode="9" horiz-adv-x="1159" 
d="M248 106q-27 24 -8 46l266 303q-4 4 -19 4q-76 0 -152 38.5t-136 103.5t-98 158.5t-38 194.5q0 139 69 253t187.5 178.5t260.5 64.5t260.5 -65t188 -179.5t69.5 -253.5q0 -202 -185 -434l-452 -555q-21 -25 -43 -6zM367 942q0 -93 60.5 -156t152.5 -63q93 0 154 63
t61 156q0 94 -61 157.5t-154 63.5q-94 0 -153.5 -63t-59.5 -158z" />
    <glyph glyph-name="colon" unicode=":" horiz-adv-x="524" 
d="M262 -27q-76 0 -129 54t-53 129q0 77 53 131.5t129 54.5t129 -54.5t53 -131.5q0 -75 -53 -129t-129 -54zM80 842q0 77 53 131.5t129 54.5t129 -54.5t53 -131.5q0 -75 -53 -129t-129 -54t-129 54t-53 129z" />
    <glyph glyph-name="semicolon" unicode=";" horiz-adv-x="546" 
d="M264 659q-76 0 -129 54t-53 129q0 77 53 131.5t129 54.5t129 -54.5t53 -131.5q0 -75 -53 -129t-129 -54zM78 160q0 75 54.5 128.5t131.5 53.5q83 0 143 -61.5t60 -180.5q0 -90 -38.5 -164.5t-97 -118t-124 -65.5t-123.5 -18v67q90 -1 157 71q44 47 42 83q-2 22 -25 22
q-72 0 -126 54t-54 129z" />
    <glyph glyph-name="less" unicode="&#x3c;" horiz-adv-x="1058" 
d="M145 393q-22 13 -22 35v164q0 22 22 35l754 358q15 8 26 3.5t11 -21.5v-209q0 -21 -23 -31l-503 -217l503 -219q23 -7 23 -29v-211q0 -33 -37 -18z" />
    <glyph glyph-name="equal" unicode="=" horiz-adv-x="1058" 
d="M164 643q-13 0 -22 9.5t-9 23.5v164q0 13 8.5 21.5t22.5 8.5h729q14 0 23.5 -8.5t9.5 -21.5v-164q0 -14 -10 -23.5t-23 -9.5h-729zM133 328v166q0 13 8.5 21.5t22.5 8.5h729q14 0 23.5 -8.5t9.5 -21.5v-166q0 -13 -9.5 -22t-23.5 -9h-729q-14 0 -22.5 8.5t-8.5 22.5z" />
    <glyph glyph-name="greater" unicode="&#x3e;" horiz-adv-x="1058" 
d="M160 33q-37 -15 -37 18v211q0 23 22 29l504 219l-504 217q-22 9 -22 31v209q0 17 11 21.5t26 -3.5l753 -358q23 -13 23 -35v-164q0 -22 -23 -35z" />
    <glyph glyph-name="question" unicode="?" horiz-adv-x="954" 
d="M365 457q-14 0 -23.5 8.5t-9.5 21.5l-2 80q-2 71 15 126.5t44.5 87.5t60.5 61.5t61.5 51.5t47.5 54.5t19 71.5q0 57 -39 92t-99 35q-35 0 -64.5 -13.5t-51 -38t-34.5 -46t-26 -50.5q-16 -30 -49 -10l-145 90q-45 24 -35 64q44 139 161 223t283 84q62 0 121 -13t112.5 -42
t93.5 -70.5t63.5 -102.5t23.5 -135q0 -61 -15 -111t-39 -85t-53.5 -65.5t-59.5 -57.5t-56 -55t-44.5 -65t-23.5 -81l-6 -80q-7 -30 -33 -30h-198zM285 156q0 77 53 131.5t129 54.5t129 -54.5t53 -131.5q0 -75 -53 -129t-129 -54t-129 54t-53 129z" />
    <glyph glyph-name="at" unicode="@" horiz-adv-x="1658" 
d="M848 -27q-146 0 -281.5 52.5t-240.5 145.5t-168.5 235t-63.5 309q0 134 41.5 252t113.5 205.5t167 150.5t205.5 95t226.5 32q144 0 275 -49t229 -136t156.5 -215t58.5 -276q0 -198 -96 -311t-246 -113q-135 0 -183 86q-89 -86 -221 -86q-154 0 -250 103.5t-96 257.5
q0 153 95.5 256.5t248.5 103.5q127 0 213 -76l27 31h127l-35 -362q-12 -101 63 -101q52 0 75.5 50.5t23.5 131.5q0 207 -133 338t-332 131q-134 0 -248 -61t-184 -176.5t-70 -261.5q0 -148 68.5 -264.5t182.5 -179t251 -62.5q141 0 248 63l139 -170q-35 -47 -143.5 -88
t-243.5 -41zM688 711q0 -65 41.5 -107.5t104.5 -42.5t104 42.5t41 107.5q0 63 -41 105t-104 42t-104.5 -42t-41.5 -105z" />
    <glyph glyph-name="A" unicode="A" horiz-adv-x="1433" 
d="M90 0q-17 0 -25 10t-2 25l476 1374q9 25 39 25h278q30 0 39 -25l475 -1374q6 -15 -0.5 -25t-23.5 -10h-275q-27 0 -35 25l-61 192h-516l-62 -192q-8 -25 -35 -25h-272zM551 504h332l-166 518z" />
    <glyph glyph-name="B" unicode="B" horiz-adv-x="1216" 
d="M166 0q-14 0 -22.5 9t-8.5 22v1372q0 13 8.5 22t22.5 9h498q185 0 291 -104.5t106 -260.5q0 -107 -53 -184t-131 -115q54 -14 102 -43t88.5 -72.5t64 -107.5t23.5 -139q0 -188 -130 -298t-382 -110h-477zM455 285h168q95 0 148.5 42t53.5 128q0 166 -202 166h-168v-336z
M455 872h141q160 0 160 144q0 133 -160 133h-141v-277z" />
    <glyph glyph-name="C" unicode="C" horiz-adv-x="1431" 
d="M834 -27q-150 0 -286.5 56.5t-236 153.5t-158.5 235t-59 293q0 207 100 377t269.5 266t370.5 96q299 0 505 -213q19 -19 0 -41l-163 -174q-18 -22 -43 -4q-131 115 -297 115q-178 0 -296 -120t-118 -302q0 -181 118.5 -300.5t295.5 -119.5q166 0 297 115q24 17 43 -5
l163 -174q19 -22 0 -41q-206 -213 -505 -213z" />
    <glyph glyph-name="D" unicode="D" horiz-adv-x="1425" 
d="M166 0q-14 0 -22.5 9t-8.5 22v1372q0 13 8.5 22t22.5 9h444q175 0 315.5 -55.5t231 -153t138.5 -227.5t48 -281t-48 -281t-138.5 -227.5t-231 -153t-315.5 -55.5h-444zM459 287h147q200 0 304 110t104 320t-104 320t-304 110h-147v-860z" />
    <glyph glyph-name="E" unicode="E" horiz-adv-x="1048" 
d="M166 0q-14 0 -22.5 9t-8.5 22v1372q0 13 8.5 22t22.5 9h739q13 0 22 -9t9 -22v-225q0 -14 -9 -22.5t-22 -8.5h-446v-281h420q13 0 21.5 -8t8.5 -22v-226q0 -14 -8.5 -22t-21.5 -8h-420v-293h444q14 0 23.5 -9t9.5 -22v-225q0 -13 -9.5 -22t-23.5 -9h-737z" />
    <glyph glyph-name="F" unicode="F" horiz-adv-x="1032" 
d="M166 0q-14 0 -22.5 9t-8.5 22v1372q0 13 8.5 22t22.5 9h731q13 0 22 -9t9 -22v-225q0 -14 -9 -22.5t-22 -8.5h-438v-270h411q14 0 22.5 -8.5t8.5 -22.5v-225q0 -13 -8.5 -22t-22.5 -9h-411v-559q0 -13 -8.5 -22t-22.5 -9h-262z" />
    <glyph glyph-name="G" unicode="G" horiz-adv-x="1570" 
d="M840 -27q-153 0 -291 56.5t-238 154t-158.5 235t-58.5 292.5q0 207 99 377t268 266t370 96q303 0 502 -205q24 -28 -2 -57l-151 -162q-23 -26 -50 -6q-130 113 -296 113q-176 0 -294 -120t-118 -302q0 -183 120.5 -301.5t307.5 -118.5q149 0 238.5 72.5t95.5 179.5h-338
q-13 0 -22 9t-9 23v224q0 13 8.5 21.5t22.5 8.5h620q14 0 22.5 -8.5t8.5 -21.5v-148q0 -140 -45.5 -263.5t-128.5 -215.5t-208 -145.5t-275 -53.5z" />
    <glyph glyph-name="H" unicode="H" horiz-adv-x="1409" 
d="M166 0q-14 0 -22.5 9t-8.5 22v1372q0 13 8.5 22t22.5 9h262q14 0 22.5 -9t8.5 -22v-557h491v557q0 13 9 22t22 9h262q14 0 23.5 -9t9.5 -22v-1372q0 -13 -9.5 -22t-23.5 -9h-262q-13 0 -22 9t-9 22v528h-491v-528q0 -13 -8.5 -22t-22.5 -9h-262z" />
    <glyph glyph-name="I" unicode="I" horiz-adv-x="593" 
d="M166 0q-14 0 -22.5 9t-8.5 22v1372q0 13 8.5 22t22.5 9h262q14 0 22.5 -9t8.5 -22v-1372q0 -13 -8.5 -22t-22.5 -9h-262z" />
    <glyph glyph-name="J" unicode="J" horiz-adv-x="1140" 
d="M485 -27q-132 0 -231 45.5t-158 114.5q-9 10 -9.5 25.5t7.5 25.5l137 183q8 9 21 10t24 -8q30 -23 47 -35t60 -27.5t90 -15.5q209 0 209 256v856q0 13 9.5 22t23.5 9h262q13 0 22 -9t9 -22v-840q0 -146 -39 -260t-109.5 -185.5t-165.5 -108t-209 -36.5z" />
    <glyph glyph-name="K" unicode="K" horiz-adv-x="1392" 
d="M166 0q-14 0 -22.5 9t-8.5 22v1372q0 13 8.5 22t22.5 9h262q14 0 22.5 -9t8.5 -22v-598l446 612q14 17 37 17h320q19 0 22.5 -12t-6.5 -25l-473 -596l530 -764q11 -15 6 -26t-24 -11h-305q-24 0 -37 18l-369 529l-147 -187v-329q0 -13 -8.5 -22t-22.5 -9h-262z" />
    <glyph glyph-name="L" unicode="L" horiz-adv-x="980" 
d="M166 0q-14 0 -22.5 9t-8.5 22v1372q0 13 8.5 22t22.5 9h262q14 0 22.5 -9t8.5 -22v-1116h418q13 0 21.5 -8.5t8.5 -22.5v-225q0 -14 -8.5 -22.5t-21.5 -8.5h-711z" />
    <glyph glyph-name="M" unicode="M" horiz-adv-x="1810" 
d="M166 0q-14 0 -22.5 9t-8.5 22v1372q0 13 8.5 22t22.5 9h299q26 0 35 -21l405 -1036l406 1036q9 21 37 21h299q13 0 21.5 -8.5t8.5 -22.5v-1372q0 -14 -8.5 -22.5t-21.5 -8.5h-263q-14 0 -23 9t-9 22v790l-295 -796q-9 -25 -37 -25h-229q-28 0 -37 25l-295 796v-790
q0 -13 -8.5 -22t-22.5 -9h-262z" />
    <glyph glyph-name="N" unicode="N" horiz-adv-x="1441" 
d="M971 0q-26 0 -37 20l-475 887v-876q0 -13 -8.5 -22t-22.5 -9h-262q-14 0 -22.5 9t-8.5 22v1372q0 13 8.5 22t22.5 9h305q25 0 37 -21l475 -887v877q0 13 8.5 22t22.5 9h262q14 0 22.5 -9t8.5 -22v-1372q0 -13 -8.5 -22t-22.5 -9h-305z" />
    <glyph glyph-name="O" unicode="O" horiz-adv-x="1662" 
d="M831 -27q-200 0 -369.5 97.5t-268.5 267.5t-99 373q0 153 58.5 290.5t157.5 235.5t235 155.5t286 57.5q201 0 371 -97t269.5 -267.5t99.5 -374.5q0 -203 -99.5 -373t-269.5 -267.5t-371 -97.5zM422 711q0 -178 118 -299t291 -121q175 0 292.5 120.5t117.5 299.5
q0 181 -117.5 301.5t-292.5 120.5q-174 0 -291.5 -120.5t-117.5 -301.5z" />
    <glyph glyph-name="P" unicode="P" horiz-adv-x="1189" 
d="M166 0q-14 0 -22.5 9t-8.5 22v1372q0 13 8.5 22t22.5 9h440q252 0 381 -127t129 -344t-129 -343t-381 -126h-147v-463q0 -13 -8.5 -22t-22.5 -9h-262zM459 780h139q209 0 209 183q0 184 -209 184h-139v-367z" />
    <glyph glyph-name="Q" unicode="Q" horiz-adv-x="1662" 
d="M1382 -29q-23 -20 -43 0l-114 115q-177 -113 -394 -113q-200 0 -369.5 97.5t-268.5 267.5t-99 373q0 153 58.5 290.5t157.5 235.5t235 155.5t286 57.5q201 0 371 -97t269.5 -267.5t99.5 -374.5q0 -222 -121 -408l111 -110q22 -22 -2 -43zM422 711q0 -178 118 -299
t291 -121q85 0 158 31l-149 149q-21 21 0 45l178 176q8 9 20 9.5t23 -9.5l149 -149q31 79 31 168q0 181 -117.5 301.5t-292.5 120.5q-174 0 -291.5 -120.5t-117.5 -301.5z" />
    <glyph glyph-name="R" unicode="R" horiz-adv-x="1241" 
d="M862 0q-26 0 -37 20l-293 474h-73v-463q0 -13 -8.5 -22t-22.5 -9h-262q-14 0 -22.5 9t-8.5 22v1372q0 13 8.5 22t22.5 9h440q252 0 381 -127t129 -344q0 -156 -68 -268t-202 -163l317 -495q10 -17 4.5 -27t-24.5 -10h-281zM459 780h139q209 0 209 183q0 184 -209 184
h-139v-367z" />
    <glyph glyph-name="S" unicode="S" horiz-adv-x="1142" 
d="M569 -25q-158 0 -280 65.5t-195 162.5q-17 21 4 45l138 155q22 26 47 7q74 -72 137.5 -105t142.5 -33q81 0 129.5 33t48.5 98q0 25 -8 45t-18 32.5t-34 27.5t-39.5 23t-51.5 24l-174 82q-63 28 -111.5 60.5t-92.5 80t-67.5 113t-23.5 145.5q0 194 128.5 304t323.5 110
q247 0 431 -190q22 -22 2 -48l-136 -161q-8 -11 -20 -14.5t-23 3.5q-71 60 -126.5 86.5t-116.5 26.5q-70 0 -110 -32.5t-40 -88.5q0 -27 7.5 -46.5t34 -38.5t42 -27.5t66.5 -32.5l12 -6l145 -66q55 -26 92.5 -47t83.5 -58t73.5 -77t47 -99.5t19.5 -130.5q0 -87 -27.5 -159
t-74.5 -121t-110 -83t-132.5 -49.5t-143.5 -15.5z" />
    <glyph glyph-name="T" unicode="T" horiz-adv-x="1120" 
d="M430 0q-14 0 -23.5 9t-9.5 22v1116h-272q-13 0 -22 8.5t-9 22.5v225q0 13 9 22t22 9h870q14 0 23.5 -9t9.5 -22v-225q0 -13 -9.5 -22t-23.5 -9h-272v-1116q0 -13 -8.5 -22t-22.5 -9h-262z" />
    <glyph glyph-name="U" unicode="U" horiz-adv-x="1359" 
d="M680 -27q-252 0 -403.5 152t-151.5 436v842q0 13 8.5 22t22.5 9h262q14 0 22.5 -9t8.5 -22v-838q0 -131 59.5 -202.5t171.5 -71.5q110 0 170.5 71.5t60.5 202.5v838q0 13 8.5 22t22.5 9h262q14 0 22.5 -9t8.5 -22v-842q0 -143 -41 -255.5t-115 -185t-175.5 -110
t-223.5 -37.5z" />
    <glyph glyph-name="V" unicode="V" horiz-adv-x="1433" 
d="M578 0q-30 0 -39 25l-476 1374q-6 15 2 25t25 10h272q27 0 35 -25l320 -997l319 997q8 25 35 25h275q17 0 23.5 -10t0.5 -25l-475 -1374q-9 -25 -39 -25h-278z" />
    <glyph glyph-name="W" unicode="W" horiz-adv-x="2213" 
d="M510 0q-14 0 -26 7t-15 18l-403 1374q-6 15 0.5 25t23.5 10h272q29 0 35 -25l262 -967l287 967q8 25 35 25h252q27 0 35 -25l286 -967l263 967q6 25 34 25h275q34 0 24 -35l-405 -1374q-3 -11 -15 -18t-26 -7h-272q-35 0 -41 25l-283 999l-285 -999q-6 -25 -41 -25h-272z
" />
    <glyph glyph-name="X" unicode="X" horiz-adv-x="1343" 
d="M111 0q-40 0 -21 37l406 696l-385 664q-19 37 20 37h281q25 0 37 -21l223 -383l223 383q12 21 37 21h280q19 0 25.5 -10t-2.5 -27l-387 -664l407 -696q9 -17 3 -27t-25 -10h-283q-28 0 -39 20l-239 414l-240 -414q-11 -20 -39 -20h-282z" />
    <glyph glyph-name="Y" unicode="Y" horiz-adv-x="1298" 
d="M518 0q-14 0 -22.5 9t-8.5 22v628l-417 738q-19 37 20 37h272q25 0 37 -21l250 -459l250 459q12 21 39 21h272q40 0 21 -37l-418 -740v-626q0 -13 -9.5 -22t-23.5 -9h-262z" />
    <glyph glyph-name="Z" unicode="Z" horiz-adv-x="1130" 
d="M115 0q-13 0 -22 9t-9 22v235q0 17 10 37l594 844h-553q-13 0 -22 8.5t-9 22.5v225q0 13 9 22t22 9h850q14 0 23.5 -9t9.5 -22v-236q0 -13 -12 -37l-594 -843h594q14 0 23 -9t9 -22v-225q0 -13 -9 -22t-23 -9h-891z" />
    <glyph glyph-name="bracketleft" unicode="[" horiz-adv-x="702" 
d="M141 -266q-13 0 -21.5 9.5t-8.5 23.5v1726q0 14 8.5 23.5t21.5 9.5h420q13 0 22 -9.5t9 -23.5v-188q0 -14 -9 -23.5t-22 -9.5h-127v-1284h127q13 0 22 -9.5t9 -23.5v-188q0 -14 -9 -23.5t-22 -9.5h-420z" />
    <glyph glyph-name="backslash" unicode="\" horiz-adv-x="1089" 
d="M756 -266q-28 0 -37 24l-674 1733q-12 35 25 35h262q28 0 37 -25l675 -1732q12 -35 -24 -35h-264z" />
    <glyph glyph-name="bracketright" unicode="]" horiz-adv-x="702" 
d="M141 -266q-13 0 -21.5 9.5t-8.5 23.5v188q0 14 8.5 23.5t21.5 9.5h127v1284h-127q-13 0 -21.5 9.5t-8.5 23.5v188q0 14 8.5 23.5t21.5 9.5h420q13 0 22 -9.5t9 -23.5v-1726q0 -14 -9 -23.5t-22 -9.5h-420z" />
    <glyph glyph-name="asciicircum" unicode="^" horiz-adv-x="1204" 
d="M485 1411q13 23 35 23h164q22 0 35 -23l358 -754q8 -15 3.5 -25.5t-21.5 -10.5h-209q-22 0 -31 22l-217 504l-219 -504q-6 -22 -29 -22h-211q-32 0 -18 36z" />
    <glyph glyph-name="underscore" unicode="_" horiz-adv-x="1269" 
d="M156 -254q-14 0 -23.5 10t-9.5 23v188q0 13 9.5 23t23.5 10h958q14 0 23.5 -10t9.5 -23v-188q0 -13 -9.5 -23t-23.5 -10h-958z" />
    <glyph glyph-name="grave" unicode="`" horiz-adv-x="477" 
d="M238 1141q-25 0 -41 24l-160 234q-9 13 -2 24t24 11h183q24 0 41 -25l157 -233q9 -14 4 -24.5t-22 -10.5h-184z" />
    <glyph glyph-name="a" unicode="a" horiz-adv-x="1257" 
d="M535 -25q-207 0 -339.5 150.5t-132.5 376.5q0 225 132.5 375.5t339.5 150.5t313 -151l4 96q0 13 9.5 22t23.5 9h227q14 0 23.5 -9t9.5 -22v-942q0 -13 -10.5 -22t-24.5 -9h-225q-14 0 -23.5 9t-9.5 22l-4 98q-109 -154 -313 -154zM369 502q0 -109 66 -175.5t167 -66.5
q103 0 167.5 67t64.5 177q0 107 -64.5 173t-167.5 66q-101 0 -167 -67t-66 -174z" />
    <glyph glyph-name="b" unicode="b" horiz-adv-x="1257" 
d="M723 -25q-204 0 -313 154l-4 -98q0 -13 -9.5 -22t-23.5 -9h-226q-14 0 -23 9t-9 22v1403q0 14 8.5 22t21.5 8h252q14 0 23.5 -8.5t9.5 -21.5v-531q103 125 293 125q208 0 340.5 -150t132.5 -376q0 -149 -59 -269t-167.5 -189t-246.5 -69zM426 504q0 -110 63.5 -177
t165.5 -67q101 0 167.5 66.5t66.5 175.5q0 107 -66.5 174t-167.5 67q-102 0 -165.5 -66t-63.5 -173z" />
    <glyph glyph-name="c" unicode="c" horiz-adv-x="1050" 
d="M596 -25q-229 0 -381 153t-152 380q0 222 149.5 371t375.5 149q123 0 223 -48.5t166 -135.5q9 -9 8 -21.5t-10 -21.5l-141 -135q-12 -12 -28 -12.5t-28 10.5q-77 77 -176 77q-108 0 -172.5 -66.5t-64.5 -166.5q0 -103 65.5 -174.5t175.5 -71.5q92 0 176 78q10 11 26 10.5
t28 -12.5l141 -135q21 -21 2 -43q-66 -87 -165 -136t-218 -49z" />
    <glyph glyph-name="d" unicode="d" horiz-adv-x="1257" 
d="M535 -25q-207 0 -339.5 150.5t-132.5 376.5q0 225 132.5 375.5t339.5 150.5q188 0 294 -125v531q0 13 8.5 21.5t22.5 8.5h252q14 0 23.5 -8.5t9.5 -21.5v-1403q0 -13 -10.5 -22t-24.5 -9h-225q-14 0 -23.5 9t-9.5 22l-4 98q-109 -154 -313 -154zM369 502
q0 -109 66 -175.5t167 -66.5q103 0 167.5 67t64.5 177q0 107 -64.5 173t-167.5 66q-101 0 -167 -67t-66 -174z" />
    <glyph glyph-name="e" unicode="e" horiz-adv-x="1126" 
d="M616 -25q-245 0 -399 150t-154 381q0 224 144 373t373 149q112 0 205 -39t153.5 -105t93.5 -153t33 -184q0 -82 -26.5 -123t-92.5 -41h-577q52 -162 272 -162q123 0 221 55q20 10 37 -10l84 -119q15 -23 -10 -45q-127 -127 -357 -127zM365 600h421q-14 87 -68 128.5
t-136 41.5t-140.5 -42.5t-76.5 -127.5z" />
    <glyph glyph-name="f" unicode="f" horiz-adv-x="800" 
d="M233 0q-13 0 -21.5 8.5t-8.5 22.5v731h-119q-14 0 -22.5 9t-8.5 22v180q0 13 8.5 22t22.5 9h119v141q0 179 93.5 265.5t266.5 86.5q99 0 168 -35q19 -10 19 -32v-207q0 -19 -27 -15q-76 13 -86 13q-67 0 -93 -30t-26 -87v-100h201q13 0 22 -9t9 -22v-180q0 -13 -9 -22
t-22 -9h-201v-731q0 -13 -9.5 -22t-23.5 -9h-252z" />
    <glyph glyph-name="g" unicode="g" horiz-adv-x="1241" 
d="M592 -420q-245 0 -402 121q-15 10 -17 28t7 33l64 125q20 39 55 19q138 -72 262 -72q52 0 96.5 11.5t84 36t62.5 70t23 107.5v95q-97 -131 -297 -131q-210 0 -338.5 139.5t-128.5 363.5q0 222 129 362t340 140q200 0 297 -133l7 78q0 14 8.5 22.5t21.5 8.5h230
q13 0 21.5 -8.5t8.5 -22.5v-914q0 -107 -32.5 -192t-85 -137.5t-123.5 -87t-143 -48.5t-150 -14zM369 526q0 -101 62.5 -162t162.5 -61q98 0 159.5 60.5t61.5 162.5q0 100 -61.5 161t-159.5 61q-99 0 -162 -61t-63 -161z" />
    <glyph glyph-name="h" unicode="h" 
d="M145 0q-13 0 -21.5 8.5t-8.5 22.5v1403q0 14 8.5 22t21.5 8h250q14 0 23.5 -8.5t9.5 -21.5v-580q97 174 293 174q160 0 261 -111.5t101 -304.5v-581q0 -13 -9 -22t-23 -9h-248q-14 0 -23.5 9t-9.5 22v508q0 202 -168 202q-83 0 -128.5 -51.5t-45.5 -150.5v-508
q0 -13 -9.5 -22t-23.5 -9h-250z" />
    <glyph glyph-name="i" unicode="i" horiz-adv-x="548" 
d="M274 1163q-73 0 -122.5 50t-49.5 122q0 71 49.5 120.5t122.5 49.5t121.5 -49.5t48.5 -120.5q0 -73 -48.5 -122.5t-121.5 -49.5zM117 31v942q0 14 8.5 22.5t21.5 8.5h254q13 0 22 -9t9 -22v-942q0 -13 -9 -22t-22 -9h-254q-13 0 -21.5 8.5t-8.5 22.5z" />
    <glyph glyph-name="j" unicode="j" horiz-adv-x="563" 
d="M289 1163q-73 0 -121.5 49.5t-48.5 122.5q0 71 48.5 120.5t121.5 49.5t122.5 -49.5t49.5 -120.5q0 -72 -49.5 -122t-122.5 -50zM-100 -342v207q0 18 26 14q70 -12 86 -12q67 0 93 30t26 87v989q0 13 9.5 22t23.5 9h252q14 0 23.5 -9t9.5 -22v-1030q0 -179 -95 -266
t-268 -87q-99 0 -168 35q-18 9 -18 33z" />
    <glyph glyph-name="k" unicode="k" horiz-adv-x="1165" 
d="M145 0q-13 0 -21.5 8.5t-8.5 22.5v1403q0 14 8.5 22t21.5 8h252q14 0 23.5 -8.5t9.5 -21.5v-807l297 360q14 17 37 17h283q21 0 25.5 -11t-7.5 -28l-334 -383l387 -543q11 -17 6 -28t-24 -11h-271q-23 0 -36 18l-250 347l-113 -132v-202q0 -13 -9.5 -22t-23.5 -9h-252z
" />
    <glyph glyph-name="l" unicode="l" horiz-adv-x="542" 
d="M145 0q-13 0 -21.5 8.5t-8.5 22.5v1403q0 14 8.5 22t21.5 8h252q14 0 23.5 -8.5t9.5 -21.5v-1403q0 -13 -9.5 -22t-23.5 -9h-252z" />
    <glyph glyph-name="m" unicode="m" horiz-adv-x="1759" 
d="M145 0q-13 0 -21.5 8.5t-8.5 22.5v942q0 14 8.5 22.5t21.5 8.5h242q31 0 31 -33l8 -105q95 162 281 162q195 0 282 -172q95 172 307 172q164 0 257.5 -109t93.5 -303v-585q0 -13 -9.5 -22t-23.5 -9h-248q-14 0 -23.5 9t-9.5 22v514q0 196 -145 196q-74 0 -113 -50
t-39 -146v-514q0 -14 -8.5 -22.5t-21.5 -8.5h-248q-15 0 -25 9t-10 22v514q0 196 -145 196q-73 0 -111.5 -50t-38.5 -146v-514q0 -13 -9.5 -22t-23.5 -9h-250z" />
    <glyph glyph-name="n" unicode="n" 
d="M145 0q-13 0 -21.5 8.5t-8.5 22.5v942q0 14 8.5 22.5t21.5 8.5h242q31 0 31 -33l10 -117q97 174 293 174q160 0 261 -111.5t101 -304.5v-581q0 -13 -9 -22t-23 -9h-248q-14 0 -23.5 9t-9.5 22v508q0 202 -168 202q-83 0 -128.5 -51.5t-45.5 -150.5v-508q0 -13 -9.5 -22
t-23.5 -9h-250z" />
    <glyph glyph-name="o" unicode="o" horiz-adv-x="1179" 
d="M590 -25q-226 0 -376.5 151.5t-150.5 375.5t150.5 375t376.5 151t377 -151t151 -375t-151 -375.5t-377 -151.5zM365 502q0 -108 64 -174t161 -66t161 66t64 174t-64 173.5t-161 65.5t-161 -65.5t-64 -173.5z" />
    <glyph glyph-name="p" unicode="p" horiz-adv-x="1257" 
d="M145 -389q-13 0 -21.5 8.5t-8.5 22.5v1331q0 14 8.5 22.5t21.5 8.5h228q14 0 23.5 -9t9.5 -22l4 -96q106 151 313 151q208 0 340.5 -150t132.5 -376q0 -149 -59 -269t-167.5 -189t-246.5 -69q-185 0 -293 127v-460q0 -13 -9.5 -22t-23.5 -9h-252zM426 504
q0 -110 63.5 -177t165.5 -67q101 0 167.5 66.5t66.5 175.5q0 107 -66.5 174t-167.5 67q-102 0 -165.5 -66t-63.5 -173z" />
    <glyph glyph-name="q" unicode="q" horiz-adv-x="1257" 
d="M860 -389q-14 0 -22.5 8.5t-8.5 22.5v460q-111 -127 -294 -127q-207 0 -339.5 150.5t-132.5 376.5q0 225 132.5 375.5t339.5 150.5t313 -151l4 96q0 13 9.5 22t23.5 9h227q14 0 23.5 -9t9.5 -22v-1331q0 -13 -9.5 -22t-23.5 -9h-252zM369 502q0 -109 66 -175.5t167 -66.5
q103 0 167.5 67t64.5 177q0 107 -64.5 173t-167.5 66q-101 0 -167 -67t-66 -174z" />
    <glyph glyph-name="r" unicode="r" horiz-adv-x="806" 
d="M145 0q-13 0 -21.5 8.5t-8.5 22.5v942q0 14 8.5 22.5t21.5 8.5h242q28 0 31 -33l10 -133q58 190 213 190q56 0 92 -27q19 -14 19 -40v-205q0 -34 -43 -25q-33 10 -74 10q-98 0 -152.5 -58t-54.5 -169v-483q0 -13 -9.5 -22t-23.5 -9h-250z" />
    <glyph glyph-name="s" unicode="s" horiz-adv-x="923" 
d="M467 -25q-123 0 -222 45.5t-165 124.5q-18 25 6 60l82 114q19 31 51 11q131 -94 227 -94q93 0 93 65q0 29 -19.5 47t-70.5 39l-132 53q-217 84 -217 279q0 142 104.5 225.5t256.5 83.5q100 0 190 -41t156 -117q15 -18 -2 -43l-105 -122q-19 -19 -47 0q-102 79 -176 79
q-42 0 -61 -19t-19 -46q0 -48 80 -80l152 -59q226 -89 221 -291q-1 -100 -55 -172.5t-139 -107t-189 -34.5z" />
    <glyph glyph-name="t" unicode="t" horiz-adv-x="763" 
d="M532 -12q-66 0 -121 16t-102 50.5t-73.5 96.5t-26.5 146v465h-125q-14 0 -22.5 9t-8.5 22v180q0 13 8.5 22t22.5 9h125v235q0 13 9.5 22t23.5 9h252q14 0 23 -9t9 -22v-235h154q14 0 22.5 -9t8.5 -22v-180q0 -13 -8.5 -22t-22.5 -9h-154v-432q0 -39 23.5 -60.5
t62.5 -21.5q37 0 64 2q15 2 26 -6t11 -23v-170q0 -34 -56 -48.5t-125 -14.5z" />
    <glyph glyph-name="u" unicode="u" 
d="M475 -25q-160 0 -260 111.5t-100 304.5v582q0 14 8.5 22.5t21.5 8.5h250q14 0 23.5 -9t9.5 -22v-508q0 -203 168 -203q81 0 127.5 52.5t46.5 150.5v508q0 13 9.5 22t23.5 9h248q14 0 23 -9t9 -22v-942q0 -13 -9 -22t-23 -9h-240q-30 0 -33 33l-8 117q-98 -175 -295 -175z
" />
    <glyph glyph-name="v" unicode="v" horiz-adv-x="1181" 
d="M465 0q-28 0 -37 25l-375 944q-12 35 27 35h254q30 0 39 -25l219 -619l219 619q9 25 37 25h256q36 0 24 -35l-374 -944q-9 -25 -37 -25h-252z" />
    <glyph glyph-name="w" unicode="w" horiz-adv-x="1808" 
d="M401 0q-27 0 -36 25l-312 944q-12 35 27 35h242q27 0 36 -25l187 -614l203 614q9 25 36 25h240q28 0 37 -25l203 -614l186 614q9 25 37 25h244q36 0 24 -35l-311 -944q-9 -25 -37 -25h-256q-28 0 -37 25l-209 614l-211 -614q-9 -25 -37 -25h-256z" />
    <glyph glyph-name="x" unicode="x" horiz-adv-x="1093" 
d="M80 0q-18 0 -24.5 11t1.5 26l301 477l-288 453q-9 15 -3 26t25 11h273q24 0 36 -21l146 -246l143 246q12 21 39 21h272q19 0 26 -11t-5 -26l-287 -453l299 -477q11 -15 5 -26t-25 -11h-275q-26 0 -37 20l-155 271l-156 -271q-11 -20 -39 -20h-272z" />
    <glyph glyph-name="y" unicode="y" horiz-adv-x="1187" 
d="M322 -389q-42 0 -27 37l147 350l-389 971q-12 35 27 35h254q30 0 39 -25l221 -614l221 614q9 25 39 25h254q39 0 27 -35l-533 -1334q-9 -24 -37 -24h-243z" />
    <glyph glyph-name="z" unicode="z" horiz-adv-x="956" 
d="M104 0q-13 0 -21.5 8.5t-8.5 22.5v200q0 27 14 39l447 480h-424q-13 0 -22 9t-9 23v191q0 13 9 22t22 9h741q12 0 21.5 -9t9.5 -22v-199q0 -26 -15 -41l-448 -479h432q14 0 23.5 -9t9.5 -22v-192q0 -13 -9.5 -22t-23.5 -9h-748z" />
    <glyph glyph-name="braceleft" unicode="{" horiz-adv-x="774" 
d="M412 -266q-38 0 -72.5 9.5t-68 32t-54 67.5t-20.5 108v510q0 23 -11 39l-67 106q-13 22 -2 41l69 111q11 19 11 39v512q0 51 14 90t36 62.5t51.5 38.5t57 20.5t56.5 5.5h221q13 0 22 -9.5t9 -23.5v-188q0 -14 -9 -23.5t-22 -9.5h-41q-32 0 -52 -16.5t-20 -47.5v-422
q0 -18 -12 -36l-76 -101q-18 -22 0 -43l76 -98q12 -18 12 -37v-420q0 -31 20 -47t52 -16h41q13 0 22 -9.5t9 -23.5v-188q0 -14 -9 -23.5t-22 -9.5h-221z" />
    <glyph glyph-name="bar" unicode="|" horiz-adv-x="593" 
d="M166 -389q-14 0 -22.5 8.5t-8.5 22.5v1966q0 13 8.5 21.5t22.5 8.5h262q14 0 22.5 -8.5t8.5 -21.5v-1966q0 -14 -8.5 -22.5t-22.5 -8.5h-262z" />
    <glyph glyph-name="braceright" unicode="}" horiz-adv-x="774" 
d="M141 -266q-13 0 -21.5 9.5t-8.5 23.5v188q0 14 8.5 23.5t21.5 9.5h41q32 0 52 16t20 47v420q0 19 12 37l76 98q18 21 0 43l-76 101q-12 18 -12 36v422q0 31 -20 47.5t-52 16.5h-41q-13 0 -21.5 9.5t-8.5 23.5v188q0 14 8.5 23.5t21.5 9.5h221q29 0 56.5 -5.5t57.5 -20.5
t52 -38.5t36 -62.5t14 -90v-512q0 -21 10 -39l69 -111q11 -19 -2 -41l-67 -106q-10 -15 -10 -39v-510q0 -51 -14 -90t-36 -62.5t-51.5 -38.5t-57.5 -20.5t-57 -5.5h-221z" />
    <glyph glyph-name="asciitilde" unicode="~" horiz-adv-x="962" 
d="M641 430q-45 0 -83 14.5t-63.5 35t-47.5 41.5t-47 35.5t-52 14.5q-68 0 -82 -55q-3 -16 -22 -16h-123q-9 0 -15 8t-6 20q3 107 67 163.5t157 56.5q45 0 82.5 -14.5t62 -35t47 -41t47 -35t51.5 -14.5q68 0 82 54q3 16 23 16h125q20 0 20 -21q-3 -112 -66.5 -169.5
t-156.5 -57.5z" />
    <glyph glyph-name="uni00A0" unicode="&#xa0;" horiz-adv-x="397" 
 />
    <glyph glyph-name="exclamdown" unicode="&#xa1;" horiz-adv-x="585" 
d="M385 612q33 0 33 -32l35 -918q0 -13 -9.5 -22t-23.5 -9h-254q-14 0 -23.5 9t-9.5 22l35 918q0 14 9 23t22 9h186zM111 909q0 75 53 129t129 54t129 -54t53 -129q0 -77 -53 -131.5t-129 -54.5t-129 54.5t-53 131.5z" />
    <glyph glyph-name="cent" unicode="&#xa2;" horiz-adv-x="964" 
d="M520 0q-13 0 -22 9.5t-9 23.5v217q-187 20 -306.5 152.5t-119.5 320.5q0 185 119.5 314.5t306.5 146.5v217q0 14 9 23.5t22 9.5h49q13 0 22 -9.5t9 -23.5v-219q183 -20 293 -160q8 -7 7.5 -18.5t-9.5 -20.5l-129 -119q-10 -12 -24.5 -12.5t-24.5 10.5q-55 52 -113 66
v-420q56 14 117 65q9 9 23 8.5t24 -10.5l129 -120q17 -17 2 -39q-109 -141 -295 -162v-217q0 -14 -9 -23.5t-22 -9.5h-49zM336 723q0 -74 40.5 -132.5t112.5 -78.5v412q-71 -19 -112 -73.5t-41 -127.5z" />
    <glyph glyph-name="sterling" unicode="&#xa3;" horiz-adv-x="1136" 
d="M117 0q-13 0 -22 9t-9 22v235q92 42 151.5 107.5t59.5 146.5q0 8 -1 16t-1 9h-176q-14 0 -22.5 8.5t-8.5 21.5v142q0 14 9 24.5t22 10.5h94q-39 64 -60.5 124.5t-21.5 139.5q0 186 133 310t338 124q271 0 442 -236q8 -9 6.5 -23t-12.5 -24l-143 -139q-25 -25 -47 0
q-46 63 -97.5 99t-123.5 36q-85 0 -138 -49.5t-53 -132.5q0 -33 10.5 -66.5t22 -53.5t35 -57t33.5 -54h307q15 0 24 -9.5t9 -23.5v-142q0 -14 -9 -22t-24 -8h-256q4 -8 4 -37q0 -65 -37.5 -122t-105.5 -120h528q13 0 22 -9.5t9 -23.5v-202q0 -13 -9 -22t-22 -9h-860z" />
    <glyph glyph-name="currency" unicode="&#xa4;" horiz-adv-x="1243" 
d="M285 504l-164 162l92 94q-55 94 -55 215q0 119 55 217l-92 92l164 162l84 -84q118 72 247 72q141 0 254 -74l88 86l164 -162l-98 -98q51 -89 51 -211t-51 -211l98 -98l-164 -162l-88 86q-113 -74 -254 -74q-129 0 -247 72zM369 975q0 -38 14 -79t41.5 -80.5t77.5 -65
t114 -25.5t114.5 25.5t78 65t41.5 80.5t14 79q0 37 -14 78t-41.5 81t-78 65.5t-114.5 25.5t-114 -25.5t-77.5 -65.5t-41.5 -81t-14 -78z" />
    <glyph glyph-name="yen" unicode="&#xa5;" horiz-adv-x="1298" 
d="M326 453q-14 0 -22.5 8.5t-8.5 21.5v144q0 13 8.5 21.5t22.5 8.5h161v2l-417 738q-19 37 20 37h272q25 0 37 -21l250 -459l250 459q12 21 39 21h272q40 0 21 -37l-418 -740h160q14 0 22.5 -8.5t8.5 -21.5v-144q0 -13 -8.5 -21.5t-22.5 -8.5h-160v-58h160q14 0 22.5 -8.5
t8.5 -21.5v-144q0 -13 -9 -22t-22 -9h-160v-159q0 -13 -9.5 -22t-23.5 -9h-262q-14 0 -22.5 9t-8.5 22v159h-161q-14 0 -22.5 9t-8.5 22v144q0 13 8.5 21.5t22.5 8.5h161v58h-161z" />
    <glyph glyph-name="brokenbar" unicode="&#xa6;" horiz-adv-x="593" 
d="M166 1004q-14 0 -22.5 8.5t-8.5 21.5v574q0 13 8.5 21.5t22.5 8.5h262q14 0 22.5 -8.5t8.5 -21.5v-574q0 -13 -8.5 -21.5t-22.5 -8.5h-262zM135 -358v573q0 13 8.5 22t22.5 9h262q14 0 22.5 -9t8.5 -22v-573q0 -14 -8.5 -22.5t-22.5 -8.5h-262q-14 0 -22.5 8.5t-8.5 22.5
z" />
    <glyph glyph-name="section" unicode="&#xa7;" horiz-adv-x="970" 
d="M487 2q-123 0 -227.5 45t-167.5 121q-14 17 2 43l94 141q14 16 43 0q148 -92 234 -92q92 0 92 57q0 35 -20 52.5t-78 40.5l-121 49q-223 86 -223 278q0 129 90 219q-68 74 -68 187q0 142 105.5 226.5t255.5 84.5q102 0 193 -40.5t155 -115.5q17 -20 -2 -43l-105 -122
q-16 -19 -45 0q-109 75 -180 75q-43 0 -63.5 -18t-20.5 -43q0 -48 90 -80l146 -57q48 -19 83 -40.5t68 -55t50.5 -82t17.5 -111.5q0 -131 -84 -215q63 -73 63 -191q0 -79 -31 -140t-84 -98t-119.5 -56t-142.5 -19zM410 741q0 -46 75 -75q42 0 68.5 15t26.5 44
q0 39 -26.5 57.5t-59.5 18.5q-43 0 -63.5 -18t-20.5 -42z" />
    <glyph glyph-name="dieresis" unicode="&#xa8;" horiz-adv-x="837" 
d="M653 1133q-64 0 -108.5 45t-44.5 112q0 64 45 109t108 45t108.5 -45t45.5 -109q0 -67 -45 -112t-109 -45zM31 1290q0 64 45 109t108 45t108.5 -45t45.5 -109q0 -67 -45 -112t-109 -45t-108.5 45t-44.5 112z" />
    <glyph glyph-name="copyright" unicode="&#xa9;" horiz-adv-x="1355" 
d="M678 279q-159 0 -293 76.5t-212.5 211.5t-78.5 297t78.5 297t212.5 212t293 77q158 0 292 -77t213 -212t79 -297q0 -121 -46.5 -230t-125.5 -186.5t-186.5 -123t-225.5 -45.5zM276 864q0 -172 117 -289.5t285 -117.5t284.5 117.5t116.5 289.5q0 173 -116.5 290.5
t-284.5 117.5t-285 -118t-117 -290zM410 864q0 120 81 201.5t201 81.5q138 0 209 -96q11 -14 0 -25l-76 -74q-13 -13 -24 -2q-44 41 -99 41q-57 0 -92 -36t-35 -91t35 -92t92 -37q51 0 99 41q10 14 24 0l76 -74q10 -10 0 -24q-71 -96 -209 -96q-120 0 -201 81t-81 201z" />
    <glyph glyph-name="ordfeminine" unicode="&#xaa;" horiz-adv-x="872" 
d="M397 698q-144 0 -239 107t-95 266t95 266t239 107q105 0 203 -66l14 56h197v-736h-197l-14 66q-98 -66 -203 -66zM283 1071q0 -67 44 -110t111 -43t111.5 43t44.5 110t-45 112.5t-111 45.5t-110.5 -45.5t-44.5 -112.5z" />
    <glyph glyph-name="guillemotleft" unicode="&#xab;" horiz-adv-x="909" 
d="M106 426q-16 13 -16 35v188q0 22 16 35l275 195q13 10 26 7t13 -22v-164q0 -28 -17 -36l-172 -109l172 -106q17 -11 17 -39v-164q0 -19 -13 -22t-26 7zM489 461v188q0 21 17 35l274 195q14 10 26.5 7t12.5 -22v-164q0 -28 -16 -36l-172 -109l172 -106q16 -11 16 -39v-164
q0 -19 -12.5 -22t-26.5 7l-274 195q-17 14 -17 35z" />
    <glyph glyph-name="logicalnot" unicode="&#xac;" horiz-adv-x="1140" 
d="M741 250q-13 0 -21.5 8.5t-8.5 22.5v110h-557q-13 0 -22 9.5t-9 23.5v190q0 14 8.5 22.5t22.5 8.5h833q13 0 22 -8.5t9 -22.5v-333q0 -13 -9 -22t-22 -9h-246z" />
    <glyph glyph-name="uni00AD" unicode="&#xad;" horiz-adv-x="878" 
d="M131 438q-13 0 -22 9t-9 22v190q0 13 9 22t22 9h614q14 0 23.5 -9t9.5 -22v-190q0 -13 -9.5 -22t-23.5 -9h-614z" />
    <glyph glyph-name="registered" unicode="&#xae;" horiz-adv-x="1355" 
d="M678 279q-159 0 -293 76.5t-212.5 211.5t-78.5 297t78.5 297t212.5 212t293 77q158 0 292 -77t213 -212t79 -297q0 -121 -46.5 -230t-125.5 -186.5t-186.5 -123t-225.5 -45.5zM276 864q0 -172 117 -289.5t285 -117.5t284.5 117.5t116.5 289.5q0 173 -116.5 290.5
t-284.5 117.5t-285 -118t-117 -290zM463 629v477q0 16 14 16h242q103 0 166 -43t63 -139q0 -127 -125 -170l121 -137q6 -7 4 -14t-10 -7h-143q-10 0 -19 9l-117 139h-43v-131q0 -17 -14 -17h-125q-14 0 -14 17zM616 883h103q31 0 49 14.5t18 42.5q0 27 -18.5 42t-48.5 15
h-103v-114z" />
    <glyph glyph-name="macron" unicode="&#xaf;" horiz-adv-x="759" 
d="M61 1192q-13 0 -21.5 8.5t-8.5 22.5v180q0 14 8.5 22.5t21.5 8.5h637q14 0 22.5 -9t8.5 -22v-180q0 -13 -8.5 -22t-22.5 -9h-637z" />
    <glyph glyph-name="degree" unicode="&#xb0;" horiz-adv-x="854" 
d="M428 862q-128 0 -216.5 88t-88.5 217q0 123 89 211t216 88q126 0 214.5 -88t88.5 -211q0 -129 -88.5 -217t-214.5 -88zM313 1167q0 -42 28.5 -80t86.5 -38t86.5 38t28.5 80q0 38 -28.5 75.5t-86.5 37.5t-86.5 -37.5t-28.5 -75.5z" />
    <glyph glyph-name="plusminus" unicode="&#xb1;" horiz-adv-x="1017" 
d="M166 0q-14 0 -23.5 10t-9.5 23v127q0 14 9.5 23.5t23.5 9.5h686q14 0 23.5 -9.5t9.5 -23.5v-127q0 -13 -9.5 -23t-23.5 -10h-686zM133 586v164q0 14 9 23t22 9h231v232q0 13 8.5 21.5t22.5 8.5h164q14 0 23.5 -8.5t9.5 -21.5v-232h229q14 0 23.5 -9.5t9.5 -22.5v-164
q0 -13 -9.5 -22t-23.5 -9h-229v-231q0 -13 -9.5 -22t-23.5 -9h-164q-14 0 -22.5 8.5t-8.5 22.5v231h-231q-14 0 -22.5 8.5t-8.5 22.5z" />
    <glyph glyph-name="uni00B2" unicode="&#xb2;" horiz-adv-x="710" 
d="M88 674v155l201 177q15 13 42 36t38.5 33t29.5 27t26 27.5t17 25t12 28t3 29.5q0 40 -30 67.5t-77 27.5q-44 0 -72 -28t-28 -71v-41h-168v45q0 110 71 176t197 66q127 0 203 -64.5t76 -158.5q0 -36 -10.5 -68.5t-24.5 -57t-47.5 -58.5t-60 -57.5t-80.5 -69.5
q-9 -7 -13 -11l-92 -80h315v-155h-528z" />
    <glyph glyph-name="uni00B3" unicode="&#xb3;" horiz-adv-x="768" 
d="M375 666q-148 0 -220.5 71t-72.5 201h166q0 -127 133 -127q59 0 97 27t38 75q0 51 -46 72t-146 21v122q93 0 126 24.5t33 72.5q0 35 -29.5 59.5t-84.5 24.5q-115 0 -115 -121h-166q-1 134 75 200t212 66q124 0 202 -56.5t78 -150.5q0 -54 -30 -95t-82 -62
q62 -23 102.5 -69.5t40.5 -117.5q0 -113 -85 -175t-226 -62z" />
    <glyph glyph-name="acute" unicode="&#xb4;" horiz-adv-x="477" 
d="M55 1141q-17 0 -22 10.5t4 24.5l160 233q17 25 39 25h182q17 0 24 -11t-2 -24l-161 -234q-16 -24 -39 -24h-185z" />
    <glyph glyph-name="uni00B5" unicode="&#xb5;" 
d="M145 -389q-13 0 -21.5 8.5t-8.5 22.5v1331q0 14 8.5 22.5t21.5 8.5h250q14 0 23.5 -9t9.5 -22v-508q0 -203 168 -203q81 0 127.5 52.5t46.5 150.5v508q0 13 9.5 22t23.5 9h248q14 0 23 -9t9 -22v-942q0 -13 -9 -22t-23 -9h-240q-30 0 -33 33l-8 114q-15 -81 -69.5 -126.5
t-143.5 -45.5q-91 0 -129 48v-381q0 -13 -9.5 -22t-23.5 -9h-250z" />
    <glyph glyph-name="paragraph" unicode="&#xb6;" horiz-adv-x="1669" 
d="M782 0q-13 0 -21.5 8.5t-8.5 22.5v463h-148q-252 0 -381 126t-129 343t129 344t381 127h440q14 0 22.5 -9t8.5 -22v-1372q0 -13 -8.5 -22t-22.5 -9h-262zM403 963q0 -183 209 -183h140v367h-140q-209 0 -209 -184zM1210 31v1372q0 13 9 22t22 9h262q13 0 22 -9t9 -22
v-1372q0 -13 -9 -22t-22 -9h-262q-13 0 -22 9t-9 22z" />
    <glyph glyph-name="periodcentered" unicode="&#xb7;" horiz-adv-x="571" 
d="M287 403q-76 0 -129.5 54t-53.5 129q0 77 53.5 131.5t129.5 54.5t129 -54.5t53 -131.5q0 -75 -53 -129t-129 -54z" />
    <glyph glyph-name="cedilla" unicode="&#xb8;" horiz-adv-x="456" 
d="M49 -449q-18 3 -18 23v109q0 20 22 20q80 -9 123 5t43 44q0 14 -21.5 25.5t-58 13.5t-84.5 -14q-11 -6 -17.5 -1.5t-6.5 15.5v115q0 14 10 24l78 70h196l-73 -63q73 -8 128.5 -54t55.5 -119q0 -89 -57 -144t-140 -69.5t-180 0.5z" />
    <glyph glyph-name="uni00B9" unicode="&#xb9;" horiz-adv-x="438" 
d="M154 662v610h-84v162h249v-772h-165z" />
    <glyph glyph-name="ordmasculine" unicode="&#xba;" horiz-adv-x="874" 
d="M438 698q-161 0 -268 106.5t-107 266.5t107 266.5t268 106.5q160 0 267.5 -106.5t107.5 -266.5t-107.5 -266.5t-267.5 -106.5zM283 1071q0 -67 43.5 -110t111.5 -43q67 0 111.5 43t44.5 110t-45 112.5t-111 45.5q-67 0 -111 -45t-44 -113z" />
    <glyph glyph-name="guillemotright" unicode="&#xbb;" horiz-adv-x="909" 
d="M528 231q-14 -10 -26.5 -7t-12.5 22v164q0 28 17 39l172 106l-172 109q-17 8 -17 36v164q0 19 12.5 22t26.5 -7l275 -195q16 -13 16 -35v-188q0 -22 -16 -35zM90 246v164q0 28 16 39l173 106l-173 109q-16 8 -16 36v164q0 19 13 22t26 -7l274 -195q17 -14 17 -35v-188
q0 -21 -17 -35l-274 -195q-13 -10 -26 -7t-13 22z" />
    <glyph glyph-name="onequarter" unicode="&#xbc;" horiz-adv-x="1736" 
d="M145 662v610h-84v162h250v-772h-166zM270 0l815 1434h181l-817 -1434h-179zM999 154l410 618h166v-455h80v-163h-80v-154h-166v154h-410zM1268 317h141v222z" />
    <glyph glyph-name="onehalf" unicode="&#xbd;" horiz-adv-x="1689" 
d="M145 662v610h-84v162h250v-772h-166zM270 0l815 1434h181l-817 -1434h-179zM1061 494v45q0 110 71 175.5t197 65.5q127 0 203 -64.5t76 -158.5q0 -58 -30 -110.5t-64.5 -85.5t-125.5 -111q-10 -9 -16 -14l-92 -80h315v-156h-528v156l201 176q14 13 42 36t38.5 33
t29.5 27.5t26 27.5t16.5 25t12.5 28.5t3 29.5q0 40 -30 67t-77 27q-44 0 -72 -27.5t-28 -70.5v-41h-168z" />
    <glyph glyph-name="threequarters" unicode="&#xbe;" horiz-adv-x="1906" 
d="M375 666q-148 0 -220.5 71t-72.5 201h166q0 -127 133 -127q59 0 97 27t38 75q0 51 -46 72t-146 21v122q93 0 126 24.5t33 72.5q0 35 -29.5 59.5t-84.5 24.5q-115 0 -115 -121h-166q-1 134 75 200t212 66q124 0 202 -56.5t78 -150.5q0 -54 -30 -95t-82 -62
q62 -23 102.5 -69.5t40.5 -117.5q0 -113 -85 -175t-226 -62zM440 0l815 1434h181l-818 -1434h-178zM1169 154l410 618h166v-455h80v-163h-80v-154h-166v154h-410zM1438 317h141v222z" />
    <glyph glyph-name="questiondown" unicode="&#xbf;" horiz-adv-x="954" 
d="M559 608q14 0 23.5 -8.5t9.5 -21.5l2 -80q2 -71 -15 -126.5t-44.5 -87.5t-60.5 -61.5t-61.5 -51.5t-47.5 -54.5t-19 -71.5q0 -58 38.5 -92.5t98.5 -34.5q35 0 64.5 13.5t51 38t34.5 46t26 50.5q16 30 50 10l145 -90q45 -24 35 -64q-44 -139 -161.5 -223t-283.5 -84
q-79 0 -150.5 21.5t-131.5 63.5t-95.5 113.5t-35.5 163.5q0 61 15 111.5t39 85.5t53.5 65t59.5 57.5t56 55.5t44.5 65t23.5 81l6 80q7 30 32 30h199zM276 909q0 75 53.5 129t129.5 54t129 -54t53 -129q0 -77 -53 -131.5t-129 -54.5t-129.5 54.5t-53.5 131.5z" />
    <glyph glyph-name="Agrave" unicode="&#xc0;" horiz-adv-x="1433" 
d="M90 0q-17 0 -25 10t-2 25l476 1374q9 25 39 25h278q30 0 39 -25l475 -1374q6 -15 -0.5 -25t-23.5 -10h-275q-27 0 -35 25l-61 192h-516l-62 -192q-8 -25 -35 -25h-272zM442 1829q-9 13 -1.5 24t24.5 11h182q24 0 41 -25l158 -233q9 -14 3.5 -24.5t-22.5 -10.5h-184
q-25 0 -41 24zM551 504h332l-166 518z" />
    <glyph glyph-name="Aacute" unicode="&#xc1;" horiz-adv-x="1433" 
d="M90 0q-17 0 -25 10t-2 25l476 1374q9 25 39 25h278q30 0 39 -25l475 -1374q6 -15 -0.5 -25t-23.5 -10h-275q-27 0 -35 25l-61 192h-516l-62 -192q-8 -25 -35 -25h-272zM551 504h332l-166 518zM590 1606l160 233q17 25 38 25h183q17 0 24 -11t-2 -24l-162 -234
q-16 -24 -38 -24h-185q-17 0 -22 10.5t4 24.5z" />
    <glyph glyph-name="Acircumflex" unicode="&#xc2;" horiz-adv-x="1433" 
d="M90 0q-17 0 -25 10t-2 25l476 1374q9 25 39 25h278q30 0 39 -25l475 -1374q6 -15 -0.5 -25t-23.5 -10h-275q-27 0 -35 25l-61 192h-516l-62 -192q-8 -25 -35 -25h-272zM395 1622l189 225q14 17 34 17h199q21 0 35 -17l188 -225q13 -14 9 -27.5t-23 -13.5h-164
q-24 0 -37 16l-106 132l-109 -132q-13 -16 -37 -16h-163q-20 0 -24 13.5t9 27.5zM551 504h332l-166 518z" />
    <glyph glyph-name="Atilde" unicode="&#xc3;" horiz-adv-x="1433" 
d="M90 0q-17 0 -25 10t-2 25l476 1374q9 25 39 25h278q30 0 39 -25l475 -1374q6 -15 -0.5 -25t-23.5 -10h-275q-27 0 -35 25l-61 192h-516l-62 -192q-8 -25 -35 -25h-272zM334 1688q3 108 66.5 164.5t156.5 56.5q45 0 83 -14.5t63 -35.5t47 -42t46.5 -35.5t51.5 -14.5
q71 0 82 56q3 16 22 16h125q21 0 21 -20q-3 -112 -67 -170t-157 -58q-45 0 -83 14.5t-62.5 35.5t-46.5 42t-46.5 35.5t-51.5 14.5q-71 0 -82 -56q-3 -16 -23 -16h-125q-20 0 -20 27zM551 504h332l-166 518z" />
    <glyph glyph-name="Adieresis" unicode="&#xc4;" horiz-adv-x="1433" 
d="M90 0q-17 0 -25 10t-2 25l476 1374q9 25 39 25h278q30 0 39 -25l475 -1374q6 -15 -0.5 -25t-23.5 -10h-275q-27 0 -35 25l-61 192h-516l-62 -192q-8 -25 -35 -25h-272zM330 1720q0 64 45 109t108 45t108.5 -45t45.5 -109q0 -67 -45 -112t-109 -45t-108.5 45t-44.5 112z
M551 504h332l-166 518zM799 1720q0 64 45 109t108 45t108.5 -45t45.5 -109q0 -67 -45 -112t-109 -45t-108.5 45t-44.5 112z" />
    <glyph glyph-name="Aring" unicode="&#xc5;" horiz-adv-x="1433" 
d="M90 0q-17 0 -25 10t-2 25l476 1374q9 25 39 25h278q30 0 39 -25l475 -1374q6 -15 -0.5 -25t-23.5 -10h-275q-27 0 -35 25l-61 192h-516l-62 -192q-8 -25 -35 -25h-272zM496 1739q0 92 61.5 155.5t159.5 63.5q99 0 161 -63.5t62 -155.5q0 -91 -62 -153t-161 -62
q-98 0 -159.5 62t-61.5 153zM551 504h332l-166 518zM672 1741q0 -19 12.5 -33t32.5 -14q21 0 34 14t13 33t-13 33t-34 14q-20 0 -32.5 -14t-12.5 -33z" />
    <glyph glyph-name="AE" unicode="&#xc6;" horiz-adv-x="1753" 
d="M90 0q-17 0 -24.5 10t-2.5 25l588 1374q9 25 35 25h924q13 0 21.5 -8.5t8.5 -22.5v-225q0 -14 -8.5 -22.5t-21.5 -8.5h-447v-281h420q14 0 22.5 -8.5t8.5 -21.5v-226q0 -13 -8.5 -21.5t-22.5 -8.5h-420v-293h445q14 0 23 -9t9 -22v-225q0 -13 -9 -22t-23 -9h-738
q-13 0 -21.5 8.5t-8.5 22.5v243h-344l-97 -249q-11 -25 -34 -25h-275zM606 549h234v604z" />
    <glyph glyph-name="Ccedilla" unicode="&#xc7;" horiz-adv-x="1431" 
d="M657 -449q-18 3 -18 23v109q0 20 23 20q79 -9 122 5t43 44q0 14 -21.5 25.5t-57.5 13.5t-84 -14q-10 -6 -17.5 -1.5t-7.5 15.5v115q0 14 10 24l60 54q-129 21 -242 85t-195.5 158t-130 219.5t-47.5 264.5q0 207 100 377t269.5 266t370.5 96q299 0 505 -213q19 -19 0 -41
l-163 -174q-18 -22 -43 -4q-131 115 -297 115q-178 0 -296 -120t-118 -302q0 -181 118.5 -300.5t295.5 -119.5q166 0 297 115q24 17 43 -5l163 -174q19 -22 0 -41q-188 -191 -444 -211l-45 -38q73 -8 128.5 -54t55.5 -119q0 -89 -57 -144t-140 -69.5t-180 0.5z" />
    <glyph glyph-name="Egrave" unicode="&#xc8;" horiz-adv-x="1048" 
d="M166 0q-14 0 -22.5 9t-8.5 22v1372q0 13 8.5 22t22.5 9h739q13 0 22 -9t9 -22v-225q0 -14 -9 -22.5t-22 -8.5h-446v-281h420q13 0 21.5 -8t8.5 -22v-226q0 -14 -8.5 -22t-21.5 -8h-420v-293h444q14 0 23.5 -9t9.5 -22v-225q0 -13 -9.5 -22t-23.5 -9h-737zM285 1829
q-9 13 -2 24t24 11h182q24 0 41 -25l158 -233q9 -14 4 -24.5t-22 -10.5h-185q-25 0 -41 24z" />
    <glyph glyph-name="Eacute" unicode="&#xc9;" horiz-adv-x="1048" 
d="M166 0q-14 0 -22.5 9t-8.5 22v1372q0 13 8.5 22t22.5 9h739q13 0 22 -9t9 -22v-225q0 -14 -9 -22.5t-22 -8.5h-446v-281h420q13 0 21.5 -8t8.5 -22v-226q0 -14 -8.5 -22t-21.5 -8h-420v-293h444q14 0 23.5 -9t9.5 -22v-225q0 -13 -9.5 -22t-23.5 -9h-737zM432 1606
l160 233q17 25 39 25h182q17 0 24.5 -11t-1.5 -24l-162 -234q-16 -24 -39 -24h-184q-17 0 -22.5 10.5t3.5 24.5z" />
    <glyph glyph-name="Ecircumflex" unicode="&#xca;" horiz-adv-x="1048" 
d="M166 0q-14 0 -22.5 9t-8.5 22v1372q0 13 8.5 22t22.5 9h739q13 0 22 -9t9 -22v-225q0 -14 -9 -22.5t-22 -8.5h-446v-281h420q13 0 21.5 -8t8.5 -22v-226q0 -14 -8.5 -22t-21.5 -8h-420v-293h444q14 0 23.5 -9t9.5 -22v-225q0 -13 -9.5 -22t-23.5 -9h-737zM238 1622
l188 225q14 17 35 17h198q21 0 35 -17l189 -225q13 -14 9 -27.5t-24 -13.5h-163q-24 0 -37 16l-107 132l-108 -132q-13 -16 -37 -16h-164q-19 0 -23 13.5t9 27.5z" />
    <glyph glyph-name="Edieresis" unicode="&#xcb;" horiz-adv-x="1048" 
d="M166 0q-14 0 -22.5 9t-8.5 22v1372q0 13 8.5 22t22.5 9h739q13 0 22 -9t9 -22v-225q0 -14 -9 -22.5t-22 -8.5h-446v-281h420q13 0 21.5 -8t8.5 -22v-226q0 -14 -8.5 -22t-21.5 -8h-420v-293h444q14 0 23.5 -9t9.5 -22v-225q0 -13 -9.5 -22t-23.5 -9h-737zM170 1720
q0 64 45.5 109t108.5 45t108 -45t45 -109q0 -67 -44.5 -112t-108.5 -45t-109 45t-45 112zM639 1720q0 64 45.5 109t108.5 45t108 -45t45 -109q0 -67 -44.5 -112t-108.5 -45t-109 45t-45 112z" />
    <glyph glyph-name="Igrave" unicode="&#xcc;" horiz-adv-x="593" 
d="M166 0q-14 0 -22.5 9t-8.5 22v1372q0 13 8.5 22t22.5 9h262q14 0 22.5 -9t8.5 -22v-1372q0 -13 -8.5 -22t-22.5 -9h-262zM23 1829q-9 13 -2 24t24 11h182q24 0 41 -25l158 -233q9 -14 4 -24.5t-22 -10.5h-185q-25 0 -41 24z" />
    <glyph glyph-name="Iacute" unicode="&#xcd;" horiz-adv-x="593" 
d="M166 0q-14 0 -22.5 9t-8.5 22v1372q0 13 8.5 22t22.5 9h262q14 0 22.5 -9t8.5 -22v-1372q0 -13 -8.5 -22t-22.5 -9h-262zM170 1606l160 233q17 25 39 25h182q17 0 24 -11t-2 -24l-161 -234q-16 -24 -39 -24h-185q-17 0 -22 10.5t4 24.5z" />
    <glyph glyph-name="Icircumflex" unicode="&#xce;" horiz-adv-x="593" 
d="M166 0q-14 0 -22.5 9t-8.5 22v1372q0 13 8.5 22t22.5 9h262q14 0 22.5 -9t8.5 -22v-1372q0 -13 -8.5 -22t-22.5 -9h-262zM-27 1622l189 225q14 17 35 17h198q21 0 35 -17l188 -225q13 -14 9 -27.5t-23 -13.5h-164q-24 0 -37 16l-106 132l-109 -132q-13 -16 -36 -16h-164
q-20 0 -24 13.5t9 27.5z" />
    <glyph glyph-name="Idieresis" unicode="&#xcf;" horiz-adv-x="593" 
d="M166 0q-14 0 -22.5 9t-8.5 22v1372q0 13 8.5 22t22.5 9h262q14 0 22.5 -9t8.5 -22v-1372q0 -13 -8.5 -22t-22.5 -9h-262zM-92 1720q0 64 45 109t108 45t108.5 -45t45.5 -109q0 -67 -45 -112t-109 -45t-108.5 45t-44.5 112zM377 1720q0 64 45 109t108 45t108.5 -45
t45.5 -109q0 -67 -45 -112t-109 -45t-108.5 45t-44.5 112z" />
    <glyph glyph-name="Eth" unicode="&#xd0;" horiz-adv-x="1441" 
d="M182 0q-13 0 -21.5 8.5t-8.5 22.5v551h-70q-14 0 -22.5 8.5t-8.5 21.5v181q0 13 8.5 21.5t22.5 8.5h70v580q0 14 8.5 22.5t21.5 8.5h445q175 0 315.5 -55.5t231 -153t138.5 -227.5t48 -281t-48 -281t-138.5 -227.5t-231 -153t-315.5 -55.5h-445zM475 287h148
q200 0 303.5 110t103.5 320t-103.5 320t-303.5 110h-148v-324h244q14 0 22.5 -8.5t8.5 -21.5v-181q0 -13 -8.5 -21.5t-22.5 -8.5h-244v-295z" />
    <glyph glyph-name="Ntilde" unicode="&#xd1;" horiz-adv-x="1441" 
d="M971 0q-26 0 -37 20l-475 887v-876q0 -13 -8.5 -22t-22.5 -9h-262q-14 0 -22.5 9t-8.5 22v1372q0 13 8.5 22t22.5 9h305q25 0 37 -21l475 -887v877q0 13 8.5 22t22.5 9h262q14 0 22.5 -9t8.5 -22v-1372q0 -13 -8.5 -22t-22.5 -9h-305zM338 1688q3 108 66.5 164.5
t156.5 56.5q45 0 83 -14.5t63 -35.5t47 -42t46.5 -35.5t51.5 -14.5q71 0 82 56q3 16 22 16h125q21 0 21 -20q-3 -112 -66.5 -170t-156.5 -58q-45 0 -83 14.5t-63 35.5t-47 42t-46.5 35.5t-51.5 14.5q-71 0 -82 -56q-3 -16 -23 -16h-125q-20 0 -20 27z" />
    <glyph glyph-name="Ograve" unicode="&#xd2;" horiz-adv-x="1662" 
d="M831 -27q-200 0 -369.5 97.5t-268.5 267.5t-99 373q0 153 58.5 290.5t157.5 235.5t235 155.5t286 57.5q201 0 371 -97t269.5 -267.5t99.5 -374.5q0 -203 -99.5 -373t-269.5 -267.5t-371 -97.5zM422 711q0 -178 118 -299t291 -121q175 0 292.5 120.5t117.5 299.5
q0 181 -117.5 301.5t-292.5 120.5q-174 0 -291.5 -120.5t-117.5 -301.5zM557 1829q-9 13 -1.5 24t24.5 11h182q24 0 41 -25l158 -233q9 -14 3.5 -24.5t-22.5 -10.5h-184q-25 0 -41 24z" />
    <glyph glyph-name="Oacute" unicode="&#xd3;" horiz-adv-x="1662" 
d="M831 -27q-200 0 -369.5 97.5t-268.5 267.5t-99 373q0 153 58.5 290.5t157.5 235.5t235 155.5t286 57.5q201 0 371 -97t269.5 -267.5t99.5 -374.5q0 -203 -99.5 -373t-269.5 -267.5t-371 -97.5zM422 711q0 -178 118 -299t291 -121q175 0 292.5 120.5t117.5 299.5
q0 181 -117.5 301.5t-292.5 120.5q-174 0 -291.5 -120.5t-117.5 -301.5zM705 1606l159 233q17 25 39 25h182q17 0 24.5 -11t-1.5 -24l-162 -234q-16 -24 -39 -24h-184q-17 0 -22 10.5t4 24.5z" />
    <glyph glyph-name="Ocircumflex" unicode="&#xd4;" horiz-adv-x="1662" 
d="M831 -27q-200 0 -369.5 97.5t-268.5 267.5t-99 373q0 153 58.5 290.5t157.5 235.5t235 155.5t286 57.5q201 0 371 -97t269.5 -267.5t99.5 -374.5q0 -203 -99.5 -373t-269.5 -267.5t-371 -97.5zM422 711q0 -178 118 -299t291 -121q175 0 292.5 120.5t117.5 299.5
q0 181 -117.5 301.5t-292.5 120.5q-174 0 -291.5 -120.5t-117.5 -301.5zM510 1622l188 225q14 17 35 17h199q21 0 35 -17l188 -225q13 -14 9 -27.5t-23 -13.5h-164q-24 0 -37 16l-106 132l-109 -132q-13 -16 -37 -16h-164q-19 0 -23 13.5t9 27.5z" />
    <glyph glyph-name="Otilde" unicode="&#xd5;" horiz-adv-x="1662" 
d="M831 -27q-200 0 -369.5 97.5t-268.5 267.5t-99 373q0 153 58.5 290.5t157.5 235.5t235 155.5t286 57.5q201 0 371 -97t269.5 -267.5t99.5 -374.5q0 -203 -99.5 -373t-269.5 -267.5t-371 -97.5zM422 711q0 -178 118 -299t291 -121q175 0 292.5 120.5t117.5 299.5
q0 181 -117.5 301.5t-292.5 120.5q-174 0 -291.5 -120.5t-117.5 -301.5zM449 1688q3 108 66.5 164.5t156.5 56.5q45 0 83 -14.5t63 -35.5t47 -42t46.5 -35.5t51.5 -14.5q70 0 81 56q3 16 23 16h125q20 0 20 -20q-3 -112 -66.5 -170t-156.5 -58q-45 0 -83 14.5t-63 35.5
t-47 42t-46.5 35.5t-51.5 14.5q-71 0 -82 -56q-3 -16 -22 -16h-125q-20 0 -20 27z" />
    <glyph glyph-name="Odieresis" unicode="&#xd6;" horiz-adv-x="1662" 
d="M831 -27q-200 0 -369.5 97.5t-268.5 267.5t-99 373q0 153 58.5 290.5t157.5 235.5t235 155.5t286 57.5q201 0 371 -97t269.5 -267.5t99.5 -374.5q0 -203 -99.5 -373t-269.5 -267.5t-371 -97.5zM422 711q0 -178 118 -299t291 -121q175 0 292.5 120.5t117.5 299.5
q0 181 -117.5 301.5t-292.5 120.5q-174 0 -291.5 -120.5t-117.5 -301.5zM444 1720q0 64 45.5 109t108.5 45t108.5 -45t45.5 -109q0 -67 -45 -112t-109 -45t-109 45t-45 112zM913 1720q0 64 45.5 109t108.5 45t108.5 -45t45.5 -109q0 -67 -45 -112t-109 -45t-109 45t-45 112z
" />
    <glyph glyph-name="multiply" unicode="&#xd7;" horiz-adv-x="933" 
d="M143 377q-23 23 0 45l162 164l-162 162q-23 22 0 45l115 114q9 10 22.5 10.5t22.5 -8.5l164 -164l164 164q9 9 21.5 9t21.5 -9l117 -116q9 -9 9.5 -21.5t-9.5 -23.5l-164 -162l164 -164q9 -9 9 -22.5t-9 -22.5l-117 -117q-9 -9 -22.5 -8t-22.5 10l-162 162l-164 -164
q-9 -9 -22.5 -8t-22.5 10z" />
    <glyph glyph-name="Oslash" unicode="&#xd8;" horiz-adv-x="1662" 
d="M385 -102q-18 0 -25 9.5t0 26.5l72 154q-155 100 -246.5 264.5t-91.5 358.5q0 153 58.5 290.5t157.5 235.5t235 155.5t286 57.5q116 0 226 -35l41 88q10 23 35 23h145q18 0 25 -10t0 -27l-72 -154q157 -100 248.5 -264t91.5 -360q0 -203 -99.5 -373t-269.5 -267.5
t-371 -97.5q-115 0 -225 35l-41 -88q-9 -22 -35 -22h-145zM422 711q0 -100 39.5 -185t109.5 -143l349 741q-43 9 -89 9q-174 0 -291.5 -120.5t-117.5 -301.5zM743 299q58 -8 88 -8q175 0 292.5 120.5t117.5 299.5q0 101 -39.5 186t-109.5 143z" />
    <glyph glyph-name="Ugrave" unicode="&#xd9;" horiz-adv-x="1359" 
d="M680 -27q-252 0 -403.5 152t-151.5 436v842q0 13 8.5 22t22.5 9h262q14 0 22.5 -9t8.5 -22v-838q0 -131 59.5 -202.5t171.5 -71.5q110 0 170.5 71.5t60.5 202.5v838q0 13 8.5 22t22.5 9h262q14 0 22.5 -9t8.5 -22v-842q0 -143 -41 -255.5t-115 -185t-175.5 -110
t-223.5 -37.5zM406 1829q-9 13 -2 24t24 11h182q24 0 41 -25l158 -233q9 -14 4 -24.5t-22 -10.5h-185q-25 0 -41 24z" />
    <glyph glyph-name="Uacute" unicode="&#xda;" horiz-adv-x="1359" 
d="M680 -27q-252 0 -403.5 152t-151.5 436v842q0 13 8.5 22t22.5 9h262q14 0 22.5 -9t8.5 -22v-838q0 -131 59.5 -202.5t171.5 -71.5q110 0 170.5 71.5t60.5 202.5v838q0 13 8.5 22t22.5 9h262q14 0 22.5 -9t8.5 -22v-842q0 -143 -41 -255.5t-115 -185t-175.5 -110
t-223.5 -37.5zM553 1606l160 233q17 25 39 25h182q17 0 24 -11t-2 -24l-161 -234q-16 -24 -39 -24h-185q-17 0 -22 10.5t4 24.5z" />
    <glyph glyph-name="Ucircumflex" unicode="&#xdb;" horiz-adv-x="1359" 
d="M680 -27q-252 0 -403.5 152t-151.5 436v842q0 13 8.5 22t22.5 9h262q14 0 22.5 -9t8.5 -22v-838q0 -131 59.5 -202.5t171.5 -71.5q110 0 170.5 71.5t60.5 202.5v838q0 13 8.5 22t22.5 9h262q14 0 22.5 -9t8.5 -22v-842q0 -143 -41 -255.5t-115 -185t-175.5 -110
t-223.5 -37.5zM356 1622l189 225q14 17 35 17h198q21 0 35 -17l188 -225q13 -14 9 -27.5t-23 -13.5h-164q-24 0 -37 16l-106 132l-109 -132q-13 -16 -36 -16h-164q-20 0 -24 13.5t9 27.5z" />
    <glyph glyph-name="Udieresis" unicode="&#xdc;" horiz-adv-x="1359" 
d="M680 -27q-252 0 -403.5 152t-151.5 436v842q0 13 8.5 22t22.5 9h262q14 0 22.5 -9t8.5 -22v-838q0 -131 59.5 -202.5t171.5 -71.5q110 0 170.5 71.5t60.5 202.5v838q0 13 8.5 22t22.5 9h262q14 0 22.5 -9t8.5 -22v-842q0 -143 -41 -255.5t-115 -185t-175.5 -110
t-223.5 -37.5zM291 1720q0 64 45 109t108 45t108.5 -45t45.5 -109q0 -67 -45 -112t-109 -45t-108.5 45t-44.5 112zM760 1720q0 64 45 109t108 45t108.5 -45t45.5 -109q0 -67 -45 -112t-109 -45t-108.5 45t-44.5 112z" />
    <glyph glyph-name="Yacute" unicode="&#xdd;" horiz-adv-x="1298" 
d="M518 0q-14 0 -22.5 9t-8.5 22v628l-417 738q-19 37 20 37h272q25 0 37 -21l250 -459l250 459q12 21 39 21h272q40 0 21 -37l-418 -740v-626q0 -13 -9.5 -22t-23.5 -9h-262zM522 1606l160 233q17 25 39 25h182q17 0 24.5 -11t-1.5 -24l-162 -234q-16 -24 -39 -24h-184
q-17 0 -22.5 10.5t3.5 24.5z" />
    <glyph glyph-name="Thorn" unicode="&#xde;" horiz-adv-x="1220" 
d="M166 0q-14 0 -22.5 9t-8.5 22v1372q0 13 8.5 22t22.5 9h262q14 0 22.5 -9t8.5 -22v-209h151q260 0 399.5 -123.5t139.5 -353.5t-139.5 -353.5t-399.5 -123.5h-151v-209q0 -13 -8.5 -22t-22.5 -9h-262zM459 526h129q125 0 187.5 40.5t62.5 150.5t-62.5 150t-187.5 40h-129
v-381z" />
    <glyph glyph-name="germandbls" unicode="&#xdf;" horiz-adv-x="1282" 
d="M166 0q-14 0 -22.5 9t-8.5 22v981q0 90 29 164.5t77.5 124.5t114.5 84t138.5 49.5t150.5 15.5q134 0 245.5 -42t184 -133t72.5 -218q0 -76 -23.5 -137.5t-61 -98.5t-79 -56.5t-82.5 -21.5q64 -7 118.5 -29.5t100.5 -63t72.5 -107.5t26.5 -154q0 -184 -129 -286.5
t-404 -102.5h-106q-14 0 -22.5 9t-8.5 22v182q0 13 8.5 22t22.5 9h88q132 0 191 41t59 139q0 97 -57.5 130.5t-192.5 33.5h-88q-14 0 -22.5 8.5t-8.5 21.5v183q0 13 8.5 21.5t22.5 8.5h53q112 0 160.5 39.5t48.5 120.5q0 174 -199 174q-87 0 -139.5 -40t-52.5 -130v-964
q0 -13 -9.5 -22t-23.5 -9h-252z" />
    <glyph glyph-name="agrave" unicode="&#xe0;" horiz-adv-x="1257" 
d="M535 -25q-207 0 -339.5 150.5t-132.5 376.5q0 225 132.5 375.5t339.5 150.5t313 -151l4 96q0 13 9.5 22t23.5 9h227q14 0 23.5 -9t9.5 -22v-942q0 -13 -10.5 -22t-24.5 -9h-225q-14 0 -23.5 9t-9.5 22l-4 98q-109 -154 -313 -154zM348 1399q-9 13 -1.5 24t24.5 11h182
q24 0 41 -25l158 -233q9 -14 3.5 -24.5t-22.5 -10.5h-184q-25 0 -41 24zM369 502q0 -109 66 -175.5t167 -66.5q103 0 167.5 67t64.5 177q0 107 -64.5 173t-167.5 66q-101 0 -167 -67t-66 -174z" />
    <glyph glyph-name="aacute" unicode="&#xe1;" horiz-adv-x="1257" 
d="M535 -25q-207 0 -339.5 150.5t-132.5 376.5q0 225 132.5 375.5t339.5 150.5t313 -151l4 96q0 13 9.5 22t23.5 9h227q14 0 23.5 -9t9.5 -22v-942q0 -13 -10.5 -22t-24.5 -9h-225q-14 0 -23.5 9t-9.5 22l-4 98q-109 -154 -313 -154zM369 502q0 -109 66 -175.5t167 -66.5
q103 0 167.5 67t64.5 177q0 107 -64.5 173t-167.5 66q-101 0 -167 -67t-66 -174zM494 1176l159 233q17 25 39 25h182q17 0 24.5 -11t-1.5 -24l-162 -234q-16 -24 -39 -24h-184q-17 0 -22 10.5t4 24.5z" />
    <glyph glyph-name="acircumflex" unicode="&#xe2;" horiz-adv-x="1257" 
d="M535 -25q-207 0 -339.5 150.5t-132.5 376.5q0 225 132.5 375.5t339.5 150.5t313 -151l4 96q0 13 9.5 22t23.5 9h227q14 0 23.5 -9t9.5 -22v-942q0 -13 -10.5 -22t-24.5 -9h-225q-14 0 -23.5 9t-9.5 22l-4 98q-109 -154 -313 -154zM299 1192l188 225q14 17 35 17h199
q21 0 35 -17l188 -225q13 -14 9 -27.5t-23 -13.5h-164q-24 0 -37 16l-106 131l-109 -131q-13 -16 -37 -16h-164q-19 0 -23 13.5t9 27.5zM369 502q0 -109 66 -175.5t167 -66.5q103 0 167.5 67t64.5 177q0 107 -64.5 173t-167.5 66q-101 0 -167 -67t-66 -174z" />
    <glyph glyph-name="atilde" unicode="&#xe3;" horiz-adv-x="1257" 
d="M535 -25q-207 0 -339.5 150.5t-132.5 376.5q0 225 132.5 375.5t339.5 150.5t313 -151l4 96q0 13 9.5 22t23.5 9h227q14 0 23.5 -9t9.5 -22v-942q0 -13 -10.5 -22t-24.5 -9h-225q-14 0 -23.5 9t-9.5 22l-4 98q-109 -154 -313 -154zM238 1257q3 108 67.5 165t157.5 57
q45 0 83 -14.5t63 -35.5t47 -42t46.5 -35.5t51.5 -14.5q71 0 82 56q3 16 22 16h125q21 0 21 -20q-3 -112 -67 -170t-157 -58q-45 0 -83 14.5t-63 35.5t-47 42t-46.5 35.5t-51.5 14.5q-70 0 -81 -56q-3 -16 -23 -16h-127q-20 0 -20 26zM369 502q0 -109 66 -175.5t167 -66.5
q103 0 167.5 67t64.5 177q0 107 -64.5 173t-167.5 66q-101 0 -167 -67t-66 -174z" />
    <glyph glyph-name="adieresis" unicode="&#xe4;" horiz-adv-x="1257" 
d="M535 -25q-207 0 -339.5 150.5t-132.5 376.5q0 225 132.5 375.5t339.5 150.5t313 -151l4 96q0 13 9.5 22t23.5 9h227q14 0 23.5 -9t9.5 -22v-942q0 -13 -10.5 -22t-24.5 -9h-225q-14 0 -23.5 9t-9.5 22l-4 98q-109 -154 -313 -154zM233 1290q0 64 45.5 109t108.5 45
t108.5 -45t45.5 -109q0 -67 -45 -112t-109 -45t-109 45t-45 112zM369 502q0 -109 66 -175.5t167 -66.5q103 0 167.5 67t64.5 177q0 107 -64.5 173t-167.5 66q-101 0 -167 -67t-66 -174zM702 1290q0 64 45.5 109t108.5 45t108.5 -45t45.5 -109q0 -67 -45 -112t-109 -45
t-109 45t-45 112z" />
    <glyph glyph-name="aring" unicode="&#xe5;" horiz-adv-x="1257" 
d="M535 -25q-207 0 -339.5 150.5t-132.5 376.5q0 225 132.5 375.5t339.5 150.5t313 -151l4 96q0 13 9.5 22t23.5 9h227q14 0 23.5 -9t9.5 -22v-942q0 -13 -10.5 -22t-24.5 -9h-225q-14 0 -23.5 9t-9.5 22l-4 98q-109 -154 -313 -154zM369 502q0 -109 66 -175.5t167 -66.5
q103 0 167.5 67t64.5 177q0 107 -64.5 173t-167.5 66q-101 0 -167 -67t-66 -174zM399 1309q0 91 62 155t160 64q99 0 161 -63.5t62 -155.5q0 -91 -62 -153t-161 -62q-98 0 -160 62t-62 153zM575 1311q0 -19 13 -33t33 -14q21 0 34 14t13 33t-13 33t-34 14q-20 0 -33 -14
t-13 -33z" />
    <glyph glyph-name="ae" unicode="&#xe6;" horiz-adv-x="1900" 
d="M541 -25q-211 0 -344.5 150t-133.5 377q0 225 132.5 375.5t339.5 150.5q160 0 292 -92l2 37q0 14 9 22.5t24 8.5h172q14 0 22.5 -9t8.5 -22v-25q125 80 289 80q112 0 205 -39t153.5 -105t93.5 -153t33 -184q0 -82 -26.5 -123t-92.5 -41h-577q52 -162 272 -162
q123 0 221 55q20 10 37 -10l84 -119q15 -23 -10 -45q-127 -127 -356 -127q-148 0 -266.5 58t-190.5 160q-63 -102 -164 -160t-229 -58zM369 502q0 -109 66 -175.5t167 -66.5q102 0 167 67.5t65 176.5q0 107 -64.5 173t-167.5 66q-101 0 -167 -67t-66 -174zM1139 600h422
q-14 87 -68.5 128.5t-136.5 41.5t-140.5 -42.5t-76.5 -127.5z" />
    <glyph glyph-name="ccedilla" unicode="&#xe7;" horiz-adv-x="1050" 
d="M397 -449q-18 3 -18 23v109q0 20 22 20q80 -9 123 5t43 44q0 14 -21.5 25.5t-58 13.5t-84.5 -14q-11 -6 -17.5 -1.5t-6.5 15.5v115q0 14 10 24l70 62q-178 43 -287 184.5t-109 331.5q0 222 149.5 371t375.5 149q123 0 223 -48.5t166 -135.5q9 -9 8 -21.5t-10 -21.5
l-141 -135q-12 -12 -28 -12.5t-28 10.5q-77 77 -176 77q-108 0 -172.5 -66.5t-64.5 -166.5q0 -103 65.5 -174.5t175.5 -71.5q92 0 176 78q10 11 26 10.5t28 -12.5l141 -135q21 -21 2 -43q-60 -78 -148.5 -127t-193.5 -56l-47 -40q73 -8 128.5 -54t55.5 -119q0 -89 -57 -144
t-140 -69.5t-180 0.5z" />
    <glyph glyph-name="egrave" unicode="&#xe8;" horiz-adv-x="1126" 
d="M616 -25q-245 0 -399 150t-154 381q0 224 144 373t373 149q112 0 205 -39t153.5 -105t93.5 -153t33 -184q0 -82 -26.5 -123t-92.5 -41h-577q52 -162 272 -162q123 0 221 55q20 10 37 -10l84 -119q15 -23 -10 -45q-127 -127 -357 -127zM303 1399q-9 13 -1.5 24t24.5 11
h182q24 0 41 -25l158 -233q9 -14 3.5 -24.5t-22.5 -10.5h-184q-25 0 -41 24zM365 600h421q-14 87 -68 128.5t-136 41.5t-140.5 -42.5t-76.5 -127.5z" />
    <glyph glyph-name="eacute" unicode="&#xe9;" horiz-adv-x="1126" 
d="M616 -25q-245 0 -399 150t-154 381q0 224 144 373t373 149q112 0 205 -39t153.5 -105t93.5 -153t33 -184q0 -82 -26.5 -123t-92.5 -41h-577q52 -162 272 -162q123 0 221 55q20 10 37 -10l84 -119q15 -23 -10 -45q-127 -127 -357 -127zM365 600h421q-14 87 -68 128.5
t-136 41.5t-140.5 -42.5t-76.5 -127.5zM449 1176l159 233q17 25 39 25h182q17 0 24.5 -11t-1.5 -24l-162 -234q-16 -24 -39 -24h-184q-17 0 -22 10.5t4 24.5z" />
    <glyph glyph-name="ecircumflex" unicode="&#xea;" horiz-adv-x="1126" 
d="M616 -25q-245 0 -399 150t-154 381q0 224 144 373t373 149q112 0 205 -39t153.5 -105t93.5 -153t33 -184q0 -82 -26.5 -123t-92.5 -41h-577q52 -162 272 -162q123 0 221 55q20 10 37 -10l84 -119q15 -23 -10 -45q-127 -127 -357 -127zM254 1192l188 225q14 17 35 17h199
q21 0 35 -17l188 -225q13 -14 9 -27.5t-23 -13.5h-164q-24 0 -37 16l-106 131l-109 -131q-13 -16 -37 -16h-164q-19 0 -23 13.5t9 27.5zM365 600h421q-14 87 -68 128.5t-136 41.5t-140.5 -42.5t-76.5 -127.5z" />
    <glyph glyph-name="edieresis" unicode="&#xeb;" horiz-adv-x="1126" 
d="M616 -25q-245 0 -399 150t-154 381q0 224 144 373t373 149q112 0 205 -39t153.5 -105t93.5 -153t33 -184q0 -82 -26.5 -123t-92.5 -41h-577q52 -162 272 -162q123 0 221 55q20 10 37 -10l84 -119q15 -23 -10 -45q-127 -127 -357 -127zM188 1290q0 64 45.5 109t108.5 45
t108.5 -45t45.5 -109q0 -67 -45 -112t-109 -45t-109 45t-45 112zM365 600h421q-14 87 -68 128.5t-136 41.5t-140.5 -42.5t-76.5 -127.5zM657 1290q0 64 45.5 109t108.5 45t108.5 -45t45.5 -109q0 -67 -45 -112t-109 -45t-109 45t-45 112z" />
    <glyph glyph-name="igrave" unicode="&#xec;" horiz-adv-x="534" 
d="M141 0q-13 0 -21.5 8.5t-8.5 22.5v942q0 14 8.5 22.5t21.5 8.5h252q14 0 23.5 -9t9.5 -22v-942q0 -13 -9.5 -22t-23.5 -9h-252zM-4 1399q-9 13 -2 24t24 11h183q24 0 41 -25l157 -233q9 -14 4 -24.5t-22 -10.5h-184q-25 0 -41 24z" />
    <glyph glyph-name="iacute" unicode="&#xed;" horiz-adv-x="534" 
d="M141 0q-13 0 -21.5 8.5t-8.5 22.5v942q0 14 8.5 22.5t21.5 8.5h252q14 0 23.5 -9t9.5 -22v-942q0 -13 -9.5 -22t-23.5 -9h-252zM143 1176l160 233q17 25 39 25h182q17 0 24.5 -11t-1.5 -24l-162 -234q-16 -24 -39 -24h-184q-17 0 -22.5 10.5t3.5 24.5z" />
    <glyph glyph-name="icircumflex" unicode="&#xee;" horiz-adv-x="534" 
d="M141 0q-13 0 -21.5 8.5t-8.5 22.5v942q0 14 8.5 22.5t21.5 8.5h252q14 0 23.5 -9t9.5 -22v-942q0 -13 -9.5 -22t-23.5 -9h-252zM-53 1192l188 225q14 17 35 17h199q20 0 34 -17l189 -225q13 -14 9 -27.5t-23 -13.5h-164q-24 0 -37 16l-107 131l-108 -131q-13 -16 -37 -16
h-164q-19 0 -23 13.5t9 27.5z" />
    <glyph glyph-name="idieresis" unicode="&#xef;" horiz-adv-x="534" 
d="M141 0q-13 0 -21.5 8.5t-8.5 22.5v942q0 14 8.5 22.5t21.5 8.5h252q14 0 23.5 -9t9.5 -22v-942q0 -13 -9.5 -22t-23.5 -9h-252zM-119 1290q0 64 45.5 109t108.5 45t108 -45t45 -109q0 -67 -44.5 -112t-108.5 -45t-109 45t-45 112zM350 1290q0 64 45.5 109t108.5 45
t108 -45t45 -109q0 -67 -44.5 -112t-108.5 -45t-109 45t-45 112z" />
    <glyph glyph-name="eth" unicode="&#xf0;" horiz-adv-x="1218" 
d="M719 1096q-33 -3 -33 28v136q0 29 29 32l114 15v127q0 13 8.5 21.5t22.5 8.5h252q14 0 23.5 -8.5t9.5 -21.5v-91l41 5q33 3 33 -29v-135q0 -30 -29 -33l-45 -6v-1114q0 -13 -10.5 -22t-24.5 -9h-225q-14 0 -23.5 9t-9.5 22l-4 98q-109 -154 -313 -154
q-207 0 -339.5 150.5t-132.5 376.5q0 225 132.5 375.5t339.5 150.5q188 0 294 -125v205zM369 502q0 -109 66 -175.5t167 -66.5q103 0 167.5 67t64.5 177q0 107 -64.5 173t-167.5 66q-101 0 -167 -67t-66 -174z" />
    <glyph glyph-name="ntilde" unicode="&#xf1;" 
d="M145 0q-13 0 -21.5 8.5t-8.5 22.5v942q0 14 8.5 22.5t21.5 8.5h242q31 0 31 -33l10 -117q97 174 293 174q160 0 261 -111.5t101 -304.5v-581q0 -13 -9 -22t-23 -9h-248q-14 0 -23.5 9t-9.5 22v508q0 202 -168 202q-83 0 -128.5 -51.5t-45.5 -150.5v-508q0 -13 -9.5 -22
t-23.5 -9h-250zM219 1257q3 108 66.5 165t156.5 57q45 0 83 -14.5t63 -35.5t47 -42t46.5 -35.5t51.5 -14.5q71 0 82 56q3 16 23 16h125q20 0 20 -20q-3 -112 -66.5 -170t-156.5 -58q-45 0 -83 14.5t-63 35.5t-47 42t-46.5 35.5t-51.5 14.5q-71 0 -82 -56q-3 -16 -22 -16
h-125q-21 0 -21 26z" />
    <glyph glyph-name="ograve" unicode="&#xf2;" horiz-adv-x="1179" 
d="M590 -25q-226 0 -376.5 151.5t-150.5 375.5t150.5 375t376.5 151t377 -151t151 -375t-151 -375.5t-377 -151.5zM315 1399q-9 13 -1.5 24t24.5 11h182q24 0 41 -25l158 -233q9 -14 3.5 -24.5t-22.5 -10.5h-184q-25 0 -41 24zM365 502q0 -108 64 -174t161 -66t161 66
t64 174t-64 173.5t-161 65.5t-161 -65.5t-64 -173.5z" />
    <glyph glyph-name="oacute" unicode="&#xf3;" horiz-adv-x="1179" 
d="M590 -25q-226 0 -376.5 151.5t-150.5 375.5t150.5 375t376.5 151t377 -151t151 -375t-151 -375.5t-377 -151.5zM365 502q0 -108 64 -174t161 -66t161 66t64 174t-64 173.5t-161 65.5t-161 -65.5t-64 -173.5zM463 1176l160 233q17 25 39 25h182q17 0 24 -11t-2 -24
l-161 -234q-16 -24 -39 -24h-185q-17 0 -22 10.5t4 24.5z" />
    <glyph glyph-name="ocircumflex" unicode="&#xf4;" horiz-adv-x="1179" 
d="M590 -25q-226 0 -376.5 151.5t-150.5 375.5t150.5 375t376.5 151t377 -151t151 -375t-151 -375.5t-377 -151.5zM268 1192l189 225q14 17 35 17h198q21 0 35 -17l188 -225q13 -14 9 -27.5t-23 -13.5h-164q-24 0 -37 16l-106 131l-109 -131q-13 -16 -37 -16h-163
q-20 0 -24 13.5t9 27.5zM365 502q0 -108 64 -174t161 -66t161 66t64 174t-64 173.5t-161 65.5t-161 -65.5t-64 -173.5z" />
    <glyph glyph-name="otilde" unicode="&#xf5;" horiz-adv-x="1179" 
d="M590 -25q-226 0 -376.5 151.5t-150.5 375.5t150.5 375t376.5 151t377 -151t151 -375t-151 -375.5t-377 -151.5zM207 1257q3 108 66.5 165t156.5 57q45 0 83 -14.5t63 -35.5t47 -42t46.5 -35.5t51.5 -14.5q71 0 82 56q3 16 22 16h125q21 0 21 -20q-3 -112 -66.5 -170
t-156.5 -58q-45 0 -83 14.5t-63 35.5t-47 42t-46.5 35.5t-51.5 14.5q-71 0 -82 -56q-3 -16 -23 -16h-125q-20 0 -20 26zM365 502q0 -108 64 -174t161 -66t161 66t64 174t-64 173.5t-161 65.5t-161 -65.5t-64 -173.5z" />
    <glyph glyph-name="odieresis" unicode="&#xf6;" horiz-adv-x="1179" 
d="M590 -25q-226 0 -376.5 151.5t-150.5 375.5t150.5 375t376.5 151t377 -151t151 -375t-151 -375.5t-377 -151.5zM201 1290q0 64 45 109t108 45t108.5 -45t45.5 -109q0 -67 -45 -112t-109 -45t-108.5 45t-44.5 112zM365 502q0 -108 64 -174t161 -66t161 66t64 174
t-64 173.5t-161 65.5t-161 -65.5t-64 -173.5zM670 1290q0 64 45 109t108 45t108.5 -45t45.5 -109q0 -67 -45 -112t-109 -45t-108.5 45t-44.5 112z" />
    <glyph glyph-name="divide" unicode="&#xf7;" horiz-adv-x="1058" 
d="M164 471q-14 0 -22.5 8.5t-8.5 22.5v166q0 13 8.5 21.5t22.5 8.5h731q14 0 22.5 -8.5t8.5 -21.5v-166q0 -14 -9 -22.5t-22 -8.5h-731zM387 229q0 59 40.5 100.5t98.5 41.5q57 0 97.5 -41.5t40.5 -100.5q0 -57 -40.5 -97t-97.5 -40q-58 0 -98.5 40t-40.5 97zM387 952
q0 59 40.5 100.5t98.5 41.5q57 0 97.5 -41.5t40.5 -100.5q0 -57 -40.5 -97t-97.5 -40q-58 0 -98.5 40t-40.5 97z" />
    <glyph glyph-name="oslash" unicode="&#xf8;" horiz-adv-x="1179" 
d="M262 -143q-15 0 -21 10t1 27l69 157q-115 68 -181.5 187t-66.5 264q0 224 150.5 375t376.5 151q76 0 147 -18l49 110q10 23 37 23h97q16 0 22.5 -10t-0.5 -27l-70 -156q114 -68 180 -186.5t66 -261.5q0 -224 -151 -375.5t-377 -151.5q-73 0 -144 19l-51 -115
q-10 -22 -35 -22h-98zM365 502q0 -111 67 -178l186 415q-10 2 -28 2q-97 0 -161 -65.5t-64 -173.5zM567 264q6 -2 23 -2q97 0 161 66t64 174t-63 174z" />
    <glyph glyph-name="ugrave" unicode="&#xf9;" 
d="M475 -25q-160 0 -260 111.5t-100 304.5v582q0 14 8.5 22.5t21.5 8.5h250q14 0 23.5 -9t9.5 -22v-508q0 -203 168 -203q81 0 127.5 52.5t46.5 150.5v508q0 13 9.5 22t23.5 9h248q14 0 23 -9t9 -22v-942q0 -13 -9 -22t-23 -9h-240q-30 0 -33 33l-8 117q-98 -175 -295 -175z
M330 1399q-9 13 -2 24t24 11h183q23 0 40 -25l158 -233q9 -14 4 -24.5t-22 -10.5h-185q-25 0 -41 24z" />
    <glyph glyph-name="uacute" unicode="&#xfa;" 
d="M475 -25q-160 0 -260 111.5t-100 304.5v582q0 14 8.5 22.5t21.5 8.5h250q14 0 23.5 -9t9.5 -22v-508q0 -203 168 -203q81 0 127.5 52.5t46.5 150.5v508q0 13 9.5 22t23.5 9h248q14 0 23 -9t9 -22v-942q0 -13 -9 -22t-23 -9h-240q-30 0 -33 33l-8 117q-98 -175 -295 -175z
M475 1176l160 233q17 25 39 25h182q17 0 24.5 -11t-1.5 -24l-162 -234q-16 -24 -39 -24h-184q-17 0 -22.5 10.5t3.5 24.5z" />
    <glyph glyph-name="ucircumflex" unicode="&#xfb;" 
d="M475 -25q-160 0 -260 111.5t-100 304.5v582q0 14 8.5 22.5t21.5 8.5h250q14 0 23.5 -9t9.5 -22v-508q0 -203 168 -203q81 0 127.5 52.5t46.5 150.5v508q0 13 9.5 22t23.5 9h248q14 0 23 -9t9 -22v-942q0 -13 -9 -22t-23 -9h-240q-30 0 -33 33l-8 117q-98 -175 -295 -175z
M281 1192l188 225q14 17 35 17h198q21 0 35 -17l189 -225q13 -14 9 -27.5t-24 -13.5h-163q-24 0 -37 16l-107 131l-108 -131q-13 -16 -37 -16h-164q-19 0 -23 13.5t9 27.5z" />
    <glyph glyph-name="udieresis" unicode="&#xfc;" 
d="M475 -25q-160 0 -260 111.5t-100 304.5v582q0 14 8.5 22.5t21.5 8.5h250q14 0 23.5 -9t9.5 -22v-508q0 -203 168 -203q81 0 127.5 52.5t46.5 150.5v508q0 13 9.5 22t23.5 9h248q14 0 23 -9t9 -22v-942q0 -13 -9 -22t-23 -9h-240q-30 0 -33 33l-8 117q-98 -175 -295 -175z
M215 1290q0 64 45.5 109t108.5 45t108 -45t45 -109q0 -67 -44.5 -112t-108.5 -45t-109 45t-45 112zM684 1290q0 64 45.5 109t108.5 45t108 -45t45 -109q0 -67 -44.5 -112t-108.5 -45t-109 45t-45 112z" />
    <glyph glyph-name="yacute" unicode="&#xfd;" horiz-adv-x="1187" 
d="M322 -389q-42 0 -27 37l147 350l-389 971q-12 35 27 35h254q30 0 39 -25l221 -614l221 614q9 25 39 25h254q39 0 27 -35l-533 -1334q-9 -24 -37 -24h-243zM465 1176l160 233q17 25 39 25h182q17 0 24 -11t-2 -24l-161 -234q-16 -24 -39 -24h-185q-17 0 -22 10.5t4 24.5z
" />
    <glyph glyph-name="thorn" unicode="&#xfe;" horiz-adv-x="1257" 
d="M145 -389q-13 0 -21.5 8.5t-8.5 22.5v1792q0 14 8.5 22t21.5 8h252q14 0 23.5 -8.5t9.5 -21.5v-531q105 128 291 125q139 0 248 -69.5t168 -189t59 -267.5q0 -149 -59 -269t-167.5 -189t-246.5 -69q-183 0 -293 127v-460q0 -13 -9.5 -22t-23.5 -9h-252zM426 504
q0 -110 63.5 -177t165.5 -67q101 0 167.5 66.5t66.5 175.5q0 107 -66.5 174t-167.5 67q-102 0 -165.5 -66t-63.5 -173z" />
    <glyph glyph-name="ydieresis" unicode="&#xff;" horiz-adv-x="1187" 
d="M322 -389q-42 0 -27 37l147 350l-389 971q-12 35 27 35h254q30 0 39 -25l221 -614l221 614q9 25 39 25h254q39 0 27 -35l-533 -1334q-9 -24 -37 -24h-243zM203 1290q0 64 45 109t108 45t108.5 -45t45.5 -109q0 -67 -45 -112t-109 -45t-108.5 45t-44.5 112zM672 1290
q0 64 45 109t108 45t108.5 -45t45.5 -109q0 -67 -45 -112t-109 -45t-108.5 45t-44.5 112z" />
    <glyph glyph-name="Amacron" unicode="&#x100;" horiz-adv-x="1433" 
d="M90 0q-17 0 -25 10t-2 25l476 1374q9 25 39 25h278q30 0 39 -25l475 -1374q6 -15 -0.5 -25t-23.5 -10h-275q-27 0 -35 25l-61 192h-516l-62 -192q-8 -25 -35 -25h-272zM369 1653v180q0 14 8.5 22.5t21.5 8.5h637q14 0 22.5 -9t8.5 -22v-180q0 -13 -8.5 -22t-22.5 -9h-637
q-13 0 -21.5 8.5t-8.5 22.5zM551 504h332l-166 518z" />
    <glyph glyph-name="amacron" unicode="&#x101;" horiz-adv-x="1257" 
d="M535 -25q-207 0 -339.5 150.5t-132.5 376.5q0 225 132.5 375.5t339.5 150.5t313 -151l4 96q0 13 9.5 22t23.5 9h227q14 0 23.5 -9t9.5 -22v-942q0 -13 -10.5 -22t-24.5 -9h-225q-14 0 -23.5 9t-9.5 22l-4 98q-109 -154 -313 -154zM272 1223v180q0 13 9 22t22 9h637
q14 0 22.5 -9t8.5 -22v-180q0 -13 -8.5 -22t-22.5 -9h-637q-13 0 -22 9t-9 22zM369 502q0 -109 66 -175.5t167 -66.5q103 0 167.5 67t64.5 177q0 107 -64.5 173t-167.5 66q-101 0 -167 -67t-66 -174z" />
    <glyph glyph-name="Abreve" unicode="&#x102;" horiz-adv-x="1433" 
d="M90 0q-17 0 -25 10t-2 25l476 1374q9 25 39 25h278q30 0 39 -25l475 -1374q6 -15 -0.5 -25t-23.5 -10h-275q-27 0 -35 25l-61 192h-516l-62 -192q-8 -25 -35 -25h-272zM385 1833q-3 31 29 31h127q29 0 32 -29q7 -42 42.5 -72t101.5 -30t100 29.5t41 72.5q3 29 33 29h127
q32 0 29 -31q-6 -120 -93.5 -194t-236.5 -74t-237.5 74t-94.5 194zM551 504h332l-166 518z" />
    <glyph glyph-name="abreve" unicode="&#x103;" horiz-adv-x="1257" 
d="M535 -25q-207 0 -339.5 150.5t-132.5 376.5q0 225 132.5 375.5t339.5 150.5t313 -151l4 96q0 13 9.5 22t23.5 9h227q14 0 23.5 -9t9.5 -22v-942q0 -13 -10.5 -22t-24.5 -9h-225q-14 0 -23.5 9t-9.5 22l-4 98q-109 -154 -313 -154zM291 1403q-3 31 28 31h127q30 0 33 -29
q7 -42 42.5 -72t101.5 -30t100 29.5t41 72.5q3 29 33 29h127q31 0 28 -31q-6 -120 -93 -194t-236 -74t-237.5 74t-94.5 194zM369 502q0 -109 66 -175.5t167 -66.5q103 0 167.5 67t64.5 177q0 107 -64.5 173t-167.5 66q-101 0 -167 -67t-66 -174z" />
    <glyph glyph-name="Aogonek" unicode="&#x104;" horiz-adv-x="1433" 
d="M90 0q-17 0 -25 10t-2 25l476 1374q9 25 39 25h278q30 0 39 -25l475 -1374q6 -15 -0.5 -25t-23.5 -10h-19q-83 0 -128.5 -44.5t-45.5 -96.5q0 -40 28.5 -62t92.5 -10v-193q-47 -21 -110 -21.5t-122.5 18.5t-101 71t-41.5 127q0 141 137 234v2l-61 192h-516l-62 -192
q-8 -25 -35 -25h-272zM551 504h332l-166 518z" />
    <glyph glyph-name="aogonek" unicode="&#x105;" horiz-adv-x="1257" 
d="M1063 -406q-47 -21 -110 -21.5t-122.5 18.5t-101 71t-41.5 127q0 153 164 250l-4 90q-109 -154 -313 -154q-207 0 -339.5 150.5t-132.5 376.5q0 225 132.5 375.5t339.5 150.5t313 -151l4 96q0 13 9.5 22t23.5 9h227q14 0 23.5 -9t9.5 -22v-942q0 -13 -10.5 -22t-24.5 -9
h-8q-75 -1 -117.5 -46t-42.5 -95q0 -40 28.5 -62t92.5 -10v-193zM369 502q0 -109 66 -175.5t167 -66.5q103 0 167.5 67t64.5 177q0 107 -64.5 173t-167.5 66q-101 0 -167 -67t-66 -174z" />
    <glyph glyph-name="Cacute" unicode="&#x106;" horiz-adv-x="1431" 
d="M834 -27q-150 0 -286.5 56.5t-236 153.5t-158.5 235t-59 293q0 207 100 377t269.5 266t370.5 96q299 0 505 -213q19 -19 0 -41l-163 -174q-18 -22 -43 -4q-131 115 -297 115q-178 0 -296 -120t-118 -302q0 -181 118.5 -300.5t295.5 -119.5q166 0 297 115q24 17 43 -5
l163 -174q19 -22 0 -41q-206 -213 -505 -213zM690 1606l160 233q17 25 39 25h182q17 0 24.5 -11t-1.5 -24l-162 -234q-16 -24 -39 -24h-184q-17 0 -22.5 10.5t3.5 24.5z" />
    <glyph glyph-name="cacute" unicode="&#x107;" horiz-adv-x="1050" 
d="M596 -25q-229 0 -381 153t-152 380q0 222 149.5 371t375.5 149q123 0 223 -48.5t166 -135.5q9 -9 8 -21.5t-10 -21.5l-141 -135q-12 -12 -28 -12.5t-28 10.5q-77 77 -176 77q-108 0 -172.5 -66.5t-64.5 -166.5q0 -103 65.5 -174.5t175.5 -71.5q92 0 176 78q10 11 26 10.5
t28 -12.5l141 -135q21 -21 2 -43q-66 -87 -165 -136t-218 -49zM430 1176l160 233q17 25 39 25h182q17 0 24.5 -11t-1.5 -24l-162 -234q-16 -24 -39 -24h-184q-17 0 -22.5 10.5t3.5 24.5z" />
    <glyph glyph-name="Ccircumflex" unicode="&#x108;" horiz-adv-x="1431" 
d="M834 -27q-150 0 -286.5 56.5t-236 153.5t-158.5 235t-59 293q0 207 100 377t269.5 266t370.5 96q299 0 505 -213q19 -19 0 -41l-163 -174q-18 -22 -43 -4q-131 115 -297 115q-178 0 -296 -120t-118 -302q0 -181 118.5 -300.5t295.5 -119.5q166 0 297 115q24 17 43 -5
l163 -174q19 -22 0 -41q-206 -213 -505 -213zM496 1622l188 225q14 17 35 17h199q20 0 34 -17l189 -225q13 -14 9 -27.5t-24 -13.5h-163q-24 0 -37 16l-107 132l-108 -132q-13 -16 -37 -16h-164q-19 0 -23 13.5t9 27.5z" />
    <glyph glyph-name="ccircumflex" unicode="&#x109;" horiz-adv-x="1050" 
d="M596 -25q-229 0 -381 153t-152 380q0 222 149.5 371t375.5 149q123 0 223 -48.5t166 -135.5q9 -9 8 -21.5t-10 -21.5l-141 -135q-12 -12 -28 -12.5t-28 10.5q-77 77 -176 77q-108 0 -172.5 -66.5t-64.5 -166.5q0 -103 65.5 -174.5t175.5 -71.5q92 0 176 78q10 11 26 10.5
t28 -12.5l141 -135q21 -21 2 -43q-66 -87 -165 -136t-218 -49zM233 1192l189 225q14 17 35 17h198q21 0 35 -17l189 -225q13 -14 9 -27.5t-24 -13.5h-164q-23 0 -36 16l-107 131l-108 -131q-13 -16 -37 -16h-164q-20 0 -24 13.5t9 27.5z" />
    <glyph glyph-name="Cdotaccent" unicode="&#x10a;" horiz-adv-x="1431" 
d="M834 -27q-150 0 -286.5 56.5t-236 153.5t-158.5 235t-59 293q0 207 100 377t269.5 266t370.5 96q299 0 505 -213q19 -19 0 -41l-163 -174q-18 -22 -43 -4q-131 115 -297 115q-178 0 -296 -120t-118 -302q0 -181 118.5 -300.5t295.5 -119.5q166 0 297 115q24 17 43 -5
l163 -174q19 -22 0 -41q-206 -213 -505 -213zM647 1724q0 73 48.5 122.5t121.5 49.5q74 0 123 -49.5t49 -122.5q0 -71 -49 -120.5t-123 -49.5q-73 0 -121.5 49.5t-48.5 120.5z" />
    <glyph glyph-name="cdotaccent" unicode="&#x10b;" horiz-adv-x="1050" 
d="M596 -25q-229 0 -381 153t-152 380q0 222 149.5 371t375.5 149q123 0 223 -48.5t166 -135.5q9 -9 8 -21.5t-10 -21.5l-141 -135q-12 -12 -28 -12.5t-28 10.5q-77 77 -176 77q-108 0 -172.5 -66.5t-64.5 -166.5q0 -103 65.5 -174.5t175.5 -71.5q92 0 176 78q10 11 26 10.5
t28 -12.5l141 -135q21 -21 2 -43q-66 -87 -165 -136t-218 -49zM385 1294q0 73 48.5 122.5t121.5 49.5q74 0 123 -49.5t49 -122.5q0 -71 -49 -120.5t-123 -49.5q-73 0 -121.5 49.5t-48.5 120.5z" />
    <glyph glyph-name="Ccaron" unicode="&#x10c;" horiz-adv-x="1431" 
d="M834 -27q-150 0 -286.5 56.5t-236 153.5t-158.5 235t-59 293q0 207 100 377t269.5 266t370.5 96q299 0 505 -213q19 -19 0 -41l-163 -174q-18 -22 -43 -4q-131 115 -297 115q-178 0 -296 -120t-118 -302q0 -181 118.5 -300.5t295.5 -119.5q166 0 297 115q24 17 43 -5
l163 -174q19 -22 0 -41q-206 -213 -505 -213zM496 1827q-13 13 -9.5 26t23.5 13h164q23 0 37 -17l108 -129l107 129q14 17 37 17h163q20 0 24 -13t-9 -26l-189 -225q-14 -17 -34 -17h-199q-21 0 -35 17z" />
    <glyph glyph-name="ccaron" unicode="&#x10d;" horiz-adv-x="1050" 
d="M596 -25q-229 0 -381 153t-152 380q0 222 149.5 371t375.5 149q123 0 223 -48.5t166 -135.5q9 -9 8 -21.5t-10 -21.5l-141 -135q-12 -12 -28 -12.5t-28 10.5q-77 77 -176 77q-108 0 -172.5 -66.5t-64.5 -166.5q0 -103 65.5 -174.5t175.5 -71.5q92 0 176 78q10 11 26 10.5
t28 -12.5l141 -135q21 -21 2 -43q-66 -87 -165 -136t-218 -49zM233 1397q-13 13 -9 26t24 13h164q23 0 37 -17l108 -129l107 129q14 17 36 17h164q20 0 24 -13t-9 -26l-189 -226q-13 -16 -35 -16h-198q-22 0 -35 16z" />
    <glyph glyph-name="Dcaron" unicode="&#x10e;" horiz-adv-x="1425" 
d="M166 0q-14 0 -22.5 9t-8.5 22v1372q0 13 8.5 22t22.5 9h444q175 0 315.5 -55.5t231 -153t138.5 -227.5t48 -281t-48 -281t-138.5 -227.5t-231 -153t-315.5 -55.5h-444zM373 1827q-13 13 -9.5 26t23.5 13h164q23 0 37 -17l108 -129l107 129q14 17 37 17h164q20 0 23.5 -13
t-9.5 -26l-189 -225q-14 -17 -34 -17h-199q-21 0 -35 17zM459 287h147q200 0 304 110t104 320t-104 320t-304 110h-147v-860z" />
    <glyph glyph-name="dcaron" unicode="&#x10f;" horiz-adv-x="1402" 
d="M535 -25q-207 0 -339.5 150.5t-132.5 376.5q0 225 132.5 375.5t339.5 150.5q188 0 294 -125v531q0 13 8.5 21.5t22.5 8.5h252q14 0 23.5 -8.5t9.5 -21.5v-1403q0 -13 -10.5 -22t-24.5 -9h-225q-14 0 -23.5 9t-9.5 22l-4 98q-109 -154 -313 -154zM369 502
q0 -109 66 -175.5t167 -66.5q103 0 167.5 67t64.5 177q0 107 -64.5 173t-167.5 66q-101 0 -167 -67t-66 -174zM1223 1149l159 233q17 25 39 25h183q17 0 24 -10.5t-2 -24.5l-162 -233q-17 -25 -39 -25h-184q-17 0 -22 11t4 24z" />
    <glyph glyph-name="Dcroat" unicode="&#x110;" horiz-adv-x="1441" 
d="M182 0q-13 0 -21.5 8.5t-8.5 22.5v551h-70q-14 0 -22.5 8.5t-8.5 21.5v181q0 13 8.5 21.5t22.5 8.5h70v580q0 14 8.5 22.5t21.5 8.5h445q175 0 315.5 -55.5t231 -153t138.5 -227.5t48 -281t-48 -281t-138.5 -227.5t-231 -153t-315.5 -55.5h-445zM475 287h148
q200 0 303.5 110t103.5 320t-103.5 320t-303.5 110h-148v-324h244q14 0 22.5 -8.5t8.5 -21.5v-181q0 -13 -8.5 -21.5t-22.5 -8.5h-244v-295z" />
    <glyph glyph-name="dcroat" unicode="&#x111;" horiz-adv-x="1275" 
d="M535 -25q-207 0 -339.5 150.5t-132.5 376.5q0 225 132.5 375.5t339.5 150.5q188 0 294 -125v184h-251q-14 0 -22.5 8.5t-8.5 22.5v180q0 14 8.5 22.5t22.5 8.5h251v105q0 13 8.5 21.5t22.5 8.5h252q14 0 23.5 -8.5t9.5 -21.5v-105h69q14 0 22.5 -8.5t8.5 -22.5v-180
q0 -14 -8.5 -22.5t-22.5 -8.5h-69v-1056q0 -13 -10.5 -22t-24.5 -9h-225q-14 0 -23.5 9t-9.5 22l-4 98q-109 -154 -313 -154zM369 502q0 -109 66 -175.5t167 -66.5q103 0 167.5 67t64.5 177q0 107 -64.5 173t-167.5 66q-101 0 -167 -67t-66 -174z" />
    <glyph glyph-name="Emacron" unicode="&#x112;" horiz-adv-x="1048" 
d="M166 0q-14 0 -22.5 9t-8.5 22v1372q0 13 8.5 22t22.5 9h739q13 0 22 -9t9 -22v-225q0 -14 -9 -22.5t-22 -8.5h-446v-281h420q13 0 21.5 -8t8.5 -22v-226q0 -14 -8.5 -22t-21.5 -8h-420v-293h444q14 0 23.5 -9t9.5 -22v-225q0 -13 -9.5 -22t-23.5 -9h-737zM211 1653v180
q0 13 8.5 22t22.5 9h637q13 0 21.5 -8.5t8.5 -22.5v-180q0 -14 -8.5 -22.5t-21.5 -8.5h-637q-14 0 -22.5 9t-8.5 22z" />
    <glyph glyph-name="emacron" unicode="&#x113;" horiz-adv-x="1126" 
d="M616 -25q-245 0 -399 150t-154 381q0 224 144 373t373 149q112 0 205 -39t153.5 -105t93.5 -153t33 -184q0 -82 -26.5 -123t-92.5 -41h-577q52 -162 272 -162q123 0 221 55q20 10 37 -10l84 -119q15 -23 -10 -45q-127 -127 -357 -127zM227 1223v180q0 13 8.5 22t22.5 9
h637q13 0 22 -9t9 -22v-180q0 -13 -9 -22t-22 -9h-637q-14 0 -22.5 9t-8.5 22zM365 600h421q-14 87 -68 128.5t-136 41.5t-140.5 -42.5t-76.5 -127.5z" />
    <glyph glyph-name="Edotaccent" unicode="&#x116;" horiz-adv-x="1048" 
d="M166 0q-14 0 -22.5 9t-8.5 22v1372q0 13 8.5 22t22.5 9h739q13 0 22 -9t9 -22v-225q0 -14 -9 -22.5t-22 -8.5h-446v-281h420q13 0 21.5 -8t8.5 -22v-226q0 -14 -8.5 -22t-21.5 -8h-420v-293h444q14 0 23.5 -9t9.5 -22v-225q0 -13 -9.5 -22t-23.5 -9h-737zM389 1724
q0 73 48.5 122.5t121.5 49.5q74 0 123 -49.5t49 -122.5q0 -71 -49 -120.5t-123 -49.5q-73 0 -121.5 49.5t-48.5 120.5z" />
    <glyph glyph-name="edotaccent" unicode="&#x117;" horiz-adv-x="1126" 
d="M616 -25q-245 0 -399 150t-154 381q0 224 144 373t373 149q112 0 205 -39t153.5 -105t93.5 -153t33 -184q0 -82 -26.5 -123t-92.5 -41h-577q52 -162 272 -162q123 0 221 55q20 10 37 -10l84 -119q15 -23 -10 -45q-127 -127 -357 -127zM365 600h421q-14 87 -68 128.5
t-136 41.5t-140.5 -42.5t-76.5 -127.5zM406 1294q0 73 48 122.5t121 49.5q74 0 123.5 -49.5t49.5 -122.5q0 -71 -49.5 -120.5t-123.5 -49.5q-73 0 -121 49.5t-48 120.5z" />
    <glyph glyph-name="Eogonek" unicode="&#x118;" horiz-adv-x="1048" 
d="M166 0q-14 0 -22.5 9t-8.5 22v1372q0 13 8.5 22t22.5 9h739q13 0 22 -9t9 -22v-225q0 -14 -9 -22.5t-22 -8.5h-446v-281h420q13 0 21.5 -8t8.5 -22v-226q0 -14 -8.5 -22t-21.5 -8h-420v-293h444q14 0 23.5 -9t9.5 -22v-225q0 -13 -9.5 -22t-23.5 -9q-83 0 -128.5 -44.5
t-45.5 -96.5q0 -40 28.5 -62t92.5 -10v-193q-47 -21 -110 -21.5t-122.5 18.5t-101 71t-41.5 127q0 123 109 211h-418z" />
    <glyph glyph-name="eogonek" unicode="&#x119;" horiz-adv-x="1126" 
d="M780 -406q-37 -16 -85.5 -21t-99 5.5t-93 34t-69.5 69.5t-27 107q0 113 94 197q-198 35 -317.5 177t-119.5 343q0 224 144 373t373 149q112 0 205 -39t153.5 -105t93.5 -153t33 -184q0 -82 -26.5 -123t-92.5 -41h-577q52 -162 272 -162q123 0 221 55q20 10 37 -10
l84 -119q15 -23 -10 -45q-70 -70 -172 -100q-142 -59 -142 -143q0 -39 28.5 -61.5t92.5 -10.5v-193zM365 600h421q-14 87 -68 128.5t-136 41.5t-140.5 -42.5t-76.5 -127.5z" />
    <glyph glyph-name="Ecaron" unicode="&#x11a;" horiz-adv-x="1048" 
d="M166 0q-14 0 -22.5 9t-8.5 22v1372q0 13 8.5 22t22.5 9h739q13 0 22 -9t9 -22v-225q0 -14 -9 -22.5t-22 -8.5h-446v-281h420q13 0 21.5 -8t8.5 -22v-226q0 -14 -8.5 -22t-21.5 -8h-420v-293h444q14 0 23.5 -9t9.5 -22v-225q0 -13 -9.5 -22t-23.5 -9h-737zM238 1827
q-13 13 -9.5 26t23.5 13h164q23 0 37 -17l108 -129l107 129q14 17 37 17h163q20 0 24 -13t-9 -26l-189 -225q-14 -17 -35 -17h-198q-21 0 -35 17z" />
    <glyph glyph-name="ecaron" unicode="&#x11b;" horiz-adv-x="1126" 
d="M616 -25q-245 0 -399 150t-154 381q0 224 144 373t373 149q112 0 205 -39t153.5 -105t93.5 -153t33 -184q0 -82 -26.5 -123t-92.5 -41h-577q52 -162 272 -162q123 0 221 55q20 10 37 -10l84 -119q15 -23 -10 -45q-127 -127 -357 -127zM254 1397q-13 13 -9.5 26t23.5 13
h164q23 0 37 -17l109 -129l106 129q14 17 37 17h164q20 0 23.5 -13t-9.5 -26l-188 -226q-13 -16 -35 -16h-199q-22 0 -35 16zM365 600h421q-14 87 -68 128.5t-136 41.5t-140.5 -42.5t-76.5 -127.5z" />
    <glyph glyph-name="Gcircumflex" unicode="&#x11c;" horiz-adv-x="1570" 
d="M840 -27q-153 0 -291 56.5t-238 154t-158.5 235t-58.5 292.5q0 207 99 377t268 266t370 96q303 0 502 -205q24 -28 -2 -57l-151 -162q-23 -26 -50 -6q-130 113 -296 113q-176 0 -294 -120t-118 -302q0 -183 120.5 -301.5t307.5 -118.5q149 0 238.5 72.5t95.5 179.5h-338
q-13 0 -22 9t-9 23v224q0 13 8.5 21.5t22.5 8.5h620q14 0 22.5 -8.5t8.5 -21.5v-148q0 -140 -45.5 -263.5t-128.5 -215.5t-208 -145.5t-275 -53.5zM506 1622l188 225q14 17 35 17h199q21 0 35 -17l188 -225q13 -14 9 -27.5t-23 -13.5h-164q-24 0 -37 16l-107 132l-108 -132
q-13 -16 -37 -16h-164q-19 0 -23 13.5t9 27.5z" />
    <glyph glyph-name="gcircumflex" unicode="&#x11d;" horiz-adv-x="1241" 
d="M592 -420q-245 0 -402 121q-15 10 -17 28t7 33l64 125q20 39 55 19q138 -72 262 -72q52 0 96.5 11.5t84 36t62.5 70t23 107.5v95q-97 -131 -297 -131q-210 0 -338.5 139.5t-128.5 363.5q0 222 129 362t340 140q200 0 297 -133l7 78q0 14 8.5 22.5t21.5 8.5h230
q13 0 21.5 -8.5t8.5 -22.5v-914q0 -107 -32.5 -192t-85 -137.5t-123.5 -87t-143 -48.5t-150 -14zM299 1192l188 225q14 17 35 17h199q21 0 35 -17l188 -225q13 -14 9 -27.5t-23 -13.5h-164q-24 0 -37 16l-106 131l-109 -131q-13 -16 -37 -16h-164q-19 0 -23 13.5t9 27.5z
M369 526q0 -101 62.5 -162t162.5 -61q98 0 159.5 60.5t61.5 162.5q0 100 -61.5 161t-159.5 61q-99 0 -162 -61t-63 -161z" />
    <glyph glyph-name="Gbreve" unicode="&#x11e;" horiz-adv-x="1570" 
d="M840 -27q-153 0 -291 56.5t-238 154t-158.5 235t-58.5 292.5q0 207 99 377t268 266t370 96q303 0 502 -205q24 -28 -2 -57l-151 -162q-23 -26 -50 -6q-130 113 -296 113q-176 0 -294 -120t-118 -302q0 -183 120.5 -301.5t307.5 -118.5q149 0 238.5 72.5t95.5 179.5h-338
q-13 0 -22 9t-9 23v224q0 13 8.5 21.5t22.5 8.5h620q14 0 22.5 -8.5t8.5 -21.5v-148q0 -140 -45.5 -263.5t-128.5 -215.5t-208 -145.5t-275 -53.5zM498 1833q-3 31 28 31h127q30 0 33 -29q7 -42 42 -72t101 -30t100.5 29.5t41.5 72.5q3 29 33 29h126q32 0 29 -31
q-6 -120 -93.5 -194t-236.5 -74t-237 74t-94 194z" />
    <glyph glyph-name="gbreve" unicode="&#x11f;" horiz-adv-x="1241" 
d="M592 -420q-245 0 -402 121q-15 10 -17 28t7 33l64 125q20 39 55 19q138 -72 262 -72q52 0 96.5 11.5t84 36t62.5 70t23 107.5v95q-97 -131 -297 -131q-210 0 -338.5 139.5t-128.5 363.5q0 222 129 362t340 140q200 0 297 -133l7 78q0 14 8.5 22.5t21.5 8.5h230
q13 0 21.5 -8.5t8.5 -22.5v-914q0 -107 -32.5 -192t-85 -137.5t-123.5 -87t-143 -48.5t-150 -14zM291 1403q-3 31 28 31h127q30 0 33 -29q7 -42 42.5 -72t101.5 -30t100 29.5t41 72.5q3 29 33 29h127q31 0 28 -31q-6 -120 -93 -194t-236 -74t-237.5 74t-94.5 194zM369 526
q0 -101 62.5 -162t162.5 -61q98 0 159.5 60.5t61.5 162.5q0 100 -61.5 161t-159.5 61q-99 0 -162 -61t-63 -161z" />
    <glyph glyph-name="Gdotaccent" unicode="&#x120;" horiz-adv-x="1570" 
d="M840 -27q-153 0 -291 56.5t-238 154t-158.5 235t-58.5 292.5q0 207 99 377t268 266t370 96q303 0 502 -205q24 -28 -2 -57l-151 -162q-23 -26 -50 -6q-130 113 -296 113q-176 0 -294 -120t-118 -302q0 -183 120.5 -301.5t307.5 -118.5q149 0 238.5 72.5t95.5 179.5h-338
q-13 0 -22 9t-9 23v224q0 13 8.5 21.5t22.5 8.5h620q14 0 22.5 -8.5t8.5 -21.5v-148q0 -140 -45.5 -263.5t-128.5 -215.5t-208 -145.5t-275 -53.5zM657 1724q0 73 48.5 122.5t121.5 49.5q74 0 123 -49.5t49 -122.5q0 -71 -49 -120.5t-123 -49.5q-73 0 -121.5 49.5
t-48.5 120.5z" />
    <glyph glyph-name="gdotaccent" unicode="&#x121;" horiz-adv-x="1241" 
d="M592 -420q-245 0 -402 121q-15 10 -17 28t7 33l64 125q20 39 55 19q138 -72 262 -72q52 0 96.5 11.5t84 36t62.5 70t23 107.5v95q-97 -131 -297 -131q-210 0 -338.5 139.5t-128.5 363.5q0 222 129 362t340 140q200 0 297 -133l7 78q0 14 8.5 22.5t21.5 8.5h230
q13 0 21.5 -8.5t8.5 -22.5v-914q0 -107 -32.5 -192t-85 -137.5t-123.5 -87t-143 -48.5t-150 -14zM369 526q0 -101 62.5 -162t162.5 -61q98 0 159.5 60.5t61.5 162.5q0 100 -61.5 161t-159.5 61q-99 0 -162 -61t-63 -161zM451 1294q0 73 48.5 122.5t121.5 49.5
q74 0 123 -49.5t49 -122.5q0 -71 -49 -120.5t-123 -49.5q-73 0 -121.5 49.5t-48.5 120.5z" />
    <glyph glyph-name="uni0122" unicode="&#x122;" horiz-adv-x="1570" 
d="M840 -27q-153 0 -291 56.5t-238 154t-158.5 235t-58.5 292.5q0 207 99 377t268 266t370 96q303 0 502 -205q24 -28 -2 -57l-151 -162q-23 -26 -50 -6q-130 113 -296 113q-176 0 -294 -120t-118 -302q0 -183 120.5 -301.5t307.5 -118.5q149 0 238.5 72.5t95.5 179.5h-338
q-13 0 -22 9t-9 23v224q0 13 8.5 21.5t22.5 8.5h620q14 0 22.5 -8.5t8.5 -21.5v-148q0 -140 -45.5 -263.5t-128.5 -215.5t-208 -145.5t-275 -53.5zM623 -238q0 75 55 129t131 54q83 0 143 -61.5t60 -180.5q0 -73 -25.5 -136t-66.5 -106t-91.5 -73t-102 -42.5t-97.5 -9.5v68
q90 -1 157 71q44 47 42 83q-2 22 -25 22q-73 0 -126.5 54t-53.5 128z" />
    <glyph glyph-name="uni0123" unicode="&#x123;" horiz-adv-x="1241" 
d="M592 -420q-245 0 -402 121q-15 10 -17 28t7 33l64 125q20 39 55 19q138 -72 262 -72q52 0 96.5 11.5t84 36t62.5 70t23 107.5v95q-97 -131 -297 -131q-210 0 -338.5 139.5t-128.5 363.5q0 222 129 362t340 140q200 0 297 -133l7 78q0 14 8.5 22.5t21.5 8.5h230
q13 0 21.5 -8.5t8.5 -22.5v-914q0 -107 -32.5 -192t-85 -137.5t-123.5 -87t-143 -48.5t-150 -14zM369 526q0 -101 62.5 -162t162.5 -61q98 0 159.5 60.5t61.5 162.5q0 100 -61.5 161t-159.5 61q-99 0 -162 -61t-63 -161zM432 1339q0 73 25.5 136t66.5 106t91.5 73t102 42.5
t97.5 9.5v-68q-90 1 -157 -71q-44 -47 -42 -83q2 -22 25 -22q73 0 126.5 -54t53.5 -128q0 -75 -54.5 -128.5t-131.5 -53.5q-83 0 -143 61t-60 180z" />
    <glyph glyph-name="Hcircumflex" unicode="&#x124;" horiz-adv-x="1409" 
d="M166 0q-14 0 -22.5 9t-8.5 22v1372q0 13 8.5 22t22.5 9h262q14 0 22.5 -9t8.5 -22v-557h491v557q0 13 9 22t22 9h262q14 0 23.5 -9t9.5 -22v-1372q0 -13 -9.5 -22t-23.5 -9h-262q-13 0 -22 9t-9 22v528h-491v-528q0 -13 -8.5 -22t-22.5 -9h-262zM381 1622l188 225
q14 17 35 17h199q21 0 35 -17l188 -225q13 -14 9 -27.5t-23 -13.5h-164q-24 0 -37 16l-106 132l-109 -132q-13 -16 -37 -16h-164q-19 0 -23 13.5t9 27.5z" />
    <glyph glyph-name="hcircumflex" unicode="&#x125;" 
d="M145 0q-13 0 -21.5 8.5t-8.5 22.5v1403q0 14 8.5 22t21.5 8h250q14 0 23.5 -8.5t9.5 -21.5v-580q97 174 293 174q160 0 261 -111.5t101 -304.5v-581q0 -13 -9 -22t-23 -9h-248q-14 0 -23.5 9t-9.5 22v508q0 202 -168 202q-83 0 -128.5 -51.5t-45.5 -150.5v-508
q0 -13 -9.5 -22t-23.5 -9h-250zM-59 1653l188 225q13 16 35 16h198q22 0 35 -16l189 -225q13 -13 9 -27t-24 -14h-163q-24 0 -37 16l-107 131l-108 -131q-13 -16 -37 -16h-164q-19 0 -23 14t9 27z" />
    <glyph glyph-name="Hbar" unicode="&#x126;" horiz-adv-x="1409" 
d="M166 0q-14 0 -22.5 9t-8.5 22v1372q0 13 8.5 22t22.5 9h262q14 0 22.5 -9t8.5 -22v-186h491v186q0 13 9 22t22 9h262q14 0 23.5 -9t9.5 -22v-1372q0 -13 -9.5 -22t-23.5 -9h-262q-13 0 -22 9t-9 22v528h-491v-528q0 -13 -8.5 -22t-22.5 -9h-262zM459 846h491v110h-491
v-110z" />
    <glyph glyph-name="hbar" unicode="&#x127;" horiz-adv-x="1220" 
d="M170 0q-14 0 -22.5 9t-8.5 22v1028h-78q-13 0 -21.5 8.5t-8.5 22.5v180q0 14 8.5 22t21.5 8h78v134q0 13 8.5 21.5t22.5 8.5h250q14 0 23.5 -8.5t9.5 -21.5v-134h245q14 0 22.5 -8.5t8.5 -21.5v-180q0 -14 -8.5 -22.5t-22.5 -8.5h-245v-205q97 174 292 174
q160 0 261.5 -111.5t101.5 -304.5v-581q0 -13 -9.5 -22t-23.5 -9h-248q-14 0 -23 9t-9 22v508q0 202 -168 202q-83 0 -128.5 -51.5t-45.5 -150.5v-508q0 -13 -9.5 -22t-23.5 -9h-250z" />
    <glyph glyph-name="Itilde" unicode="&#x128;" horiz-adv-x="593" 
d="M166 0q-14 0 -22.5 9t-8.5 22v1372q0 13 8.5 22t22.5 9h262q14 0 22.5 -9t8.5 -22v-1372q0 -13 -8.5 -22t-22.5 -9h-262zM-86 1688q3 108 66.5 164.5t156.5 56.5q45 0 83 -14.5t63 -35.5t47 -42t46.5 -35.5t51.5 -14.5q71 0 82 56q3 16 22 16h125q21 0 21 -20
q-3 -112 -66.5 -170t-156.5 -58q-45 0 -83 14.5t-63 35.5t-47 42t-46.5 35.5t-51.5 14.5q-71 0 -82 -56q-3 -16 -23 -16h-125q-20 0 -20 27z" />
    <glyph glyph-name="itilde" unicode="&#x129;" horiz-adv-x="534" 
d="M141 0q-13 0 -21.5 8.5t-8.5 22.5v942q0 14 8.5 22.5t21.5 8.5h252q14 0 23.5 -9t9.5 -22v-942q0 -13 -9.5 -22t-23.5 -9h-252zM-113 1257q3 108 67 165t157 57q45 0 83 -14.5t62.5 -35.5t46.5 -42t46.5 -35.5t51.5 -14.5q71 0 82 56q3 16 23 16h125q20 0 20 -20
q-3 -112 -66.5 -170t-156.5 -58q-45 0 -83 14.5t-63 35.5t-47 42t-46.5 35.5t-51.5 14.5q-71 0 -82 -56q-3 -16 -22 -16h-125q-21 0 -21 26z" />
    <glyph glyph-name="Imacron" unicode="&#x12a;" horiz-adv-x="593" 
d="M166 0q-14 0 -22.5 9t-8.5 22v1372q0 13 8.5 22t22.5 9h262q14 0 22.5 -9t8.5 -22v-1372q0 -13 -8.5 -22t-22.5 -9h-262zM-53 1653v180q0 14 8.5 22.5t21.5 8.5h637q14 0 22.5 -9t8.5 -22v-180q0 -13 -8.5 -22t-22.5 -9h-637q-13 0 -21.5 8.5t-8.5 22.5z" />
    <glyph glyph-name="imacron" unicode="&#x12b;" horiz-adv-x="534" 
d="M141 0q-13 0 -21.5 8.5t-8.5 22.5v942q0 14 8.5 22.5t21.5 8.5h252q14 0 23.5 -9t9.5 -22v-942q0 -13 -9.5 -22t-23.5 -9h-252zM-80 1223v180q0 13 9 22t22 9h637q13 0 21.5 -8.5t8.5 -22.5v-180q0 -14 -8.5 -22.5t-21.5 -8.5h-637q-13 0 -22 9t-9 22z" />
    <glyph glyph-name="Iogonek" unicode="&#x12e;" horiz-adv-x="593" 
d="M375 -406q-47 -21 -110 -21.5t-122.5 18.5t-101 71t-41.5 127q0 138 137 231q-2 4 -2 11v1372q0 13 8.5 22t22.5 9h262q14 0 22.5 -9t8.5 -22v-1372q0 -13 -8.5 -22t-22.5 -9q-83 0 -128.5 -44.5t-45.5 -96.5q0 -40 28.5 -62t92.5 -10v-193z" />
    <glyph glyph-name="iogonek" unicode="&#x12f;" horiz-adv-x="534" 
d="M268 1124q-73 0 -121.5 49.5t-48.5 120.5q0 73 48.5 122.5t121.5 49.5q74 0 123 -49.5t49 -122.5q0 -71 -49 -120.5t-123 -49.5zM-35 -211q0 144 146 238v4v942q0 14 8.5 22.5t21.5 8.5h252q14 0 23.5 -9t9.5 -22v-942q0 -13 -9.5 -22t-23.5 -9q-83 0 -128.5 -44.5
t-45.5 -96.5q0 -40 28.5 -62t92.5 -10v-193q-47 -21 -110 -21.5t-122.5 18.5t-101 71t-41.5 127z" />
    <glyph glyph-name="Idotaccent" unicode="&#x130;" horiz-adv-x="593" 
d="M166 0q-14 0 -22.5 9t-8.5 22v1372q0 13 8.5 22t22.5 9h262q14 0 22.5 -9t8.5 -22v-1372q0 -13 -8.5 -22t-22.5 -9h-262zM125 1724q0 73 48.5 122.5t121.5 49.5q74 0 123 -49.5t49 -122.5q0 -71 -49 -120.5t-123 -49.5q-73 0 -121.5 49.5t-48.5 120.5z" />
    <glyph glyph-name="dotlessi" unicode="&#x131;" horiz-adv-x="534" 
d="M141 0q-13 0 -21.5 8.5t-8.5 22.5v942q0 14 8.5 22.5t21.5 8.5h252q14 0 23.5 -9t9.5 -22v-942q0 -13 -9.5 -22t-23.5 -9h-252z" />
    <glyph glyph-name="IJ" unicode="&#x132;" horiz-adv-x="1734" 
d="M166 0q-14 0 -22.5 9t-8.5 22v1372q0 13 8.5 22t22.5 9h262q14 0 22.5 -9t8.5 -22v-1372q0 -13 -8.5 -22t-22.5 -9h-262zM688 184l137 183q8 9 21 10t24 -8q30 -23 47 -35t60 -27.5t90 -15.5q209 0 209 256v856q0 13 9.5 22t23.5 9h262q13 0 22 -9t9 -22v-840
q0 -146 -39 -260t-109.5 -185.5t-165.5 -108t-209 -36.5q-132 0 -231 45.5t-158 114.5q-9 10 -9.5 25.5t7.5 25.5z" />
    <glyph glyph-name="ij" unicode="&#x133;" horiz-adv-x="1112" 
d="M274 1163q-73 0 -122.5 50t-49.5 122q0 71 49.5 120.5t122.5 49.5t121.5 -49.5t48.5 -120.5q0 -73 -48.5 -122.5t-121.5 -49.5zM117 31v942q0 14 8.5 22.5t21.5 8.5h254q13 0 22 -9t9 -22v-942q0 -13 -9 -22t-22 -9h-254q-13 0 -21.5 8.5t-8.5 22.5zM449 -342v207
q0 18 26 14q70 -12 86 -12q67 0 93 30t26 87v989q0 13 9.5 22t23.5 9h252q14 0 23 -9t9 -22v-1030q0 -179 -94.5 -266t-267.5 -87q-99 0 -168 35q-18 9 -18 33zM668 1335q0 71 48.5 120.5t121.5 49.5t122.5 -49.5t49.5 -120.5q0 -72 -49.5 -122t-122.5 -50t-121.5 49.5
t-48.5 122.5z" />
    <glyph glyph-name="Jcircumflex" unicode="&#x134;" horiz-adv-x="1140" 
d="M485 -27q-132 0 -231 45.5t-158 114.5q-9 10 -9.5 25.5t7.5 25.5l137 183q8 9 21 10t24 -8q30 -23 47 -35t60 -27.5t90 -15.5q209 0 209 256v856q0 13 9.5 22t23.5 9h262q13 0 22 -9t9 -22v-840q0 -146 -39 -260t-109.5 -185.5t-165.5 -108t-209 -36.5zM522 1622l189 225
q14 17 34 17h199q21 0 35 -17l188 -225q13 -14 9 -27.5t-23 -13.5h-164q-24 0 -37 16l-106 132l-109 -132q-13 -16 -37 -16h-163q-20 0 -24 13.5t9 27.5z" />
    <glyph glyph-name="jcircumflex" unicode="&#x135;" horiz-adv-x="550" 
d="M86 -410q-99 0 -168 35q-18 9 -18 33v207q0 18 26 14q70 -12 86 -12q67 0 93 30t26 87v989q0 13 9.5 22t23.5 9h252q14 0 23.5 -9t9.5 -22v-1030q0 -179 -95 -266t-268 -87zM-37 1192l189 225q14 17 34 17h199q21 0 35 -17l188 -225q13 -14 9 -27.5t-23 -13.5h-164
q-24 0 -37 16l-106 131l-109 -131q-13 -16 -37 -16h-164q-19 0 -23 13.5t9 27.5z" />
    <glyph glyph-name="uni0136" unicode="&#x136;" horiz-adv-x="1392" 
d="M166 0q-14 0 -22.5 9t-8.5 22v1372q0 13 8.5 22t22.5 9h262q14 0 22.5 -9t8.5 -22v-598l446 612q14 17 37 17h320q19 0 22.5 -12t-6.5 -25l-473 -596l530 -764q11 -15 6 -26t-24 -11h-305q-24 0 -37 18l-369 529l-147 -187v-329q0 -13 -8.5 -22t-22.5 -9h-262zM504 -238
q0 75 55 129t131 54q83 0 143 -61.5t60 -180.5q0 -73 -25.5 -136t-66.5 -106t-91.5 -73t-102 -42.5t-97.5 -9.5v68q90 -1 157 71q44 47 42 83q-2 22 -25 22q-72 0 -126 54t-54 128z" />
    <glyph glyph-name="uni0137" unicode="&#x137;" horiz-adv-x="1165" 
d="M145 0q-13 0 -21.5 8.5t-8.5 22.5v1403q0 14 8.5 22t21.5 8h252q14 0 23.5 -8.5t9.5 -21.5v-807l297 360q14 17 37 17h283q21 0 25.5 -11t-7.5 -28l-334 -383l387 -543q11 -17 6 -28t-24 -11h-271q-23 0 -36 18l-250 347l-113 -132v-202q0 -13 -9.5 -22t-23.5 -9h-252z
M414 -238q0 75 55 129t131 54q83 0 143 -61.5t60 -180.5q0 -73 -25.5 -136t-66.5 -106t-91.5 -73t-102 -42.5t-97.5 -9.5v68q90 -1 157 71q44 47 42 83q-2 22 -25 22q-72 0 -126 54t-54 128z" />
    <glyph glyph-name="Lacute" unicode="&#x139;" horiz-adv-x="980" 
d="M166 0q-14 0 -22.5 9t-8.5 22v1372q0 13 8.5 22t22.5 9h262q14 0 22.5 -9t8.5 -22v-1116h418q13 0 21.5 -8.5t8.5 -22.5v-225q0 -14 -8.5 -22.5t-21.5 -8.5h-711zM164 1606l160 233q17 25 38 25h183q17 0 24 -11t-2 -24l-161 -234q-16 -24 -39 -24h-185q-17 0 -22 10.5
t4 24.5z" />
    <glyph glyph-name="lacute" unicode="&#x13a;" horiz-adv-x="542" 
d="M145 0q-13 0 -21.5 8.5t-8.5 22.5v1403q0 14 8.5 22t21.5 8h252q14 0 23.5 -8.5t9.5 -21.5v-1403q0 -13 -9.5 -22t-23.5 -9h-252zM143 1638l160 234q16 24 39 24h182q17 0 24.5 -10t-1.5 -24l-162 -234q-16 -24 -39 -24h-184q-17 0 -22.5 10t3.5 24z" />
    <glyph glyph-name="uni013B" unicode="&#x13b;" horiz-adv-x="980" 
d="M166 0q-14 0 -22.5 9t-8.5 22v1372q0 13 8.5 22t22.5 9h262q14 0 22.5 -9t8.5 -22v-1116h418q13 0 21.5 -8.5t8.5 -22.5v-225q0 -14 -8.5 -22.5t-21.5 -8.5h-711zM313 -238q0 75 55 129t132 54q83 0 142.5 -61.5t59.5 -180.5q0 -73 -25.5 -136t-66.5 -106t-91.5 -73
t-102 -42.5t-97.5 -9.5v68q90 -1 158 71q44 47 41 83q-1 22 -24 22q-73 0 -127 54t-54 128z" />
    <glyph glyph-name="uni013C" unicode="&#x13c;" horiz-adv-x="542" 
d="M145 0q-13 0 -21.5 8.5t-8.5 22.5v1403q0 14 8.5 22t21.5 8h252q14 0 23.5 -8.5t9.5 -21.5v-1403q0 -13 -9.5 -22t-23.5 -9h-252zM78 -238q0 75 55 129t131 54q83 0 143 -61.5t60 -180.5q0 -73 -25.5 -136t-66.5 -106t-91.5 -73t-102 -42.5t-97.5 -9.5v68q90 -1 157 71
q44 47 42 83q-2 22 -25 22q-72 0 -126 54t-54 128z" />
    <glyph glyph-name="Lcaron" unicode="&#x13d;" horiz-adv-x="1017" 
d="M166 0q-14 0 -22.5 9t-8.5 22v1372q0 13 8.5 22t22.5 9h262q14 0 22.5 -9t8.5 -22v-1116h418q13 0 21.5 -8.5t8.5 -22.5v-225q0 -14 -8.5 -22.5t-21.5 -8.5h-711zM592 1272q0 75 54.5 128.5t131.5 53.5q83 0 143 -61.5t60 -180.5q0 -90 -38.5 -164.5t-97 -118t-124 -65.5
t-123.5 -18v67q90 -1 157 71q44 48 42 84q-2 22 -25 22q-72 0 -126 54t-54 128z" />
    <glyph glyph-name="lcaron" unicode="&#x13e;" horiz-adv-x="925" 
d="M145 0q-13 0 -21.5 8.5t-8.5 22.5v1403q0 14 8.5 22t21.5 8h252q14 0 23.5 -8.5t9.5 -21.5v-1403q0 -13 -9.5 -22t-23.5 -9h-252zM514 1354q0 75 54.5 128.5t131.5 53.5q83 0 143 -61.5t60 -180.5q0 -90 -38.5 -164.5t-97 -118t-124 -65.5t-123.5 -18v67q90 -1 157 71
q44 47 42 83q-2 22 -25 22q-72 0 -126 54t-54 129z" />
    <glyph glyph-name="Ldot" unicode="&#x13f;" horiz-adv-x="1093" 
d="M166 0q-14 0 -22.5 9t-8.5 22v1372q0 13 8.5 22t22.5 9h262q14 0 22.5 -9t8.5 -22v-1116h418q13 0 21.5 -8.5t8.5 -22.5v-225q0 -14 -8.5 -22.5t-21.5 -8.5h-711zM686 764q0 77 53 131.5t129 54.5t129.5 -54.5t53.5 -131.5q0 -75 -53.5 -128.5t-129.5 -53.5t-129 53.5
t-53 128.5z" />
    <glyph glyph-name="ldot" unicode="&#x140;" horiz-adv-x="720" 
d="M145 0q-13 0 -21.5 8.5t-8.5 22.5v1403q0 14 8.5 22t21.5 8h252q14 0 23.5 -8.5t9.5 -21.5v-1403q0 -13 -9.5 -22t-23.5 -9h-252zM532 760q0 77 53.5 131.5t129.5 54.5t129 -54.5t53 -131.5q0 -75 -53 -128.5t-129 -53.5t-129.5 53.5t-53.5 128.5z" />
    <glyph glyph-name="Lslash" unicode="&#x141;" horiz-adv-x="1026" 
d="M98 326q-15 -15 -26 -10t-11 26v207q0 22 17 39l104 102v713q0 13 9 22t22 9h262q13 0 22 -9t9 -22v-395l184 180q15 15 26 9.5t11 -26.5v-204q0 -23 -16 -39l-205 -201v-440h418q13 0 21.5 -8.5t8.5 -22.5v-225q0 -14 -8.5 -22.5t-21.5 -8.5h-711q-13 0 -22 9t-9 22v377
z" />
    <glyph glyph-name="lslash" unicode="&#x142;" horiz-adv-x="540" 
d="M-10 315v195l125 141v783q0 14 8.5 22t21.5 8h252q14 0 23.5 -8.5t9.5 -21.5v-424l119 135l2 -193l-121 -137v-784q0 -13 -9.5 -22t-23.5 -9h-252q-13 0 -21.5 8.5t-8.5 22.5v426z" />
    <glyph glyph-name="Nacute" unicode="&#x143;" horiz-adv-x="1441" 
d="M971 0q-26 0 -37 20l-475 887v-876q0 -13 -8.5 -22t-22.5 -9h-262q-14 0 -22.5 9t-8.5 22v1372q0 13 8.5 22t22.5 9h305q25 0 37 -21l475 -887v877q0 13 8.5 22t22.5 9h262q14 0 22.5 -9t8.5 -22v-1372q0 -13 -8.5 -22t-22.5 -9h-305zM594 1606l160 233q17 25 39 25h182
q17 0 24 -11t-2 -24l-161 -234q-16 -24 -39 -24h-185q-17 0 -22 10.5t4 24.5z" />
    <glyph glyph-name="nacute" unicode="&#x144;" 
d="M145 0q-13 0 -21.5 8.5t-8.5 22.5v942q0 14 8.5 22.5t21.5 8.5h242q31 0 31 -33l10 -117q97 174 293 174q160 0 261 -111.5t101 -304.5v-581q0 -13 -9 -22t-23 -9h-248q-14 0 -23.5 9t-9.5 22v508q0 202 -168 202q-83 0 -128.5 -51.5t-45.5 -150.5v-508q0 -13 -9.5 -22
t-23.5 -9h-250zM475 1176l160 233q17 25 39 25h182q17 0 24.5 -11t-1.5 -24l-162 -234q-16 -24 -39 -24h-184q-17 0 -22.5 10.5t3.5 24.5z" />
    <glyph glyph-name="uni0145" unicode="&#x145;" horiz-adv-x="1441" 
d="M971 0q-26 0 -37 20l-475 887v-876q0 -13 -8.5 -22t-22.5 -9h-262q-14 0 -22.5 9t-8.5 22v1372q0 13 8.5 22t22.5 9h305q25 0 37 -21l475 -887v877q0 13 8.5 22t22.5 9h262q14 0 22.5 -9t8.5 -22v-1372q0 -13 -8.5 -22t-22.5 -9h-305zM528 -238q0 75 55 129t132 54
q83 0 143 -61.5t60 -180.5q0 -73 -25.5 -136t-66.5 -106t-91.5 -73t-102 -42.5t-97.5 -9.5v68q90 -1 157 71q44 47 42 83q-2 22 -25 22q-73 0 -127 54t-54 128z" />
    <glyph glyph-name="uni0146" unicode="&#x146;" 
d="M145 0q-13 0 -21.5 8.5t-8.5 22.5v942q0 14 8.5 22.5t21.5 8.5h242q31 0 31 -33l10 -117q97 174 293 174q160 0 261 -111.5t101 -304.5v-581q0 -13 -9 -22t-23 -9h-248q-14 0 -23.5 9t-9.5 22v508q0 202 -168 202q-83 0 -128.5 -51.5t-45.5 -150.5v-508q0 -13 -9.5 -22
t-23.5 -9h-250zM410 -238q0 75 55 129t131 54q83 0 143 -61.5t60 -180.5q0 -73 -25.5 -136t-66.5 -106t-91.5 -73t-102 -42.5t-97.5 -9.5v68q90 -1 157 71q44 47 42 83q-2 22 -25 22q-72 0 -126 54t-54 128z" />
    <glyph glyph-name="Ncaron" unicode="&#x147;" horiz-adv-x="1441" 
d="M971 0q-26 0 -37 20l-475 887v-876q0 -13 -8.5 -22t-22.5 -9h-262q-14 0 -22.5 9t-8.5 22v1372q0 13 8.5 22t22.5 9h305q25 0 37 -21l475 -887v877q0 13 8.5 22t22.5 9h262q14 0 22.5 -9t8.5 -22v-1372q0 -13 -8.5 -22t-22.5 -9h-305zM397 1827q-13 13 -9 26t24 13h163
q23 0 37 -17l109 -129l106 129q14 17 37 17h164q20 0 23.5 -13t-9.5 -26l-188 -225q-14 -17 -35 -17h-198q-21 0 -35 17z" />
    <glyph glyph-name="ncaron" unicode="&#x148;" 
d="M145 0q-13 0 -21.5 8.5t-8.5 22.5v942q0 14 8.5 22.5t21.5 8.5h242q31 0 31 -33l10 -117q97 174 293 174q160 0 261 -111.5t101 -304.5v-581q0 -13 -9 -22t-23 -9h-248q-14 0 -23.5 9t-9.5 22v508q0 202 -168 202q-83 0 -128.5 -51.5t-45.5 -150.5v-508q0 -13 -9.5 -22
t-23.5 -9h-250zM279 1397q-13 13 -9.5 26t23.5 13h164q23 0 37 -17l108 -129l107 129q14 17 36 17h164q20 0 24 -13t-9 -26l-189 -226q-13 -16 -35 -16h-198q-22 0 -35 16z" />
    <glyph glyph-name="Eng" unicode="&#x14a;" horiz-adv-x="1441" 
d="M784 -541q-131 0 -230.5 45.5t-156.5 114.5q-9 10 -9.5 25.5t7.5 25.5l137 183q19 22 46 2q27 -22 44.5 -34.5t60 -28t89.5 -15.5q95 0 153 50.5t58 139.5v33h-12q-26 0 -37 20l-475 887v-876q0 -13 -8.5 -22t-22.5 -9h-262q-14 0 -22.5 9t-8.5 22v1372q0 13 8.5 22
t22.5 9h305q25 0 37 -21l475 -887v877q0 13 8.5 22t22.5 9h262q14 0 22.5 -9t8.5 -22v-1421q0 -244 -146 -383.5t-377 -139.5z" />
    <glyph glyph-name="eng" unicode="&#x14b;" 
d="M647 -406q-17 0 -24 17l-78 248q-3 9 1 15.5t13 6.5q78 0 144.5 42.5t66.5 105.5v510q0 202 -168 202q-83 0 -128.5 -51.5t-45.5 -150.5v-508q0 -13 -9.5 -22t-23.5 -9h-250q-13 0 -21.5 8.5t-8.5 22.5v942q0 14 8.5 22.5t21.5 8.5h242q31 0 31 -33l10 -117
q97 174 293 174q160 0 261 -111.5t101 -304.5v-649q0 -170 -120.5 -269.5t-315.5 -99.5z" />
    <glyph glyph-name="Omacron" unicode="&#x14c;" horiz-adv-x="1662" 
d="M831 -27q-200 0 -369.5 97.5t-268.5 267.5t-99 373q0 153 58.5 290.5t157.5 235.5t235 155.5t286 57.5q201 0 371 -97t269.5 -267.5t99.5 -374.5q0 -203 -99.5 -373t-269.5 -267.5t-371 -97.5zM422 711q0 -178 118 -299t291 -121q175 0 292.5 120.5t117.5 299.5
q0 181 -117.5 301.5t-292.5 120.5q-174 0 -291.5 -120.5t-117.5 -301.5zM483 1653v180q0 13 8.5 22t22.5 9h637q13 0 22 -9t9 -22v-180q0 -13 -9 -22t-22 -9h-637q-14 0 -22.5 9t-8.5 22z" />
    <glyph glyph-name="omacron" unicode="&#x14d;" horiz-adv-x="1179" 
d="M590 -25q-226 0 -376.5 151.5t-150.5 375.5t150.5 375t376.5 151t377 -151t151 -375t-151 -375.5t-377 -151.5zM242 1223v180q0 14 8.5 22.5t21.5 8.5h637q13 0 22 -9t9 -22v-180q0 -13 -9 -22t-22 -9h-637q-13 0 -21.5 8.5t-8.5 22.5zM365 502q0 -108 64 -174t161 -66
t161 66t64 174t-64 173.5t-161 65.5t-161 -65.5t-64 -173.5z" />
    <glyph glyph-name="Ohungarumlaut" unicode="&#x150;" horiz-adv-x="1662" 
d="M831 -27q-200 0 -369.5 97.5t-268.5 267.5t-99 373q0 153 58.5 290.5t157.5 235.5t235 155.5t286 57.5q201 0 371 -97t269.5 -267.5t99.5 -374.5q0 -203 -99.5 -373t-269.5 -267.5t-371 -97.5zM422 711q0 -178 118 -299t291 -121q175 0 292.5 120.5t117.5 299.5
q0 181 -117.5 301.5t-292.5 120.5q-174 0 -291.5 -120.5t-117.5 -301.5zM535 1606l159 233q17 25 39 25h182q17 0 24.5 -11t-1.5 -24l-162 -234q-16 -24 -39 -24h-184q-17 0 -22 10.5t4 24.5zM944 1606l160 233q17 25 39 25h182q17 0 24.5 -11t-1.5 -24l-162 -234
q-16 -24 -39 -24h-184q-17 0 -22.5 10.5t3.5 24.5z" />
    <glyph glyph-name="ohungarumlaut" unicode="&#x151;" horiz-adv-x="1179" 
d="M590 -25q-226 0 -376.5 151.5t-150.5 375.5t150.5 375t376.5 151t377 -151t151 -375t-151 -375.5t-377 -151.5zM293 1176l160 233q17 25 39 25h182q17 0 24 -11t-2 -24l-161 -234q-16 -24 -39 -24h-185q-17 0 -22 10.5t4 24.5zM365 502q0 -108 64 -174t161 -66t161 66
t64 174t-64 173.5t-161 65.5t-161 -65.5t-64 -173.5zM702 1176l160 233q17 25 39 25h182q17 0 24.5 -11t-1.5 -24l-162 -234q-16 -24 -39 -24h-184q-17 0 -22.5 10.5t3.5 24.5z" />
    <glyph glyph-name="OE" unicode="&#x152;" horiz-adv-x="2170" 
d="M831 -27q-200 0 -369.5 97.5t-268.5 267.5t-99 373q0 153 58.5 290.5t157.5 235.5t235 155.5t286 57.5q234 0 426 -133v86q0 13 8.5 22t22.5 9h740q13 0 21.5 -8.5t8.5 -22.5v-225q0 -14 -8.5 -22.5t-21.5 -8.5h-447v-281h420q14 0 22.5 -8.5t8.5 -21.5v-226
q0 -13 -8.5 -21.5t-22.5 -8.5h-420v-293h444q14 0 23.5 -9t9.5 -22v-225q0 -13 -9.5 -22t-23.5 -9h-737q-14 0 -22.5 9t-8.5 22v75q-192 -133 -426 -133zM422 711q0 -178 118 -299t291 -121q175 0 292.5 120.5t117.5 299.5q0 181 -117.5 301.5t-292.5 120.5
q-174 0 -291.5 -120.5t-117.5 -301.5z" />
    <glyph glyph-name="oe" unicode="&#x153;" horiz-adv-x="1884" 
d="M590 -25q-226 0 -376.5 151.5t-150.5 375.5t150.5 375t376.5 151t375 -149q143 149 372 149q149 0 261 -67t168.5 -175t56.5 -239q0 -82 -26.5 -123t-92.5 -41h-578q52 -162 273 -162q123 0 221 55q20 10 37 -10l84 -119q15 -23 -10 -45q-127 -127 -357 -127
q-249 0 -403 154q-72 -72 -170 -113t-211 -41zM365 502q0 -108 64 -174t161 -66t161 66t64 174t-64 173.5t-161 65.5t-161 -65.5t-64 -173.5zM1122 600h422q-14 87 -68.5 128.5t-136.5 41.5t-140.5 -42.5t-76.5 -127.5z" />
    <glyph glyph-name="Racute" unicode="&#x154;" horiz-adv-x="1241" 
d="M862 0q-26 0 -37 20l-293 474h-73v-463q0 -13 -8.5 -22t-22.5 -9h-262q-14 0 -22.5 9t-8.5 22v1372q0 13 8.5 22t22.5 9h440q252 0 381 -127t129 -344q0 -156 -68 -268t-202 -163l317 -495q10 -17 4.5 -27t-24.5 -10h-281zM459 780h139q209 0 209 183q0 184 -209 184
h-139v-367zM467 1606l160 233q17 25 39 25h182q17 0 24 -11t-2 -24l-161 -234q-16 -24 -39 -24h-185q-17 0 -22 10.5t4 24.5z" />
    <glyph glyph-name="racute" unicode="&#x155;" horiz-adv-x="806" 
d="M145 0q-13 0 -21.5 8.5t-8.5 22.5v942q0 14 8.5 22.5t21.5 8.5h242q28 0 31 -33l10 -133q58 190 213 190q56 0 92 -27q19 -14 19 -40v-205q0 -34 -43 -25q-33 10 -74 10q-98 0 -152.5 -58t-54.5 -169v-483q0 -13 -9.5 -22t-23.5 -9h-250zM307 1176l160 233q17 25 39 25
h182q17 0 24.5 -11t-1.5 -24l-162 -234q-16 -24 -39 -24h-184q-17 0 -22.5 10.5t3.5 24.5z" />
    <glyph glyph-name="uni0156" unicode="&#x156;" horiz-adv-x="1241" 
d="M862 0q-26 0 -37 20l-293 474h-73v-463q0 -13 -8.5 -22t-22.5 -9h-262q-14 0 -22.5 9t-8.5 22v1372q0 13 8.5 22t22.5 9h440q252 0 381 -127t129 -344q0 -156 -68 -268t-202 -163l317 -495q10 -17 4.5 -27t-24.5 -10h-281zM401 -238q0 75 55 129t132 54q83 0 143 -61.5
t60 -180.5q0 -73 -25.5 -136t-66.5 -106t-91.5 -73t-102 -42.5t-97.5 -9.5v68q90 -1 157 71q44 47 42 83q-2 22 -25 22q-73 0 -127 54t-54 128zM459 780h139q209 0 209 183q0 184 -209 184h-139v-367z" />
    <glyph glyph-name="uni0157" unicode="&#x157;" horiz-adv-x="806" 
d="M145 0q-13 0 -21.5 8.5t-8.5 22.5v942q0 14 8.5 22.5t21.5 8.5h242q28 0 31 -33l10 -133q58 190 213 190q56 0 92 -27q19 -14 19 -40v-205q0 -34 -43 -25q-33 10 -74 10q-98 0 -152.5 -58t-54.5 -169v-483q0 -13 -9.5 -22t-23.5 -9h-250zM76 -238q0 75 55 129t131 54
q83 0 143 -61.5t60 -180.5q0 -73 -25.5 -136t-66.5 -106t-91.5 -73t-102 -42.5t-97.5 -9.5v68q90 -1 157 71q44 47 42 83q-2 22 -25 22q-72 0 -126 54t-54 128z" />
    <glyph glyph-name="Rcaron" unicode="&#x158;" horiz-adv-x="1241" 
d="M862 0q-26 0 -37 20l-293 474h-73v-463q0 -13 -8.5 -22t-22.5 -9h-262q-14 0 -22.5 9t-8.5 22v1372q0 13 8.5 22t22.5 9h440q252 0 381 -127t129 -344q0 -156 -68 -268t-202 -163l317 -495q10 -17 4.5 -27t-24.5 -10h-281zM272 1827q-13 13 -9 26t24 13h164q22 0 36 -17
l109 -129l106 129q14 17 37 17h164q20 0 24 -13t-9 -26l-189 -225q-14 -17 -35 -17h-198q-21 0 -35 17zM459 780h139q209 0 209 183q0 184 -209 184h-139v-367z" />
    <glyph glyph-name="rcaron" unicode="&#x159;" horiz-adv-x="806" 
d="M145 0q-13 0 -21.5 8.5t-8.5 22.5v942q0 14 8.5 22.5t21.5 8.5h242q28 0 31 -33l10 -133q58 190 213 190q56 0 92 -27q19 -14 19 -40v-205q0 -34 -43 -25q-33 10 -74 10q-98 0 -152.5 -58t-54.5 -169v-483q0 -13 -9.5 -22t-23.5 -9h-250zM111 1397q-13 13 -9.5 26
t23.5 13h164q23 0 37 -17l108 -129l107 129q14 17 37 17h163q20 0 24 -13t-9 -26l-189 -226q-13 -16 -35 -16h-198q-22 0 -35 16z" />
    <glyph glyph-name="Sacute" unicode="&#x15a;" horiz-adv-x="1142" 
d="M569 -25q-158 0 -280 65.5t-195 162.5q-17 21 4 45l138 155q22 26 47 7q74 -72 137.5 -105t142.5 -33q81 0 129.5 33t48.5 98q0 25 -8 45t-18 32.5t-34 27.5t-39.5 23t-51.5 24l-174 82q-63 28 -111.5 60.5t-92.5 80t-67.5 113t-23.5 145.5q0 194 128.5 304t323.5 110
q247 0 431 -190q22 -22 2 -48l-136 -161q-8 -11 -20 -14.5t-23 3.5q-71 60 -126.5 86.5t-116.5 26.5q-70 0 -110 -32.5t-40 -88.5q0 -27 7.5 -46.5t34 -38.5t42 -27.5t66.5 -32.5l12 -6l145 -66q55 -26 92.5 -47t83.5 -58t73.5 -77t47 -99.5t19.5 -130.5q0 -87 -27.5 -159
t-74.5 -121t-110 -83t-132.5 -49.5t-143.5 -15.5zM426 1606l160 233q17 25 39 25h182q17 0 24 -11t-2 -24l-161 -234q-16 -24 -39 -24h-185q-17 0 -22 10.5t4 24.5z" />
    <glyph glyph-name="sacute" unicode="&#x15b;" horiz-adv-x="923" 
d="M467 -25q-123 0 -222 45.5t-165 124.5q-18 25 6 60l82 114q19 31 51 11q131 -94 227 -94q93 0 93 65q0 29 -19.5 47t-70.5 39l-132 53q-217 84 -217 279q0 142 104.5 225.5t256.5 83.5q100 0 190 -41t156 -117q15 -18 -2 -43l-105 -122q-19 -19 -47 0q-102 79 -176 79
q-42 0 -61 -19t-19 -46q0 -48 80 -80l152 -59q226 -89 221 -291q-1 -100 -55 -172.5t-139 -107t-189 -34.5zM344 1176l160 233q17 25 39 25h182q17 0 24.5 -11t-1.5 -24l-162 -234q-16 -24 -39 -24h-185q-17 0 -22 10.5t4 24.5z" />
    <glyph glyph-name="Scircumflex" unicode="&#x15c;" horiz-adv-x="1142" 
d="M569 -25q-158 0 -280 65.5t-195 162.5q-17 21 4 45l138 155q22 26 47 7q74 -72 137.5 -105t142.5 -33q81 0 129.5 33t48.5 98q0 25 -8 45t-18 32.5t-34 27.5t-39.5 23t-51.5 24l-174 82q-63 28 -111.5 60.5t-92.5 80t-67.5 113t-23.5 145.5q0 194 128.5 304t323.5 110
q247 0 431 -190q22 -22 2 -48l-136 -161q-8 -11 -20 -14.5t-23 3.5q-71 60 -126.5 86.5t-116.5 26.5q-70 0 -110 -32.5t-40 -88.5q0 -27 7.5 -46.5t34 -38.5t42 -27.5t66.5 -32.5l12 -6l145 -66q55 -26 92.5 -47t83.5 -58t73.5 -77t47 -99.5t19.5 -130.5q0 -87 -27.5 -159
t-74.5 -121t-110 -83t-132.5 -49.5t-143.5 -15.5zM229 1622l189 225q14 17 35 17h198q21 0 35 -17l188 -225q13 -14 9 -27.5t-23 -13.5h-164q-24 0 -37 16l-106 132l-109 -132q-13 -16 -36 -16h-164q-20 0 -24 13.5t9 27.5z" />
    <glyph glyph-name="scircumflex" unicode="&#x15d;" horiz-adv-x="923" 
d="M467 -25q-123 0 -222 45.5t-165 124.5q-18 25 6 60l82 114q19 31 51 11q131 -94 227 -94q93 0 93 65q0 29 -19.5 47t-70.5 39l-132 53q-217 84 -217 279q0 142 104.5 225.5t256.5 83.5q100 0 190 -41t156 -117q15 -18 -2 -43l-105 -122q-19 -19 -47 0q-102 79 -176 79
q-42 0 -61 -19t-19 -46q0 -48 80 -80l152 -59q226 -89 221 -291q-1 -100 -55 -172.5t-139 -107t-189 -34.5zM150 1192l188 225q14 17 35 17h198q21 0 35 -17l189 -225q13 -14 9 -27.5t-24 -13.5h-164q-23 0 -36 16l-107 131l-108 -131q-13 -16 -37 -16h-164q-19 0 -23 13.5
t9 27.5z" />
    <glyph glyph-name="Scedilla" unicode="&#x15e;" horiz-adv-x="1142" 
d="M420 -449q-19 3 -19 23v109q0 20 23 20q80 -9 123 5t43 44q0 14 -21.5 25.5t-58 13.5t-84.5 -14q-10 -6 -17.5 -1.5t-7.5 15.5v115q0 13 11 24l59 54q-123 19 -219 79t-158 140q-17 21 4 45l138 155q22 26 47 7q74 -72 137.5 -105t142.5 -33q81 0 129.5 33t48.5 98
q0 25 -8 45t-18 32.5t-34 27.5t-39.5 23t-51.5 24l-174 82q-63 28 -111.5 60.5t-92.5 80t-67.5 113t-23.5 145.5q0 194 128.5 304t323.5 110q247 0 431 -190q22 -22 2 -48l-136 -161q-8 -11 -20 -14.5t-23 3.5q-71 60 -126.5 86.5t-116.5 26.5q-70 0 -110 -32.5t-40 -88.5
q0 -27 7.5 -46.5t34 -38.5t42 -27.5t66.5 -32.5l12 -6l145 -66q55 -26 92.5 -47t83.5 -58t73.5 -77t47 -99.5t19.5 -130.5q0 -94 -31.5 -170.5t-87 -126.5t-124 -81t-148.5 -43l-54 -45q73 -8 129 -54t56 -119q0 -89 -57 -144t-140 -69.5t-180 0.5z" />
    <glyph glyph-name="scedilla" unicode="&#x15f;" horiz-adv-x="923" 
d="M311 -449q-18 3 -18 23v109q0 20 22 20q80 -9 123 5t43 44q0 14 -21.5 25.5t-58 13.5t-84.5 -14q-11 -6 -17.5 -1.5t-6.5 15.5v115q0 14 10 24l62 54q-180 34 -285 161q-18 25 6 60l82 114q19 31 51 11q131 -94 227 -94q93 0 93 65q0 29 -19.5 47t-70.5 39l-132 53
q-217 84 -217 279q0 142 104.5 225.5t256.5 83.5q100 0 190 -41t156 -117q15 -18 -2 -43l-105 -122q-19 -19 -47 0q-102 79 -176 79q-42 0 -61 -19t-19 -46q0 -48 80 -80l152 -59q226 -89 221 -291q-1 -127 -82 -205.5t-211 -99.5l-53 -47q73 -8 128.5 -54t55.5 -119
q0 -89 -57 -144t-140 -69.5t-180 0.5z" />
    <glyph glyph-name="Scaron" unicode="&#x160;" horiz-adv-x="1142" 
d="M569 -25q-158 0 -280 65.5t-195 162.5q-17 21 4 45l138 155q22 26 47 7q74 -72 137.5 -105t142.5 -33q81 0 129.5 33t48.5 98q0 25 -8 45t-18 32.5t-34 27.5t-39.5 23t-51.5 24l-174 82q-63 28 -111.5 60.5t-92.5 80t-67.5 113t-23.5 145.5q0 194 128.5 304t323.5 110
q247 0 431 -190q22 -22 2 -48l-136 -161q-8 -11 -20 -14.5t-23 3.5q-71 60 -126.5 86.5t-116.5 26.5q-70 0 -110 -32.5t-40 -88.5q0 -27 7.5 -46.5t34 -38.5t42 -27.5t66.5 -32.5l12 -6l145 -66q55 -26 92.5 -47t83.5 -58t73.5 -77t47 -99.5t19.5 -130.5q0 -87 -27.5 -159
t-74.5 -121t-110 -83t-132.5 -49.5t-143.5 -15.5zM229 1827q-13 13 -9 26t24 13h164q22 0 36 -17l109 -129l106 129q14 17 37 17h164q20 0 23.5 -13t-9.5 -26l-188 -225q-14 -17 -35 -17h-198q-21 0 -35 17z" />
    <glyph glyph-name="scaron" unicode="&#x161;" horiz-adv-x="923" 
d="M467 -25q-123 0 -222 45.5t-165 124.5q-18 25 6 60l82 114q19 31 51 11q131 -94 227 -94q93 0 93 65q0 29 -19.5 47t-70.5 39l-132 53q-217 84 -217 279q0 142 104.5 225.5t256.5 83.5q100 0 190 -41t156 -117q15 -18 -2 -43l-105 -122q-19 -19 -47 0q-102 79 -176 79
q-42 0 -61 -19t-19 -46q0 -48 80 -80l152 -59q226 -89 221 -291q-1 -100 -55 -172.5t-139 -107t-189 -34.5zM150 1397q-13 13 -9.5 26t23.5 13h164q23 0 37 -17l108 -129l107 129q14 17 36 17h164q20 0 24 -13t-9 -26l-189 -226q-13 -16 -35 -16h-198q-22 0 -35 16z" />
    <glyph glyph-name="uni0162" unicode="&#x162;" horiz-adv-x="1120" 
d="M430 0q-14 0 -23.5 9t-9.5 22v1116h-272q-13 0 -22 8.5t-9 22.5v225q0 13 9 22t22 9h870q14 0 23.5 -9t9.5 -22v-225q0 -13 -9.5 -22t-23.5 -9h-272v-1116q0 -13 -8.5 -22t-22.5 -9h-24l-72 -61q73 -8 128.5 -53.5t55.5 -118.5q0 -89 -57 -144t-140 -69.5t-180 0.5
q-18 3 -18 22v109q0 20 23 20q79 -9 122 5t43 44q0 14 -21.5 25.5t-57.5 13.5t-84 -14q-10 -6 -17.5 -1.5t-7.5 15.5v115q0 14 10 24l76 68h-41z" />
    <glyph glyph-name="uni0163" unicode="&#x163;" horiz-adv-x="763" 
d="M328 -440q-19 3 -19 22v109q0 20 23 20q80 -9 123 5t43 44q0 14 -21.5 25.5t-58 13.5t-84.5 -14q-10 -6 -17.5 -1.5t-7.5 15.5v115q0 15 10 25l78 69q-188 62 -188 289v465h-125q-14 0 -22.5 9t-8.5 22v180q0 13 8.5 22t22.5 9h125v235q0 13 9.5 22t23.5 9h252
q14 0 23 -9t9 -22v-235h154q14 0 22.5 -9t8.5 -22v-180q0 -13 -8.5 -22t-22.5 -9h-154v-432q0 -39 23.5 -60.5t62.5 -21.5q37 0 64 2q15 2 26 -6t11 -23v-170q0 -52 -142 -61l-51 -45q74 -8 129.5 -53.5t55.5 -118.5q0 -89 -57 -144t-140 -69.5t-180 0.5z" />
    <glyph glyph-name="Tcaron" unicode="&#x164;" horiz-adv-x="1120" 
d="M430 0q-14 0 -23.5 9t-9.5 22v1116h-272q-13 0 -22 8.5t-9 22.5v225q0 13 9 22t22 9h870q14 0 23.5 -9t9.5 -22v-225q0 -13 -9.5 -22t-23.5 -9h-272v-1116q0 -13 -8.5 -22t-22.5 -9h-262zM238 1827q-13 13 -9.5 26t23.5 13h164q23 0 37 -17l108 -129l107 129q14 17 37 17
h163q20 0 24 -13t-9 -26l-189 -225q-14 -17 -35 -17h-198q-21 0 -35 17z" />
    <glyph glyph-name="tcaron" unicode="&#x165;" horiz-adv-x="1077" 
d="M532 -12q-66 0 -121 16t-102 50.5t-73.5 96.5t-26.5 146v465h-125q-14 0 -22.5 9t-8.5 22v180q0 13 8.5 22t22.5 9h125v235q0 13 9.5 22t23.5 9h252q14 0 23 -9t9 -22v-235h154q14 0 22.5 -9t8.5 -22v-180q0 -13 -8.5 -22t-22.5 -9h-154v-432q0 -39 23.5 -60.5
t62.5 -21.5q37 0 64 2q15 2 26 -6t11 -23v-170q0 -34 -56 -48.5t-125 -14.5zM629 1118l159 234q16 24 39 24h183q17 0 24 -11t-2 -24l-162 -233q-17 -25 -39 -25h-184q-17 0 -22 10.5t4 24.5z" />
    <glyph glyph-name="Tbar" unicode="&#x166;" horiz-adv-x="1120" 
d="M430 0q-14 0 -23.5 9t-9.5 22v731h-155q-14 0 -22.5 9t-8.5 22v180q0 13 8.5 22t22.5 9h155v143h-272q-13 0 -22 8.5t-9 22.5v225q0 13 9 22t22 9h870q14 0 23.5 -9t9.5 -22v-225q0 -13 -9.5 -22t-23.5 -9h-272v-143h156q13 0 21.5 -8.5t8.5 -22.5v-180q0 -14 -8.5 -22.5
t-21.5 -8.5h-156v-731q0 -13 -8.5 -22t-22.5 -9h-262z" />
    <glyph glyph-name="tbar" unicode="&#x167;" horiz-adv-x="763" 
d="M84 416q-14 0 -22.5 8.5t-8.5 21.5v191q0 13 8.5 22t22.5 9h125v94h-125q-14 0 -22.5 9t-8.5 22v180q0 13 8.5 22t22.5 9h125v235q0 13 9.5 22t23.5 9h252q14 0 23 -9t9 -22v-235h154q14 0 22.5 -9t8.5 -22v-180q0 -13 -8.5 -22t-22.5 -9h-154v-94h154q14 0 22.5 -9
t8.5 -22v-191q0 -13 -8.5 -21.5t-22.5 -8.5h-154v-86q0 -39 23.5 -60.5t62.5 -21.5q37 0 64 2q15 2 26 -6t11 -23v-170q0 -34 -56 -48.5t-125 -14.5q-66 0 -121 16t-102 50.5t-73.5 96.5t-26.5 146v119h-125z" />
    <glyph glyph-name="Utilde" unicode="&#x168;" horiz-adv-x="1359" 
d="M680 -27q-252 0 -403.5 152t-151.5 436v842q0 13 8.5 22t22.5 9h262q14 0 22.5 -9t8.5 -22v-838q0 -131 59.5 -202.5t171.5 -71.5q110 0 170.5 71.5t60.5 202.5v838q0 13 8.5 22t22.5 9h262q14 0 22.5 -9t8.5 -22v-842q0 -143 -41 -255.5t-115 -185t-175.5 -110
t-223.5 -37.5zM297 1688q3 108 66.5 164.5t156.5 56.5q45 0 83 -14.5t63 -35.5t47 -42t46.5 -35.5t51.5 -14.5q71 0 82 56q3 16 22 16h125q21 0 21 -20q-3 -112 -66.5 -170t-156.5 -58q-45 0 -83 14.5t-63 35.5t-47 42t-46.5 35.5t-51.5 14.5q-71 0 -82 -56q-3 -16 -23 -16
h-125q-20 0 -20 27z" />
    <glyph glyph-name="utilde" unicode="&#x169;" 
d="M475 -25q-160 0 -260 111.5t-100 304.5v582q0 14 8.5 22.5t21.5 8.5h250q14 0 23.5 -9t9.5 -22v-508q0 -203 168 -203q81 0 127.5 52.5t46.5 150.5v508q0 13 9.5 22t23.5 9h248q14 0 23 -9t9 -22v-942q0 -13 -9 -22t-23 -9h-240q-30 0 -33 33l-8 117q-98 -175 -295 -175z
M219 1257q3 108 66.5 165t156.5 57q45 0 83 -14.5t63 -35.5t47 -42t46.5 -35.5t51.5 -14.5q71 0 82 56q3 16 23 16h125q20 0 20 -20q-3 -112 -66.5 -170t-156.5 -58q-45 0 -83 14.5t-63 35.5t-47 42t-46.5 35.5t-51.5 14.5q-71 0 -82 -56q-3 -16 -22 -16h-125q-21 0 -21 26z
" />
    <glyph glyph-name="Umacron" unicode="&#x16a;" horiz-adv-x="1359" 
d="M680 -27q-252 0 -403.5 152t-151.5 436v842q0 13 8.5 22t22.5 9h262q14 0 22.5 -9t8.5 -22v-838q0 -131 59.5 -202.5t171.5 -71.5q110 0 170.5 71.5t60.5 202.5v838q0 13 8.5 22t22.5 9h262q14 0 22.5 -9t8.5 -22v-842q0 -143 -41 -255.5t-115 -185t-175.5 -110
t-223.5 -37.5zM330 1653v180q0 14 8.5 22.5t21.5 8.5h637q13 0 22 -9t9 -22v-180q0 -13 -9 -22t-22 -9h-637q-13 0 -21.5 8.5t-8.5 22.5z" />
    <glyph glyph-name="umacron" unicode="&#x16b;" 
d="M475 -25q-160 0 -260 111.5t-100 304.5v582q0 14 8.5 22.5t21.5 8.5h250q14 0 23.5 -9t9.5 -22v-508q0 -203 168 -203q81 0 127.5 52.5t46.5 150.5v508q0 13 9.5 22t23.5 9h248q14 0 23 -9t9 -22v-942q0 -13 -9 -22t-23 -9h-240q-30 0 -33 33l-8 117q-98 -175 -295 -175z
M254 1223v180q0 13 9 22t22 9h637q13 0 21.5 -8.5t8.5 -22.5v-180q0 -14 -8.5 -22.5t-21.5 -8.5h-637q-13 0 -22 9t-9 22z" />
    <glyph glyph-name="Ubreve" unicode="&#x16c;" horiz-adv-x="1359" 
d="M680 -27q-252 0 -403.5 152t-151.5 436v842q0 13 8.5 22t22.5 9h262q14 0 22.5 -9t8.5 -22v-838q0 -131 59.5 -202.5t171.5 -71.5q110 0 170.5 71.5t60.5 202.5v838q0 13 8.5 22t22.5 9h262q14 0 22.5 -9t8.5 -22v-842q0 -143 -41 -255.5t-115 -185t-175.5 -110
t-223.5 -37.5zM348 1833q-3 31 29 31h127q30 0 33 -29q7 -42 42 -72t101 -30t100 29.5t41 72.5q3 29 33 29h127q32 0 29 -31q-6 -120 -93.5 -194t-236.5 -74t-237.5 74t-94.5 194z" />
    <glyph glyph-name="ubreve" unicode="&#x16d;" 
d="M475 -25q-160 0 -260 111.5t-100 304.5v582q0 14 8.5 22.5t21.5 8.5h250q14 0 23.5 -9t9.5 -22v-508q0 -203 168 -203q81 0 127.5 52.5t46.5 150.5v508q0 13 9.5 22t23.5 9h248q14 0 23 -9t9 -22v-942q0 -13 -9 -22t-23 -9h-240q-30 0 -33 33l-8 117q-98 -175 -295 -175z
M272 1403q-3 31 29 31h127q30 0 33 -29q7 -42 42 -72t101 -30t100 29.5t41 72.5q3 29 33 29h127q32 0 29 -31q-6 -120 -93.5 -194t-236.5 -74t-237.5 74t-94.5 194z" />
    <glyph glyph-name="Uring" unicode="&#x16e;" horiz-adv-x="1359" 
d="M680 -27q-252 0 -403.5 152t-151.5 436v842q0 13 8.5 22t22.5 9h262q14 0 22.5 -9t8.5 -22v-838q0 -131 59.5 -202.5t171.5 -71.5q110 0 170.5 71.5t60.5 202.5v838q0 13 8.5 22t22.5 9h262q14 0 22.5 -9t8.5 -22v-842q0 -143 -41 -255.5t-115 -185t-175.5 -110
t-223.5 -37.5zM459 1739q0 92 61.5 155.5t159.5 63.5q99 0 161 -63.5t62 -155.5q0 -91 -62 -153t-161 -62q-98 0 -159.5 62t-61.5 153zM635 1741q0 -19 12.5 -33t32.5 -14q21 0 34 14t13 33t-13 33t-34 14q-20 0 -32.5 -14t-12.5 -33z" />
    <glyph glyph-name="uring" unicode="&#x16f;" 
d="M475 -25q-160 0 -260 111.5t-100 304.5v582q0 14 8.5 22.5t21.5 8.5h250q14 0 23.5 -9t9.5 -22v-508q0 -203 168 -203q81 0 127.5 52.5t46.5 150.5v508q0 13 9.5 22t23.5 9h248q14 0 23 -9t9 -22v-942q0 -13 -9 -22t-23 -9h-240q-30 0 -33 33l-8 117q-98 -175 -295 -175z
M381 1309q0 92 61.5 155.5t159.5 63.5q99 0 161 -63.5t62 -155.5q0 -91 -62 -153t-161 -62q-98 0 -159.5 62t-61.5 153zM557 1311q0 -19 12.5 -33t32.5 -14q21 0 34 14t13 33t-13 33t-34 14q-20 0 -32.5 -14t-12.5 -33z" />
    <glyph glyph-name="Uhungarumlaut" unicode="&#x170;" horiz-adv-x="1359" 
d="M680 -27q-252 0 -403.5 152t-151.5 436v842q0 13 8.5 22t22.5 9h262q14 0 22.5 -9t8.5 -22v-838q0 -131 59.5 -202.5t171.5 -71.5q110 0 170.5 71.5t60.5 202.5v838q0 13 8.5 22t22.5 9h262q14 0 22.5 -9t8.5 -22v-842q0 -143 -41 -255.5t-115 -185t-175.5 -110
t-223.5 -37.5zM383 1606l160 233q17 25 39 25h182q17 0 24 -11t-2 -24l-161 -234q-16 -24 -39 -24h-185q-17 0 -22 10.5t4 24.5zM793 1606l159 233q17 25 39 25h183q17 0 24 -11t-2 -24l-162 -234q-16 -24 -39 -24h-184q-17 0 -22 10.5t4 24.5z" />
    <glyph glyph-name="uhungarumlaut" unicode="&#x171;" 
d="M475 -25q-160 0 -260 111.5t-100 304.5v582q0 14 8.5 22.5t21.5 8.5h250q14 0 23.5 -9t9.5 -22v-508q0 -203 168 -203q81 0 127.5 52.5t46.5 150.5v508q0 13 9.5 22t23.5 9h248q14 0 23 -9t9 -22v-942q0 -13 -9 -22t-23 -9h-240q-30 0 -33 33l-8 117q-98 -175 -295 -175z
M307 1176l160 233q17 25 39 25h182q17 0 24.5 -11t-1.5 -24l-162 -234q-16 -24 -39 -24h-184q-17 0 -22.5 10.5t3.5 24.5zM717 1176l160 233q17 25 38 25h183q17 0 24 -11t-2 -24l-162 -234q-16 -24 -38 -24h-185q-17 0 -22 10.5t4 24.5z" />
    <glyph glyph-name="Uogonek" unicode="&#x172;" horiz-adv-x="1359" 
d="M846 -406q-47 -21 -109.5 -21.5t-122 18.5t-100.5 71t-41 127q0 114 92 193q-204 33 -322 181t-118 398v842q0 13 8.5 22t22.5 9h262q14 0 22.5 -9t8.5 -22v-838q0 -131 59.5 -202.5t171.5 -71.5q110 0 170.5 71.5t60.5 202.5v838q0 13 8.5 22t22.5 9h262q14 0 22.5 -9
t8.5 -22v-842q0 -221 -94 -363t-260 -196q-156 -60 -156 -143q0 -38 29 -61t92 -11v-193z" />
    <glyph glyph-name="uogonek" unicode="&#x173;" 
d="M475 -25q-160 0 -260 111.5t-100 304.5v582q0 14 8.5 22.5t21.5 8.5h250q14 0 23.5 -9t9.5 -22v-508q0 -203 168 -203q81 0 127.5 52.5t46.5 150.5v508q0 13 9.5 22t23.5 9h248q14 0 23 -9t9 -22v-942q0 -13 -9 -22t-23 -9q-83 0 -128.5 -44.5t-45.5 -96.5q0 -40 28 -62
t92 -10v-193q-37 -16 -85.5 -21t-99 5.5t-93 34t-69.5 69.5t-27 107q0 147 155 246l-8 115q-98 -175 -295 -175z" />
    <glyph glyph-name="Wcircumflex" unicode="&#x174;" horiz-adv-x="2213" 
d="M510 0q-14 0 -26 7t-15 18l-403 1374q-6 15 0.5 25t23.5 10h272q29 0 35 -25l262 -967l287 967q8 25 35 25h252q27 0 35 -25l286 -967l263 967q6 25 34 25h275q34 0 24 -35l-405 -1374q-3 -11 -15 -18t-26 -7h-272q-35 0 -41 25l-283 999l-285 -999q-6 -25 -41 -25h-272z
M782 1622l189 225q14 17 35 17h198q21 0 35 -17l188 -225q13 -14 9 -27.5t-23 -13.5h-164q-24 0 -37 16l-106 132l-109 -132q-13 -16 -36 -16h-164q-20 0 -24 13.5t9 27.5z" />
    <glyph glyph-name="wcircumflex" unicode="&#x175;" horiz-adv-x="1808" 
d="M401 0q-27 0 -36 25l-312 944q-12 35 27 35h242q27 0 36 -25l187 -614l203 614q9 25 36 25h240q28 0 37 -25l203 -614l186 614q9 25 37 25h244q36 0 24 -35l-311 -944q-9 -25 -37 -25h-256q-28 0 -37 25l-209 614l-211 -614q-9 -25 -37 -25h-256zM582 1192l188 225
q14 17 35 17h199q20 0 34 -17l189 -225q13 -14 9 -27.5t-24 -13.5h-163q-24 0 -37 16l-107 131l-108 -131q-13 -16 -37 -16h-164q-19 0 -23 13.5t9 27.5z" />
    <glyph glyph-name="Ycircumflex" unicode="&#x176;" horiz-adv-x="1298" 
d="M518 0q-14 0 -22.5 9t-8.5 22v628l-417 738q-19 37 20 37h272q25 0 37 -21l250 -459l250 459q12 21 39 21h272q40 0 21 -37l-418 -740v-626q0 -13 -9.5 -22t-23.5 -9h-262zM328 1622l188 225q14 17 35 17h199q20 0 34 -17l189 -225q13 -14 9 -27.5t-24 -13.5h-163
q-24 0 -37 16l-107 132l-108 -132q-13 -16 -37 -16h-164q-19 0 -23 13.5t9 27.5z" />
    <glyph glyph-name="ycircumflex" unicode="&#x177;" horiz-adv-x="1187" 
d="M322 -389q-42 0 -27 37l147 350l-389 971q-12 35 27 35h254q30 0 39 -25l221 -614l221 614q9 25 39 25h254q39 0 27 -35l-533 -1334q-9 -24 -37 -24h-243zM268 1192l189 225q14 17 35 17h198q21 0 35 -17l188 -225q13 -14 9 -27.5t-23 -13.5h-164q-24 0 -37 16l-106 131
l-109 -131q-13 -16 -37 -16h-163q-20 0 -24 13.5t9 27.5z" />
    <glyph glyph-name="Ydieresis" unicode="&#x178;" horiz-adv-x="1298" 
d="M518 0q-14 0 -22.5 9t-8.5 22v628l-417 738q-19 37 20 37h272q25 0 37 -21l250 -459l250 459q12 21 39 21h272q40 0 21 -37l-418 -740v-626q0 -13 -9.5 -22t-23.5 -9h-262zM262 1720q0 64 45.5 109t108.5 45t108 -45t45 -109q0 -67 -44.5 -112t-108.5 -45t-109 45
t-45 112zM731 1720q0 64 45.5 109t108.5 45t108 -45t45 -109q0 -67 -44.5 -112t-108.5 -45t-109 45t-45 112z" />
    <glyph glyph-name="Zacute" unicode="&#x179;" horiz-adv-x="1130" 
d="M115 0q-13 0 -22 9t-9 22v235q0 17 10 37l594 844h-553q-13 0 -22 8.5t-9 22.5v225q0 13 9 22t22 9h850q14 0 23.5 -9t9.5 -22v-236q0 -13 -12 -37l-594 -843h594q14 0 23 -9t9 -22v-225q0 -13 -9 -22t-23 -9h-891zM432 1606l160 233q17 25 39 25h182q17 0 24.5 -11
t-1.5 -24l-162 -234q-16 -24 -39 -24h-184q-17 0 -22.5 10.5t3.5 24.5z" />
    <glyph glyph-name="zacute" unicode="&#x17a;" horiz-adv-x="956" 
d="M104 0q-13 0 -21.5 8.5t-8.5 22.5v200q0 27 14 39l447 480h-424q-13 0 -22 9t-9 23v191q0 13 9 22t22 9h741q12 0 21.5 -9t9.5 -22v-199q0 -26 -15 -41l-448 -479h432q14 0 23.5 -9t9.5 -22v-192q0 -13 -9.5 -22t-23.5 -9h-748zM350 1176l160 233q17 25 39 25h182
q17 0 24.5 -11t-1.5 -24l-162 -234q-16 -24 -39 -24h-184q-17 0 -22.5 10.5t3.5 24.5z" />
    <glyph glyph-name="Zdotaccent" unicode="&#x17b;" horiz-adv-x="1130" 
d="M115 0q-13 0 -22 9t-9 22v235q0 17 10 37l594 844h-553q-13 0 -22 8.5t-9 22.5v225q0 13 9 22t22 9h850q14 0 23.5 -9t9.5 -22v-236q0 -13 -12 -37l-594 -843h594q14 0 23 -9t9 -22v-225q0 -13 -9 -22t-23 -9h-891zM389 1724q0 73 48.5 122.5t121.5 49.5q74 0 123 -49.5
t49 -122.5q0 -71 -49 -120.5t-123 -49.5q-73 0 -121.5 49.5t-48.5 120.5z" />
    <glyph glyph-name="zdotaccent" unicode="&#x17c;" horiz-adv-x="956" 
d="M104 0q-13 0 -21.5 8.5t-8.5 22.5v200q0 27 14 39l447 480h-424q-13 0 -22 9t-9 23v191q0 13 9 22t22 9h741q12 0 21.5 -9t9.5 -22v-199q0 -26 -15 -41l-448 -479h432q14 0 23.5 -9t9.5 -22v-192q0 -13 -9.5 -22t-23.5 -9h-748zM307 1294q0 73 48.5 122.5t121.5 49.5
q74 0 123 -49.5t49 -122.5q0 -71 -49 -120.5t-123 -49.5q-73 0 -121.5 49.5t-48.5 120.5z" />
    <glyph glyph-name="Zcaron" unicode="&#x17d;" horiz-adv-x="1130" 
d="M115 0q-13 0 -22 9t-9 22v235q0 17 10 37l594 844h-553q-13 0 -22 8.5t-9 22.5v225q0 13 9 22t22 9h850q14 0 23.5 -9t9.5 -22v-236q0 -13 -12 -37l-594 -843h594q14 0 23 -9t9 -22v-225q0 -13 -9 -22t-23 -9h-891zM238 1827q-13 13 -9.5 26t23.5 13h164q23 0 37 -17
l108 -129l107 129q14 17 37 17h163q20 0 24 -13t-9 -26l-189 -225q-14 -17 -35 -17h-198q-21 0 -35 17z" />
    <glyph glyph-name="zcaron" unicode="&#x17e;" horiz-adv-x="956" 
d="M104 0q-13 0 -21.5 8.5t-8.5 22.5v200q0 27 14 39l447 480h-424q-13 0 -22 9t-9 23v191q0 13 9 22t22 9h741q12 0 21.5 -9t9.5 -22v-199q0 -26 -15 -41l-448 -479h432q14 0 23.5 -9t9.5 -22v-192q0 -13 -9.5 -22t-23.5 -9h-748zM156 1397q-13 13 -9.5 26t23.5 13h164
q23 0 37 -17l108 -129l107 129q14 17 37 17h163q20 0 24 -13t-9 -26l-189 -226q-13 -16 -34 -16h-199q-22 0 -35 16z" />
    <glyph glyph-name="uni018F" unicode="&#x18f;" horiz-adv-x="1591" 
d="M752 -27q-202 0 -353.5 92.5t-228 245t-76.5 340.5v148q0 30 31 30h1028q-37 137 -144 220.5t-251 83.5q-167 0 -297 -113q-26 -20 -49 6l-152 162q-26 29 -2 57q199 205 502 205q201 0 370 -96t268 -266t99 -377q0 -155 -58.5 -292.5t-158.5 -235t-237.5 -154
t-290.5 -56.5zM434 543q0 -107 85 -179.5t235 -72.5q139 0 241.5 68t145.5 184h-707z" />
    <glyph glyph-name="florin" unicode="&#x192;" horiz-adv-x="817" 
d="M172 -389q-99 0 -166 35q-20 10 -20 32v207q0 19 28 15q76 -13 86 -13q67 0 93 30t26 87v746h-119q-13 0 -21.5 9t-8.5 23v189q0 14 8.5 23.5t21.5 9.5h119v141q0 179 94 265.5t267 86.5q99 0 168 -35q18 -9 18 -32v-207q0 -19 -27 -15q-76 13 -86 13q-67 0 -92.5 -30
t-25.5 -87v-100h198q13 0 23 -10t10 -23v-189q0 -13 -9.5 -22.5t-23.5 -9.5h-198v-787q0 -179 -95 -265.5t-268 -86.5z" />
    <glyph glyph-name="Ohorn" unicode="&#x1a0;" horiz-adv-x="1662" 
d="M831 -27q-200 0 -369.5 97.5t-268.5 267.5t-99 373q0 153 58.5 290.5t157.5 235.5t235 155.5t286 57.5h250q72 0 105 32.5t33 98.5v88q0 13 9 22t23 9h250q13 0 22 -9t9 -22v-108q0 -239 -176 -326q102 -102 158.5 -237t56.5 -287q0 -203 -99.5 -373t-269.5 -267.5
t-371 -97.5zM422 711q0 -178 118 -299t291 -121q175 0 292.5 120.5t117.5 299.5q0 181 -117.5 301.5t-292.5 120.5q-174 0 -291.5 -120.5t-117.5 -301.5z" />
    <glyph glyph-name="ohorn" unicode="&#x1a1;" horiz-adv-x="1179" 
d="M590 -25q-226 0 -376.5 151.5t-150.5 375.5t150.5 375t376.5 151h213q72 0 105.5 32.5t33.5 98.5v80q0 13 9 22t22 9h225q14 0 23.5 -9t9.5 -22v-100q0 -125 -51 -211.5t-148 -126.5q86 -134 86 -299q0 -224 -151 -375.5t-377 -151.5zM365 502q0 -108 64 -174t161 -66
t161 66t64 174t-64 173.5t-161 65.5t-161 -65.5t-64 -173.5z" />
    <glyph glyph-name="Uhorn" unicode="&#x1af;" horiz-adv-x="1359" 
d="M680 -27q-252 0 -403.5 152t-151.5 436v842q0 13 8.5 22t22.5 9h262q14 0 22.5 -9t8.5 -22v-838q0 -131 59.5 -202.5t171.5 -71.5q110 0 170.5 71.5t60.5 202.5v838q0 13 8.5 22t22.5 9h162q72 0 105.5 32.5t33.5 98.5v104q0 13 8.5 22t22.5 9h250q14 0 23 -9t9 -22v-125
q0 -160 -83.5 -255.5t-237.5 -110.5v-617q0 -143 -41 -255.5t-115 -185t-175.5 -110t-223.5 -37.5z" />
    <glyph glyph-name="uhorn" unicode="&#x1b0;" 
d="M475 -25q-160 0 -260 111.5t-100 304.5v582q0 14 8.5 22.5t21.5 8.5h250q14 0 23.5 -9t9.5 -22v-508q0 -203 168 -203q81 0 127.5 52.5t46.5 150.5v508q0 13 9.5 22t23.5 9h135q69 0 99 32.5t30 98.5v104q0 13 8.5 22t22.5 9h225q14 0 23.5 -9t9.5 -22v-125
q0 -142 -71 -230t-202 -110v-743q0 -13 -9 -22t-23 -9h-240q-30 0 -33 33l-8 117q-98 -175 -295 -175z" />
    <glyph glyph-name="uni01CD" unicode="&#x1cd;" horiz-adv-x="1433" 
d="M90 0q-17 0 -25 10t-2 25l476 1374q9 25 39 25h278q30 0 39 -25l475 -1374q6 -15 -0.5 -25t-23.5 -10h-275q-27 0 -35 25l-61 192h-516l-62 -192q-8 -25 -35 -25h-272zM395 1827q-13 13 -9 26t24 13h163q23 0 37 -17l109 -129l106 129q14 17 37 17h164q20 0 23.5 -13
t-9.5 -26l-188 -225q-14 -17 -35 -17h-199q-20 0 -34 17zM551 504h332l-166 518z" />
    <glyph glyph-name="uni01CE" unicode="&#x1ce;" horiz-adv-x="1257" 
d="M535 -25q-207 0 -339.5 150.5t-132.5 376.5q0 225 132.5 375.5t339.5 150.5t313 -151l4 96q0 13 9.5 22t23.5 9h227q14 0 23.5 -9t9.5 -22v-942q0 -13 -10.5 -22t-24.5 -9h-225q-14 0 -23.5 9t-9.5 22l-4 98q-109 -154 -313 -154zM299 1397q-13 13 -9.5 26t23.5 13h164
q23 0 37 -17l109 -129l106 129q14 17 37 17h164q20 0 23.5 -13t-9.5 -26l-188 -226q-13 -16 -35 -16h-199q-22 0 -35 16zM369 502q0 -109 66 -175.5t167 -66.5q103 0 167.5 67t64.5 177q0 107 -64.5 173t-167.5 66q-101 0 -167 -67t-66 -174z" />
    <glyph glyph-name="uni01CF" unicode="&#x1cf;" horiz-adv-x="593" 
d="M166 0q-14 0 -22.5 9t-8.5 22v1372q0 13 8.5 22t22.5 9h262q14 0 22.5 -9t8.5 -22v-1372q0 -13 -8.5 -22t-22.5 -9h-262zM-27 1827q-13 13 -9 26t24 13h164q22 0 36 -17l109 -129l106 129q14 17 37 17h164q20 0 23.5 -13t-9.5 -26l-188 -225q-14 -17 -35 -17h-198
q-21 0 -35 17z" />
    <glyph glyph-name="uni01D0" unicode="&#x1d0;" horiz-adv-x="534" 
d="M141 0q-13 0 -21.5 8.5t-8.5 22.5v942q0 14 8.5 22.5t21.5 8.5h252q14 0 23.5 -9t9.5 -22v-942q0 -13 -9.5 -22t-23.5 -9h-252zM-53 1397q-13 13 -9.5 26t23.5 13h164q23 0 37 -17l108 -129l107 129q14 17 37 17h164q20 0 23.5 -13t-9.5 -26l-189 -226q-13 -16 -34 -16
h-199q-22 0 -35 16z" />
    <glyph glyph-name="uni01D1" unicode="&#x1d1;" horiz-adv-x="1662" 
d="M831 -27q-200 0 -369.5 97.5t-268.5 267.5t-99 373q0 153 58.5 290.5t157.5 235.5t235 155.5t286 57.5q201 0 371 -97t269.5 -267.5t99.5 -374.5q0 -203 -99.5 -373t-269.5 -267.5t-371 -97.5zM422 711q0 -178 118 -299t291 -121q175 0 292.5 120.5t117.5 299.5
q0 181 -117.5 301.5t-292.5 120.5q-174 0 -291.5 -120.5t-117.5 -301.5zM510 1827q-13 13 -9.5 26t23.5 13h164q23 0 37 -17l109 -129l106 129q14 17 37 17h164q20 0 23.5 -13t-9.5 -26l-188 -225q-14 -17 -35 -17h-199q-21 0 -35 17z" />
    <glyph glyph-name="uni01D2" unicode="&#x1d2;" horiz-adv-x="1179" 
d="M590 -25q-226 0 -376.5 151.5t-150.5 375.5t150.5 375t376.5 151t377 -151t151 -375t-151 -375.5t-377 -151.5zM268 1397q-13 13 -9 26t24 13h163q23 0 37 -17l109 -129l106 129q14 17 37 17h164q20 0 23.5 -13t-9.5 -26l-188 -226q-13 -16 -35 -16h-198q-22 0 -35 16z
M365 502q0 -108 64 -174t161 -66t161 66t64 174t-64 173.5t-161 65.5t-161 -65.5t-64 -173.5z" />
    <glyph glyph-name="uni01D3" unicode="&#x1d3;" horiz-adv-x="1359" 
d="M680 -27q-252 0 -403.5 152t-151.5 436v842q0 13 8.5 22t22.5 9h262q14 0 22.5 -9t8.5 -22v-838q0 -131 59.5 -202.5t171.5 -71.5q110 0 170.5 71.5t60.5 202.5v838q0 13 8.5 22t22.5 9h262q14 0 22.5 -9t8.5 -22v-842q0 -143 -41 -255.5t-115 -185t-175.5 -110
t-223.5 -37.5zM356 1827q-13 13 -9 26t24 13h164q22 0 36 -17l109 -129l106 129q14 17 37 17h164q20 0 23.5 -13t-9.5 -26l-188 -225q-14 -17 -35 -17h-198q-21 0 -35 17z" />
    <glyph glyph-name="uni01D4" unicode="&#x1d4;" 
d="M475 -25q-160 0 -260 111.5t-100 304.5v582q0 14 8.5 22.5t21.5 8.5h250q14 0 23.5 -9t9.5 -22v-508q0 -203 168 -203q81 0 127.5 52.5t46.5 150.5v508q0 13 9.5 22t23.5 9h248q14 0 23 -9t9 -22v-942q0 -13 -9 -22t-23 -9h-240q-30 0 -33 33l-8 117q-98 -175 -295 -175z
M281 1397q-13 13 -9.5 26t23.5 13h164q23 0 37 -17l108 -129l107 129q14 17 37 17h163q20 0 24 -13t-9 -26l-189 -226q-13 -16 -35 -16h-198q-22 0 -35 16z" />
    <glyph glyph-name="uni01D5" unicode="&#x1d5;" horiz-adv-x="1359" 
d="M680 -27q-252 0 -403.5 152t-151.5 436v842q0 13 8.5 22t22.5 9h262q14 0 22.5 -9t8.5 -22v-838q0 -131 59.5 -202.5t171.5 -71.5q110 0 170.5 71.5t60.5 202.5v838q0 13 8.5 22t22.5 9h262q14 0 22.5 -9t8.5 -22v-842q0 -143 -41 -255.5t-115 -185t-175.5 -110
t-223.5 -37.5zM293 1720q0 64 45 109t108 45t108.5 -45t45.5 -109q0 -67 -45 -112t-109 -45t-108.5 45t-44.5 112zM330 2032v180q0 14 8.5 22.5t21.5 8.5h637q13 0 22 -8.5t9 -22.5v-180q0 -14 -9 -22.5t-22 -8.5h-637q-13 0 -21.5 8.5t-8.5 22.5zM762 1720q0 64 45 109
t108 45t108.5 -45t45.5 -109q0 -67 -45 -112t-109 -45t-108.5 45t-44.5 112z" />
    <glyph glyph-name="uni01D6" unicode="&#x1d6;" 
d="M475 -25q-160 0 -260 111.5t-100 304.5v582q0 14 8.5 22.5t21.5 8.5h250q14 0 23.5 -9t9.5 -22v-508q0 -203 168 -203q81 0 127.5 52.5t46.5 150.5v508q0 13 9.5 22t23.5 9h248q14 0 23 -9t9 -22v-942q0 -13 -9 -22t-23 -9h-240q-30 0 -33 33l-8 117q-98 -175 -295 -175z
M215 1290q0 64 45.5 109t108.5 45t108 -45t45 -109q0 -67 -44.5 -112t-108.5 -45t-109 45t-45 112zM254 1602v180q0 13 8.5 21.5t22.5 8.5h637q14 0 22 -8t8 -22v-180q0 -14 -8.5 -22.5t-21.5 -8.5h-637q-13 0 -22 8.5t-9 22.5zM684 1290q0 64 45.5 109t108.5 45t108 -45
t45 -109q0 -67 -44.5 -112t-108.5 -45t-109 45t-45 112z" />
    <glyph glyph-name="uni01D7" unicode="&#x1d7;" horiz-adv-x="1359" 
d="M680 -27q-252 0 -403.5 152t-151.5 436v842q0 13 8.5 22t22.5 9h262q14 0 22.5 -9t8.5 -22v-838q0 -131 59.5 -202.5t171.5 -71.5q110 0 170.5 71.5t60.5 202.5v838q0 13 8.5 22t22.5 9h262q14 0 22.5 -9t8.5 -22v-842q0 -143 -41 -255.5t-115 -185t-175.5 -110
t-223.5 -37.5zM293 1720q0 64 45 109t108 45t108.5 -45t45.5 -109q0 -67 -45 -112t-109 -45t-108.5 45t-44.5 112zM541 1985l159 233q17 25 39 25h183q17 0 24 -10.5t-2 -24.5l-162 -234q-16 -24 -39 -24h-184q-17 0 -22 11t4 24zM762 1720q0 64 45 109t108 45t108.5 -45
t45.5 -109q0 -67 -45 -112t-109 -45t-108.5 45t-44.5 112z" />
    <glyph glyph-name="uni01D8" unicode="&#x1d8;" 
d="M475 -25q-160 0 -260 111.5t-100 304.5v582q0 14 8.5 22.5t21.5 8.5h250q14 0 23.5 -9t9.5 -22v-508q0 -203 168 -203q81 0 127.5 52.5t46.5 150.5v508q0 13 9.5 22t23.5 9h248q14 0 23 -9t9 -22v-942q0 -13 -9 -22t-23 -9h-240q-30 0 -33 33l-8 117q-98 -175 -295 -175z
M215 1290q0 64 45.5 109t108.5 45t108 -45t45 -109q0 -67 -44.5 -112t-108.5 -45t-109 45t-45 112zM463 1554l160 234q16 24 39 24h182q17 0 24 -10t-2 -24l-161 -234q-16 -24 -39 -24h-185q-17 0 -22 10t4 24zM684 1290q0 64 45.5 109t108.5 45t108 -45t45 -109
q0 -67 -44.5 -112t-108.5 -45t-109 45t-45 112z" />
    <glyph glyph-name="uni01D9" unicode="&#x1d9;" horiz-adv-x="1359" 
d="M680 -27q-252 0 -403.5 152t-151.5 436v842q0 13 8.5 22t22.5 9h262q14 0 22.5 -9t8.5 -22v-838q0 -131 59.5 -202.5t171.5 -71.5q110 0 170.5 71.5t60.5 202.5v838q0 13 8.5 22t22.5 9h262q14 0 22.5 -9t8.5 -22v-842q0 -143 -41 -255.5t-115 -185t-175.5 -110
t-223.5 -37.5zM293 1720q0 64 45 109t108 45t108.5 -45t45.5 -109q0 -67 -45 -112t-109 -45t-108.5 45t-44.5 112zM356 2206q-13 14 -9 26.5t24 12.5h164q22 0 36 -17l109 -129l106 129q14 17 37 17h164q20 0 23.5 -12.5t-9.5 -26.5l-188 -226q-13 -16 -35 -16h-198
q-22 0 -35 16zM762 1720q0 64 45 109t108 45t108.5 -45t45.5 -109q0 -67 -45 -112t-109 -45t-108.5 45t-44.5 112z" />
    <glyph glyph-name="uni01DA" unicode="&#x1da;" 
d="M475 -25q-160 0 -260 111.5t-100 304.5v582q0 14 8.5 22.5t21.5 8.5h250q14 0 23.5 -9t9.5 -22v-508q0 -203 168 -203q81 0 127.5 52.5t46.5 150.5v508q0 13 9.5 22t23.5 9h248q14 0 23 -9t9 -22v-942q0 -13 -9 -22t-23 -9h-240q-30 0 -33 33l-8 117q-98 -175 -295 -175z
M215 1290q0 64 45.5 109t108.5 45t108 -45t45 -109q0 -67 -44.5 -112t-108.5 -45t-109 45t-45 112zM281 1776q-13 14 -9.5 26.5t23.5 12.5h164q23 0 37 -17l108 -129l107 129q14 17 37 17h163q20 0 24 -12.5t-9 -26.5l-189 -226q-13 -16 -35 -16h-198q-22 0 -35 16z
M684 1290q0 64 45.5 109t108.5 45t108 -45t45 -109q0 -67 -44.5 -112t-108.5 -45t-109 45t-45 112z" />
    <glyph glyph-name="uni01DB" unicode="&#x1db;" horiz-adv-x="1359" 
d="M680 -27q-252 0 -403.5 152t-151.5 436v842q0 13 8.5 22t22.5 9h262q14 0 22.5 -9t8.5 -22v-838q0 -131 59.5 -202.5t171.5 -71.5q110 0 170.5 71.5t60.5 202.5v838q0 13 8.5 22t22.5 9h262q14 0 22.5 -9t8.5 -22v-842q0 -143 -41 -255.5t-115 -185t-175.5 -110
t-223.5 -37.5zM293 1720q0 64 45 109t108 45t108.5 -45t45.5 -109q0 -67 -45 -112t-109 -45t-108.5 45t-44.5 112zM406 2208q-9 14 -2 24.5t24 10.5h182q24 0 41 -25l158 -233q9 -13 4 -24t-22 -11h-185q-25 0 -41 24zM762 1720q0 64 45 109t108 45t108.5 -45t45.5 -109
q0 -67 -45 -112t-109 -45t-108.5 45t-44.5 112z" />
    <glyph glyph-name="uni01DC" unicode="&#x1dc;" 
d="M475 -25q-160 0 -260 111.5t-100 304.5v582q0 14 8.5 22.5t21.5 8.5h250q14 0 23.5 -9t9.5 -22v-508q0 -203 168 -203q81 0 127.5 52.5t46.5 150.5v508q0 13 9.5 22t23.5 9h248q14 0 23 -9t9 -22v-942q0 -13 -9 -22t-23 -9h-240q-30 0 -33 33l-8 117q-98 -175 -295 -175z
M215 1290q0 64 45.5 109t108.5 45t108 -45t45 -109q0 -67 -44.5 -112t-108.5 -45t-109 45t-45 112zM330 1778q-9 14 -2 24t24 10h183q24 0 40 -24l158 -234q9 -14 4 -24t-22 -10h-185q-25 0 -41 24zM684 1290q0 64 45.5 109t108.5 45t108 -45t45 -109q0 -67 -44.5 -112
t-108.5 -45t-109 45t-45 112z" />
    <glyph glyph-name="Gcaron" unicode="&#x1e6;" horiz-adv-x="1570" 
d="M840 -27q-153 0 -291 56.5t-238 154t-158.5 235t-58.5 292.5q0 207 99 377t268 266t370 96q303 0 502 -205q24 -28 -2 -57l-151 -162q-23 -26 -50 -6q-130 113 -296 113q-176 0 -294 -120t-118 -302q0 -183 120.5 -301.5t307.5 -118.5q149 0 238.5 72.5t95.5 179.5h-338
q-13 0 -22 9t-9 23v224q0 13 8.5 21.5t22.5 8.5h620q14 0 22.5 -8.5t8.5 -21.5v-148q0 -140 -45.5 -263.5t-128.5 -215.5t-208 -145.5t-275 -53.5zM506 1827q-13 13 -9.5 26t23.5 13h164q23 0 37 -17l108 -129l107 129q14 17 37 17h164q20 0 23.5 -13t-9.5 -26l-188 -225
q-14 -17 -35 -17h-199q-21 0 -35 17z" />
    <glyph glyph-name="gcaron" unicode="&#x1e7;" horiz-adv-x="1241" 
d="M592 -420q-245 0 -402 121q-15 10 -17 28t7 33l64 125q20 39 55 19q138 -72 262 -72q52 0 96.5 11.5t84 36t62.5 70t23 107.5v95q-97 -131 -297 -131q-210 0 -338.5 139.5t-128.5 363.5q0 222 129 362t340 140q200 0 297 -133l7 78q0 14 8.5 22.5t21.5 8.5h230
q13 0 21.5 -8.5t8.5 -22.5v-914q0 -107 -32.5 -192t-85 -137.5t-123.5 -87t-143 -48.5t-150 -14zM299 1397q-13 13 -9.5 26t23.5 13h164q23 0 37 -17l109 -129l106 129q14 17 37 17h164q20 0 23.5 -13t-9.5 -26l-188 -226q-13 -16 -35 -16h-199q-22 0 -35 16zM369 526
q0 -101 62.5 -162t162.5 -61q98 0 159.5 60.5t61.5 162.5q0 100 -61.5 161t-159.5 61q-99 0 -162 -61t-63 -161z" />
    <glyph glyph-name="uni01E8" unicode="&#x1e8;" horiz-adv-x="1392" 
d="M166 0q-14 0 -22.5 9t-8.5 22v1372q0 13 8.5 22t22.5 9h262q14 0 22.5 -9t8.5 -22v-598l446 612q14 17 37 17h320q19 0 22.5 -12t-6.5 -25l-473 -596l530 -764q11 -15 6 -26t-24 -11h-305q-24 0 -37 18l-369 529l-147 -187v-329q0 -13 -8.5 -22t-22.5 -9h-262zM375 1827
q-13 13 -9.5 26t23.5 13h164q23 0 37 -17l108 -129l107 129q14 17 37 17h164q20 0 23.5 -13t-9.5 -26l-189 -225q-14 -17 -34 -17h-199q-21 0 -35 17z" />
    <glyph glyph-name="uni01E9" unicode="&#x1e9;" horiz-adv-x="1165" 
d="M145 0q-13 0 -21.5 8.5t-8.5 22.5v1403q0 14 8.5 22t21.5 8h252q14 0 23.5 -8.5t9.5 -21.5v-807l297 360q14 17 37 17h283q21 0 25.5 -11t-7.5 -28l-334 -383l387 -543q11 -17 6 -28t-24 -11h-271q-23 0 -36 18l-250 347l-113 -132v-202q0 -13 -9.5 -22t-23.5 -9h-252z
M-49 1858q-13 14 -9.5 26t23.5 12h164q24 0 37 -16l108 -129l107 129q13 16 37 16h164q20 0 23.5 -12t-9.5 -26l-188 -226q-13 -16 -35 -16h-199q-22 0 -35 16z" />
    <glyph glyph-name="uni01EA" unicode="&#x1ea;" horiz-adv-x="1662" 
d="M1014 -406q-47 -21 -110 -21.5t-122.5 18.5t-101 71t-41.5 127q0 112 88 193q-132 18 -249 82t-201.5 159t-133.5 222t-49 266q0 153 58.5 290.5t157.5 235.5t235 155.5t286 57.5q201 0 371 -97t269.5 -267.5t99.5 -374.5q0 -254 -152 -449.5t-389 -261.5
q-137 -53 -137 -141q0 -39 28.5 -61.5t92.5 -10.5v-193zM422 711q0 -178 118 -299t291 -121q175 0 292.5 120.5t117.5 299.5q0 181 -117.5 301.5t-292.5 120.5q-174 0 -291.5 -120.5t-117.5 -301.5z" />
    <glyph glyph-name="uni01EB" unicode="&#x1eb;" horiz-adv-x="1179" 
d="M745 -406q-48 -21 -110.5 -21.5t-122 18.5t-100.5 71t-41 127q0 118 96 201q-180 38 -292 180t-112 332q0 224 150.5 375t376.5 151t377 -151t151 -375q0 -182 -103 -320t-270 -186q-58 -23 -90 -59t-32 -78q0 -38 29 -61t93 -11v-193zM365 502q0 -108 64 -174t161 -66
t161 66t64 174t-64 173.5t-161 65.5t-161 -65.5t-64 -173.5z" />
    <glyph glyph-name="uni0218" unicode="&#x218;" horiz-adv-x="1142" 
d="M569 -25q-158 0 -280 65.5t-195 162.5q-17 21 4 45l138 155q22 26 47 7q74 -72 137.5 -105t142.5 -33q81 0 129.5 33t48.5 98q0 25 -8 45t-18 32.5t-34 27.5t-39.5 23t-51.5 24l-174 82q-63 28 -111.5 60.5t-92.5 80t-67.5 113t-23.5 145.5q0 194 128.5 304t323.5 110
q247 0 431 -190q22 -22 2 -48l-136 -161q-8 -11 -20 -14.5t-23 3.5q-71 60 -126.5 86.5t-116.5 26.5q-70 0 -110 -32.5t-40 -88.5q0 -27 7.5 -46.5t34 -38.5t42 -27.5t66.5 -32.5l12 -6l145 -66q55 -26 92.5 -47t83.5 -58t73.5 -77t47 -99.5t19.5 -130.5q0 -87 -27.5 -159
t-74.5 -121t-110 -83t-132.5 -49.5t-143.5 -15.5zM387 -238q0 75 55 129t131 54q83 0 143 -61.5t60 -180.5q0 -73 -25.5 -136t-66.5 -106t-91.5 -73t-102 -42.5t-97.5 -9.5v68q90 -1 157 71q44 47 42 83q-2 22 -25 22q-73 0 -126.5 54t-53.5 128z" />
    <glyph glyph-name="uni0219" unicode="&#x219;" horiz-adv-x="923" 
d="M467 -25q-123 0 -222 45.5t-165 124.5q-18 25 6 60l82 114q19 31 51 11q131 -94 227 -94q93 0 93 65q0 29 -19.5 47t-70.5 39l-132 53q-217 84 -217 279q0 142 104.5 225.5t256.5 83.5q100 0 190 -41t156 -117q15 -18 -2 -43l-105 -122q-19 -19 -47 0q-102 79 -176 79
q-42 0 -61 -19t-19 -46q0 -48 80 -80l152 -59q226 -89 221 -291q-1 -100 -55 -172.5t-139 -107t-189 -34.5zM279 -238q0 75 55 129t131 54q83 0 143 -61.5t60 -180.5q0 -73 -25.5 -136t-66.5 -106t-91.5 -73t-102 -42.5t-97.5 -9.5v68q90 -1 157 71q44 47 42 83
q-2 22 -25 22q-73 0 -126.5 54t-53.5 128z" />
    <glyph glyph-name="uni021A" unicode="&#x21a;" horiz-adv-x="1120" 
d="M430 0q-14 0 -23.5 9t-9.5 22v1116h-272q-13 0 -22 8.5t-9 22.5v225q0 13 9 22t22 9h870q14 0 23.5 -9t9.5 -22v-225q0 -13 -9.5 -22t-23.5 -9h-272v-1116q0 -13 -8.5 -22t-22.5 -9h-262zM371 -233q0 75 54.5 128.5t131.5 53.5q83 0 143 -61.5t60 -180.5
q0 -90 -38.5 -164.5t-97 -118t-124 -65.5t-123.5 -18v67q90 -1 157 71q44 47 42 83q-2 22 -25 22q-72 0 -126 54t-54 129z" />
    <glyph glyph-name="uni021B" unicode="&#x21b;" horiz-adv-x="763" 
d="M532 -12q-66 0 -121 16t-102 50.5t-73.5 96.5t-26.5 146v465h-125q-14 0 -22.5 9t-8.5 22v180q0 13 8.5 22t22.5 9h125v235q0 13 9.5 22t23.5 9h252q14 0 23 -9t9 -22v-235h154q14 0 22.5 -9t8.5 -22v-180q0 -13 -8.5 -22t-22.5 -9h-154v-432q0 -39 23.5 -60.5
t62.5 -21.5q37 0 64 2q15 2 26 -6t11 -23v-170q0 -34 -56 -48.5t-125 -14.5zM295 -229q0 75 54.5 128.5t131.5 53.5q83 0 143 -61.5t60 -180.5q0 -90 -38.5 -164.5t-97 -118t-124 -65.5t-123.5 -18v67q90 -1 157 71q44 47 42 83q-2 22 -25 22q-72 0 -126 54t-54 129z" />
    <glyph glyph-name="uni0237" unicode="&#x237;" horiz-adv-x="550" 
d="M86 -410q-99 0 -168 35q-18 9 -18 33v207q0 18 26 14q70 -12 86 -12q67 0 93 30t26 87v989q0 13 9.5 22t23.5 9h252q14 0 23.5 -9t9.5 -22v-1030q0 -179 -95 -266t-268 -87z" />
    <glyph glyph-name="uni0259" unicode="&#x259;" horiz-adv-x="1126" 
d="M547 -25q-148 0 -260 67t-168 175.5t-56 239.5q0 82 25.5 123t91.5 41h578q-52 161 -273 161q-123 0 -221 -55q-20 -11 -35 10l-86 119q-15 22 11 45q127 127 356 127q246 0 400.5 -149t154.5 -381q0 -147 -64.5 -266t-183.5 -188t-270 -69zM340 403q14 -86 69 -128
t136 -42q84 0 141.5 42t75.5 128h-422z" />
    <glyph glyph-name="uni02BC" unicode="&#x2bc;" horiz-adv-x="505" 
d="M262 909q-83 0 -143 61.5t-60 180.5q0 62 25.5 116t66 90.5t91.5 62t102.5 36t97.5 8.5v-67q-98 0 -166 -56q-41 -34 -34 -55q4 -12 24 -12q73 0 128 -54t55 -128q0 -75 -55 -129t-132 -54z" />
    <glyph glyph-name="uni02BD" unicode="&#x2bd;" horiz-adv-x="505" 
d="M442 915q-46 -2 -97.5 8.5t-102.5 36.5t-91.5 62.5t-66 90.5t-25.5 116q0 118 60 179.5t143 61.5q77 0 132 -53.5t55 -128.5q0 -74 -55 -128t-128 -54q-32 0 -23 -26q11 -32 64 -62q62 -35 135 -35v-68z" />
    <glyph glyph-name="circumflex" unicode="&#x2c6;" horiz-adv-x="727" 
d="M55 1151q-19 0 -23 13.5t9 27.5l188 225q14 17 35 17h199q21 0 35 -17l188 -225q13 -14 9 -27.5t-23 -13.5h-164q-24 0 -37 16l-106 131l-109 -131q-13 -16 -37 -16h-164z" />
    <glyph glyph-name="caron" unicode="&#x2c7;" horiz-adv-x="727" 
d="M264 1155q-22 0 -35 16l-188 226q-13 13 -9.5 26t23.5 13h164q23 0 37 -17l109 -129l106 129q14 17 37 17h164q20 0 23.5 -13t-9.5 -26l-188 -226q-13 -16 -35 -16h-199z" />
    <glyph glyph-name="breve" unicode="&#x2d8;" horiz-adv-x="722" 
d="M362 1135q-149 0 -237 74t-94 194q-3 31 28 31h127q30 0 33 -29q7 -42 42 -72t101 -30t100.5 29.5t41.5 72.5q3 29 33 29h127q31 0 28 -31q-6 -120 -93.5 -194t-236.5 -74z" />
    <glyph glyph-name="dotaccent" unicode="&#x2d9;" horiz-adv-x="403" 
d="M201 1124q-73 0 -121.5 49.5t-48.5 120.5q0 73 48.5 122.5t121.5 49.5q74 0 123 -49.5t49 -122.5q0 -71 -49 -120.5t-123 -49.5z" />
    <glyph glyph-name="ring" unicode="&#x2da;" horiz-adv-x="505" 
d="M252 1094q-98 0 -159.5 62t-61.5 153q0 92 61.5 155.5t159.5 63.5q99 0 161 -63.5t62 -155.5q0 -91 -62 -153t-161 -62zM207 1311q0 -19 12.5 -33t32.5 -14q21 0 34 14t13 33t-13 33t-34 14q-20 0 -32.5 -14t-12.5 -33z" />
    <glyph glyph-name="ogonek" unicode="&#x2db;" horiz-adv-x="468" 
d="M395 -406q-47 -21 -110 -21.5t-122.5 18.5t-101 71t-41.5 127q0 65 32 121t81 93.5t108 64.5t112.5 39t95.5 12v-119q-83 0 -129 -44.5t-46 -96.5q0 -40 28.5 -62t92.5 -10v-193z" />
    <glyph glyph-name="tilde" unicode="&#x2dc;" horiz-adv-x="825" 
d="M571 1161q-45 0 -83 14.5t-62.5 35.5t-46.5 42t-46.5 35.5t-51.5 14.5q-71 0 -82 -56q-3 -16 -23 -16h-125q-20 0 -20 26q3 108 66.5 165t156.5 57q45 0 83 -14.5t63 -35.5t47 -42t46.5 -35.5t51.5 -14.5q71 0 82 56q3 16 22 16h125q21 0 21 -20q-3 -112 -67 -170
t-157 -58z" />
    <glyph glyph-name="hungarumlaut" unicode="&#x2dd;" horiz-adv-x="886" 
d="M465 1141q-17 0 -22.5 10.5t3.5 24.5l160 233q17 25 39 25h182q17 0 24.5 -11t-1.5 -24l-162 -234q-16 -24 -39 -24h-184zM37 1176l160 233q17 25 39 25h182q17 0 24 -11t-2 -24l-161 -234q-16 -24 -39 -24h-185q-17 0 -22 10.5t4 24.5z" />
    <glyph glyph-name="gravecomb" unicode="&#x300;" horiz-adv-x="0" 
d="M238 1141q-25 0 -41 24l-160 234q-9 13 -2 24t24 11h183q24 0 41 -25l157 -233q9 -14 4 -24.5t-22 -10.5h-184z" />
    <glyph glyph-name="acutecomb" unicode="&#x301;" horiz-adv-x="0" 
d="M55 1141q-17 0 -22 10.5t4 24.5l160 233q17 25 39 25h182q17 0 24 -11t-2 -24l-161 -234q-16 -24 -39 -24h-185z" />
    <glyph glyph-name="uni0302" unicode="&#x302;" horiz-adv-x="0" 
d="M55 1151q-19 0 -23 13.5t9 27.5l188 225q14 17 35 17h199q21 0 35 -17l188 -225q13 -14 9 -27.5t-23 -13.5h-164q-24 0 -37 16l-106 131l-109 -131q-13 -16 -37 -16h-164z" />
    <glyph glyph-name="tildecomb" unicode="&#x303;" horiz-adv-x="0" 
d="M571 1161q-45 0 -83 14.5t-62.5 35.5t-46.5 42t-46.5 35.5t-51.5 14.5q-71 0 -82 -56q-3 -16 -23 -16h-125q-20 0 -20 26q3 108 66.5 165t156.5 57q45 0 83 -14.5t63 -35.5t47 -42t46.5 -35.5t51.5 -14.5q71 0 82 56q3 16 22 16h125q21 0 21 -20q-3 -112 -67 -170
t-157 -58z" />
    <glyph glyph-name="uni0304" unicode="&#x304;" horiz-adv-x="0" 
d="M61 1192q-13 0 -21.5 8.5t-8.5 22.5v180q0 14 8.5 22.5t21.5 8.5h637q14 0 22.5 -9t8.5 -22v-180q0 -13 -8.5 -22t-22.5 -9h-637z" />
    <glyph glyph-name="uni0306" unicode="&#x306;" horiz-adv-x="0" 
d="M362 1135q-149 0 -237 74t-94 194q-3 31 28 31h127q30 0 33 -29q7 -42 42 -72t101 -30t100.5 29.5t41.5 72.5q3 29 33 29h127q31 0 28 -31q-6 -120 -93.5 -194t-236.5 -74z" />
    <glyph glyph-name="uni0307" unicode="&#x307;" horiz-adv-x="0" 
d="M201 1124q-73 0 -121.5 49.5t-48.5 120.5q0 73 48.5 122.5t121.5 49.5q74 0 123 -49.5t49 -122.5q0 -71 -49 -120.5t-123 -49.5z" />
    <glyph glyph-name="uni0308" unicode="&#x308;" horiz-adv-x="0" 
d="M653 1133q-64 0 -108.5 45t-44.5 112q0 64 45 109t108 45t108.5 -45t45.5 -109q0 -67 -45 -112t-109 -45zM31 1290q0 64 45 109t108 45t108.5 -45t45.5 -109q0 -67 -45 -112t-109 -45t-108.5 45t-44.5 112z" />
    <glyph glyph-name="hookabovecomb" unicode="&#x309;" horiz-adv-x="0" 
d="M264 1149q-26 0 -26 29v88q0 24 28 30q72 18 72 76q0 30 -22.5 50t-55.5 20q-26 0 -43 -17q-22 -20 -41 2l-63 70q-20 23 0 43q56 62 157 62q103 0 168.5 -64.5t65.5 -161.5q0 -57 -24 -102.5t-61.5 -71.5t-77.5 -39.5t-77 -13.5z" />
    <glyph glyph-name="uni030A" unicode="&#x30a;" horiz-adv-x="0" 
d="M252 1094q-98 0 -159.5 62t-61.5 153q0 92 61.5 155.5t159.5 63.5q99 0 161 -63.5t62 -155.5q0 -91 -62 -153t-161 -62zM207 1311q0 -19 12.5 -33t32.5 -14q21 0 34 14t13 33t-13 33t-34 14q-20 0 -32.5 -14t-12.5 -33z" />
    <glyph glyph-name="uni030B" unicode="&#x30b;" horiz-adv-x="0" 
d="M465 1141q-17 0 -22.5 10.5t3.5 24.5l160 233q17 25 39 25h182q17 0 24.5 -11t-1.5 -24l-162 -234q-16 -24 -39 -24h-184zM37 1176l160 233q17 25 39 25h182q17 0 24 -11t-2 -24l-161 -234q-16 -24 -39 -24h-185q-17 0 -22 10.5t4 24.5z" />
    <glyph glyph-name="uni030C" unicode="&#x30c;" horiz-adv-x="0" 
d="M264 1155q-22 0 -35 16l-188 226q-13 13 -9.5 26t23.5 13h164q23 0 37 -17l109 -129l106 129q14 17 37 17h164q20 0 23.5 -13t-9.5 -26l-188 -226q-13 -16 -35 -16h-199z" />
    <glyph glyph-name="uni0312" unicode="&#x312;" horiz-adv-x="0" 
d="M262 1130q-83 0 -143 62.5t-60 181.5q0 77 38.5 140t97 100t124 56t123.5 16v-68q-98 0 -166 -56q-41 -33 -34 -55q4 -11 24 -12q73 0 128 -54t55 -128q0 -75 -55 -129t-132 -54z" />
    <glyph glyph-name="uni031B" unicode="&#x31b;" horiz-adv-x="0" 
d="M0 745v259h115q72 0 105.5 32.5t33.5 98.5v104q0 13 9 22t22 9h250q14 0 23 -9t9 -22v-125q0 -174 -99.5 -271.5t-279.5 -97.5h-188z" />
    <glyph glyph-name="dotbelowcomb" unicode="&#x323;" horiz-adv-x="0" 
d="M252 -422q-60 0 -105 45t-45 105t45 106.5t105 46.5q61 0 106 -46t45 -107q0 -60 -45 -105t-106 -45z" />
    <glyph glyph-name="uni0326" unicode="&#x326;" horiz-adv-x="0" 
d="M4 -596q90 -1 157 71q44 47 42 83q-2 22 -25 22q-72 0 -126 54t-54 128q0 75 55 129t131 54q83 0 143 -61.5t60 -180.5q0 -73 -25.5 -136t-66.5 -106t-91.5 -73t-102 -42.5t-97.5 -9.5v68z" />
    <glyph glyph-name="uni0327" unicode="&#x327;" horiz-adv-x="0" 
d="M49 -449q-18 3 -18 23v109q0 20 22 20q80 -9 123 5t43 44q0 14 -21.5 25.5t-58 13.5t-84.5 -14q-11 -6 -17.5 -1.5t-6.5 15.5v115q0 14 10 24l78 70h196l-73 -63q73 -8 128.5 -54t55.5 -119q0 -89 -57 -144t-140 -69.5t-180 0.5z" />
    <glyph glyph-name="uni0328" unicode="&#x328;" horiz-adv-x="0" 
d="M395 -406q-47 -21 -110 -21.5t-122.5 18.5t-101 71t-41.5 127q0 65 32 121t81 93.5t108 64.5t112.5 39t95.5 12v-119q-83 0 -129 -44.5t-46 -96.5q0 -40 28.5 -62t92.5 -10v-193z" />
    <glyph glyph-name="uni0372" unicode="&#x372;" horiz-adv-x="1120" 
d="M430 0q-14 0 -23.5 9t-9.5 22v1116h-272q-13 0 -22 8.5t-9 22.5v225q0 13 9 22t22 9h870q14 0 23.5 -9t9.5 -22v-225q0 -13 -9.5 -22t-23.5 -9h-272v-1116q0 -13 -8.5 -22t-22.5 -9h-262z" />
    <glyph glyph-name="uni0374" unicode="&#x374;" horiz-adv-x="415" 
d="M0 786l231 648h185l-232 -648h-184z" />
    <glyph glyph-name="uni0375" unicode="&#x375;" horiz-adv-x="415" 
d="M0 -389l231 647h185l-232 -647h-184z" />
    <glyph glyph-name="uni037E" unicode="&#x37e;" horiz-adv-x="546" 
d="M264 659q-76 0 -129 54t-53 129q0 77 53 131.5t129 54.5t129 -54.5t53 -131.5q0 -75 -53 -129t-129 -54zM78 160q0 75 54.5 128.5t131.5 53.5q83 0 143 -61.5t60 -180.5q0 -90 -38.5 -164.5t-97 -118t-124 -65.5t-123.5 -18v67q90 -1 157 71q44 47 42 83q-2 22 -25 22
q-72 0 -126 54t-54 129z" />
    <glyph glyph-name="tonos" unicode="&#x384;" horiz-adv-x="464" 
d="M84 1141q-16 0 -20.5 10.5t2.5 24.5l88 233q11 25 41 25h184q16 0 21.5 -11t-1.5 -24l-90 -234q-11 -24 -41 -24h-184z" />
    <glyph glyph-name="dieresistonos" unicode="&#x385;" horiz-adv-x="1024" 
d="M373 1141q-16 0 -21 10.5t2 24.5l90 233q11 25 41 25h158q17 0 23.5 -11t-0.5 -24l-93 -234q-11 -24 -41 -24h-159zM61 1305q0 59 40 99t98 40t98.5 -40t40.5 -99q0 -58 -41 -98t-98 -40t-97.5 40t-40.5 98zM686 1305q0 59 40 99t97 40q58 0 99 -40t41 -99q0 -58 -41 -98
t-99 -40q-57 0 -97 40t-40 98z" />
    <glyph glyph-name="Alphatonos" unicode="&#x386;" horiz-adv-x="1433" 
d="M90 0q-17 0 -25 10t-2 25l476 1374q9 25 39 25h278q30 0 39 -25l475 -1374q6 -15 -0.5 -25t-23.5 -10h-275q-27 0 -35 25l-61 192h-516l-62 -192q-8 -25 -35 -25h-272zM41 1176l88 233q11 25 41 25h184q17 0 22.5 -11t-1.5 -24l-90 -234q-11 -24 -41 -24h-185
q-16 0 -20.5 10.5t2.5 24.5zM551 504h332l-166 518z" />
    <glyph glyph-name="anoteleia" unicode="&#x387;" horiz-adv-x="632" 
d="M317 659q-76 0 -129 54t-53 129q0 77 53 131.5t129 54.5t129.5 -54.5t53.5 -131.5q0 -75 -53.5 -129t-129.5 -54z" />
    <glyph glyph-name="Epsilontonos" unicode="&#x388;" horiz-adv-x="1048" 
d="M166 0q-14 0 -22.5 9t-8.5 22v1372q0 13 8.5 22t22.5 9h739q13 0 22 -9t9 -22v-225q0 -14 -9 -22.5t-22 -8.5h-446v-281h420q13 0 21.5 -8t8.5 -22v-226q0 -14 -8.5 -22t-21.5 -8h-420v-293h444q14 0 23.5 -9t9.5 -22v-225q0 -13 -9.5 -22t-23.5 -9h-737zM-289 1176
l88 233q11 25 41 25h185q16 0 21.5 -11t-1.5 -24l-90 -234q-11 -24 -41 -24h-184q-16 0 -21 10.5t2 24.5z" />
    <glyph glyph-name="Etatonos" unicode="&#x389;" horiz-adv-x="1409" 
d="M166 0q-14 0 -22.5 9t-8.5 22v1372q0 13 8.5 22t22.5 9h262q14 0 22.5 -9t8.5 -22v-557h491v557q0 13 9 22t22 9h262q14 0 23.5 -9t9.5 -22v-1372q0 -13 -9.5 -22t-23.5 -9h-262q-13 0 -22 9t-9 22v528h-491v-528q0 -13 -8.5 -22t-22.5 -9h-262zM-283 1176l88 233
q11 25 41 25h185q16 0 21.5 -11t-1.5 -24l-90 -234q-11 -24 -41 -24h-184q-16 0 -21 10.5t2 24.5z" />
    <glyph glyph-name="Iotatonos" unicode="&#x38a;" horiz-adv-x="593" 
d="M166 0q-14 0 -22.5 9t-8.5 22v1372q0 13 8.5 22t22.5 9h262q14 0 22.5 -9t8.5 -22v-1372q0 -13 -8.5 -22t-22.5 -9h-262zM-283 1176l88 233q11 25 41 25h185q16 0 21.5 -11t-1.5 -24l-90 -234q-11 -24 -41 -24h-184q-16 0 -21 10.5t2 24.5z" />
    <glyph glyph-name="Omicrontonos" unicode="&#x38c;" horiz-adv-x="1662" 
d="M831 -27q-200 0 -369.5 97.5t-268.5 267.5t-99 373q0 153 58.5 290.5t157.5 235.5t235 155.5t286 57.5q201 0 371 -97t269.5 -267.5t99.5 -374.5q0 -203 -99.5 -373t-269.5 -267.5t-371 -97.5zM-86 1176l88 233q11 25 41 25h184q17 0 22.5 -11t-1.5 -24l-90 -234
q-11 -24 -41 -24h-185q-16 0 -20.5 10.5t2.5 24.5zM422 711q0 -178 118 -299t291 -121q175 0 292.5 120.5t117.5 299.5q0 181 -117.5 301.5t-292.5 120.5q-174 0 -291.5 -120.5t-117.5 -301.5z" />
    <glyph glyph-name="Upsilontonos" unicode="&#x38e;" horiz-adv-x="1298" 
d="M518 0q-14 0 -22.5 9t-8.5 22v628l-417 738q-19 37 20 37h272q25 0 37 -21l250 -459l250 459q12 21 39 21h272q40 0 21 -37l-418 -740v-626q0 -13 -9.5 -22t-23.5 -9h-262zM-336 1176l88 233q11 25 41 25h184q17 0 22.5 -11t-1.5 -24l-90 -234q-11 -24 -41 -24h-184
q-16 0 -21 10.5t2 24.5z" />
    <glyph glyph-name="Omegatonos" unicode="&#x38f;" horiz-adv-x="1646" 
d="M123 0q-13 0 -22 9t-9 22v198q0 13 9 22t22 9h192v31q-80 57 -132 141t-70.5 163.5t-18.5 164.5q0 143 57 271.5t154 220t232 145t286 53.5t286 -53.5t233 -145t155 -220t57 -271.5q0 -85 -18.5 -164.5t-70.5 -163.5t-132 -141v-31h191q13 0 21.5 -8.5t8.5 -22.5v-198
q0 -14 -8.5 -22.5t-21.5 -8.5h-490q-13 0 -21.5 8.5t-8.5 22.5v356q101 48 162 144.5t61 216.5q0 166 -117 277.5t-287 111.5t-286.5 -111.5t-116.5 -277.5q0 -120 61 -216.5t162 -144.5v-356q0 -13 -8.5 -22t-22.5 -9h-489zM-117 1176l88 233q11 25 43 25h185
q16 0 21.5 -11t-1.5 -24l-90 -234q-11 -24 -41 -24h-186q-16 0 -21 10.5t2 24.5z" />
    <glyph glyph-name="iotadieresistonos" unicode="&#x390;" horiz-adv-x="636" 
d="M438 -25q-66 0 -121.5 16t-102 51t-73 97t-26.5 146v688q0 14 8.5 22.5t21.5 8.5h252q14 0 23.5 -9t9.5 -22v-654q0 -40 23.5 -61.5t62.5 -21.5q37 0 64 2q15 2 25.5 -6t10.5 -23v-170q0 -34 -56 -49t-122 -15zM-121 1305q0 59 39.5 99t97.5 40t99 -40t41 -99
q0 -58 -41 -98t-99 -40q-57 0 -97 40t-40 98zM172 1176l90 233q11 25 41 25h158q17 0 23 -11t-1 -24l-92 -234q-11 -24 -41 -24h-160q-16 0 -20.5 10.5t2.5 24.5zM504 1305q0 59 40 99t97 40q58 0 98.5 -40t40.5 -99q0 -58 -41 -98t-98 -40t-97 40t-40 98z" />
    <glyph glyph-name="Alpha" unicode="&#x391;" horiz-adv-x="1433" 
d="M90 0q-17 0 -25 10t-2 25l476 1374q9 25 39 25h278q30 0 39 -25l475 -1374q6 -15 -0.5 -25t-23.5 -10h-275q-27 0 -35 25l-61 192h-516l-62 -192q-8 -25 -35 -25h-272zM551 504h332l-166 518z" />
    <glyph glyph-name="Beta" unicode="&#x392;" horiz-adv-x="1216" 
d="M166 0q-14 0 -22.5 9t-8.5 22v1372q0 13 8.5 22t22.5 9h498q185 0 291 -104.5t106 -260.5q0 -107 -53 -184t-131 -115q54 -14 102 -43t88.5 -72.5t64 -107.5t23.5 -139q0 -188 -130 -298t-382 -110h-477zM455 285h168q95 0 148.5 42t53.5 128q0 166 -202 166h-168v-336z
M455 872h141q160 0 160 144q0 133 -160 133h-141v-277z" />
    <glyph glyph-name="Gamma" unicode="&#x393;" horiz-adv-x="1028" 
d="M166 0q-14 0 -22.5 9t-8.5 22v1372q0 13 8.5 22t22.5 9h768q14 0 22.5 -9t8.5 -22v-225q0 -14 -8.5 -22.5t-22.5 -8.5h-475v-1116q0 -13 -8.5 -22t-22.5 -9h-262z" />
    <glyph glyph-name="uni0394" unicode="&#x394;" horiz-adv-x="1421" 
d="M111 0q-67 0 -43 70l464 1339q9 25 39 25h279q30 0 39 -25l465 -1339q20 -70 -43 -70h-1200zM475 279h471l-235 741z" />
    <glyph glyph-name="Epsilon" unicode="&#x395;" horiz-adv-x="1048" 
d="M166 0q-14 0 -22.5 9t-8.5 22v1372q0 13 8.5 22t22.5 9h739q13 0 22 -9t9 -22v-225q0 -14 -9 -22.5t-22 -8.5h-446v-281h420q13 0 21.5 -8t8.5 -22v-226q0 -14 -8.5 -22t-21.5 -8h-420v-293h444q14 0 23.5 -9t9.5 -22v-225q0 -13 -9.5 -22t-23.5 -9h-737z" />
    <glyph glyph-name="Zeta" unicode="&#x396;" horiz-adv-x="1130" 
d="M115 0q-13 0 -22 9t-9 22v235q0 17 10 37l594 844h-553q-13 0 -22 8.5t-9 22.5v225q0 13 9 22t22 9h850q14 0 23.5 -9t9.5 -22v-236q0 -13 -12 -37l-594 -843h594q14 0 23 -9t9 -22v-225q0 -13 -9 -22t-23 -9h-891z" />
    <glyph glyph-name="Eta" unicode="&#x397;" horiz-adv-x="1409" 
d="M166 0q-14 0 -22.5 9t-8.5 22v1372q0 13 8.5 22t22.5 9h262q14 0 22.5 -9t8.5 -22v-557h491v557q0 13 9 22t22 9h262q14 0 23.5 -9t9.5 -22v-1372q0 -13 -9.5 -22t-23.5 -9h-262q-13 0 -22 9t-9 22v528h-491v-528q0 -13 -8.5 -22t-22.5 -9h-262z" />
    <glyph glyph-name="Theta" unicode="&#x398;" horiz-adv-x="1662" 
d="M594 592q-14 0 -22.5 9t-8.5 22v178q0 14 9 23.5t22 9.5h475q13 0 23 -10t10 -23v-178q0 -13 -9.5 -22t-23.5 -9h-475zM94 711q0 153 58.5 290.5t157.5 235.5t235 155.5t286 57.5q201 0 371 -97t269.5 -267.5t99.5 -374.5q0 -203 -99.5 -373t-269.5 -267.5t-371 -97.5
q-200 0 -369.5 97.5t-268.5 267.5t-99 373zM422 711q0 -178 118 -299t291 -121q175 0 292.5 120.5t117.5 299.5q0 181 -117.5 301.5t-292.5 120.5q-174 0 -291.5 -120.5t-117.5 -301.5z" />
    <glyph glyph-name="Iota" unicode="&#x399;" horiz-adv-x="593" 
d="M166 0q-14 0 -22.5 9t-8.5 22v1372q0 13 8.5 22t22.5 9h262q14 0 22.5 -9t8.5 -22v-1372q0 -13 -8.5 -22t-22.5 -9h-262z" />
    <glyph glyph-name="Kappa" unicode="&#x39a;" horiz-adv-x="1392" 
d="M166 0q-14 0 -22.5 9t-8.5 22v1372q0 13 8.5 22t22.5 9h262q14 0 22.5 -9t8.5 -22v-598l446 612q14 17 37 17h320q19 0 22.5 -12t-6.5 -25l-473 -596l530 -764q11 -15 6 -26t-24 -11h-305q-24 0 -37 18l-369 529l-147 -187v-329q0 -13 -8.5 -22t-22.5 -9h-262z" />
    <glyph glyph-name="Lambda" unicode="&#x39b;" horiz-adv-x="1433" 
d="M90 0q-17 0 -25 10t-2 25l476 1374q9 25 39 25h278q30 0 39 -25l475 -1374q6 -15 -0.5 -25t-23.5 -10h-275q-27 0 -35 25l-319 997l-320 -997q-8 -25 -35 -25h-272z" />
    <glyph glyph-name="Mu" unicode="&#x39c;" horiz-adv-x="1810" 
d="M166 0q-14 0 -22.5 9t-8.5 22v1372q0 13 8.5 22t22.5 9h299q26 0 35 -21l405 -1036l406 1036q9 21 37 21h299q13 0 21.5 -8.5t8.5 -22.5v-1372q0 -14 -8.5 -22.5t-21.5 -8.5h-263q-14 0 -23 9t-9 22v790l-295 -796q-9 -25 -37 -25h-229q-28 0 -37 25l-295 796v-790
q0 -13 -8.5 -22t-22.5 -9h-262z" />
    <glyph glyph-name="Nu" unicode="&#x39d;" horiz-adv-x="1441" 
d="M971 0q-26 0 -37 20l-475 887v-876q0 -13 -8.5 -22t-22.5 -9h-262q-14 0 -22.5 9t-8.5 22v1372q0 13 8.5 22t22.5 9h305q25 0 37 -21l475 -887v877q0 13 8.5 22t22.5 9h262q14 0 22.5 -9t8.5 -22v-1372q0 -13 -8.5 -22t-22.5 -9h-305z" />
    <glyph glyph-name="Xi" unicode="&#x39e;" horiz-adv-x="1161" 
d="M145 1147q-15 0 -23.5 8.5t-8.5 22.5v225q0 14 8.5 22.5t23.5 8.5h871q14 0 22.5 -9t8.5 -22v-225q0 -14 -8.5 -22.5t-22.5 -8.5h-871zM115 31v225q0 14 8.5 22.5t21.5 8.5h871q14 0 22.5 -8.5t8.5 -22.5v-225q0 -13 -8.5 -22t-22.5 -9h-871q-13 0 -21.5 8.5t-8.5 22.5z
M139 610v226q0 13 8.5 21.5t22.5 8.5h819q14 0 23.5 -8.5t9.5 -21.5v-226q0 -13 -9.5 -21.5t-23.5 -8.5h-819q-14 0 -22.5 8.5t-8.5 21.5z" />
    <glyph glyph-name="Omicron" unicode="&#x39f;" horiz-adv-x="1662" 
d="M831 -27q-200 0 -369.5 97.5t-268.5 267.5t-99 373q0 153 58.5 290.5t157.5 235.5t235 155.5t286 57.5q201 0 371 -97t269.5 -267.5t99.5 -374.5q0 -203 -99.5 -373t-269.5 -267.5t-371 -97.5zM422 711q0 -178 118 -299t291 -121q175 0 292.5 120.5t117.5 299.5
q0 181 -117.5 301.5t-292.5 120.5q-174 0 -291.5 -120.5t-117.5 -301.5z" />
    <glyph glyph-name="Pi" unicode="&#x3a0;" horiz-adv-x="1372" 
d="M166 0q-14 0 -22.5 9t-8.5 22v1372q0 13 8.5 22t22.5 9h1040q14 0 23.5 -9t9.5 -22v-1372q0 -13 -9.5 -22t-23.5 -9h-262q-14 0 -22.5 9t-8.5 22v1116h-454v-1116q0 -13 -8.5 -22t-22.5 -9h-262z" />
    <glyph glyph-name="Rho" unicode="&#x3a1;" horiz-adv-x="1189" 
d="M166 0q-14 0 -22.5 9t-8.5 22v1372q0 13 8.5 22t22.5 9h440q252 0 381 -127t129 -344t-129 -343t-381 -126h-147v-463q0 -13 -8.5 -22t-22.5 -9h-262zM459 780h139q209 0 209 183q0 184 -209 184h-139v-367z" />
    <glyph glyph-name="Sigma" unicode="&#x3a3;" horiz-adv-x="1085" 
d="M166 0q-14 0 -22.5 9t-8.5 22v235q0 25 10 39l277 412l-277 411q-10 14 -10 39v236q0 13 8.5 22t22.5 9h776q14 0 22.5 -9t8.5 -22v-225q0 -14 -8.5 -22.5t-22.5 -8.5h-467l277 -410q12 -21 0 -41l-275 -409h463q14 0 23.5 -9t9.5 -22v-225q0 -13 -9.5 -22t-23.5 -9h-774
z" />
    <glyph glyph-name="Tau" unicode="&#x3a4;" horiz-adv-x="1120" 
d="M430 0q-14 0 -23.5 9t-9.5 22v1116h-272q-13 0 -22 8.5t-9 22.5v225q0 13 9 22t22 9h870q14 0 23.5 -9t9.5 -22v-225q0 -13 -9.5 -22t-23.5 -9h-272v-1116q0 -13 -8.5 -22t-22.5 -9h-262z" />
    <glyph glyph-name="Upsilon" unicode="&#x3a5;" horiz-adv-x="1298" 
d="M518 0q-14 0 -22.5 9t-8.5 22v628l-417 738q-19 37 20 37h272q25 0 37 -21l250 -459l250 459q12 21 39 21h272q40 0 21 -37l-418 -740v-626q0 -13 -9.5 -22t-23.5 -9h-262z" />
    <glyph glyph-name="Phi" unicode="&#x3a6;" horiz-adv-x="1765" 
d="M709 123q-155 0 -280.5 50.5t-204 135t-120 189.5t-41.5 219t41.5 219t120 189.5t204 135t280.5 50.5v92q0 14 8.5 22.5t21.5 8.5h262q14 0 23.5 -9t9.5 -22v-92h2q155 0 280.5 -50.5t203.5 -135t119.5 -189.5t41.5 -219t-41.5 -219t-119.5 -189.5t-203.5 -135
t-280.5 -50.5h-2v-92q0 -13 -9.5 -22t-23.5 -9h-262q-13 0 -21.5 8.5t-8.5 22.5v92zM391 717q0 -138 80.5 -222.5t237.5 -84.5v614q-157 0 -237.5 -84.5t-80.5 -222.5zM1034 410h2q157 0 237.5 84.5t80.5 222.5t-80.5 222.5t-237.5 84.5h-2v-614z" />
    <glyph glyph-name="Chi" unicode="&#x3a7;" horiz-adv-x="1343" 
d="M111 0q-40 0 -21 37l406 696l-385 664q-19 37 20 37h281q25 0 37 -21l223 -383l223 383q12 21 37 21h280q19 0 25.5 -10t-2.5 -27l-387 -664l407 -696q9 -17 3 -27t-25 -10h-283q-28 0 -39 20l-239 414l-240 -414q-11 -20 -39 -20h-282z" />
    <glyph glyph-name="Psi" unicode="&#x3a8;" horiz-adv-x="1722" 
d="M694 289q-174 0 -305 76t-197.5 200t-66.5 275v563q0 13 8.5 22t22.5 9h262q14 0 22.5 -9t8.5 -22v-557q0 -131 64.5 -203t178.5 -72h4v832q0 13 9.5 22t23.5 9h262q13 0 22 -9t9 -22v-832h6q115 0 180.5 72t65.5 203v557q0 13 9 22t22 9h262q13 0 21.5 -8.5t8.5 -22.5
v-563q0 -151 -66.5 -275t-197.5 -200t-305 -76h-6v-258q0 -13 -9 -22t-22 -9h-262q-14 0 -23.5 9t-9.5 22v258h-2z" />
    <glyph glyph-name="uni03A9" unicode="&#x3a9;" horiz-adv-x="1646" 
d="M123 0q-13 0 -22 9t-9 22v198q0 13 9 22t22 9h192v31q-80 57 -132 141t-70.5 163.5t-18.5 164.5q0 143 57 271.5t154 220t232 145t286 53.5t286 -53.5t233 -145t155 -220t57 -271.5q0 -85 -18.5 -164.5t-70.5 -163.5t-132 -141v-31h191q13 0 21.5 -8.5t8.5 -22.5v-198
q0 -14 -8.5 -22.5t-21.5 -8.5h-490q-13 0 -21.5 8.5t-8.5 22.5v356q101 48 162 144.5t61 216.5q0 166 -117 277.5t-287 111.5t-286.5 -111.5t-116.5 -277.5q0 -120 61 -216.5t162 -144.5v-356q0 -13 -8.5 -22t-22.5 -9h-489z" />
    <glyph glyph-name="Iotadieresis" unicode="&#x3aa;" horiz-adv-x="593" 
d="M166 0q-14 0 -22.5 9t-8.5 22v1372q0 13 8.5 22t22.5 9h262q14 0 22.5 -9t8.5 -22v-1372q0 -13 -8.5 -22t-22.5 -9h-262zM-92 1720q0 64 45 109t108 45q65 0 110.5 -45t45.5 -109q0 -67 -45.5 -112t-110.5 -45q-64 0 -108.5 45t-44.5 112zM379 1720q0 64 45 109t108 45
t108.5 -45t45.5 -109q0 -67 -45 -112t-109 -45t-108.5 45t-44.5 112z" />
    <glyph glyph-name="Upsilondieresis" unicode="&#x3ab;" horiz-adv-x="1298" 
d="M518 0q-14 0 -22.5 9t-8.5 22v628l-417 738q-19 37 20 37h272q25 0 37 -21l250 -459l250 459q12 21 39 21h272q40 0 21 -37l-418 -740v-626q0 -13 -9.5 -22t-23.5 -9h-262zM262 1720q0 64 45.5 109t108.5 45t108 -45t45 -109q0 -67 -44.5 -112t-108.5 -45t-109 45
t-45 112zM731 1720q0 64 45.5 109t108.5 45t108 -45t45 -109q0 -67 -44.5 -112t-108.5 -45t-109 45t-45 112z" />
    <glyph glyph-name="alphatonos" unicode="&#x3ac;" horiz-adv-x="1329" 
d="M535 -25q-207 0 -339.5 150.5t-132.5 376.5q0 225 132.5 375.5t339.5 150.5t313 -151l4 96q0 13 9.5 22t23.5 9h227q14 0 23.5 -9t9.5 -22v-649q0 -42 18 -65t47 -23q9 0 28 2.5t34 1.5q15 0 25 -8t10 -23v-170q0 -34 -49.5 -49t-112.5 -15q-229 0 -260 197h-8
q-33 -68 -88 -113.5t-118.5 -64.5t-135.5 -19zM369 502q0 -109 66 -175.5t167 -66.5q103 0 167.5 67t64.5 177q0 107 -64.5 173t-167.5 66q-101 0 -167 -67t-66 -174zM453 1176l88 233q11 25 41 25h184q16 0 21.5 -11t-1.5 -24l-90 -234q-11 -24 -41 -24h-184
q-16 0 -20.5 10.5t2.5 24.5z" />
    <glyph glyph-name="epsilontonos" unicode="&#x3ad;" horiz-adv-x="905" 
d="M514 -25q-117 0 -210 33t-151.5 103.5t-58.5 169.5q0 176 187 251q-72 27 -115 84.5t-43 137.5q0 131 111.5 202.5t291.5 71.5q191 0 262 -59q21 -18 21 -60v-145q0 -23 -19 -30.5t-34 3.5q-92 35 -187 35q-129 0 -129 -74q0 -67 101 -67h155q14 0 22.5 -8.5t8.5 -22.5
v-176q0 -14 -8.5 -22.5t-22.5 -8.5h-157q-70 0 -104 -16.5t-34 -54.5q0 -84 162 -84q116 0 228 55q19 12 36 2t17 -35v-147q0 -41 -33 -62q-113 -76 -297 -76zM393 1176l88 233q11 25 41 25h185q16 0 21.5 -11t-1.5 -24l-90 -234q-11 -24 -41 -24h-184q-16 0 -21 10.5
t2 24.5z" />
    <glyph glyph-name="etatonos" unicode="&#x3ae;" horiz-adv-x="1296" 
d="M901 -389q-12 0 -21.5 9t-9.5 22v897q0 202 -168 202q-83 0 -129.5 -52t-46.5 -150v-508q0 -14 -8.5 -22.5t-21.5 -8.5h-250q-14 0 -23.5 9t-9.5 22v649q0 40 -18 64t-45 24q-10 0 -28.5 -2.5t-33.5 -1.5q-35 0 -35 31v170q0 35 47.5 49t112.5 14q243 0 297 -184h12
q39 89 115 136.5t182 47.5q164 0 264.5 -111.5t100.5 -304.5v-970q0 -13 -9.5 -22t-23.5 -9h-250zM600 1176l88 233q11 25 41 25h184q17 0 22.5 -11t-1.5 -24l-90 -234q-11 -24 -41 -24h-185q-16 0 -20.5 10.5t2.5 24.5z" />
    <glyph glyph-name="iotatonos" unicode="&#x3af;" horiz-adv-x="636" 
d="M438 -25q-66 0 -121.5 16t-102 51t-73 97t-26.5 146v688q0 14 8.5 22.5t21.5 8.5h252q14 0 23.5 -9t9.5 -22v-654q0 -40 23.5 -61.5t62.5 -21.5q37 0 64 2q15 2 25.5 -6t10.5 -23v-170q0 -34 -56 -49t-122 -15zM162 1176l88 233q11 25 41 25h184q17 0 22.5 -11t-1.5 -24
l-90 -234q-11 -24 -41 -24h-185q-16 0 -20.5 10.5t2.5 24.5z" />
    <glyph glyph-name="upsilondieresistonos" unicode="&#x3b0;" horiz-adv-x="1161" 
d="M582 -25q-231 0 -349 116t-118 329v553q0 14 8.5 22.5t21.5 8.5h250q14 0 23.5 -9t9.5 -22v-514q0 -197 156 -197q85 0 130.5 67.5t45.5 229.5q0 198 -68 414q-4 13 3.5 22t21.5 9h241q29 0 39 -31q70 -214 70 -430q0 -295 -123 -431.5t-362 -136.5zM139 1305
q0 59 39.5 99t97.5 40t99 -40t41 -99q0 -58 -41 -98t-99 -40q-57 0 -97 40t-40 98zM432 1176l90 233q11 25 41 25h158q17 0 23 -11t-1 -24l-92 -234q-11 -24 -41 -24h-159q-16 0 -21 10.5t2 24.5zM764 1305q0 59 40 99t97 40q58 0 98.5 -40t40.5 -99q0 -58 -41 -98t-98 -40
t-97 40t-40 98z" />
    <glyph glyph-name="alpha" unicode="&#x3b1;" horiz-adv-x="1329" 
d="M535 -25q-207 0 -339.5 150.5t-132.5 376.5q0 225 132.5 375.5t339.5 150.5t313 -151l4 96q0 13 9.5 22t23.5 9h227q14 0 23.5 -9t9.5 -22v-649q0 -42 18 -65t47 -23q9 0 28 2.5t34 1.5q15 0 25 -8t10 -23v-170q0 -34 -49.5 -49t-112.5 -15q-229 0 -260 197h-8
q-33 -68 -88 -113.5t-118.5 -64.5t-135.5 -19zM369 502q0 -109 66 -175.5t167 -66.5q103 0 167.5 67t64.5 177q0 107 -64.5 173t-167.5 66q-101 0 -167 -67t-66 -174z" />
    <glyph glyph-name="beta" unicode="&#x3b2;" horiz-adv-x="1255" 
d="M166 -389q-14 0 -22.5 8.5t-8.5 22.5v1370q0 111 42 197t113.5 137.5t161 77.5t191.5 26q135 0 246 -41.5t182.5 -132t71.5 -217.5q0 -72 -23 -131t-60 -95t-78.5 -56.5t-82.5 -22.5q48 -7 90 -22.5t82 -43t68.5 -65t45.5 -92.5t17 -121q0 -192 -133.5 -301t-361.5 -109
q-163 0 -256 63v-421q0 -13 -9.5 -22t-23.5 -9h-252zM451 434q0 -190 217 -190q103 0 168 44t65 144q0 88 -53.5 127t-167.5 39h-86q-14 0 -23.5 9t-9.5 22v180q0 13 9.5 23t23.5 10h51q195 0 195 153q0 82 -54 126t-143 44q-87 0 -139.5 -44t-52.5 -126v-561z" />
    <glyph glyph-name="gamma" unicode="&#x3b3;" horiz-adv-x="1183" 
d="M53 969q-12 35 27 35h254q30 0 39 -25l243 -670q98 99 149.5 273t51.5 389q0 15 8.5 24t22.5 9h252q30 0 30 -37q0 -244 -99 -498t-290 -453v-391q0 -13 -9 -22t-23 -9h-252q-14 0 -23.5 9t-9.5 22v385z" />
    <glyph glyph-name="delta" unicode="&#x3b4;" horiz-adv-x="1179" 
d="M590 -25q-226 0 -376.5 151.5t-150.5 375.5q0 164 86.5 290.5t247.5 188.5q-155 68 -155 215q0 119 107 186.5t290 67.5q204 0 379 -109q29 -16 14 -43l-96 -182q-15 -31 -43 -10q-50 34 -115.5 54t-128.5 20q-46 0 -79 -13t-33 -39t35 -50.5t73 -38.5t98 -33
q179 -55 277 -192.5t98 -311.5q0 -224 -151 -375.5t-377 -151.5zM365 502q0 -108 64 -174t161 -66t161 66t64 174t-64 173.5t-161 65.5t-161 -65.5t-64 -173.5z" />
    <glyph glyph-name="epsilon" unicode="&#x3b5;" horiz-adv-x="905" 
d="M514 -25q-117 0 -210 33t-151.5 103.5t-58.5 169.5q0 176 187 251q-72 27 -115 84.5t-43 137.5q0 131 111.5 202.5t291.5 71.5q191 0 262 -59q21 -18 21 -60v-145q0 -23 -19 -30.5t-34 3.5q-92 35 -187 35q-129 0 -129 -74q0 -67 101 -67h155q14 0 22.5 -8.5t8.5 -22.5
v-176q0 -14 -8.5 -22.5t-22.5 -8.5h-157q-70 0 -104 -16.5t-34 -54.5q0 -84 162 -84q116 0 228 55q19 12 36 2t17 -35v-147q0 -41 -33 -62q-113 -76 -297 -76z" />
    <glyph glyph-name="zeta" unicode="&#x3b6;" horiz-adv-x="1060" 
d="M764 -231q-22 0 -34.5 13.5t-12.5 33.5q0 14 8 47.5t8 56.5q0 42 -20.5 61t-67.5 19h-70q-146 0 -262.5 54.5t-183 154.5t-66.5 229q0 60 16.5 118t40.5 104.5t69.5 105t82.5 98.5t101 107l207 213h-394q-28 0 -28 28v193q0 29 28 29h703q29 0 29 -29v-199q0 -21 -15 -39
l-375 -395q-91 -94 -126 -158.5t-35 -134.5q0 -108 68 -172.5t179 -64.5h127q130 0 194 -62.5t64 -193.5q0 -102 -39 -159.5t-114 -57.5h-82z" />
    <glyph glyph-name="eta" unicode="&#x3b7;" horiz-adv-x="1296" 
d="M901 -389q-12 0 -21.5 9t-9.5 22v897q0 202 -168 202q-83 0 -129.5 -52t-46.5 -150v-508q0 -14 -8.5 -22.5t-21.5 -8.5h-250q-14 0 -23.5 9t-9.5 22v649q0 40 -18 64t-45 24q-10 0 -28.5 -2.5t-33.5 -1.5q-35 0 -35 31v170q0 35 47.5 49t112.5 14q243 0 297 -184h12
q39 89 115 136.5t182 47.5q164 0 264.5 -111.5t100.5 -304.5v-970q0 -13 -9.5 -22t-23.5 -9h-250z" />
    <glyph glyph-name="theta" unicode="&#x3b8;" horiz-adv-x="1296" 
d="M649 -27q-88 0 -167.5 26t-151 83.5t-123.5 142t-82.5 209t-30.5 277.5t30.5 277.5t82.5 209.5t123.5 142.5t151 83.5t167.5 26q111 0 208.5 -43t176 -129t124.5 -231.5t46 -335.5q0 -153 -30.5 -277.5t-82 -209t-123 -142t-151.5 -83.5t-168 -26zM399 592
q11 -154 73 -243t177 -89q114 0 175.5 89t72.5 243h-498zM399 834h498q-11 152 -72.5 240.5t-175.5 88.5q-115 0 -177 -88.5t-73 -240.5z" />
    <glyph glyph-name="iota" unicode="&#x3b9;" horiz-adv-x="636" 
d="M438 -25q-66 0 -121.5 16t-102 51t-73 97t-26.5 146v688q0 14 8.5 22.5t21.5 8.5h252q14 0 23.5 -9t9.5 -22v-654q0 -40 23.5 -61.5t62.5 -21.5q37 0 64 2q15 2 25.5 -6t10.5 -23v-170q0 -34 -56 -49t-122 -15z" />
    <glyph glyph-name="kappa" unicode="&#x3ba;" horiz-adv-x="1179" 
d="M815 0q-24 0 -37 16l-262 324l-86 -92v-217q0 -13 -9.5 -22t-23.5 -9h-252q-13 0 -21.5 8.5t-8.5 22.5v942q0 14 8.5 22.5t21.5 8.5h252q14 0 23.5 -9t9.5 -22v-334l287 348q14 17 39 17h299q20 0 25 -11t-9 -26l-360 -420l417 -510q12 -15 7 -26t-25 -11h-295z" />
    <glyph glyph-name="lambda" unicode="&#x3bb;" horiz-adv-x="1273" 
d="M1028 -25q-99 0 -163 47t-107 173l-154 444l-221 -614q-9 -25 -37 -25h-256q-39 0 -27 35l390 971l-164 391q-15 37 26 37h244q28 0 37 -25l430 -1100q26 -73 80 -73q9 0 24.5 2.5t22.5 1.5q35 0 35 -31v-170q0 -34 -48.5 -49t-111.5 -15z" />
    <glyph glyph-name="uni03BC" unicode="&#x3bc;" 
d="M145 -389q-13 0 -21.5 8.5t-8.5 22.5v1331q0 14 8.5 22.5t21.5 8.5h250q14 0 23.5 -9t9.5 -22v-508q0 -203 168 -203q81 0 127.5 52.5t46.5 150.5v508q0 13 9.5 22t23.5 9h248q14 0 23 -9t9 -22v-942q0 -13 -9 -22t-23 -9h-240q-30 0 -33 33l-8 114q-15 -81 -69.5 -126.5
t-143.5 -45.5q-91 0 -129 48v-381q0 -13 -9.5 -22t-23.5 -9h-250z" />
    <glyph glyph-name="nu" unicode="&#x3bd;" horiz-adv-x="1193" 
d="M455 0q-28 0 -37 25l-365 944q-12 35 27 35h254q30 0 39 -25l243 -670q98 99 149.5 273t51.5 389q0 15 8.5 24t22.5 9h252q30 0 30 -37q0 -247 -98 -502.5t-280 -437.5q-31 -27 -52 -27h-245z" />
    <glyph glyph-name="xi" unicode="&#x3be;" horiz-adv-x="1091" 
d="M795 -231q-22 0 -34.5 13.5t-12.5 33.5q0 14 8 47.5t8 56.5q0 42 -20.5 61t-67.5 19h-72q-148 0 -262 46t-181 139.5t-67 222.5q0 141 77.5 238t199.5 122q-170 90 -170 268q0 89 47 148h-86q-29 0 -29 28v193q0 29 29 29h776q29 0 29 -29v-193q0 -28 -29 -28h-266
q-78 0 -125 -38t-47 -112q0 -76 47.5 -119t132.5 -43h215q27 0 27 -28v-185q0 -28 -27 -28h-236q-134 0 -199 -53.5t-65 -147.5q0 -95 63 -141.5t160 -46.5h154q130 0 194 -62.5t64 -193.5q0 -102 -39 -159.5t-114 -57.5h-82z" />
    <glyph glyph-name="omicron" unicode="&#x3bf;" horiz-adv-x="1179" 
d="M590 -25q-226 0 -376.5 151.5t-150.5 375.5t150.5 375t376.5 151t377 -151t151 -375t-151 -375.5t-377 -151.5zM365 502q0 -108 64 -174t161 -66t161 66t64 174t-64 173.5t-161 65.5t-161 -65.5t-64 -173.5z" />
    <glyph glyph-name="pi" unicode="&#x3c0;" horiz-adv-x="1316" 
d="M1087 -25q-65 0 -120 16t-101 51t-72 97t-26 146v458h-217v-712q0 -13 -8.5 -22t-22.5 -9h-250q-14 0 -23 9t-9 22v712h-154q-14 0 -22.5 8.5t-8.5 22.5v199q0 13 8.5 22t22.5 9h1114q14 0 23.5 -9t9.5 -22v-199q0 -13 -9.5 -22t-23.5 -9h-117v-424q0 -40 23.5 -61.5
t62.5 -21.5q37 0 64 2q15 2 26 -6t11 -23v-170q0 -34 -56.5 -49t-124.5 -15z" />
    <glyph glyph-name="rho" unicode="&#x3c1;" horiz-adv-x="1216" 
d="M104 -389q-13 0 -21.5 8.5t-8.5 22.5v854q0 247 154 389.5t395 142.5q166 0 288 -70t183 -188t61 -268q0 -226 -135.5 -376.5t-347.5 -150.5q-179 0 -283 111v-444q0 -13 -9.5 -22t-23.5 -9h-252zM385 504q0 -109 65 -176.5t166 -67.5t166.5 66.5t65.5 175.5t-65.5 175
t-166.5 66t-166 -66t-65 -173z" />
    <glyph glyph-name="uni03C2" unicode="&#x3c2;" horiz-adv-x="1073" 
d="M776 -231q-22 0 -34.5 13.5t-12.5 33.5q0 14 8 47.5t8 56.5q0 42 -20.5 61t-67.5 19h-59q-232 0 -383.5 143t-151.5 365t150 371t375 149q123 0 223 -48.5t166 -135.5q9 -9 8 -21.5t-10 -21.5l-141 -135q-12 -12 -28 -12.5t-28 10.5q-77 77 -182 77q-104 0 -167.5 -68
t-63.5 -171q0 -106 69 -177t193 -71h127q258 0 258 -268q0 -102 -39.5 -159.5t-114.5 -57.5h-82z" />
    <glyph glyph-name="sigma" unicode="&#x3c3;" horiz-adv-x="1228" 
d="M590 -25q-227 0 -377 146.5t-150 367.5t150 368t377 147h567q13 0 22 -9t9 -22v-199q0 -14 -9 -22.5t-22 -8.5h-106q65 -117 65 -254q0 -221 -150 -367.5t-376 -146.5zM365 489q0 -105 64 -166t161 -61q96 0 160.5 61t64.5 166t-64.5 166.5t-160.5 61.5q-97 0 -161 -61
t-64 -167z" />
    <glyph glyph-name="tau" unicode="&#x3c4;" horiz-adv-x="997" 
d="M666 -25q-66 0 -121 16t-101.5 51t-73 97t-26.5 146v458h-260q-14 0 -22.5 8.5t-8.5 22.5v199q0 13 8.5 22t22.5 9h829q14 0 23.5 -9t9.5 -22v-199q0 -13 -9.5 -22t-23.5 -9h-256v-424q0 -40 24 -61.5t64 -21.5q37 0 64 2q15 2 26 -6t11 -23v-170q0 -34 -56 -49t-124 -15
z" />
    <glyph glyph-name="upsilon" unicode="&#x3c5;" horiz-adv-x="1161" 
d="M582 -25q-231 0 -349 116t-118 329v553q0 14 8.5 22.5t21.5 8.5h250q14 0 23.5 -9t9.5 -22v-514q0 -197 156 -197q85 0 130.5 67.5t45.5 229.5q0 198 -68 414q-4 13 3.5 22t21.5 9h241q29 0 39 -31q70 -214 70 -430q0 -295 -123 -431.5t-362 -136.5z" />
    <glyph glyph-name="phi" unicode="&#x3c6;" horiz-adv-x="1372" 
d="M561 -389q-13 0 -22 8.5t-9 22.5v346q-221 39 -344 178.5t-123 335.5t123 335.5t344 178.5v346q0 14 9 23.5t22 9.5h252q13 0 22 -9.5t9 -23.5v-346q221 -39 344 -178.5t123 -335.5t-123 -335.5t-344 -178.5v-346q0 -14 -9 -22.5t-22 -8.5h-252zM354 502q0 -177 176 -228
v455q-176 -51 -176 -227zM844 274q174 51 174 228q0 176 -174 227v-455z" />
    <glyph glyph-name="chi" unicode="&#x3c7;" horiz-adv-x="1224" 
d="M80 -389q-19 0 -25.5 10t2.5 25l383 678l-360 645q-10 15 -4.5 25t22.5 10h273q25 0 37 -21l204 -385l205 385q12 21 35 21h274q17 0 23.5 -10t-2.5 -25l-363 -645l381 -678q10 -15 4.5 -25t-24.5 -10h-273q-25 0 -36 20l-224 414l-223 -414q-11 -20 -37 -20h-272z" />
    <glyph glyph-name="psi" unicode="&#x3c8;" horiz-adv-x="1509" 
d="M614 -389q-14 0 -23 9t-9 22v346q-229 31 -348 151.5t-119 323.5v510q0 14 8.5 22.5t21.5 8.5h240q14 0 23.5 -9t9.5 -22v-469q0 -171 164 -225v1083q0 14 9.5 23.5t22.5 9.5h250q13 0 22 -9.5t9 -23.5v-1094q103 24 154 97t51 215q0 179 -70 393q-4 13 4.5 22t22.5 9
h231q29 0 39 -31q70 -214 70 -422q0 -268 -126 -405t-376 -164v-340q0 -14 -8.5 -22.5t-22.5 -8.5h-250z" />
    <glyph glyph-name="omega" unicode="&#x3c9;" horiz-adv-x="1714" 
d="M514 -25q-200 0 -299.5 136.5t-99.5 425.5q0 225 69 436q10 31 37 31h242q14 0 22 -9t4 -22q-69 -227 -69 -430q0 -281 155 -281q66 0 101 45.5t35 126.5v518q0 14 8.5 22.5t21.5 8.5h232q13 0 22 -8.5t9 -22.5v-518q0 -81 35 -126.5t100 -45.5q155 0 155 281
q0 211 -69 430q-4 13 4 22t22 9h242q29 0 39 -31q70 -214 70 -436q0 -288 -100.5 -425t-301.5 -137q-263 0 -342 248q-46 -138 -134.5 -193t-209.5 -55z" />
    <glyph glyph-name="iotadieresis" unicode="&#x3ca;" horiz-adv-x="636" 
d="M438 -25q-66 0 -121.5 16t-102 51t-73 97t-26.5 146v688q0 14 8.5 22.5t21.5 8.5h252q14 0 23.5 -9t9.5 -22v-654q0 -40 23.5 -61.5t62.5 -21.5q37 0 64 2q15 2 25.5 -6t10.5 -23v-170q0 -34 -56 -49t-122 -15zM-123 1290q0 64 45.5 109t108.5 45t108 -45t45 -109
q0 -67 -44.5 -112t-108.5 -45t-109 45t-45 112zM346 1290q0 64 45.5 109t108.5 45t108 -45t45 -109q0 -67 -44.5 -112t-108.5 -45t-109 45t-45 112z" />
    <glyph glyph-name="upsilondieresis" unicode="&#x3cb;" horiz-adv-x="1161" 
d="M582 -25q-231 0 -349 116t-118 329v553q0 14 8.5 22.5t21.5 8.5h250q14 0 23.5 -9t9.5 -22v-514q0 -197 156 -197q85 0 130.5 67.5t45.5 229.5q0 198 -68 414q-4 13 3.5 22t21.5 9h241q29 0 39 -31q70 -214 70 -430q0 -295 -123 -431.5t-362 -136.5zM137 1290
q0 64 45.5 109t108.5 45t108 -45t45 -109q0 -67 -44.5 -112t-108.5 -45t-109 45t-45 112zM606 1290q0 64 45.5 109t108.5 45t108 -45t45 -109q0 -67 -44.5 -112t-108.5 -45t-109 45t-45 112z" />
    <glyph glyph-name="omicrontonos" unicode="&#x3cc;" horiz-adv-x="1179" 
d="M590 -25q-226 0 -376.5 151.5t-150.5 375.5t150.5 375t376.5 151t377 -151t151 -375t-151 -375.5t-377 -151.5zM365 502q0 -108 64 -174t161 -66t161 66t64 174t-64 173.5t-161 65.5t-161 -65.5t-64 -173.5zM487 1176l91 233q11 25 40 25h185q16 0 21.5 -11t-1.5 -24
l-90 -234q-11 -24 -41 -24h-186q-16 0 -21 10.5t2 24.5z" />
    <glyph glyph-name="upsilontonos" unicode="&#x3cd;" horiz-adv-x="1161" 
d="M582 -25q-231 0 -349 116t-118 329v553q0 14 8.5 22.5t21.5 8.5h250q14 0 23.5 -9t9.5 -22v-514q0 -197 156 -197q85 0 130.5 67.5t45.5 229.5q0 198 -68 414q-4 13 3.5 22t21.5 9h241q29 0 39 -31q70 -214 70 -430q0 -295 -123 -431.5t-362 -136.5zM424 1176l88 233
q11 25 41 25h184q17 0 22.5 -11t-1.5 -24l-90 -234q-11 -24 -41 -24h-185q-16 0 -20.5 10.5t2.5 24.5z" />
    <glyph glyph-name="omegatonos" unicode="&#x3ce;" horiz-adv-x="1714" 
d="M514 -25q-200 0 -299.5 136.5t-99.5 425.5q0 225 69 436q10 31 37 31h242q14 0 22 -9t4 -22q-69 -227 -69 -430q0 -281 155 -281q66 0 101 45.5t35 126.5v518q0 14 8.5 22.5t21.5 8.5h232q13 0 22 -8.5t9 -22.5v-518q0 -81 35 -126.5t100 -45.5q155 0 155 281
q0 211 -69 430q-4 13 4 22t22 9h242q29 0 39 -31q70 -214 70 -436q0 -288 -100.5 -425t-301.5 -137q-263 0 -342 248q-46 -138 -134.5 -193t-209.5 -55zM758 1176l88 233q11 25 41 25h184q17 0 22.5 -11t-1.5 -24l-91 -234q-11 -24 -40 -24h-185q-16 0 -20.5 10.5t2.5 24.5z
" />
    <glyph glyph-name="uni03CF" unicode="&#x3cf;" horiz-adv-x="1253" 
d="M590 -410q-31 0 -31 31v203q0 14 8.5 23.5t22.5 9.5q131 0 212 78t81 192q0 109 -76.5 192t-216.5 105l-160 -168v-225q0 -13 -9.5 -22t-23.5 -9h-252q-13 0 -21.5 8.5t-8.5 22.5v1003q0 14 8.5 22.5t21.5 8.5h252q14 0 23.5 -9t9.5 -22v-397l352 412q13 16 39 16h297
q20 0 25 -11.5t-6 -25.5l-346 -397q178 -58 289.5 -187.5t111.5 -316.5q0 -232 -168.5 -384.5t-433.5 -152.5z" />
    <glyph glyph-name="uni03D7" unicode="&#x3d7;" horiz-adv-x="1236" 
d="M573 -410q-30 0 -30 31v203q0 33 30 33q132 0 211.5 78t79.5 194q0 109 -76 192t-217 107l-141 -149v-248q0 -13 -9.5 -22t-23.5 -9h-252q-13 0 -21.5 8.5t-8.5 22.5v942q0 14 8.5 22.5t21.5 8.5h252q14 0 23.5 -9t9.5 -22v-314l299 328q11 17 39 17h299q20 0 24.5 -12
t-8.5 -25l-311 -332q180 -59 291 -189t111 -319q0 -232 -168 -384.5t-433 -152.5z" />
    <glyph glyph-name="uni03D8" unicode="&#x3d8;" horiz-adv-x="1662" 
d="M700 -389q-13 0 -21.5 8.5t-8.5 22.5v350q-249 55 -412.5 255t-163.5 464q0 153 58.5 290.5t157.5 235.5t235 155.5t286 57.5q201 0 371 -97t269.5 -267.5t99.5 -374.5q0 -264 -163.5 -464t-414.5 -255v-350q0 -14 -8.5 -22.5t-21.5 -8.5h-263zM422 711q0 -178 118 -299
t291 -121q175 0 292.5 120.5t117.5 299.5q0 181 -117.5 301.5t-292.5 120.5q-174 0 -291.5 -120.5t-117.5 -301.5z" />
    <glyph glyph-name="uni03DC" unicode="&#x3dc;" horiz-adv-x="1032" 
d="M166 0q-14 0 -22.5 9t-8.5 22v1372q0 13 8.5 22t22.5 9h731q13 0 22 -9t9 -22v-225q0 -14 -9 -22.5t-22 -8.5h-438v-270h411q14 0 22.5 -8.5t8.5 -22.5v-225q0 -13 -8.5 -22t-22.5 -9h-411v-559q0 -13 -8.5 -22t-22.5 -9h-262z" />
    <glyph glyph-name="uni03DE" unicode="&#x3de;" 
d="M434 0q-22 0 -29.5 13.5t5.5 33.5l344 526h-639q-13 0 -22 8.5t-9 22.5v236q0 19 10 39l346 528q15 27 47 27h267q23 0 30.5 -14t-4.5 -34l-346 -526h639q14 0 23.5 -9t9.5 -22v-235q0 -21 -12 -39l-346 -528q-15 -27 -48 -27h-266z" />
    <glyph glyph-name="uni03FA" unicode="&#x3fa;" horiz-adv-x="1810" 
d="M166 0q-14 0 -22.5 9t-8.5 22v1372q0 13 8.5 22t22.5 9h299q26 0 35 -21l405 -1036l406 1036q9 21 37 21h299q13 0 21.5 -8.5t8.5 -22.5v-1372q0 -14 -8.5 -22.5t-21.5 -8.5h-263q-14 0 -23 9t-9 22v790l-295 -796q-9 -25 -37 -25h-229q-28 0 -37 25l-295 796v-790
q0 -13 -8.5 -22t-22.5 -9h-262z" />
    <glyph glyph-name="uni0400" unicode="&#x400;" horiz-adv-x="1048" 
d="M166 0q-14 0 -22.5 9t-8.5 22v1372q0 13 8.5 22t22.5 9h739q13 0 22 -9t9 -22v-225q0 -14 -9 -22.5t-22 -8.5h-446v-281h420q13 0 21.5 -8t8.5 -22v-226q0 -14 -8.5 -22t-21.5 -8h-420v-293h444q14 0 23.5 -9t9.5 -22v-225q0 -13 -9.5 -22t-23.5 -9h-737zM252 1829
q-9 13 -2 24t24 11h183q24 0 41 -25l157 -233q9 -14 4 -24.5t-22 -10.5h-184q-25 0 -41 24z" />
    <glyph glyph-name="uni0401" unicode="&#x401;" horiz-adv-x="1048" 
d="M166 0q-14 0 -22.5 9t-8.5 22v1372q0 13 8.5 22t22.5 9h739q13 0 22 -9t9 -22v-225q0 -14 -9 -22.5t-22 -8.5h-446v-281h420q13 0 21.5 -8t8.5 -22v-226q0 -14 -8.5 -22t-21.5 -8h-420v-293h444q14 0 23.5 -9t9.5 -22v-225q0 -13 -9.5 -22t-23.5 -9h-737zM137 1720
q0 64 45.5 109t108.5 45t108 -45t45 -109q0 -67 -44.5 -112t-108.5 -45t-109 45t-45 112zM606 1720q0 64 45.5 109t108.5 45t108 -45t45 -109q0 -67 -44.5 -112t-108.5 -45t-109 45t-45 112z" />
    <glyph glyph-name="uni0402" unicode="&#x402;" horiz-adv-x="1556" 
d="M915 0q-13 0 -21.5 8.5t-8.5 22.5v225q0 14 8.5 22.5t21.5 8.5h46q105 0 168 64t63 155q0 92 -62.5 153.5t-164.5 61.5q-155 0 -242 -150v-540q0 -13 -8.5 -22t-22.5 -9h-262q-14 0 -23.5 9t-9.5 22v1116h-272q-13 0 -22 8.5t-9 22.5v225q0 13 9 22t22 9h870
q14 0 23.5 -9t9.5 -22v-225q0 -13 -9.5 -22t-23.5 -9h-272v-225q114 86 270 86q216 0 358 -143.5t142 -356.5q0 -216 -148.5 -362t-373.5 -146h-56z" />
    <glyph glyph-name="uni0403" unicode="&#x403;" horiz-adv-x="1028" 
d="M166 0q-14 0 -22.5 9t-8.5 22v1372q0 13 8.5 22t22.5 9h768q14 0 22.5 -9t8.5 -22v-225q0 -14 -8.5 -22.5t-22.5 -8.5h-475v-1116q0 -13 -8.5 -22t-22.5 -9h-262zM399 1606l160 233q17 25 39 25h182q17 0 24.5 -11t-1.5 -24l-162 -234q-16 -24 -39 -24h-184
q-17 0 -22.5 10.5t3.5 24.5z" />
    <glyph glyph-name="uni0404" unicode="&#x404;" horiz-adv-x="1431" 
d="M834 -27q-150 0 -286.5 56.5t-237 153.5t-159.5 235t-59 293t59 293t159.5 235.5t237 154t286.5 56.5q299 0 505 -213q19 -19 -2 -41l-161 -174q-18 -22 -43 -4q-131 115 -297 115q-137 0 -242.5 -74.5t-147.5 -198.5h437q14 0 23 -9t9 -22v-223q0 -14 -9.5 -23.5
t-22.5 -9.5h-441q40 -127 147 -204.5t247 -77.5q166 0 297 115q24 17 43 -5l161 -174q21 -21 2 -41q-206 -213 -505 -213z" />
    <glyph glyph-name="uni0405" unicode="&#x405;" horiz-adv-x="1142" 
d="M569 -25q-158 0 -280 65.5t-195 162.5q-17 21 4 45l138 155q22 26 47 7q74 -72 137.5 -105t142.5 -33q81 0 129.5 33t48.5 98q0 25 -8 45t-18 32.5t-34 27.5t-39.5 23t-51.5 24l-174 82q-63 28 -111.5 60.5t-92.5 80t-67.5 113t-23.5 145.5q0 194 128.5 304t323.5 110
q247 0 431 -190q22 -22 2 -48l-136 -161q-8 -11 -20 -14.5t-23 3.5q-71 60 -126.5 86.5t-116.5 26.5q-70 0 -110 -32.5t-40 -88.5q0 -27 7.5 -46.5t34 -38.5t42 -27.5t66.5 -32.5l12 -6l145 -66q55 -26 92.5 -47t83.5 -58t73.5 -77t47 -99.5t19.5 -130.5q0 -87 -27.5 -159
t-74.5 -121t-110 -83t-132.5 -49.5t-143.5 -15.5z" />
    <glyph glyph-name="uni0406" unicode="&#x406;" horiz-adv-x="593" 
d="M166 0q-14 0 -22.5 9t-8.5 22v1372q0 13 8.5 22t22.5 9h262q14 0 22.5 -9t8.5 -22v-1372q0 -13 -8.5 -22t-22.5 -9h-262z" />
    <glyph glyph-name="uni0407" unicode="&#x407;" horiz-adv-x="593" 
d="M166 0q-14 0 -22.5 9t-8.5 22v1372q0 13 8.5 22t22.5 9h262q14 0 22.5 -9t8.5 -22v-1372q0 -13 -8.5 -22t-22.5 -9h-262zM-92 1720q0 64 45 109t108 45t108.5 -45t45.5 -109q0 -67 -45 -112t-109 -45t-108.5 45t-44.5 112zM377 1720q0 64 45 109t108 45t108.5 -45
t45.5 -109q0 -67 -45 -112t-109 -45t-108.5 45t-44.5 112z" />
    <glyph glyph-name="uni0408" unicode="&#x408;" horiz-adv-x="1140" 
d="M485 -27q-132 0 -231 45.5t-158 114.5q-9 10 -9.5 25.5t7.5 25.5l137 183q8 9 21 10t24 -8q30 -23 47 -35t60 -27.5t90 -15.5q209 0 209 256v856q0 13 9.5 22t23.5 9h262q13 0 22 -9t9 -22v-840q0 -146 -39 -260t-109.5 -185.5t-165.5 -108t-209 -36.5z" />
    <glyph glyph-name="uni0409" unicode="&#x409;" horiz-adv-x="2043" 
d="M115 -10q-33 0 -48.5 8.5t-15.5 32.5v227q0 27 23 27q72 0 120 49.5t48 150.5v918q0 14 8.5 22.5t21.5 8.5h1016q14 0 22.5 -9t8.5 -22v-463h141q252 0 382 -126.5t130 -342.5q0 -217 -130 -344t-382 -127h-434q-14 0 -23.5 9t-9.5 22v1116h-426v-715
q0 -213 -126.5 -327.5t-325.5 -114.5zM1319 287h133q209 0 209 184q0 182 -209 182h-133v-366z" />
    <glyph glyph-name="uni040A" unicode="&#x40a;" horiz-adv-x="2002" 
d="M981 0q-13 0 -22 9t-9 22v528h-491v-528q0 -13 -8.5 -22t-22.5 -9h-262q-14 0 -22.5 9t-8.5 22v1372q0 13 8.5 22t22.5 9h262q14 0 22.5 -9t8.5 -22v-557h491v557q0 13 9 22t22 9h262q14 0 23.5 -9t9.5 -22v-463h143q252 0 381 -126t129 -343t-129 -344t-381 -127h-438z
M1276 287h133q96 0 153.5 40.5t57.5 143.5q0 182 -211 182h-133v-366z" />
    <glyph glyph-name="uni040B" unicode="&#x40b;" horiz-adv-x="1488" 
d="M1094 0q-14 0 -23.5 9t-9.5 22v487q0 203 -168 203q-81 0 -125.5 -52t-44.5 -151v-487q0 -13 -8.5 -22t-22.5 -9h-262q-14 0 -23.5 9t-9.5 22v1116h-272q-13 0 -22 8.5t-9 22.5v225q0 13 9 22t22 9h870q14 0 23.5 -9t9.5 -22v-225q0 -13 -9.5 -22t-23.5 -9h-272v-313
q97 174 291 174q160 0 260 -111.5t100 -304.5v-561q0 -13 -9 -22t-22 -9h-249z" />
    <glyph glyph-name="uni040C" unicode="&#x40c;" horiz-adv-x="1392" 
d="M166 0q-14 0 -22.5 9t-8.5 22v1372q0 13 8.5 22t22.5 9h262q14 0 22.5 -9t8.5 -22v-598l446 612q14 17 37 17h320q19 0 22.5 -12t-6.5 -25l-473 -596l530 -764q11 -15 6 -26t-24 -11h-305q-24 0 -37 18l-369 529l-147 -187v-329q0 -13 -8.5 -22t-22.5 -9h-262zM565 1606
l160 233q17 25 39 25h182q17 0 24.5 -11t-1.5 -24l-162 -234q-16 -24 -39 -24h-184q-17 0 -22.5 10.5t3.5 24.5z" />
    <glyph glyph-name="uni040D" unicode="&#x40d;" horiz-adv-x="1441" 
d="M934 1413q12 21 37 21h305q14 0 22.5 -9t8.5 -22v-1372q0 -13 -8.5 -22t-22.5 -9h-262q-14 0 -22.5 9t-8.5 22v876l-475 -887q-11 -20 -37 -20h-305q-14 0 -22.5 9t-8.5 22v1372q0 13 8.5 22t22.5 9h262q14 0 22.5 -9t8.5 -22v-877zM444 1829q-9 13 -1.5 24t24.5 11h182
q24 0 41 -25l158 -233q9 -14 3.5 -24.5t-22.5 -10.5h-184q-25 0 -41 24z" />
    <glyph glyph-name="uni040E" unicode="&#x40e;" horiz-adv-x="1425" 
d="M248 0q-39 0 -23 37l320 551l-475 809q-9 15 -3.5 26t23.5 11h277q24 0 36 -21l310 -534l307 534q15 21 39 21h276q18 0 24 -11t-3 -26l-795 -1377q-11 -20 -37 -20h-276zM379 1833q-3 31 29 31h127q29 0 32 -29q7 -42 42.5 -72t101.5 -30t100 29.5t41 72.5q3 29 33 29
h127q31 0 28 -31q-6 -120 -93 -194t-236 -74t-237.5 74t-94.5 194z" />
    <glyph glyph-name="uni040F" unicode="&#x40f;" horiz-adv-x="1372" 
d="M166 0q-14 0 -22.5 9t-8.5 22v1372q0 13 8.5 22t22.5 9h262q14 0 22.5 -9t8.5 -22v-1116h454v1116q0 13 8.5 22t22.5 9h262q14 0 23.5 -9t9.5 -22v-1372q0 -13 -9.5 -22t-23.5 -9h-358v-111q3 -30 -33 -30h-262q-11 0 -20.5 8.5t-10.5 21.5v111h-356z" />
    <glyph glyph-name="uni0410" unicode="&#x410;" horiz-adv-x="1433" 
d="M90 0q-17 0 -25 10t-2 25l476 1374q9 25 39 25h278q30 0 39 -25l475 -1374q6 -15 -0.5 -25t-23.5 -10h-275q-27 0 -35 25l-61 192h-516l-62 -192q-8 -25 -35 -25h-272zM551 504h332l-166 518z" />
    <glyph glyph-name="uni0411" unicode="&#x411;" horiz-adv-x="1179" 
d="M166 0q-14 0 -22.5 9t-8.5 22v1372q0 13 8.5 22t22.5 9h776q14 0 22.5 -9t8.5 -22v-225q0 -14 -8.5 -22.5t-22.5 -8.5h-483v-207h147q252 0 381 -126t129 -343t-129 -344t-381 -127h-440zM459 287h139q209 0 209 184q0 182 -209 182h-139v-366z" />
    <glyph glyph-name="uni0412" unicode="&#x412;" horiz-adv-x="1216" 
d="M166 0q-14 0 -22.5 9t-8.5 22v1372q0 13 8.5 22t22.5 9h498q185 0 291 -104.5t106 -260.5q0 -107 -53 -184t-131 -115q54 -14 102 -43t88.5 -72.5t64 -107.5t23.5 -139q0 -188 -130 -298t-382 -110h-477zM455 285h168q95 0 148.5 42t53.5 128q0 166 -202 166h-168v-336z
M455 872h141q160 0 160 144q0 133 -160 133h-141v-277z" />
    <glyph glyph-name="uni0413" unicode="&#x413;" horiz-adv-x="1028" 
d="M166 0q-14 0 -22.5 9t-8.5 22v1372q0 13 8.5 22t22.5 9h768q14 0 22.5 -9t8.5 -22v-225q0 -14 -8.5 -22.5t-22.5 -8.5h-475v-1116q0 -13 -8.5 -22t-22.5 -9h-262z" />
    <glyph glyph-name="uni0414" unicode="&#x414;" horiz-adv-x="1587" 
d="M102 -141q-14 0 -22 8.5t-8 21.5v367q0 14 8.5 22.5t21.5 8.5h37q71 0 118.5 49.5t47.5 150.5v916q0 13 8.5 22t22.5 9h1028q14 0 22.5 -9t8.5 -22v-1116h127q13 0 21.5 -8.5t8.5 -22.5v-367q0 -13 -8 -21.5t-22 -8.5h-265q-13 0 -21.5 8.5t-8.5 21.5v111h-830v-111
q0 -13 -8.5 -21.5t-21.5 -8.5h-265zM559 287h512v860h-440v-666q0 -141 -72 -194z" />
    <glyph glyph-name="uni0415" unicode="&#x415;" horiz-adv-x="1048" 
d="M166 0q-14 0 -22.5 9t-8.5 22v1372q0 13 8.5 22t22.5 9h739q13 0 22 -9t9 -22v-225q0 -14 -9 -22.5t-22 -8.5h-446v-281h420q13 0 21.5 -8t8.5 -22v-226q0 -14 -8.5 -22t-21.5 -8h-420v-293h444q14 0 23.5 -9t9.5 -22v-225q0 -13 -9.5 -22t-23.5 -9h-737z" />
    <glyph glyph-name="uni0416" unicode="&#x416;" horiz-adv-x="2191" 
d="M78 0q-18 0 -24 11t3 26l533 762l-475 598q-6 9 -7 17.5t5 14t20 5.5h318q22 0 36 -17l447 -614v600q0 13 9 22t22 9h262q13 0 21.5 -8.5t8.5 -22.5v-598l447 612q14 17 37 17h319q19 0 23 -12t-6 -25l-473 -596l530 -764q11 -15 6 -26t-24 -11h-306q-23 0 -36 18
l-369 529l-148 -187v-329q0 -14 -8.5 -22.5t-21.5 -8.5h-262q-13 0 -22 9t-9 22v329l-148 187l-368 -529q-13 -18 -37 -18h-303z" />
    <glyph glyph-name="uni0417" unicode="&#x417;" horiz-adv-x="1181" 
d="M580 -27q-233 0 -371.5 128t-138.5 343q0 41 36 41h256q35 0 35 -41q0 -82 54.5 -125t148.5 -43q89 0 145 41.5t56 118.5q0 70 -46 112t-134 42h-101q-16 0 -28.5 11t-12.5 30v194q0 18 12.5 28.5t28.5 10.5h80q68 0 110 40t42 102q0 69 -48 105t-118 36q-74 0 -118 -36
t-44 -89q0 -19 -11 -30t-28 -11h-256q-17 0 -27 11t-10 30q0 197 129.5 312.5t368.5 115.5q140 0 245.5 -40.5t168.5 -126t63 -208.5q0 -227 -193 -313q118 -38 181 -128t63 -214q0 -134 -73.5 -237t-195.5 -156.5t-269 -53.5z" />
    <glyph glyph-name="uni0418" unicode="&#x418;" horiz-adv-x="1441" 
d="M934 1413q12 21 37 21h305q14 0 22.5 -9t8.5 -22v-1372q0 -13 -8.5 -22t-22.5 -9h-262q-14 0 -22.5 9t-8.5 22v876l-475 -887q-11 -20 -37 -20h-305q-14 0 -22.5 9t-8.5 22v1372q0 13 8.5 22t22.5 9h262q14 0 22.5 -9t8.5 -22v-877z" />
    <glyph glyph-name="uni0419" unicode="&#x419;" horiz-adv-x="1441" 
d="M471 0h-305q-14 0 -22.5 9t-8.5 22v1372q0 13 8.5 22t22.5 9h262q14 0 22.5 -9t8.5 -22v-877l475 887q12 21 37 21h305q14 0 22.5 -9t8.5 -22v-1372q0 -13 -8.5 -22t-22.5 -9h-262q-14 0 -22.5 9t-8.5 22v876l-475 -887q-11 -20 -37 -20zM385 1831q-3 31 29 31h127
q29 0 32 -29q7 -42 42.5 -72t101.5 -30t100 29.5t41 72.5q3 29 33 29h127q32 0 29 -31q-6 -120 -93.5 -194t-236.5 -74t-237.5 74t-94.5 194z" />
    <glyph glyph-name="uni041A" unicode="&#x41a;" horiz-adv-x="1392" 
d="M166 0q-14 0 -22.5 9t-8.5 22v1372q0 13 8.5 22t22.5 9h262q14 0 22.5 -9t8.5 -22v-598l446 612q14 17 37 17h320q19 0 22.5 -12t-6.5 -25l-473 -596l530 -764q11 -15 6 -26t-24 -11h-305q-24 0 -37 18l-369 529l-147 -187v-329q0 -13 -8.5 -22t-22.5 -9h-262z" />
    <glyph glyph-name="uni041B" unicode="&#x41b;" horiz-adv-x="1454" 
d="M115 -10q-33 0 -48.5 8.5t-15.5 32.5v227q0 27 23 27q72 0 120 49.5t48 150.5v918q0 14 8.5 22.5t21.5 8.5h1016q14 0 22.5 -9t8.5 -22v-1372q0 -13 -8.5 -22t-22.5 -9h-262q-14 0 -23.5 9t-9.5 22v1116h-426v-715q0 -213 -126.5 -327.5t-325.5 -114.5z" />
    <glyph glyph-name="uni041C" unicode="&#x41c;" horiz-adv-x="1810" 
d="M166 0q-14 0 -22.5 9t-8.5 22v1372q0 13 8.5 22t22.5 9h299q26 0 35 -21l405 -1036l406 1036q9 21 37 21h299q13 0 21.5 -8.5t8.5 -22.5v-1372q0 -14 -8.5 -22.5t-21.5 -8.5h-263q-14 0 -23 9t-9 22v790l-295 -796q-9 -25 -37 -25h-229q-28 0 -37 25l-295 796v-790
q0 -13 -8.5 -22t-22.5 -9h-262z" />
    <glyph glyph-name="uni041D" unicode="&#x41d;" horiz-adv-x="1409" 
d="M166 0q-14 0 -22.5 9t-8.5 22v1372q0 13 8.5 22t22.5 9h262q14 0 22.5 -9t8.5 -22v-557h491v557q0 13 9 22t22 9h262q14 0 23.5 -9t9.5 -22v-1372q0 -13 -9.5 -22t-23.5 -9h-262q-13 0 -22 9t-9 22v528h-491v-528q0 -13 -8.5 -22t-22.5 -9h-262z" />
    <glyph glyph-name="uni041E" unicode="&#x41e;" horiz-adv-x="1662" 
d="M831 -27q-200 0 -369.5 97.5t-268.5 267.5t-99 373q0 153 58.5 290.5t157.5 235.5t235 155.5t286 57.5q201 0 371 -97t269.5 -267.5t99.5 -374.5q0 -203 -99.5 -373t-269.5 -267.5t-371 -97.5zM422 711q0 -178 118 -299t291 -121q175 0 292.5 120.5t117.5 299.5
q0 181 -117.5 301.5t-292.5 120.5q-174 0 -291.5 -120.5t-117.5 -301.5z" />
    <glyph glyph-name="uni041F" unicode="&#x41f;" horiz-adv-x="1372" 
d="M166 0q-14 0 -22.5 9t-8.5 22v1372q0 13 8.5 22t22.5 9h1040q14 0 23.5 -9t9.5 -22v-1372q0 -13 -9.5 -22t-23.5 -9h-262q-14 0 -22.5 9t-8.5 22v1116h-454v-1116q0 -13 -8.5 -22t-22.5 -9h-262z" />
    <glyph glyph-name="uni0420" unicode="&#x420;" horiz-adv-x="1189" 
d="M166 0q-14 0 -22.5 9t-8.5 22v1372q0 13 8.5 22t22.5 9h440q252 0 381 -127t129 -344t-129 -343t-381 -126h-147v-463q0 -13 -8.5 -22t-22.5 -9h-262zM459 780h139q209 0 209 183q0 184 -209 184h-139v-367z" />
    <glyph glyph-name="uni0421" unicode="&#x421;" horiz-adv-x="1431" 
d="M834 -27q-150 0 -286.5 56.5t-236 153.5t-158.5 235t-59 293q0 207 100 377t269.5 266t370.5 96q299 0 505 -213q19 -19 0 -41l-163 -174q-18 -22 -43 -4q-131 115 -297 115q-178 0 -296 -120t-118 -302q0 -181 118.5 -300.5t295.5 -119.5q166 0 297 115q24 17 43 -5
l163 -174q19 -22 0 -41q-206 -213 -505 -213z" />
    <glyph glyph-name="uni0422" unicode="&#x422;" horiz-adv-x="1120" 
d="M430 0q-14 0 -23.5 9t-9.5 22v1116h-272q-13 0 -22 8.5t-9 22.5v225q0 13 9 22t22 9h870q14 0 23.5 -9t9.5 -22v-225q0 -13 -9.5 -22t-23.5 -9h-272v-1116q0 -13 -8.5 -22t-22.5 -9h-262z" />
    <glyph glyph-name="uni0423" unicode="&#x423;" horiz-adv-x="1425" 
d="M248 0q-39 0 -23 37l320 551l-475 809q-9 15 -3.5 26t23.5 11h277q24 0 36 -21l310 -534l307 534q15 21 39 21h276q18 0 24 -11t-3 -26l-795 -1377q-11 -20 -37 -20h-276z" />
    <glyph glyph-name="uni0424" unicode="&#x424;" horiz-adv-x="1765" 
d="M709 123q-155 0 -280.5 50.5t-204 135t-120 189.5t-41.5 219t41.5 219t120 189.5t204 135t280.5 50.5v92q0 14 8.5 22.5t21.5 8.5h262q14 0 23.5 -9t9.5 -22v-92h2q155 0 280.5 -50.5t203.5 -135t119.5 -189.5t41.5 -219t-41.5 -219t-119.5 -189.5t-203.5 -135
t-280.5 -50.5h-2v-92q0 -13 -9.5 -22t-23.5 -9h-262q-13 0 -21.5 8.5t-8.5 22.5v92zM391 717q0 -138 80.5 -222.5t237.5 -84.5v614q-157 0 -237.5 -84.5t-80.5 -222.5zM1034 410h2q157 0 237.5 84.5t80.5 222.5t-80.5 222.5t-237.5 84.5h-2v-614z" />
    <glyph glyph-name="uni0425" unicode="&#x425;" horiz-adv-x="1343" 
d="M111 0q-40 0 -21 37l406 696l-385 664q-19 37 20 37h281q25 0 37 -21l223 -383l223 383q12 21 37 21h280q19 0 25.5 -10t-2.5 -27l-387 -664l407 -696q9 -17 3 -27t-25 -10h-283q-28 0 -39 20l-239 414l-240 -414q-11 -20 -39 -20h-282z" />
    <glyph glyph-name="uni0426" unicode="&#x426;" horiz-adv-x="1478" 
d="M166 0q-14 0 -22.5 9t-8.5 22v1372q0 13 8.5 22t22.5 9h262q14 0 22.5 -9t8.5 -22v-1116h454v1116q0 13 8.5 22t22.5 9h262q14 0 23.5 -9t9.5 -22v-1116h172q13 0 23 -9.5t10 -23.5v-365q0 -13 -9.5 -21.5t-23.5 -8.5h-262q-14 0 -22.5 8.5t-8.5 21.5v111h-952z" />
    <glyph glyph-name="uni0427" unicode="&#x427;" horiz-adv-x="1316" 
d="M889 0q-13 0 -22 9t-9 22v542q-148 -145 -348 -145q-183 0 -299.5 111t-116.5 297v567q0 31 31 31h262q13 0 22 -9t9 -22v-449q0 -103 63.5 -156t157.5 -53q93 0 156 53t63 156v449q0 13 9 22t22 9h264q13 0 22 -9t9 -22v-1372q0 -13 -9 -22t-22 -9h-264z" />
    <glyph glyph-name="uni0428" unicode="&#x428;" horiz-adv-x="1859" 
d="M166 0q-14 0 -22.5 9t-8.5 22v1372q0 13 8.5 22t22.5 9h262q14 0 22.5 -9t8.5 -22v-1116h309v1116q0 13 9 22t22 9h262q13 0 22 -9t9 -22v-1116h309v1116q0 13 8.5 22t22.5 9h262q13 0 21.5 -8.5t8.5 -22.5v-1372q0 -14 -8.5 -22.5t-21.5 -8.5h-1528z" />
    </font>
</defs>
</svg>
